<svg width="78" height="78" viewBox="0 0 78 78" fill="none" xmlns="http://www.w3.org/2000/svg">
<path d="M70.4688 43.875H46.0938C43.4003 43.875 41.2188 46.0566 41.2188 48.75V53.625V57.5128C44.3266 58.6097 46.9103 60.7059 48.6288 63.375H55.8438L61.1941 69.7856C61.6694 70.3584 62.3641 70.6875 63.1075 70.6875C64.4847 70.6875 65.5938 69.5784 65.5938 68.2012V63.375H70.4688C73.1622 63.375 75.3438 61.1934 75.3438 58.5V53.625V48.75C75.3438 46.0566 73.1622 43.875 70.4688 43.875Z" fill="#F0D0B4"/>
<path d="M75.3438 14.625V26.8125C75.3438 29.5059 73.1622 31.6875 70.4688 31.6875H60.7188L55.3684 38.0981C54.8931 38.6709 54.1984 39 53.455 39C52.0778 39 50.9688 37.8909 50.9688 36.5137V31.6875H41.2188C41.2188 28.9453 40.3169 26.4225 38.7812 24.3872V14.625C38.7812 11.9316 40.9628 9.75 43.6562 9.75H51.0906C51.6512 12.5287 54.1131 14.625 57.0625 14.625C51.0053 14.625 46.0938 19.5366 46.0938 25.5938V26.8125H68.0312V25.5938C68.0312 22.5712 66.8003 19.8169 64.8138 17.8425C62.8394 15.8559 60.085 14.625 57.0625 14.625C60.0119 14.625 62.4738 12.5287 63.0344 9.75H70.4688C73.1622 9.75 75.3438 11.9316 75.3438 14.625Z" fill="#E6E9ED"/>
<path d="M68.0312 25.5938V26.8125H46.0938V25.5938C46.0938 19.5366 51.0053 14.625 57.0625 14.625C60.085 14.625 62.8394 15.8559 64.8138 17.8425C66.8003 19.8169 68.0312 22.5712 68.0312 25.5938Z" fill="#FF826E"/>
<path d="M63.1562 8.53125C63.1562 8.94562 63.1197 9.36 63.0344 9.75C62.4738 12.5288 60.0119 14.625 57.0625 14.625C54.1131 14.625 51.6512 12.5288 51.0906 9.75C51.0053 9.36 50.9688 8.94562 50.9688 8.53125C50.9688 5.1675 53.6988 2.4375 57.0625 2.4375C60.4263 2.4375 63.1562 5.1675 63.1562 8.53125Z" fill="#F0D0B4"/>
<path d="M41.2188 57.5128C44.3266 58.6097 46.9103 60.7059 48.6288 63.375C50.1156 65.6662 50.9688 68.4084 50.9688 71.2969V75.5625H41.2188H27.8125L31.3225 66.0319L35.0275 55.965L39.6953 57.0619C40.2194 57.1837 40.7191 57.33 41.2188 57.5128Z" fill="#B4DD7F"/>
<path d="M38.7812 24.3872C40.3169 26.4225 41.2188 28.9453 41.2188 31.6875C41.2188 35.8678 39.3053 39.585 36.3194 42.0469C36.3316 41.8519 36.3438 41.6447 36.3438 41.4375V40.2188C36.3438 37.5253 34.1622 35.3438 31.4688 35.3438H24.1562L21.2069 33.3816C20.7437 33.0647 20.2075 32.9062 19.6469 32.9062C18.0991 32.9062 16.8438 34.1616 16.8438 35.7094V41.4375C16.8438 41.6447 16.8559 41.8519 16.8681 42.0469C15.3691 40.8159 14.1503 39.2803 13.2972 37.5131C12.4441 35.7581 11.9688 33.7837 11.9688 31.6875C11.9688 28.1409 14.4672 25.0941 17.9406 24.3994L18.0625 24.375C20.3659 21.3038 23.9734 19.5 27.8125 19.5H29.0312C32.395 19.5 35.4419 20.865 37.6478 23.0709C38.0622 23.4853 38.44 23.9241 38.7812 24.3872Z" fill="#656D78"/>
<path d="M36.3194 42.0469C36.0878 45.8737 33.6381 49.1034 30.25 50.4806C29.1166 50.9316 27.8856 51.1875 26.5938 51.1875C25.3019 51.1875 24.0709 50.9316 22.9375 50.4806C21.7188 49.9809 20.6097 49.2497 19.6956 48.3356C18.0747 46.7025 17.0144 44.4966 16.8681 42.0469C16.8559 41.8519 16.8438 41.6447 16.8438 41.4375V35.7094C16.8438 34.1616 18.0991 32.9062 19.6469 32.9062C20.2075 32.9062 20.7437 33.0647 21.2069 33.3816L24.1562 35.3438H31.4688C34.1622 35.3438 36.3438 37.5253 36.3438 40.2188V41.4375C36.3438 41.6447 36.3316 41.8519 36.3194 42.0469Z" fill="#F0D0B4"/>
<path d="M35.0275 55.965L31.3225 66.0319L26.5938 59.7188L30.25 54.8438L35.0275 55.965Z" fill="#FCD770"/>
<path d="M26.594 59.7188L31.3227 66.0319L27.8127 75.5625H25.3752L21.8652 66.0319L26.594 59.7188Z" fill="#FFEAA7"/>
<path d="M30.25 50.4806V54.8437L26.5938 59.7188L22.9375 54.8437V50.4806C24.0709 50.9316 25.3019 51.1875 26.5938 51.1875C27.8856 51.1875 29.1166 50.9316 30.25 50.4806Z" fill="#F0D0B4"/>
<path d="M22.9377 54.8438L26.5939 59.7188L21.8652 66.0319L18.1602 55.965L22.9377 54.8438Z" fill="#FCD770"/>
<path d="M11.9688 75.5625H2.21875V71.2969C2.21875 64.5206 6.88656 58.6219 13.4922 57.0619L18.16 55.965L21.865 66.0319L25.375 75.5625H11.9688Z" fill="#B4DD7F"/>
<path d="M25.375 64.5938H27.8125V67.0312H25.375V64.5938Z" fill="black"/>
<path d="M25.375 69.4688H27.8125V71.9062H25.375V69.4688Z" fill="black"/>
<path d="M53.4587 40.2188C54.5628 40.2188 55.6024 39.7325 56.3081 38.8842L61.2903 32.9062H70.4688C73.8288 32.9062 76.5625 30.1726 76.5625 26.8125V14.625C76.5625 11.2649 73.8288 8.53125 70.4688 8.53125H64.375C64.375 4.49841 61.0953 1.21875 57.0625 1.21875C53.0297 1.21875 49.75 4.49841 49.75 8.53125H43.6562C40.2962 8.53125 37.5625 11.2649 37.5625 14.625V21.3537C35.2432 19.4354 32.2695 18.2812 29.0312 18.2812H27.8125C23.7711 18.2812 19.9028 20.1398 17.3727 23.2769C13.5153 24.208 10.75 27.6912 10.75 31.6875C10.75 35.8946 12.5538 39.8385 15.6908 42.6185C16.0991 46.4088 18.4476 49.6165 21.7188 51.2484V53.8785L13.2143 55.8797C6.02247 57.5713 1 63.9137 1 71.3018V76.7812H52.1875V71.3018C52.1875 68.9142 51.6561 66.64 50.7043 64.5938H55.2722L60.2544 70.5705C60.9601 71.42 61.9997 71.9062 63.1038 71.9062C65.1489 71.9062 66.8125 70.2427 66.8125 68.1976V64.5938H70.4688C73.8288 64.5938 76.5625 61.8601 76.5625 58.5V48.75C76.5625 45.3899 73.8288 42.6562 70.4688 42.6562H46.0938C42.7337 42.6562 40 45.3899 40 48.75V55.887C39.9902 55.8846 39.9817 55.8809 39.9732 55.8797L31.4688 53.8785V51.2484C34.7399 49.6165 37.0884 46.4076 37.4967 42.6185C40.3278 40.1091 42.0597 36.6515 42.3705 32.9062H49.75V36.5101C49.75 38.5552 51.4136 40.2188 53.4587 40.2188ZM57.0625 3.65625C59.7511 3.65625 61.9375 5.84269 61.9375 8.53125C61.9375 11.2198 59.7511 13.4062 57.0625 13.4062C54.3739 13.4062 52.1875 11.2198 52.1875 8.53125C52.1875 5.84269 54.3739 3.65625 57.0625 3.65625ZM22.4415 56.2124L25.0703 59.7188L22.2318 63.503L19.7773 56.8388L22.4415 56.2124ZM26.5938 61.7492L29.9526 66.2269L26.963 74.3438H26.2257L23.2361 66.2269L26.5938 61.7492ZM3.4375 71.3018C3.4375 65.0496 7.68728 59.6834 13.7737 58.2514L17.3849 57.4019L23.6273 74.3438H13.1875V67.0312H10.75V74.3438H3.4375V71.3018ZM42.4375 48.75C42.4375 46.7342 44.0779 45.0938 46.0938 45.0938H70.4688C72.4846 45.0938 74.125 46.7342 74.125 48.75V58.5C74.125 60.5158 72.4846 62.1562 70.4688 62.1562H64.375V68.1976C64.375 68.8984 63.8046 69.4688 63.1038 69.4688C62.7248 69.4688 62.3689 69.3018 62.1276 69.0117L56.4153 62.1562H49.2869C47.594 59.7578 45.2431 57.8394 42.4375 56.678V48.75ZM49.75 71.3018V74.3438H42.4375V67.0312H40V74.3438H29.5602L35.8014 57.4019L39.4126 58.2514C45.5002 59.6846 49.75 65.0508 49.75 71.3018ZM33.4114 56.8401L30.9569 63.5042L28.1172 59.7188L30.746 56.2124L33.4114 56.8401ZM29.0312 54.4379L26.5938 57.6883L24.1562 54.4379V52.1235C24.9411 52.3027 25.7552 52.4062 26.5938 52.4062C27.4323 52.4062 28.2464 52.3027 29.0312 52.1235V54.4379ZM35.125 41.4375C35.125 46.1419 31.2969 49.9688 26.5938 49.9688C21.8906 49.9688 18.0625 46.1419 18.0625 41.4375V35.713C18.0625 34.8368 18.7743 34.125 19.6505 34.125C19.965 34.125 20.2697 34.2176 20.5317 34.3919L23.787 36.5625H31.4688C33.4846 36.5625 35.125 38.2029 35.125 40.2188V41.4375ZM37.454 39.1414C36.9409 36.2956 34.4596 34.125 31.4688 34.125H24.5255L21.8833 32.3639C21.2203 31.9215 20.4476 31.6875 19.6505 31.6875C17.43 31.6875 15.625 33.4925 15.625 35.713V38.9842C14.0601 36.8977 13.1875 34.3553 13.1875 31.6875C13.1875 28.7357 15.2886 26.1727 18.1844 25.5938L18.7596 25.478L19.0375 25.1063C21.0984 22.3592 24.3793 20.7188 27.8125 20.7188H29.0312C35.0799 20.7188 40 25.6401 40 31.6875C40 34.4212 39.092 37.0268 37.454 39.1414ZM42.3753 30.4688C42.1584 28.0776 41.3102 25.868 40 24.0033V14.625C40 12.6092 41.6404 10.9688 43.6562 10.9688H50.1766C50.6446 12.2874 51.477 13.4306 52.558 14.2801C48.0633 16.0753 44.875 20.4653 44.875 25.5938V28.0312H69.25V25.5938C69.25 20.4653 66.0618 16.0753 61.567 14.2801C62.648 13.4306 63.4804 12.2874 63.9484 10.9688H70.4688C72.4846 10.9688 74.125 12.6092 74.125 14.625V26.8125C74.125 28.8283 72.4846 30.4688 70.4688 30.4688H60.1472L54.4337 37.3242C54.1936 37.6143 53.8377 37.7812 53.4587 37.7812C52.7579 37.7812 52.1875 37.2109 52.1875 36.5101V30.4688H42.3753ZM57.0625 15.8438C62.4384 15.8438 66.8125 20.2178 66.8125 25.5938H47.3125C47.3125 20.2178 51.6866 15.8438 57.0625 15.8438Z" fill="black"/>
<path d="M44.875 47.5312H71.6875V49.9688H44.875V47.5312Z" fill="black"/>
<path d="M44.875 52.4062H71.6875V54.8438H44.875V52.4062Z" fill="black"/>
<path d="M49.75 57.2812H66.8125V59.7188H49.75V57.2812Z" fill="black"/>
<path d="M69.25 57.2812H71.6875V59.7188H69.25V57.2812Z" fill="black"/>
</svg>
