<svg width="50" height="50" viewBox="0 0 50 50" fill="none" xmlns="http://www.w3.org/2000/svg">
<circle cx="25" cy="25" r="25" fill="#EFF8FF"/>
<mask id="mask0" mask-type="alpha" maskUnits="userSpaceOnUse" x="0" y="0" width="50" height="50">
<circle cx="25" cy="25" r="25" fill="#EFF8FF"/>
</mask>
<g mask="url(#mask0)">
<path d="M25.0914 31.48C27.5485 31.48 29.6762 30.5899 31.4147 28.8336C33.1531 27.0777 34.0344 24.9291 34.0344 22.447C34.0344 19.9657 33.1531 17.8169 31.4144 16.0604C29.6757 14.3047 27.5483 13.4146 25.0914 13.4146C22.634 13.4146 20.5069 14.3047 18.7684 16.0606C17.03 17.8166 16.1484 19.9654 16.1484 22.447C16.1484 24.9291 17.03 27.0779 18.7687 28.8339C20.5075 30.5896 22.6349 31.48 25.0914 31.48Z" fill="#2C86D1"/>
<path d="M46.2379 45.3775C46.1689 44.3706 46.0291 43.2723 45.8234 42.1124C45.6158 40.9439 45.3484 39.8393 45.0283 38.8296C44.6977 37.7861 44.2481 36.7556 43.6923 35.768C43.1154 34.743 42.4378 33.8504 41.6775 33.116C40.8824 32.3476 39.9089 31.7298 38.7832 31.2792C37.6615 30.831 36.4183 30.6039 35.0885 30.6039C34.5662 30.6039 34.0612 30.8203 33.0858 31.4618C32.4854 31.8572 31.7833 32.3145 30.9995 32.8203C30.3293 33.2516 29.4214 33.6557 28.3001 34.0215C27.206 34.3791 26.0951 34.5605 24.9987 34.5605C23.9023 34.5605 22.7919 34.3791 21.6966 34.0215C20.5764 33.6561 19.6685 33.252 18.9991 32.8207C18.2228 32.3196 17.5202 31.8623 16.9109 31.4614C15.9367 30.82 15.4312 30.6035 14.909 30.6035C13.5788 30.6035 12.336 30.831 11.2146 31.2796C10.0897 31.7295 9.11589 32.3472 8.32003 33.1164C7.56007 33.8512 6.88209 34.7434 6.30598 35.768C5.75056 36.7556 5.30091 37.7857 4.96992 38.83C4.65025 39.8397 4.38288 40.9439 4.17523 42.1124C3.96953 43.2707 3.8298 44.3694 3.76071 45.3787C3.6928 46.3674 3.65845 47.3936 3.65845 48.4301C3.65845 51.1274 4.50739 53.3111 6.18147 54.9215C7.83486 56.5107 10.0226 57.3169 12.683 57.3169H37.3168C39.9772 57.3169 42.1642 56.5111 43.818 54.9215C45.4924 53.3123 46.3414 51.1282 46.3414 48.4297C46.341 47.3885 46.3062 46.3615 46.2379 45.3775Z" fill="#145388"/>
</g>
</svg>
