<svg width="2645" height="1407" viewBox="0 0 2645 1407" fill="none" xmlns="http://www.w3.org/2000/svg">
<path d="M305.65 1402.81C305.65 1402.81 -55.85 1018.63 197.63 660.247C292.22 526.517 533.7 451.427 755.68 512.347C886.8 548.327 1085.65 543.017 1279.95 225.847C1544.92 -206.693 2644.85 -10.0131 2430.15 747.827C2339.71 1067.05 2676.79 1081.58 2509.82 1403.5L305.65 1402.81Z" fill="#FFF1E0"/>
<path d="M762.5 1166.2C761.1 1131.76 758.08 1101.79 754.47 1080.9C748.71 1047.59 743.52 1028.43 743.46 1028.23C742.7 1025.3 731.74 1013.45 707.37 1013.81C683 1014.18 685.31 1029.72 685.31 1029.72C685.31 1030.24 685.38 1030.73 685.48 1031.1C685.71 1031.9 708.09 1113.02 707.12 1217.75C707.11 1219.22 706.94 1221.76 707.05 1223.45C707.05 1223.46 763.53 1224.91 763.54 1223.45C765.51 1214.3 764.55 1188.94 762.5 1166.2Z" fill="#B7D3F3"/>
<path d="M769.599 1217.23C769.579 1218.69 768.809 1219.86 767.869 1219.86H767.849C766.909 1219.84 766.159 1218.67 766.149 1217.23H717.749C717.729 1218.69 716.959 1219.86 716.019 1219.86H715.999C715.039 1219.84 714.279 1218.63 714.299 1217.15C714.579 1187.17 712.869 1159.17 710.279 1134.47C703.849 1072.85 691.949 1031.67 691.779 1031.1C691.669 1030.73 691.609 1030.24 691.609 1029.72C691.609 1029.72 689.3 1014.18 713.67 1013.81C738.05 1013.44 749.009 1025.3 749.769 1028.23C749.809 1028.38 752.749 1039.23 756.649 1058.74C757.939 1065.2 759.339 1072.61 760.769 1080.9C764.379 1101.8 767.399 1131.76 768.799 1166.2C770.849 1188.94 771.569 1208.08 769.599 1217.23Z" fill="#D2E3FC"/>
<path d="M710.719 1219.86H900.479C900.479 1219.86 896.059 1201.98 786.169 1204.64C708.399 1206.53 710.719 1219.86 710.719 1219.86Z" fill="#C5DCF8"/>
<path d="M695.279 1406.65C717.279 1295.27 711.619 1226.92 711.599 1226.06C711.539 1224.35 714.709 1222.79 716.409 1222.73C718.129 1222.7 725.729 1222.22 726.599 1223.69C727.749 1225.61 732.179 1309.82 699.389 1406.65H695.279V1406.65Z" fill="#B7D3F3"/>
<path d="M872.449 1406.65C850.449 1295.27 856.109 1226.92 856.129 1226.06C856.189 1224.35 853.029 1222.79 851.319 1222.73C849.599 1222.7 841.999 1222.22 841.129 1223.69C839.979 1225.61 835.549 1309.82 868.339 1406.65H872.449V1406.65Z" fill="#B7D3F3"/>
<path d="M907.569 1406.65C885.569 1295.27 891.229 1226.92 891.249 1226.06C891.309 1224.35 888.139 1222.79 886.439 1222.73C884.719 1222.7 877.119 1222.22 876.249 1223.69C875.099 1225.61 870.669 1309.82 903.459 1406.65H907.569V1406.65Z" fill="#B7D3F3"/>
<path d="M730.63 1406.65C752.63 1295.27 746.97 1226.92 746.95 1226.06C746.89 1224.35 750.06 1222.79 751.76 1222.73C753.48 1222.7 761.08 1222.22 761.95 1223.69C763.1 1225.61 767.53 1309.82 734.74 1406.65H730.63V1406.65Z" fill="#B7D3F3"/>
<path d="M900.589 1225.57H710.839C708.699 1225.57 706.949 1223.82 706.949 1221.68V1219.13C706.949 1216.99 708.699 1215.24 710.839 1215.24H900.599C902.739 1215.24 904.489 1216.99 904.489 1219.13V1221.68C904.479 1223.82 902.729 1225.57 900.589 1225.57Z" fill="#B7D3F3"/>
<path d="M893.93 1054.2L957.01 1040.54L960.72 1049.59C960.72 1049.59 891.12 1091 884.6 1088.98C878.08 1086.95 893.93 1054.2 893.93 1054.2Z" fill="#FFB27D"/>
<path d="M836.58 1339.48C835 1341.29 834.8 1343.31 835.58 1345.47C835.58 1345.48 835.59 1345.49 835.6 1345.5C837.05 1349.5 841.82 1353.96 847.37 1358.41C848.08 1358.98 848.71 1359.5 849.26 1359.99C849.4 1360.12 849.55 1360.24 849.68 1360.37C849.79 1360.47 849.9 1360.57 850.01 1360.66C855.18 1365.43 853.24 1366.52 862.53 1376.2C873.13 1387.23 880.43 1387.43 882.5 1386.42C884.26 1385.56 880.69 1379.71 876.73 1373.14C876.54 1372.82 876.35 1372.5 876.15 1372.18C875.62 1371.31 875.1 1370.42 874.58 1369.54C869.95 1361.63 871.14 1357.91 872.23 1346.14C873.12 1336.57 887.12 1292.68 887.12 1292.68L866.81 1289.18C866.81 1289.18 860.69 1324.13 853.95 1329.51C850.35 1332.38 846.31 1332.42 842.85 1334.54C842.61 1334.69 842.37 1334.84 842.13 1335C840.17 1336.31 838.17 1337.66 836.58 1339.48Z" fill="#EEA878"/>
<path d="M836.58 1339.48C835 1341.29 834.8 1343.31 835.58 1345.47C835.58 1345.48 835.59 1345.49 835.6 1345.5C837.37 1349.49 842.03 1353.93 847.39 1358.37C848.09 1358.95 848.71 1359.49 849.26 1359.99C849.4 1360.12 849.55 1360.24 849.68 1360.37C849.79 1360.47 849.9 1360.57 850.01 1360.66C855.18 1365.43 853.24 1366.52 862.53 1376.2C873.13 1387.23 880.43 1387.43 882.5 1386.42C884.26 1385.56 880.69 1379.71 876.73 1373.14C874.67 1372.38 865.08 1368.49 857.84 1359.22C851.46 1351.08 847.2 1340.61 842.85 1334.55C842.61 1334.7 842.37 1334.85 842.13 1335.01C840.17 1336.31 838.17 1337.66 836.58 1339.48Z" fill="#1C468A"/>
<path d="M1000.37 1326.79C1001.62 1333.06 1010.56 1332.01 1020.55 1329.57C1030.54 1327.13 1028.16 1330.03 1042.37 1328.46C1056.58 1326.89 1060.89 1321.59 1061.32 1319.47C1061.71 1317.59 1054.69 1316.93 1047.15 1316.07C1046.2 1315.96 1045.25 1315.85 1044.3 1315.73C1035.8 1314.66 1029.57 1309.18 1021.84 1304.67C1014.52 1300.4 1003.6 1283.01 1003.6 1283.01L984.109 1284.55C984.109 1284.55 994.339 1300.08 998.289 1306.84C1000.62 1310.81 1000.49 1316.06 1000.2 1320.12C1000.07 1322.33 999.929 1324.58 1000.37 1326.79Z" fill="#EEA878"/>
<path d="M1020.55 1329.57C1030.54 1327.13 1028.16 1330.03 1042.37 1328.46C1056.58 1326.89 1060.89 1321.59 1061.32 1319.47C1061.71 1317.59 1054.69 1316.93 1047.15 1316.07L1047.08 1316.21C1047.08 1316.21 1038.56 1322.25 1026.73 1322.54C1017.09 1322.77 1006.88 1320.01 1000.22 1320.12C1000.07 1322.32 999.93 1324.58 1000.37 1326.79C1001.62 1333.06 1010.56 1332.01 1020.55 1329.57Z" fill="#1C468A"/>
<path d="M957.01 1040.54C957.01 1040.54 961.65 1029.16 966.76 1028.7C971.87 1028.24 988.12 1025.68 989.28 1028C990.44 1030.32 989.28 1038.68 985.8 1041.7C982.32 1044.72 960.73 1049.59 960.73 1049.59L957.01 1040.54Z" fill="#FFB27D"/>
<path d="M925.679 1202.17L883.679 1315.21C883.679 1315.21 877.229 1315.84 871.039 1314.05C865.349 1312.41 858.819 1308.1 858.819 1308.1C858.819 1308.1 869.239 1199.56 888.339 1176.99C907.449 1154.41 925.679 1202.17 925.679 1202.17Z" fill="#163560"/>
<path d="M759.549 1156.44C759.549 1156.44 880.239 1115.63 907.159 1124.31C934.079 1132.99 1014.9 1293.79 1014.9 1293.79C1014.9 1293.79 1013.08 1296.22 1008.1 1298.08C1003.47 1299.82 992.259 1299.71 992.259 1299.71C992.259 1299.71 919.319 1237.19 910.639 1218.96C901.959 1200.73 898.479 1183.36 889.799 1185.1C881.119 1186.84 777.789 1227.65 754.349 1203.33C730.909 1179.02 737.039 1147.43 737.039 1147.43L759.549 1156.44Z" fill="#1C468A"/>
<path d="M828.359 868.667C823.139 865.707 816.889 865.377 812.519 865.637C813.649 864.477 815.859 864.047 815.859 864.047C813.149 863.647 807.099 866.337 807.099 866.337C769.379 851.807 763.449 907.347 764.239 920.247C765.029 933.147 765.119 947.997 746.289 959.577C709.239 982.347 740.499 1022.1 740.499 1022.1C740.789 1022.27 757.739 1051.01 757.739 1051.01C756.789 1040.58 804.899 985.557 829.999 969.077C836.109 960.077 838.279 944.187 838.439 942.937C837.389 955.537 835.229 962.607 833.299 966.587C854.559 947.027 842.189 876.527 828.359 868.667Z" fill="#B5453C"/>
<path d="M828.509 969.897C828.639 969.957 816.389 976.307 807.179 973.797C798.519 971.437 792.859 960.197 792.969 960.177C796.639 959.447 797.699 954.407 797.619 932.737L799.279 933.067L827.169 938.587C827.169 938.587 826.539 947.367 826.519 955.627C826.499 962.567 826.919 969.157 828.509 969.897Z" fill="#EEA878"/>
<path d="M827.169 938.577C827.169 938.577 826.539 947.357 826.519 955.617C810.909 955.177 802.659 940.937 799.279 933.047L827.169 938.577Z" fill="#D78F5E"/>
<path d="M796.399 930.027C796.399 930.027 788.219 917.107 786.259 906.057C784.859 898.167 788.879 868.927 818.259 873.137C818.259 873.137 826.789 873.977 834.819 879.397C841.199 883.707 850.409 893.007 840.109 918.527L837.439 927.147L796.399 930.027Z" fill="#B5453C"/>
<path d="M832.38 946.407C832.38 946.407 795.46 947.017 795.43 924.017C795.4 901.017 790.62 885.607 814.2 884.247C837.77 882.887 842.36 891.657 844.24 899.327C846.12 907.007 841.99 945.657 832.38 946.407Z" fill="#EEA878"/>
<path d="M831.02 883.688C831.02 883.688 820.91 910.668 805.39 914.658C789.87 918.648 783.14 914.488 783.14 914.488C783.14 914.488 795.04 905.038 797.51 888.528C797.52 888.538 823.39 870.838 831.02 883.688Z" fill="#B5453C"/>
<path d="M828.51 885.877C828.51 885.877 836.06 891.897 837.9 897.757C839.74 903.617 840.57 915.667 844.08 915.257C844.08 915.257 851.7 896.917 843.14 886.537C834.07 875.537 828.51 885.877 828.51 885.877Z" fill="#B5453C"/>
<path d="M746.289 1069.23C742.649 1053.96 755.039 1024.33 767.969 999.787C779.699 977.547 791.879 959.517 792.979 960.157C823.929 978.527 826.719 963.257 826.719 963.257C826.729 963.257 854.829 966.987 862.789 980.687C872.659 997.687 883.329 1045.19 893.929 1054.19C892.299 1059.17 892.999 1061.82 894.729 1067.99C895.099 1069.31 895.509 1070.57 895.959 1071.76C897.559 1076.1 899.549 1079.62 901.279 1082.68C895.889 1085.95 885.489 1092.18 877.829 1087.7C866.149 1080.86 857.029 1060.05 851.899 1051.76C851.879 1051.73 851.859 1051.7 851.839 1051.67C840.689 1114.78 855.849 1129.16 848.179 1135.81C840.079 1142.84 828.499 1132.46 803.029 1143.5C786.319 1150.75 763.139 1161.23 747.529 1163.05C739.339 1164.01 733.239 1162.59 731.249 1157.06C725.449 1141.01 753.239 1098.35 746.289 1069.23Z" fill="#1C468A"/>
<path d="M824.18 932.467C824.18 932.467 824.87 935.387 832.14 934.937C832.14 934.937 838.24 934.557 838.06 931.347C838.05 931.347 832.13 929.067 824.18 932.467Z" fill="white"/>
<path d="M731.239 1157.08C733.229 1162.61 739.339 1164.03 747.519 1163.07C758.319 1158.36 804.989 1140.28 804.469 1128.04C803.689 1109.9 795.499 1109.32 801.289 1086.94C805.939 1068.97 762.819 1035.54 755.939 1028.28C743.009 1052.81 742.649 1053.97 746.289 1069.24C753.239 1098.35 725.449 1141.01 731.239 1157.08Z" fill="#163560"/>
<path d="M725.96 1091.66C734.24 1080.04 742.86 1073.89 748.53 1070.8C747.22 1067.44 783.34 1023.16 783.34 1016.3C783.34 1009.35 792.98 960.157 792.98 960.157C792.98 960.157 762.89 962.017 752.47 976.547C739.44 994.727 712.37 1064.66 725.96 1091.66Z" fill="#1C468A"/>
<path d="M748.53 1070.81L808.66 1086.5L803.02 1096.63C803.02 1096.63 729.84 1096.12 725.96 1091.66C722.08 1087.21 748.53 1070.81 748.53 1070.81Z" fill="#EEA878"/>
<path d="M851.89 1051.78C857.02 1060.07 866.13 1080.88 877.82 1087.72C885.48 1092.19 895.88 1085.97 901.27 1082.7C899.55 1079.64 897.55 1076.12 895.95 1071.78C891.65 1072.76 886.41 1074.02 883.02 1075.04C876.44 1077.02 851.89 1051.78 851.89 1051.78Z" fill="#163560"/>
<path d="M808.66 1086.5C808.66 1086.5 827.54 1081.16 832.04 1082.41C836.54 1083.66 851.95 1093.86 849.78 1096.64C847.61 1099.41 834.04 1094.98 827.79 1095.82C821.54 1096.66 816.71 1099.74 812.21 1099.07C807.71 1098.4 803.01 1096.64 803.01 1096.64L808.66 1086.5Z" fill="#EEA878"/>
<path d="M808.659 1086.5C808.659 1086.5 817.899 1081.75 820.529 1079.05C820.859 1078.71 821.419 1078.78 821.679 1079.18C822.379 1080.29 823.039 1082.44 819.799 1084.57C815.139 1087.64 808.659 1086.5 808.659 1086.5Z" fill="#EEA878"/>
<path d="M895.93 1113.07H807.83C807.83 1109.19 810.97 1106.05 814.85 1106.05H895.93V1113.07Z" fill="#ED7D2B"/>
<path d="M895.68 1017.11H1031.89L999.22 1113.07H862.12L895.68 1017.11Z" fill="#ED7D2B"/>
<path d="M1033.9 1017.12L1001.22 1113.06H864.13L897.69 1017.12H1033.9Z" fill="#F99746"/>
<path d="M960.46 1064.2C959.61 1067.87 955.96 1070.84 952.29 1070.84C948.62 1070.84 946.34 1067.87 947.18 1064.2C948.03 1060.53 951.68 1057.56 955.35 1057.56C959.02 1057.56 961.31 1060.54 960.46 1064.2Z" fill="#F9DDBF"/>
<path d="M1033.9 1017.12L1001.22 1113.07H910.43C970.57 1092.54 986.58 1029.95 989.27 1017.12H1033.9Z" fill="#ED893E"/>
<path d="M638.46 1406.65C640.18 1406.65 641.66 1405.44 641.95 1403.79L659.06 1306.82L683.67 1167.36L690.55 1128.36L673.02 1127.86L669.98 1150.5L648.63 1309.59L635.97 1403.89C635.77 1405.35 636.94 1406.65 638.46 1406.65Z" fill="#95C0F4"/>
<path d="M669.979 1150.5C681.339 1155.51 683.669 1167.36 683.669 1167.36L690.549 1128.36L673.019 1127.86L669.979 1150.5Z" fill="#78ACEA"/>
<path d="M1074.4 1406.65C1072.68 1406.65 1071.2 1405.44 1070.91 1403.79L1053.8 1306.82L1029.19 1167.36L1022.31 1128.36L1039.84 1127.86L1042.88 1150.5L1064.23 1309.59L1076.89 1403.89C1077.09 1405.35 1075.92 1406.65 1074.4 1406.65Z" fill="#95C0F4"/>
<path d="M1042.88 1150.5C1031.53 1155.51 1029.19 1167.36 1029.19 1167.36L1022.31 1128.36L1039.84 1127.86L1042.88 1150.5Z" fill="#78ACEA"/>
<path d="M626.759 1143.67H1075.59C1081.47 1143.67 1086.28 1138.86 1086.28 1132.98V1123.74C1086.28 1117.86 1081.47 1113.05 1075.59 1113.05H626.759C620.879 1113.05 616.069 1117.86 616.069 1123.74V1132.98C616.069 1138.86 620.879 1143.67 626.759 1143.67Z" fill="#78ACEA"/>
<path d="M2641.85 1405.72H3C1.35 1405.72 0 1404.37 0 1402.72V1401.7C0 1400.05 1.35 1398.7 3 1398.7H2641.85C2643.5 1398.7 2644.85 1400.05 2644.85 1401.7V1402.72C2644.85 1404.38 2643.5 1405.72 2641.85 1405.72Z" fill="#2E3552"/>
<path d="M474.869 1374.46L471.029 1346.79L487.159 1333.31L492.249 1369.94L474.869 1374.46Z" fill="#D78F5E"/>
<path d="M528.45 1399.17H462.67C462.67 1399.17 461.09 1389.15 464.53 1381.54C467.82 1374.24 472.95 1369.74 473.41 1364.15C477.59 1368.45 482.73 1371.22 492.24 1369.94C493.41 1371.83 499.76 1381.94 503.65 1384.73C507.96 1387.82 527.13 1386.72 528.45 1399.17Z" fill="#233862"/>
<path d="M515.23 1000.9C510.93 1035.5 507.41 1068.13 504.55 1098.53C489.24 1260.54 492.25 1359.56 492.25 1359.56C492.25 1359.56 491.14 1362.49 481.65 1362.53C476.29 1362.56 471.03 1361.39 471.03 1361.39C471.03 1361.39 436.76 1255.6 439.4 1195.4C439.72 1188.16 440.57 1181.58 442.07 1175.91C450.29 1145.11 411.64 1027.32 453.66 983.446C495.67 939.586 517.21 985.016 515.23 1000.9Z" fill="#FFB459"/>
<path d="M515.23 1000.9C510.93 1035.5 507.41 1068.13 504.55 1098.53L439.4 1195.4C439.72 1188.16 440.57 1181.58 442.07 1175.91C450.29 1145.11 411.64 1027.32 453.66 983.446C495.67 939.586 517.21 985.016 515.23 1000.9Z" fill="#F99746"/>
<path d="M566.999 670.826C566.999 670.826 565.409 662.916 563.629 656.886C562.839 654.216 568.349 636.686 572.159 634.526C575.969 632.366 585.899 644.176 583.089 653.246C581.649 657.906 579.279 673.056 579.279 673.056L566.999 670.826Z" fill="#D78F5E"/>
<path d="M567 670.826C567 670.826 564.93 666.246 563.06 665.496C561.19 664.756 559.18 657.256 557.81 654.286C557.81 654.286 559.14 652.346 561.46 654.846C562.88 656.376 566.03 660.846 566.03 660.846L567 670.826Z" fill="#D78F5E"/>
<path d="M295.459 697.417C295.059 698.247 294.499 699.737 293.999 701.137C293.989 700.757 293.989 700.377 293.979 700.007C293.949 697.227 283.559 682.067 279.279 681.117C274.999 680.167 268.969 694.367 274.309 702.217C277.049 706.247 283.749 720.047 283.749 720.047L294.829 714.327C294.829 714.327 295.469 709.337 297.039 708.077C298.609 706.817 298.329 699.067 298.779 695.817C298.789 695.817 296.949 694.347 295.459 697.417Z" fill="#D78F5E"/>
<path d="M364.559 1366.16C363.629 1357.29 363.399 1333.96 363.399 1333.96C363.399 1333.96 387.169 1326.36 386.299 1331.58C381.999 1357.23 383.169 1369.93 383.169 1369.93L373.559 1375.67L364.559 1366.16Z" fill="#D78F5E"/>
<path d="M495.38 999.247C495.38 999.247 403.55 1250.98 385.47 1360.17C385.47 1360.17 381.28 1363.05 373.47 1362.09C364.61 1361.01 362.18 1354.85 362.18 1354.85C362.18 1354.85 345.59 1223.98 378.56 1178.54C401.21 1147.33 368.79 1010.23 421.55 999.237C474.32 988.257 495.38 999.247 495.38 999.247Z" fill="#FFB459"/>
<path d="M479.069 757.096C479.069 757.086 479.069 757.086 479.069 757.096C479.049 756.976 479.029 756.866 478.989 756.766C478.449 754.546 477.869 752.366 477.239 750.206C477.239 750.196 477.239 750.196 477.239 750.196C475.319 743.576 473.029 737.276 470.559 731.706C469.139 728.516 467.669 725.556 466.159 722.926C465.929 722.516 465.709 722.136 465.489 721.756L465.479 721.746C461.929 715.786 458.279 711.656 454.989 710.386C448.989 708.066 442.309 708.716 437.709 709.666C438.719 708.256 441.009 707.456 441.009 707.456C438.069 707.456 432.069 711.256 432.069 711.256C389.769 701.796 392.249 761.626 395.129 775.186C397.999 788.746 384.379 795.336 365.179 809.216C328.529 835.696 329.139 863.756 329.139 863.756C329.469 863.896 329.829 864.056 330.209 864.246C331.679 860.616 334.809 853.746 338.089 852.286C337.999 852.606 335.329 861.516 334.569 866.496C340.149 869.576 347.879 874.336 356.269 879.716C356.269 879.716 356.269 879.716 356.279 879.726C367.509 886.906 379.889 895.176 389.819 901.886C389.349 899.156 388.879 895.256 389.569 893.056L392.729 902.856L393.139 904.136C399.479 908.426 404.479 911.866 407.009 913.626C407.269 913.806 407.499 913.966 407.709 914.106C408.449 914.616 408.849 914.896 408.849 914.896C408.009 911.436 411.699 902.406 417.909 891.026C418.339 890.236 418.789 889.426 419.249 888.606C421.249 885.006 423.489 881.216 425.899 877.306C426.769 875.896 427.639 874.476 428.549 873.046C428.549 873.036 428.559 873.036 428.559 873.036C429.289 871.876 430.029 870.726 430.789 869.556L430.799 869.546C432.599 866.766 434.459 863.966 436.359 861.166C441.279 853.906 446.479 846.696 451.629 840.086C459.099 830.456 466.429 822.086 472.569 816.616C472.769 816.206 472.959 815.776 473.129 815.356C474.089 813.126 474.829 810.646 475.399 808.126C475.579 807.366 475.739 806.606 475.879 805.846C477.409 797.796 477.439 789.806 477.419 787.906C477.909 795.686 477.719 801.556 477.199 805.986C477.079 806.956 476.949 807.856 476.809 808.696V808.706C476.479 810.596 476.109 812.166 475.699 813.466C476.699 812.216 477.589 810.856 478.369 809.356C478.879 808.386 479.349 807.356 479.759 806.286C484.689 793.626 483.359 774.776 479.069 757.096Z" fill="#163560"/>
<path d="M471.119 817.716C471.259 817.756 459.279 826.426 449.109 825.216C439.549 824.076 431.769 813.056 431.899 813.016C435.679 811.666 435.999 806.147 432.499 783.187L434.309 783.266L464.759 784.726C464.759 784.726 465.469 794.136 466.759 802.906C467.839 810.256 469.319 817.176 471.119 817.716Z" fill="#D78F5E"/>
<path d="M464.769 784.716C464.769 784.716 465.479 794.126 466.769 802.896C450.149 804.896 439.159 791.096 434.329 783.256L464.769 784.716Z" fill="#C98659"/>
<path d="M430.78 780.496C430.78 780.496 420.07 768.087 416.24 756.677C413.51 748.537 413.16 716.886 444.98 716.716C444.98 716.716 454.16 716.256 463.53 720.746C470.98 724.306 482.21 732.726 475.32 761.406L473.84 770.966L430.78 780.496Z" fill="#163560"/>
<path d="M519.069 994.417C519.069 994.417 479.449 1017.97 429.699 1005.86C429.109 1005.72 388.739 999.267 388.739 999.267C389.429 997.367 394.649 966.177 395.329 964.437C404.159 941.667 420.279 818.057 433.759 811.957C437.199 815.707 447.039 818.267 455.449 817.527C465.139 816.667 468.389 812.487 467.579 807.977C478.309 813.047 486.549 817.767 486.549 817.767C496.359 832.447 519.069 994.417 519.069 994.417Z" fill="white"/>
<path d="M471.53 792.197C471.53 792.197 432.47 798.667 428.81 774.277C425.16 749.887 417.65 734.296 442.44 729.136C467.23 723.976 473.48 732.556 476.68 740.396C479.87 748.246 481.59 789.887 471.53 792.197Z" fill="#D78F5E"/>
<path d="M460.18 725.886C460.18 725.886 453.72 756.096 437.89 762.776C422.07 769.456 414.27 766.106 414.27 766.106C414.27 766.106 425.4 754.206 425.42 736.316C425.42 736.316 450.07 713.476 460.18 725.886Z" fill="#163560"/>
<path d="M457.869 728.606C457.869 728.606 466.829 733.806 469.699 739.726C472.579 745.646 475.359 758.306 479.019 757.316C479.019 757.316 484.199 736.666 473.489 727.016C462.129 716.776 457.869 728.606 457.869 728.606Z" fill="#163560"/>
<path d="M579.54 671.386C577.95 670.826 575.61 669.506 572.56 669.226C569.84 668.986 566.42 669.866 566.42 669.866C566.42 669.866 555.4 738.376 554.58 742.006C553.76 745.636 507.31 797.966 494.79 797.756C483.48 797.566 470.08 806.296 467.6 807.976C467.6 807.976 493.94 863.666 495.25 874.126C496.68 885.506 510.31 1060.81 510.31 1060.81C510.31 1060.81 509.5 1068.97 524.74 1064.58C539.98 1060.2 543.79 1056.57 543.79 1056.57C543.79 1056.57 529.79 918.566 526.86 875.646C526.47 869.886 525.53 864.556 524.19 859.636C522.9 854.896 523.92 849.816 526.81 845.846C546.07 819.406 576.49 776.556 578.19 767.456C580.66 754.066 579.54 671.386 579.54 671.386Z" fill="#2B478B"/>
<path d="M419.359 1399.17H353.579C353.579 1399.17 351.999 1389.15 355.439 1381.54C358.729 1374.24 363.859 1369.74 364.319 1364.15C368.499 1368.45 373.639 1371.22 383.149 1369.94C384.319 1371.83 390.669 1381.94 394.559 1384.73C398.869 1387.82 418.039 1386.72 419.359 1399.17Z" fill="#233862"/>
<path d="M464.55 879.536C462.33 865.896 434.03 811.116 434.03 811.116C434.03 811.116 416.14 805.766 404.36 810.036C392.58 814.306 331.65 779.896 329.7 776.736C327.75 773.566 295.11 712.756 295.11 712.756C295.11 712.756 292.4 711.186 288.07 713.446C283.78 715.686 283.76 720.046 283.76 720.046C283.76 720.046 308.95 796.616 315.65 808.456C319.69 815.596 353.66 840.466 380 859.086C385.03 862.646 387.67 868.696 386.84 874.796C383.3 900.976 382.4 915.726 378.32 960.646C374.94 997.916 373.65 1070.07 373.65 1070.07C373.65 1070.07 403.12 1080.27 423.47 1081.62C443.81 1082.97 448.24 1061.53 448.24 1061.53C448.24 1061.53 466.83 893.566 464.55 879.536Z" fill="#2B478B"/>
<path d="M458.729 780.136C458.729 780.136 463.479 782.926 469.079 782.086C472.919 781.506 473.789 776.956 473.789 776.956C473.789 776.956 471.119 776.116 466.859 776.966C462.599 777.826 458.729 780.136 458.729 780.136Z" fill="white"/>
<path d="M1706.39 315.236C1706.39 315.236 1688.11 282.756 1706.39 276.146C1724.67 269.536 1732.94 275.636 1733.81 283.026C1734.68 290.426 1726.85 319.586 1726.85 319.586L1706.39 315.236Z" fill="#D78F5E"/>
<path d="M1721.03 522.977C1687.7 528.987 1657.06 531.766 1629.41 532.386C1603.16 532.976 1579.6 531.616 1558.98 529.216C1553.44 528.576 1548.13 527.866 1543.02 527.096C1489.06 518.916 1459.27 504.406 1459.27 504.406C1459.27 504.406 1508.57 401.207 1548.39 405.167C1595.11 409.827 1674.29 451.746 1682.16 439.996C1691.02 426.746 1698.44 313.136 1698.44 313.136C1719.16 298.946 1731.52 313.906 1731.52 313.906C1731.52 313.906 1771.99 513.787 1721.03 522.977Z" fill="#FFB459"/>
<path d="M1721.03 522.977C1687.7 528.987 1657.06 531.767 1629.41 532.387C1603.16 532.977 1579.6 531.617 1558.98 529.217C1546.55 489.687 1537.61 449.307 1562.61 473.647C1606.72 516.587 1721.03 522.977 1721.03 522.977Z" fill="#F99746"/>
<path d="M1455.53 1356.2C1455.53 1356.2 1451.98 1397.22 1460.66 1401.49L1571.64 1401.26C1571.64 1401.26 1571.64 1388.45 1553.81 1385.61C1535.98 1382.76 1504.67 1372.33 1499.37 1349.08C1494.07 1325.84 1455.53 1356.2 1455.53 1356.2Z" fill="#233862"/>
<path d="M1537.01 859.676C1536.46 886.506 1535.17 914.176 1532.65 939.036C1520.66 1057.04 1516.45 1199.62 1514.73 1227.1C1511.74 1274.82 1502.32 1351.05 1502.32 1351.05C1502.32 1351.05 1483.62 1368.8 1447.18 1360.33C1447.18 1360.33 1416.98 1250.54 1410.24 1134.93C1410.14 1133.03 1410.03 1131.13 1409.94 1129.22C1409.16 1113.93 1408.34 1096.46 1407.5 1077.61C1401.95 951.376 1395.92 763.866 1395.92 763.866L1535.19 731.166C1535.17 731.166 1538.38 792.796 1537.01 859.676Z" fill="#2A4E96"/>
<path d="M1537.01 859.676C1501.72 920.566 1434.44 1032.76 1407.49 1077.61C1401.94 951.376 1395.91 763.866 1395.91 763.866L1535.18 731.166C1535.17 731.166 1538.38 792.796 1537.01 859.676Z" fill="#233862"/>
<path d="M1184.38 741.716C1184.38 741.716 1161.72 768.366 1159.68 775.756C1157.64 783.146 1154.01 809.766 1155.96 817.766C1157.9 825.766 1172.97 795.456 1178.45 792.226C1183.93 788.986 1174.34 804.276 1176.21 806.836C1178.08 809.386 1188.9 797.906 1193.12 794.026C1197.34 790.146 1196.92 769.236 1201.99 756.876C1207.06 744.516 1184.38 741.716 1184.38 741.716Z" fill="#D78F5E"/>
<path d="M1179.07 1309.58C1179.07 1309.58 1159.32 1327.61 1163.17 1340.41C1167.02 1353.22 1184.85 1361.76 1187.26 1377.41C1189.67 1393.06 1199.3 1401.6 1207.98 1401.6C1216.65 1401.6 1249.32 1401.6 1249.32 1401.6C1249.32 1401.6 1255.7 1390.58 1240.29 1387.26C1224.87 1383.94 1219.06 1365.54 1220.02 1348.47C1220.98 1331.39 1218.57 1308.62 1218.57 1308.62L1185.81 1301.03L1179.07 1309.58Z" fill="#233862"/>
<path d="M1513.23 766.727C1513.23 766.727 1382.86 1045.67 1313.48 1168.06C1244.1 1290.45 1222.42 1324.61 1222.42 1324.61C1222.42 1324.61 1182.67 1308.95 1179.06 1298.28C1179.06 1298.28 1205.59 1062 1252.05 1004.4C1278.3 971.847 1309.14 874.177 1310.59 840.027C1312.04 805.867 1342.49 724.347 1342.49 724.347L1513.23 766.727Z" fill="#2A4E96"/>
<path d="M1551.34 779.876C1551.34 779.876 1499.5 814.536 1426.12 811.316C1393.92 809.906 1330.04 800.776 1319.73 775.166C1317.31 769.156 1319.08 761.526 1322.72 749.806C1332.14 719.366 1354.11 661.396 1347.48 532.866C1346.86 520.906 1347.2 509.666 1348.34 499.136C1355.25 435.826 1391.53 398.336 1426.6 386.086C1512.12 356.196 1540.63 397.606 1540.63 397.606C1540.63 397.606 1578.43 427.556 1584.13 490.056C1595.52 615.096 1551.34 779.876 1551.34 779.876Z" fill="#FFB459"/>
<path d="M1451.66 378.926C1451.66 378.926 1490.9 402.796 1533.46 396.046C1533.46 396.046 1541.87 393.906 1537.74 384.026C1540.33 376.056 1540.02 376.776 1541.52 370.846C1545.25 357.216 1546.39 349.346 1546.39 349.346L1522.24 323.956L1499.36 299.696C1493.04 357.676 1451.66 378.926 1451.66 378.926Z" fill="#D78F5E"/>
<path d="M1495.7 321.687C1495.7 321.687 1508.84 356.817 1541.52 370.847C1545.25 357.217 1547.68 342.947 1547.68 342.947L1522.24 323.957L1495.7 321.687Z" fill="#C98659"/>
<path d="M1573.49 348.117C1573.49 348.117 1498.59 357.477 1493.33 311.447C1488.07 265.417 1474.86 235.627 1522.47 227.707C1570.07 219.787 1581.39 236.327 1586.94 251.277C1592.48 266.217 1592.84 344.497 1573.49 348.117Z" fill="#D78F5E"/>
<path d="M1469.68 220.226C1469.03 219.426 1467.5 218.746 1464.04 218.426C1464.04 218.426 1466.88 216.796 1470.59 216.846C1471.5 212.046 1474.39 203.606 1482.77 201.846C1482.77 201.846 1478.22 204.056 1477.44 209.166C1487.43 199.656 1508.3 193.246 1565.19 199.906C1640.15 208.686 1613.55 255.886 1603.6 261.256C1593.65 266.626 1569.74 249.966 1551.55 250.716C1533.36 251.466 1528.92 277.546 1522.63 280.906C1516.34 284.266 1519 278.006 1510.82 273.926C1502.64 269.846 1501.32 283.616 1503.39 292.676C1505.46 301.736 1493.57 313.136 1493.57 313.136C1493.57 313.136 1493.57 313.136 1482.48 300.246C1471.39 287.356 1462.49 234.226 1468.17 223.186C1468.67 222.206 1469.17 221.216 1469.68 220.226Z" fill="#2C3A64"/>
<path d="M1698.44 293.686L1571.28 294.826L1570.41 275.696L1697.17 265.866L1698.44 293.686Z" fill="#2A4E96"/>
<path d="M1794.43 296.886L1655.98 298.886L1654.4 264.106L1792.45 253.406L1794.43 296.886Z" fill="#2A4E96"/>
<path d="M1887.78 299.617L1771.03 299.757L1768.9 252.807L1885.18 242.227L1887.78 299.617Z" fill="#233862"/>
<path d="M1889.45 307.536C1893.05 307.376 1895.84 304.316 1895.68 300.716L1892.94 240.396C1892.78 236.796 1889.72 234.006 1886.12 234.176C1882.52 234.336 1879.73 237.396 1879.9 240.996L1882.64 301.316C1882.8 304.916 1885.85 307.706 1889.45 307.536Z" fill="#233862"/>
<path d="M1570.88 298.907C1567.68 299.057 1564.96 296.577 1564.82 293.377L1564.11 277.727C1563.96 274.527 1566.44 271.817 1569.64 271.667C1572.84 271.517 1575.56 273.997 1575.7 277.197L1576.41 292.847C1576.56 296.047 1574.08 298.757 1570.88 298.907Z" fill="#2A4E96"/>
<path d="M1322.72 749.817C1332.14 719.377 1354.11 661.407 1347.48 532.877C1346.86 520.917 1347.2 509.677 1348.34 499.147H1348.35C1376.49 496.727 1419.52 527.157 1419.52 527.157C1419.52 527.157 1393.02 688.697 1322.72 749.817Z" fill="#F99746"/>
<path d="M1451.66 378.926C1451.66 378.926 1379.49 391.336 1341.85 437.286C1304.21 483.236 1243.66 548.026 1229.35 570.716C1215.03 593.406 1175.29 747.816 1175.29 747.816C1175.29 747.816 1177.91 752.776 1188.87 755.666C1199.36 758.426 1206.97 754.146 1206.97 754.146C1206.97 754.146 1259.62 664.036 1279.44 619.016C1287.67 600.316 1430.06 526.246 1483.59 533.916C1504.62 536.926 1451.66 378.926 1451.66 378.926Z" fill="#FFB459"/>
<path d="M1697.68 260.386C1697.68 260.386 1713.2 269.876 1722.49 265.866C1731.78 261.846 1730.96 258.176 1730.96 258.176C1730.96 258.176 1702.9 250.386 1697.68 260.386Z" fill="#D78F5E"/>
<path d="M1521.69 429.257C1521.69 429.257 1490.02 629.207 1265.31 687.427L1240.83 735.717L1283.83 742.997C1283.83 742.997 1539.65 668.887 1536.21 425.717L1521.69 429.257Z" fill="#BC3F3F"/>
<path d="M1516.78 397.347L1506.41 398.357V413.377L1521.69 429.257L1536.22 425.727V404.887L1525.77 397.347H1516.78Z" fill="#A02E2E"/>
<path d="M1476.08 357.586C1476.08 357.586 1466.04 359.856 1443.09 378.926C1443.09 378.926 1465.92 427.386 1514.08 433.186C1514.08 433.186 1513.3 410.696 1516.78 397.356C1516.78 397.346 1478.61 383.676 1476.08 357.586Z" fill="#F99746"/>
<path d="M1516.78 397.346C1516.78 397.346 1540.28 409.826 1542.02 429.266C1542.02 429.266 1551 415.036 1548.4 405.176C1545.79 395.316 1537.74 384.026 1537.74 384.026C1537.74 384.026 1538.54 395.896 1516.78 397.346Z" fill="#F99746"/>
</svg>
