<svg width="500" height="373" viewBox="0 0 500 373" fill="none" xmlns="http://www.w3.org/2000/svg">
<path d="M0 327.45H500V327.7H0V327.45Z" fill="#EBEBEB"/>
<path d="M50.0997 343.54H83.2197V343.79H50.0997V343.54Z" fill="#EBEBEB"/>
<path d="M168.78 346.26H177.47V346.51H168.78V346.26Z" fill="#EBEBEB"/>
<path d="M84.2202 334.26H103.41V334.51H84.2202V334.26Z" fill="#EBEBEB"/>
<path d="M404.35 335.94H447.54V336.19H404.35V335.94Z" fill="#EBEBEB"/>
<path d="M389.11 335.94H395.44V336.19H389.11V335.94Z" fill="#EBEBEB"/>
<path d="M274.85 340.16H368.53V340.41H274.85V340.16Z" fill="#EBEBEB"/>
<path d="M262.99 282.85H456.08C459.23 282.85 461.79 280.29 461.79 277.14V5.71C461.79 2.56 459.23 0 456.08 0H262.98C259.83 0 257.27 2.56 257.27 5.71V277.14C257.28 280.29 259.84 282.85 262.99 282.85ZM456.08 0.25C459.09 0.25 461.54 2.7 461.54 5.71V277.14C461.54 280.15 459.09 282.6 456.08 282.6H262.98C259.97 282.6 257.52 280.15 257.52 277.14V5.71C257.52 2.7 259.97 0.25 262.98 0.25H456.08V0.25Z" fill="#EBEBEB"/>
<path d="M46.69 282.85H239.79C242.94 282.85 245.5 280.29 245.5 277.14V5.71C245.5 2.56 242.94 0 239.79 0H46.69C43.54 0 40.98 2.56 40.98 5.71V277.14C40.98 280.29 43.54 282.85 46.69 282.85ZM239.79 0.25C242.8 0.25 245.25 2.7 245.25 5.71V277.14C245.25 280.15 242.8 282.6 239.79 282.6H46.69C43.68 282.6 41.23 280.15 41.23 277.14V5.71C41.23 2.7 43.68 0.25 46.69 0.25H239.79V0.25Z" fill="#EBEBEB"/>
<path d="M54.5803 62.23H296.86V295.77H54.5803V62.23Z" fill="#E0E0E0"/>
<path d="M54.5807 66.47H292.971V291.69H54.5807V66.47Z" fill="#F5F5F5"/>
<path d="M291.211 237.15V169.4H284.181V160.45L268.341 153.05V143.89H265.701V169.4H263.061V237.15H259.541V201.95H251.621V183.48H248.981V237.15H242.831V216.91H238.431V211.63H228.751V193.16H223.471V180.84H217.311V162.36H214.671V180.84H208.511V193.16H203.241V211.63H193.561V216.91H189.161V237.15H183.881V211.63H174.201V155.33H171.561V149.17H150.451V155.33H146.051V195.8H128.451V200.19H122.301V202.83H128.451V218.67H109.981V165.88H106.461V155.33H97.6607V114.86H95.0207V155.33H88.8607V165.88H54.5807V291.69H292.971V237.15H291.211Z" fill="#E6E6E6"/>
<path d="M72.9016 168.64H75.3916V171.13H72.9016V168.64Z" fill="#F0F0F0"/>
<path d="M72.9016 172.82H75.3916V175.31H72.9016V172.82Z" fill="#F0F0F0"/>
<path d="M72.9016 189.54H75.3916V192.03H72.9016V189.54Z" fill="#F0F0F0"/>
<path d="M72.9016 193.71H75.3916V196.2H72.9016V193.71Z" fill="#F0F0F0"/>
<path d="M72.9016 197.89H75.3916V200.38H72.9016V197.89Z" fill="#F0F0F0"/>
<path d="M72.9016 210.43H75.3916V212.92H72.9016V210.43Z" fill="#F0F0F0"/>
<path d="M72.9016 214.61H75.3916V217.1H72.9016V214.61Z" fill="#F0F0F0"/>
<path d="M76.8615 185.36H79.3516V187.85H76.8615V185.36Z" fill="#F0F0F0"/>
<path d="M76.8615 189.54H79.3516V192.03H76.8615V189.54Z" fill="#F0F0F0"/>
<path d="M76.8615 193.71H79.3516V196.2H76.8615V193.71Z" fill="#F0F0F0"/>
<path d="M76.8615 197.89H79.3516V200.38H76.8615V197.89Z" fill="#F0F0F0"/>
<path d="M76.8615 202.07H79.3516V204.56H76.8615V202.07Z" fill="#F0F0F0"/>
<path d="M76.8615 210.43H79.3516V212.92H76.8615V210.43Z" fill="#F0F0F0"/>
<path d="M76.8615 214.61H79.3516V217.1H76.8615V214.61Z" fill="#F0F0F0"/>
<path d="M80.8215 168.64H83.3115V171.13H80.8215V168.64Z" fill="#F0F0F0"/>
<path d="M80.8215 172.82H83.3115V175.31H80.8215V172.82Z" fill="#F0F0F0"/>
<path d="M80.8215 177H83.3115V179.49H80.8215V177Z" fill="#F0F0F0"/>
<path d="M80.8215 181.18H83.3115V183.67H80.8215V181.18Z" fill="#F0F0F0"/>
<path d="M80.8215 185.36H83.3115V187.85H80.8215V185.36Z" fill="#F0F0F0"/>
<path d="M80.8215 189.54H83.3115V192.03H80.8215V189.54Z" fill="#F0F0F0"/>
<path d="M80.8215 193.71H83.3115V196.2H80.8215V193.71Z" fill="#F0F0F0"/>
<path d="M80.8215 197.89H83.3115V200.38H80.8215V197.89Z" fill="#F0F0F0"/>
<path d="M80.8215 202.07H83.3115V204.56H80.8215V202.07Z" fill="#F0F0F0"/>
<path d="M80.8215 206.25H83.3115V208.74H80.8215V206.25Z" fill="#F0F0F0"/>
<path d="M80.8215 214.61H83.3115V217.1H80.8215V214.61Z" fill="#F0F0F0"/>
<path d="M84.7815 168.64H87.2715V171.13H84.7815V168.64Z" fill="#F0F0F0"/>
<path d="M84.7815 172.82H87.2715V175.31H84.7815V172.82Z" fill="#F0F0F0"/>
<path d="M84.7815 177H87.2715V179.49H84.7815V177Z" fill="#F0F0F0"/>
<path d="M84.7815 181.18H87.2715V183.67H84.7815V181.18Z" fill="#F0F0F0"/>
<path d="M84.7815 185.36H87.2715V187.85H84.7815V185.36Z" fill="#F0F0F0"/>
<path d="M84.7815 189.54H87.2715V192.03H84.7815V189.54Z" fill="#F0F0F0"/>
<path d="M84.7815 193.71H87.2715V196.2H84.7815V193.71Z" fill="#F0F0F0"/>
<path d="M84.7815 231.33H87.2715V233.82H84.7815V231.33Z" fill="#F0F0F0"/>
<path d="M88.7414 168.64H91.2314V171.13H88.7414V168.64Z" fill="#F0F0F0"/>
<path d="M88.7414 172.82H91.2314V175.31H88.7414V172.82Z" fill="#F0F0F0"/>
<path d="M88.7414 177H91.2314V179.49H88.7414V177Z" fill="#F0F0F0"/>
<path d="M88.7414 181.18H91.2314V183.67H88.7414V181.18Z" fill="#F0F0F0"/>
<path d="M88.7414 185.36H91.2314V187.85H88.7414V185.36Z" fill="#F0F0F0"/>
<path d="M88.7414 189.54H91.2314V192.03H88.7414V189.54Z" fill="#F0F0F0"/>
<path d="M88.7414 193.71H91.2314V196.2H88.7414V193.71Z" fill="#F0F0F0"/>
<path d="M88.7414 197.89H91.2314V200.38H88.7414V197.89Z" fill="#F0F0F0"/>
<path d="M88.7414 222.97H91.2314V225.46H88.7414V222.97Z" fill="#F0F0F0"/>
<path d="M88.7414 227.15H91.2314V229.64H88.7414V227.15Z" fill="#F0F0F0"/>
<path d="M88.7414 231.33H91.2314V233.82H88.7414V231.33Z" fill="#F0F0F0"/>
<path d="M88.7414 235.5H91.2314V237.99H88.7414V235.5Z" fill="#F0F0F0"/>
<path d="M88.7414 252.22H91.2314V254.71H88.7414V252.22Z" fill="#F0F0F0"/>
<path d="M92.7014 168.64H95.1914V171.13H92.7014V168.64Z" fill="#F0F0F0"/>
<path d="M92.7014 172.82H95.1914V175.31H92.7014V172.82Z" fill="#F0F0F0"/>
<path d="M92.7014 177H95.1914V179.49H92.7014V177Z" fill="#F0F0F0"/>
<path d="M92.7014 181.18H95.1914V183.67H92.7014V181.18Z" fill="#F0F0F0"/>
<path d="M92.7014 185.36H95.1914V187.85H92.7014V185.36Z" fill="#F0F0F0"/>
<path d="M92.7014 189.54H95.1914V192.03H92.7014V189.54Z" fill="#F0F0F0"/>
<path d="M92.7014 193.71H95.1914V196.2H92.7014V193.71Z" fill="#F0F0F0"/>
<path d="M92.7014 197.89H95.1914V200.38H92.7014V197.89Z" fill="#F0F0F0"/>
<path d="M92.7014 202.07H95.1914V204.56H92.7014V202.07Z" fill="#F0F0F0"/>
<path d="M92.7014 206.25H95.1914V208.74H92.7014V206.25Z" fill="#F0F0F0"/>
<path d="M92.7014 218.79H95.1914V221.28H92.7014V218.79Z" fill="#F0F0F0"/>
<path d="M92.7014 222.97H95.1914V225.46H92.7014V222.97Z" fill="#F0F0F0"/>
<path d="M92.7014 227.15H95.1914V229.64H92.7014V227.15Z" fill="#F0F0F0"/>
<path d="M92.7014 231.33H95.1914V233.82H92.7014V231.33Z" fill="#F0F0F0"/>
<path d="M92.7014 235.5H95.1914V237.99H92.7014V235.5Z" fill="#F0F0F0"/>
<path d="M92.7014 252.22H95.1914V254.71H92.7014V252.22Z" fill="#F0F0F0"/>
<path d="M96.6614 168.64H99.1514V171.13H96.6614V168.64Z" fill="#F0F0F0"/>
<path d="M96.6614 172.82H99.1514V175.31H96.6614V172.82Z" fill="#F0F0F0"/>
<path d="M96.6614 177H99.1514V179.49H96.6614V177Z" fill="#F0F0F0"/>
<path d="M96.6614 181.18H99.1514V183.67H96.6614V181.18Z" fill="#F0F0F0"/>
<path d="M96.6614 185.36H99.1514V187.85H96.6614V185.36Z" fill="#F0F0F0"/>
<path d="M96.6614 189.54H99.1514V192.03H96.6614V189.54Z" fill="#F0F0F0"/>
<path d="M96.6614 193.71H99.1514V196.2H96.6614V193.71Z" fill="#F0F0F0"/>
<path d="M96.6614 197.89H99.1514V200.38H96.6614V197.89Z" fill="#F0F0F0"/>
<path d="M96.6614 202.07H99.1514V204.56H96.6614V202.07Z" fill="#F0F0F0"/>
<path d="M96.6614 206.25H99.1514V208.74H96.6614V206.25Z" fill="#F0F0F0"/>
<path d="M96.6614 210.43H99.1514V212.92H96.6614V210.43Z" fill="#F0F0F0"/>
<path d="M96.6614 214.61H99.1514V217.1H96.6614V214.61Z" fill="#F0F0F0"/>
<path d="M96.6614 218.79H99.1514V221.28H96.6614V218.79Z" fill="#F0F0F0"/>
<path d="M96.6614 222.97H99.1514V225.46H96.6614V222.97Z" fill="#F0F0F0"/>
<path d="M96.6614 227.15H99.1514V229.64H96.6614V227.15Z" fill="#F0F0F0"/>
<path d="M96.6614 231.33H99.1514V233.82H96.6614V231.33Z" fill="#F0F0F0"/>
<path d="M96.6614 235.5H99.1514V237.99H96.6614V235.5Z" fill="#F0F0F0"/>
<path d="M96.6614 239.68H99.1514V242.17H96.6614V239.68Z" fill="#F0F0F0"/>
<path d="M100.621 168.64H103.111V171.13H100.621V168.64Z" fill="#F0F0F0"/>
<path d="M100.621 172.82H103.111V175.31H100.621V172.82Z" fill="#F0F0F0"/>
<path d="M100.621 177H103.111V179.49H100.621V177Z" fill="#F0F0F0"/>
<path d="M100.621 181.18H103.111V183.67H100.621V181.18Z" fill="#F0F0F0"/>
<path d="M100.621 185.36H103.111V187.85H100.621V185.36Z" fill="#F0F0F0"/>
<path d="M100.621 189.54H103.111V192.03H100.621V189.54Z" fill="#F0F0F0"/>
<path d="M100.621 193.71H103.111V196.2H100.621V193.71Z" fill="#F0F0F0"/>
<path d="M100.621 197.89H103.111V200.38H100.621V197.89Z" fill="#F0F0F0"/>
<path d="M100.621 202.07H103.111V204.56H100.621V202.07Z" fill="#F0F0F0"/>
<path d="M100.621 206.25H103.111V208.74H100.621V206.25Z" fill="#F0F0F0"/>
<path d="M100.621 218.79H103.111V221.28H100.621V218.79Z" fill="#F0F0F0"/>
<path d="M100.621 222.97H103.111V225.46H100.621V222.97Z" fill="#F0F0F0"/>
<path d="M100.621 227.15H103.111V229.64H100.621V227.15Z" fill="#F0F0F0"/>
<path d="M100.621 231.33H103.111V233.82H100.621V231.33Z" fill="#F0F0F0"/>
<path d="M104.572 168.64H107.062V171.13H104.572V168.64Z" fill="#F0F0F0"/>
<path d="M104.572 172.82H107.062V175.31H104.572V172.82Z" fill="#F0F0F0"/>
<path d="M104.572 177H107.062V179.49H104.572V177Z" fill="#F0F0F0"/>
<path d="M104.572 181.18H107.062V183.67H104.572V181.18Z" fill="#F0F0F0"/>
<path d="M104.572 185.36H107.062V187.85H104.572V185.36Z" fill="#F0F0F0"/>
<path d="M104.572 189.54H107.062V192.03H104.572V189.54Z" fill="#F0F0F0"/>
<path d="M104.572 193.71H107.062V196.2H104.572V193.71Z" fill="#F0F0F0"/>
<path d="M104.572 197.89H107.062V200.38H104.572V197.89Z" fill="#F0F0F0"/>
<path d="M104.572 202.07H107.062V204.56H104.572V202.07Z" fill="#F0F0F0"/>
<path d="M104.572 206.25H107.062V208.74H104.572V206.25Z" fill="#F0F0F0"/>
<path d="M104.572 218.79H107.062V221.28H104.572V218.79Z" fill="#F0F0F0"/>
<path d="M104.572 222.97H107.062V225.46H104.572V222.97Z" fill="#F0F0F0"/>
<path d="M104.572 227.15H107.062V229.64H104.572V227.15Z" fill="#F0F0F0"/>
<path d="M149.152 157.79H151.642V160.28H149.152V157.79Z" fill="#F0F0F0"/>
<path d="M149.152 161.97H151.642V164.46H149.152V161.97Z" fill="#F0F0F0"/>
<path d="M149.152 166.15H151.642V168.64H149.152V166.15Z" fill="#F0F0F0"/>
<path d="M149.152 170.33H151.642V172.82H149.152V170.33Z" fill="#F0F0F0"/>
<path d="M149.152 174.51H151.642V177H149.152V174.51Z" fill="#F0F0F0"/>
<path d="M149.152 178.69H151.642V181.18H149.152V178.69Z" fill="#F0F0F0"/>
<path d="M149.152 182.86H151.642V185.35H149.152V182.86Z" fill="#F0F0F0"/>
<path d="M149.152 187.04H151.642V189.53H149.152V187.04Z" fill="#F0F0F0"/>
<path d="M149.152 199.58H151.642V202.07H149.152V199.58Z" fill="#F0F0F0"/>
<path d="M149.152 203.76H151.642V206.25H149.152V203.76Z" fill="#F0F0F0"/>
<path d="M153.112 157.79H155.602V160.28H153.112V157.79Z" fill="#F0F0F0"/>
<path d="M153.112 161.97H155.602V164.46H153.112V161.97Z" fill="#F0F0F0"/>
<path d="M153.112 166.15H155.602V168.64H153.112V166.15Z" fill="#F0F0F0"/>
<path d="M153.112 170.33H155.602V172.82H153.112V170.33Z" fill="#F0F0F0"/>
<path d="M153.112 174.51H155.602V177H153.112V174.51Z" fill="#F0F0F0"/>
<path d="M153.112 178.69H155.602V181.18H153.112V178.69Z" fill="#F0F0F0"/>
<path d="M153.112 182.86H155.602V185.35H153.112V182.86Z" fill="#F0F0F0"/>
<path d="M153.112 187.04H155.602V189.53H153.112V187.04Z" fill="#F0F0F0"/>
<path d="M153.112 203.76H155.602V206.25H153.112V203.76Z" fill="#F0F0F0"/>
<path d="M157.072 157.79H159.562V160.28H157.072V157.79Z" fill="#F0F0F0"/>
<path d="M157.072 161.97H159.562V164.46H157.072V161.97Z" fill="#F0F0F0"/>
<path d="M157.072 166.15H159.562V168.64H157.072V166.15Z" fill="#F0F0F0"/>
<path d="M157.072 170.33H159.562V172.82H157.072V170.33Z" fill="#F0F0F0"/>
<path d="M157.072 174.51H159.562V177H157.072V174.51Z" fill="#F0F0F0"/>
<path d="M157.072 178.69H159.562V181.18H157.072V178.69Z" fill="#F0F0F0"/>
<path d="M157.072 182.86H159.562V185.35H157.072V182.86Z" fill="#F0F0F0"/>
<path d="M157.072 187.04H159.562V189.53H157.072V187.04Z" fill="#F0F0F0"/>
<path d="M161.031 157.79H163.521V160.28H161.031V157.79Z" fill="#F0F0F0"/>
<path d="M161.031 161.97H163.521V164.46H161.031V161.97Z" fill="#F0F0F0"/>
<path d="M161.031 166.15H163.521V168.64H161.031V166.15Z" fill="#F0F0F0"/>
<path d="M161.031 170.33H163.521V172.82H161.031V170.33Z" fill="#F0F0F0"/>
<path d="M161.031 174.51H163.521V177H161.031V174.51Z" fill="#F0F0F0"/>
<path d="M161.031 178.69H163.521V181.18H161.031V178.69Z" fill="#F0F0F0"/>
<path d="M161.031 187.04H163.521V189.53H161.031V187.04Z" fill="#F0F0F0"/>
<path d="M161.031 191.22H163.521V193.71H161.031V191.22Z" fill="#F0F0F0"/>
<path d="M161.031 203.76H163.521V206.25H161.031V203.76Z" fill="#F0F0F0"/>
<path d="M161.031 207.94H163.521V210.43H161.031V207.94Z" fill="#F0F0F0"/>
<path d="M161.031 212.12H163.521V214.61H161.031V212.12Z" fill="#F0F0F0"/>
<path d="M161.031 216.3H163.521V218.79H161.031V216.3Z" fill="#F0F0F0"/>
<path d="M161.031 220.48H163.521V222.97H161.031V220.48Z" fill="#F0F0F0"/>
<path d="M161.031 224.65H163.521V227.14H161.031V224.65Z" fill="#F0F0F0"/>
<path d="M161.031 228.83H163.521V231.32H161.031V228.83Z" fill="#F0F0F0"/>
<path d="M164.991 157.79H167.481V160.28H164.991V157.79Z" fill="#F0F0F0"/>
<path d="M164.991 161.97H167.481V164.46H164.991V161.97Z" fill="#F0F0F0"/>
<path d="M164.991 166.15H167.481V168.64H164.991V166.15Z" fill="#F0F0F0"/>
<path d="M164.991 170.33H167.481V172.82H164.991V170.33Z" fill="#F0F0F0"/>
<path d="M164.991 174.51H167.481V177H164.991V174.51Z" fill="#F0F0F0"/>
<path d="M164.991 178.69H167.481V181.18H164.991V178.69Z" fill="#F0F0F0"/>
<path d="M164.991 191.22H167.481V193.71H164.991V191.22Z" fill="#F0F0F0"/>
<path d="M164.991 195.4H167.481V197.89H164.991V195.4Z" fill="#F0F0F0"/>
<path d="M164.991 199.58H167.481V202.07H164.991V199.58Z" fill="#F0F0F0"/>
<path d="M164.991 203.76H167.481V206.25H164.991V203.76Z" fill="#F0F0F0"/>
<path d="M164.991 207.94H167.481V210.43H164.991V207.94Z" fill="#F0F0F0"/>
<path d="M164.991 212.12H167.481V214.61H164.991V212.12Z" fill="#F0F0F0"/>
<path d="M164.991 216.3H167.481V218.79H164.991V216.3Z" fill="#F0F0F0"/>
<path d="M164.991 220.48H167.481V222.97H164.991V220.48Z" fill="#F0F0F0"/>
<path d="M164.991 224.65H167.481V227.14H164.991V224.65Z" fill="#F0F0F0"/>
<path d="M164.991 228.83H167.481V231.32H164.991V228.83Z" fill="#F0F0F0"/>
<path d="M164.991 233.01H167.481V235.5H164.991V233.01Z" fill="#F0F0F0"/>
<path d="M164.991 241.37H167.481V243.86H164.991V241.37Z" fill="#F0F0F0"/>
<path d="M168.951 157.79H171.441V160.28H168.951V157.79Z" fill="#F0F0F0"/>
<path d="M168.951 161.97H171.441V164.46H168.951V161.97Z" fill="#F0F0F0"/>
<path d="M168.951 166.15H171.441V168.64H168.951V166.15Z" fill="#F0F0F0"/>
<path d="M168.951 170.33H171.441V172.82H168.951V170.33Z" fill="#F0F0F0"/>
<path d="M168.951 174.51H171.441V177H168.951V174.51Z" fill="#F0F0F0"/>
<path d="M168.951 178.69H171.441V181.18H168.951V178.69Z" fill="#F0F0F0"/>
<path d="M168.951 191.22H171.441V193.71H168.951V191.22Z" fill="#F0F0F0"/>
<path d="M168.951 195.4H171.441V197.89H168.951V195.4Z" fill="#F0F0F0"/>
<path d="M168.951 199.58H171.441V202.07H168.951V199.58Z" fill="#F0F0F0"/>
<path d="M168.951 203.76H171.441V206.25H168.951V203.76Z" fill="#F0F0F0"/>
<path d="M168.951 216.3H171.441V218.79H168.951V216.3Z" fill="#F0F0F0"/>
<path d="M168.951 220.48H171.441V222.97H168.951V220.48Z" fill="#F0F0F0"/>
<path d="M168.951 224.65H171.441V227.14H168.951V224.65Z" fill="#F0F0F0"/>
<path d="M168.951 228.83H171.441V231.32H168.951V228.83Z" fill="#F0F0F0"/>
<path d="M168.951 233.01H171.441V235.5H168.951V233.01Z" fill="#F0F0F0"/>
<path d="M168.951 241.37H171.441V243.86H168.951V241.37Z" fill="#F0F0F0"/>
<path d="M168.951 245.55H171.441V248.04H168.951V245.55Z" fill="#F0F0F0"/>
<path d="M204.871 196.65H207.361V199.14H204.871V196.65Z" fill="#F0F0F0"/>
<path d="M204.871 200.83H207.361V203.32H204.871V200.83Z" fill="#F0F0F0"/>
<path d="M204.871 205.01H207.361V207.5H204.871V205.01Z" fill="#F0F0F0"/>
<path d="M204.871 209.18H207.361V211.67H204.871V209.18Z" fill="#F0F0F0"/>
<path d="M204.871 213.36H207.361V215.85H204.871V213.36Z" fill="#F0F0F0"/>
<path d="M204.871 217.54H207.361V220.03H204.871V217.54Z" fill="#F0F0F0"/>
<path d="M204.871 221.72H207.361V224.21H204.871V221.72Z" fill="#F0F0F0"/>
<path d="M204.871 234.26H207.361V236.75H204.871V234.26Z" fill="#F0F0F0"/>
<path d="M204.871 238.44H207.361V240.93H204.871V238.44Z" fill="#F0F0F0"/>
<path d="M204.871 242.62H207.361V245.11H204.871V242.62Z" fill="#F0F0F0"/>
<path d="M208.831 196.65H211.321V199.14H208.831V196.65Z" fill="#F0F0F0"/>
<path d="M208.831 200.83H211.321V203.32H208.831V200.83Z" fill="#F0F0F0"/>
<path d="M208.831 205.01H211.321V207.5H208.831V205.01Z" fill="#F0F0F0"/>
<path d="M208.831 209.18H211.321V211.67H208.831V209.18Z" fill="#F0F0F0"/>
<path d="M208.831 213.36H211.321V215.85H208.831V213.36Z" fill="#F0F0F0"/>
<path d="M208.831 217.54H211.321V220.03H208.831V217.54Z" fill="#F0F0F0"/>
<path d="M208.831 221.72H211.321V224.21H208.831V221.72Z" fill="#F0F0F0"/>
<path d="M212.791 196.65H215.281V199.14H212.791V196.65Z" fill="#F0F0F0"/>
<path d="M212.791 200.83H215.281V203.32H212.791V200.83Z" fill="#F0F0F0"/>
<path d="M212.791 205.01H215.281V207.5H212.791V205.01Z" fill="#F0F0F0"/>
<path d="M212.791 209.18H215.281V211.67H212.791V209.18Z" fill="#F0F0F0"/>
<path d="M212.791 213.36H215.281V215.85H212.791V213.36Z" fill="#F0F0F0"/>
<path d="M212.791 217.54H215.281V220.03H212.791V217.54Z" fill="#F0F0F0"/>
<path d="M212.791 221.72H215.281V224.21H212.791V221.72Z" fill="#F0F0F0"/>
<path d="M216.751 196.65H219.241V199.14H216.751V196.65Z" fill="#F0F0F0"/>
<path d="M216.751 200.83H219.241V203.32H216.751V200.83Z" fill="#F0F0F0"/>
<path d="M216.751 205.01H219.241V207.5H216.751V205.01Z" fill="#F0F0F0"/>
<path d="M216.751 209.18H219.241V211.67H216.751V209.18Z" fill="#F0F0F0"/>
<path d="M216.751 213.36H219.241V215.85H216.751V213.36Z" fill="#F0F0F0"/>
<path d="M216.751 217.54H219.241V220.03H216.751V217.54Z" fill="#F0F0F0"/>
<path d="M216.751 221.72H219.241V224.21H216.751V221.72Z" fill="#F0F0F0"/>
<path d="M216.751 225.9H219.241V228.39H216.751V225.9Z" fill="#F0F0F0"/>
<path d="M216.751 230.08H219.241V232.57H216.751V230.08Z" fill="#F0F0F0"/>
<path d="M216.751 234.26H219.241V236.75H216.751V234.26Z" fill="#F0F0F0"/>
<path d="M216.751 238.44H219.241V240.93H216.751V238.44Z" fill="#F0F0F0"/>
<path d="M220.711 196.65H223.201V199.14H220.711V196.65Z" fill="#F0F0F0"/>
<path d="M220.711 200.83H223.201V203.32H220.711V200.83Z" fill="#F0F0F0"/>
<path d="M220.711 205.01H223.201V207.5H220.711V205.01Z" fill="#F0F0F0"/>
<path d="M220.711 209.18H223.201V211.67H220.711V209.18Z" fill="#F0F0F0"/>
<path d="M220.711 213.36H223.201V215.85H220.711V213.36Z" fill="#F0F0F0"/>
<path d="M220.711 217.54H223.201V220.03H220.711V217.54Z" fill="#F0F0F0"/>
<path d="M220.711 221.72H223.201V224.21H220.711V221.72Z" fill="#F0F0F0"/>
<path d="M220.711 225.9H223.201V228.39H220.711V225.9Z" fill="#F0F0F0"/>
<path d="M220.711 230.08H223.201V232.57H220.711V230.08Z" fill="#F0F0F0"/>
<path d="M220.711 234.26H223.201V236.75H220.711V234.26Z" fill="#F0F0F0"/>
<path d="M220.711 238.44H223.201V240.93H220.711V238.44Z" fill="#F0F0F0"/>
<path d="M220.711 242.62H223.201V245.11H220.711V242.62Z" fill="#F0F0F0"/>
<path d="M220.711 255.15H223.201V257.64H220.711V255.15Z" fill="#F0F0F0"/>
<path d="M220.711 259.33H223.201V261.82H220.711V259.33Z" fill="#F0F0F0"/>
<path d="M224.671 196.65H227.161V199.14H224.671V196.65Z" fill="#F0F0F0"/>
<path d="M224.671 200.83H227.161V203.32H224.671V200.83Z" fill="#F0F0F0"/>
<path d="M224.671 205.01H227.161V207.5H224.671V205.01Z" fill="#F0F0F0"/>
<path d="M224.671 217.54H227.161V220.03H224.671V217.54Z" fill="#F0F0F0"/>
<path d="M224.671 221.72H227.161V224.21H224.671V221.72Z" fill="#F0F0F0"/>
<path d="M224.671 225.9H227.161V228.39H224.671V225.9Z" fill="#F0F0F0"/>
<path d="M224.671 230.08H227.161V232.57H224.671V230.08Z" fill="#F0F0F0"/>
<path d="M224.671 234.26H227.161V236.75H224.671V234.26Z" fill="#F0F0F0"/>
<path d="M224.671 238.44H227.161V240.93H224.671V238.44Z" fill="#F0F0F0"/>
<path d="M224.671 242.62H227.161V245.11H224.671V242.62Z" fill="#F0F0F0"/>
<path d="M224.671 255.15H227.161V257.64H224.671V255.15Z" fill="#F0F0F0"/>
<path d="M224.671 259.33H227.161V261.82H224.671V259.33Z" fill="#F0F0F0"/>
<path d="M224.671 263.51H227.161V266H224.671V263.51Z" fill="#F0F0F0"/>
<path d="M266.161 171.57H268.651V174.06H266.161V171.57Z" fill="#F0F0F0"/>
<path d="M266.161 175.75H268.651V178.24H266.161V175.75Z" fill="#F0F0F0"/>
<path d="M266.161 179.93H268.651V182.42H266.161V179.93Z" fill="#F0F0F0"/>
<path d="M266.161 184.11H268.651V186.6H266.161V184.11Z" fill="#F0F0F0"/>
<path d="M266.161 188.29H268.651V190.78H266.161V188.29Z" fill="#F0F0F0"/>
<path d="M266.161 192.47H268.651V194.96H266.161V192.47Z" fill="#F0F0F0"/>
<path d="M266.161 196.65H268.651V199.14H266.161V196.65Z" fill="#F0F0F0"/>
<path d="M266.161 200.83H268.651V203.32H266.161V200.83Z" fill="#F0F0F0"/>
<path d="M266.161 205.01H268.651V207.5H266.161V205.01Z" fill="#F0F0F0"/>
<path d="M266.161 209.18H268.651V211.67H266.161V209.18Z" fill="#F0F0F0"/>
<path d="M266.161 213.36H268.651V215.85H266.161V213.36Z" fill="#F0F0F0"/>
<path d="M266.161 217.54H268.651V220.03H266.161V217.54Z" fill="#F0F0F0"/>
<path d="M266.161 221.72H268.651V224.21H266.161V221.72Z" fill="#F0F0F0"/>
<path d="M266.161 225.9H268.651V228.39H266.161V225.9Z" fill="#F0F0F0"/>
<path d="M266.161 230.08H268.651V232.57H266.161V230.08Z" fill="#F0F0F0"/>
<path d="M266.161 234.26H268.651V236.75H266.161V234.26Z" fill="#F0F0F0"/>
<path d="M266.161 238.44H268.651V240.93H266.161V238.44Z" fill="#F0F0F0"/>
<path d="M266.161 242.62H268.651V245.11H266.161V242.62Z" fill="#F0F0F0"/>
<path d="M266.161 246.8H268.651V249.29H266.161V246.8Z" fill="#F0F0F0"/>
<path d="M266.161 250.97H268.651V253.46H266.161V250.97Z" fill="#F0F0F0"/>
<path d="M266.161 255.15H268.651V257.64H266.161V255.15Z" fill="#F0F0F0"/>
<path d="M266.161 259.33H268.651V261.82H266.161V259.33Z" fill="#F0F0F0"/>
<path d="M266.161 263.51H268.651V266H266.161V263.51Z" fill="#F0F0F0"/>
<path d="M270.121 171.57H272.611V174.06H270.121V171.57Z" fill="#F0F0F0"/>
<path d="M270.121 175.75H272.611V178.24H270.121V175.75Z" fill="#F0F0F0"/>
<path d="M270.121 179.93H272.611V182.42H270.121V179.93Z" fill="#F0F0F0"/>
<path d="M270.121 184.11H272.611V186.6H270.121V184.11Z" fill="#F0F0F0"/>
<path d="M270.121 188.29H272.611V190.78H270.121V188.29Z" fill="#F0F0F0"/>
<path d="M270.121 192.47H272.611V194.96H270.121V192.47Z" fill="#F0F0F0"/>
<path d="M270.121 196.65H272.611V199.14H270.121V196.65Z" fill="#F0F0F0"/>
<path d="M270.121 200.83H272.611V203.32H270.121V200.83Z" fill="#F0F0F0"/>
<path d="M270.121 205.01H272.611V207.5H270.121V205.01Z" fill="#F0F0F0"/>
<path d="M270.121 209.18H272.611V211.67H270.121V209.18Z" fill="#F0F0F0"/>
<path d="M270.121 213.36H272.611V215.85H270.121V213.36Z" fill="#F0F0F0"/>
<path d="M270.121 217.54H272.611V220.03H270.121V217.54Z" fill="#F0F0F0"/>
<path d="M270.121 221.72H272.611V224.21H270.121V221.72Z" fill="#F0F0F0"/>
<path d="M270.121 225.9H272.611V228.39H270.121V225.9Z" fill="#F0F0F0"/>
<path d="M270.121 230.08H272.611V232.57H270.121V230.08Z" fill="#F0F0F0"/>
<path d="M270.121 234.26H272.611V236.75H270.121V234.26Z" fill="#F0F0F0"/>
<path d="M270.121 238.44H272.611V240.93H270.121V238.44Z" fill="#F0F0F0"/>
<path d="M270.121 242.62H272.611V245.11H270.121V242.62Z" fill="#F0F0F0"/>
<path d="M270.121 246.8H272.611V249.29H270.121V246.8Z" fill="#F0F0F0"/>
<path d="M274.081 171.57H276.571V174.06H274.081V171.57Z" fill="#F0F0F0"/>
<path d="M274.081 175.75H276.571V178.24H274.081V175.75Z" fill="#F0F0F0"/>
<path d="M274.081 179.93H276.571V182.42H274.081V179.93Z" fill="#F0F0F0"/>
<path d="M274.081 184.11H276.571V186.6H274.081V184.11Z" fill="#F0F0F0"/>
<path d="M274.081 188.29H276.571V190.78H274.081V188.29Z" fill="#F0F0F0"/>
<path d="M274.081 192.47H276.571V194.96H274.081V192.47Z" fill="#F0F0F0"/>
<path d="M274.081 196.65H276.571V199.14H274.081V196.65Z" fill="#F0F0F0"/>
<path d="M274.081 200.83H276.571V203.32H274.081V200.83Z" fill="#F0F0F0"/>
<path d="M274.081 205.01H276.571V207.5H274.081V205.01Z" fill="#F0F0F0"/>
<path d="M274.081 209.18H276.571V211.67H274.081V209.18Z" fill="#F0F0F0"/>
<path d="M274.081 213.36H276.571V215.85H274.081V213.36Z" fill="#F0F0F0"/>
<path d="M274.081 217.54H276.571V220.03H274.081V217.54Z" fill="#F0F0F0"/>
<path d="M274.081 221.72H276.571V224.21H274.081V221.72Z" fill="#F0F0F0"/>
<path d="M274.081 225.9H276.571V228.39H274.081V225.9Z" fill="#F0F0F0"/>
<path d="M274.081 230.08H276.571V232.57H274.081V230.08Z" fill="#F0F0F0"/>
<path d="M274.081 234.26H276.571V236.75H274.081V234.26Z" fill="#F0F0F0"/>
<path d="M274.081 238.44H276.571V240.93H274.081V238.44Z" fill="#F0F0F0"/>
<path d="M274.081 242.62H276.571V245.11H274.081V242.62Z" fill="#F0F0F0"/>
<path d="M274.081 246.8H276.571V249.29H274.081V246.8Z" fill="#F0F0F0"/>
<path d="M278.041 171.57H280.531V174.06H278.041V171.57Z" fill="#F0F0F0"/>
<path d="M278.041 175.75H280.531V178.24H278.041V175.75Z" fill="#F0F0F0"/>
<path d="M278.041 179.93H280.531V182.42H278.041V179.93Z" fill="#F0F0F0"/>
<path d="M278.041 184.11H280.531V186.6H278.041V184.11Z" fill="#F0F0F0"/>
<path d="M278.041 188.29H280.531V190.78H278.041V188.29Z" fill="#F0F0F0"/>
<path d="M278.041 192.47H280.531V194.96H278.041V192.47Z" fill="#F0F0F0"/>
<path d="M278.041 196.65H280.531V199.14H278.041V196.65Z" fill="#F0F0F0"/>
<path d="M278.041 200.83H280.531V203.32H278.041V200.83Z" fill="#F0F0F0"/>
<path d="M278.041 205.01H280.531V207.5H278.041V205.01Z" fill="#F0F0F0"/>
<path d="M278.041 209.18H280.531V211.67H278.041V209.18Z" fill="#F0F0F0"/>
<path d="M278.041 213.36H280.531V215.85H278.041V213.36Z" fill="#F0F0F0"/>
<path d="M278.041 217.54H280.531V220.03H278.041V217.54Z" fill="#F0F0F0"/>
<path d="M278.041 221.72H280.531V224.21H278.041V221.72Z" fill="#F0F0F0"/>
<path d="M278.041 225.9H280.531V228.39H278.041V225.9Z" fill="#F0F0F0"/>
<path d="M278.041 230.08H280.531V232.57H278.041V230.08Z" fill="#F0F0F0"/>
<path d="M282.001 171.57H284.491V174.06H282.001V171.57Z" fill="#F0F0F0"/>
<path d="M282.001 175.75H284.491V178.24H282.001V175.75Z" fill="#F0F0F0"/>
<path d="M282.001 179.93H284.491V182.42H282.001V179.93Z" fill="#F0F0F0"/>
<path d="M282.001 184.11H284.491V186.6H282.001V184.11Z" fill="#F0F0F0"/>
<path d="M282.001 188.29H284.491V190.78H282.001V188.29Z" fill="#F0F0F0"/>
<path d="M282.001 192.47H284.491V194.96H282.001V192.47Z" fill="#F0F0F0"/>
<path d="M282.001 196.65H284.491V199.14H282.001V196.65Z" fill="#F0F0F0"/>
<path d="M282.001 200.83H284.491V203.32H282.001V200.83Z" fill="#F0F0F0"/>
<path d="M282.001 205.01H284.491V207.5H282.001V205.01Z" fill="#F0F0F0"/>
<path d="M282.001 209.18H284.491V211.67H282.001V209.18Z" fill="#F0F0F0"/>
<path d="M282.001 213.36H284.491V215.85H282.001V213.36Z" fill="#F0F0F0"/>
<path d="M282.001 217.54H284.491V220.03H282.001V217.54Z" fill="#F0F0F0"/>
<path d="M282.001 221.72H284.491V224.21H282.001V221.72Z" fill="#F0F0F0"/>
<path d="M285.961 171.57H288.451V174.06H285.961V171.57Z" fill="#F0F0F0"/>
<path d="M285.961 175.75H288.451V178.24H285.961V175.75Z" fill="#F0F0F0"/>
<path d="M285.961 179.93H288.451V182.42H285.961V179.93Z" fill="#F0F0F0"/>
<path d="M285.961 184.11H288.451V186.6H285.961V184.11Z" fill="#F0F0F0"/>
<path d="M285.961 188.29H288.451V190.78H285.961V188.29Z" fill="#F0F0F0"/>
<path d="M285.961 192.47H288.451V194.96H285.961V192.47Z" fill="#F0F0F0"/>
<path d="M285.961 196.65H288.451V199.14H285.961V196.65Z" fill="#F0F0F0"/>
<path d="M285.961 200.83H288.451V203.32H285.961V200.83Z" fill="#F0F0F0"/>
<path d="M285.961 205.01H288.451V207.5H285.961V205.01Z" fill="#F0F0F0"/>
<path d="M285.961 209.18H288.451V211.67H285.961V209.18Z" fill="#F0F0F0"/>
<path d="M285.961 213.36H288.451V215.85H285.961V213.36Z" fill="#F0F0F0"/>
<path d="M285.961 217.54H288.451V220.03H285.961V217.54Z" fill="#F0F0F0"/>
<path d="M54.8713 170.33H57.3613V172.82H54.8713V170.33Z" fill="#F0F0F0"/>
<path d="M54.8713 174.51H57.3613V177H54.8713V174.51Z" fill="#F0F0F0"/>
<path d="M54.8713 178.69H57.3613V181.18H54.8713V178.69Z" fill="#F0F0F0"/>
<path d="M54.8713 182.86H57.3613V185.35H54.8713V182.86Z" fill="#F0F0F0"/>
<path d="M54.8713 187.04H57.3613V189.53H54.8713V187.04Z" fill="#F0F0F0"/>
<path d="M54.8713 191.22H57.3613V193.71H54.8713V191.22Z" fill="#F0F0F0"/>
<path d="M54.8713 195.4H57.3613V197.89H54.8713V195.4Z" fill="#F0F0F0"/>
<path d="M54.8713 199.58H57.3613V202.07H54.8713V199.58Z" fill="#F0F0F0"/>
<path d="M54.8713 203.76H57.3613V206.25H54.8713V203.76Z" fill="#F0F0F0"/>
<path d="M54.8713 207.94H57.3613V210.43H54.8713V207.94Z" fill="#F0F0F0"/>
<path d="M54.8713 212.12H57.3613V214.61H54.8713V212.12Z" fill="#F0F0F0"/>
<path d="M54.8713 216.3H57.3613V218.79H54.8713V216.3Z" fill="#F0F0F0"/>
<path d="M54.8713 220.48H57.3613V222.97H54.8713V220.48Z" fill="#F0F0F0"/>
<path d="M54.8713 224.65H57.3613V227.14H54.8713V224.65Z" fill="#F0F0F0"/>
<path d="M54.8713 228.83H57.3613V231.32H54.8713V228.83Z" fill="#F0F0F0"/>
<path d="M54.8713 233.01H57.3613V235.5H54.8713V233.01Z" fill="#F0F0F0"/>
<path d="M54.8713 237.19H57.3613V239.68H54.8713V237.19Z" fill="#F0F0F0"/>
<path d="M54.8713 245.55H57.3613V248.04H54.8713V245.55Z" fill="#F0F0F0"/>
<path d="M54.8713 249.73H57.3613V252.22H54.8713V249.73Z" fill="#F0F0F0"/>
<path d="M54.8713 253.91H57.3613V256.4H54.8713V253.91Z" fill="#F0F0F0"/>
<path d="M54.8713 258.09H57.3613V260.58H54.8713V258.09Z" fill="#F0F0F0"/>
<path d="M54.8713 262.26H57.3613V264.75H54.8713V262.26Z" fill="#F0F0F0"/>
<path d="M58.8313 170.33H61.3213V172.82H58.8313V170.33Z" fill="#F0F0F0"/>
<path d="M58.8313 174.51H61.3213V177H58.8313V174.51Z" fill="#F0F0F0"/>
<path d="M58.8313 178.69H61.3213V181.18H58.8313V178.69Z" fill="#F0F0F0"/>
<path d="M58.8313 182.86H61.3213V185.35H58.8313V182.86Z" fill="#F0F0F0"/>
<path d="M58.8313 187.04H61.3213V189.53H58.8313V187.04Z" fill="#F0F0F0"/>
<path d="M58.8313 191.22H61.3213V193.71H58.8313V191.22Z" fill="#F0F0F0"/>
<path d="M58.8313 195.4H61.3213V197.89H58.8313V195.4Z" fill="#F0F0F0"/>
<path d="M58.8313 199.58H61.3213V202.07H58.8313V199.58Z" fill="#F0F0F0"/>
<path d="M58.8313 203.76H61.3213V206.25H58.8313V203.76Z" fill="#F0F0F0"/>
<path d="M58.8313 207.94H61.3213V210.43H58.8313V207.94Z" fill="#F0F0F0"/>
<path d="M58.8313 212.12H61.3213V214.61H58.8313V212.12Z" fill="#F0F0F0"/>
<path d="M58.8313 216.3H61.3213V218.79H58.8313V216.3Z" fill="#F0F0F0"/>
<path d="M58.8313 220.48H61.3213V222.97H58.8313V220.48Z" fill="#F0F0F0"/>
<path d="M58.8313 224.65H61.3213V227.14H58.8313V224.65Z" fill="#F0F0F0"/>
<path d="M58.8313 228.83H61.3213V231.32H58.8313V228.83Z" fill="#F0F0F0"/>
<path d="M58.8313 233.01H61.3213V235.5H58.8313V233.01Z" fill="#F0F0F0"/>
<path d="M58.8313 258.09H61.3213V260.58H58.8313V258.09Z" fill="#F0F0F0"/>
<path d="M58.8313 262.26H61.3213V264.75H58.8313V262.26Z" fill="#F0F0F0"/>
<path d="M62.7815 170.33H65.2715V172.82H62.7815V170.33Z" fill="#F0F0F0"/>
<path d="M62.7815 174.51H65.2715V177H62.7815V174.51Z" fill="#F0F0F0"/>
<path d="M62.7815 178.69H65.2715V181.18H62.7815V178.69Z" fill="#F0F0F0"/>
<path d="M62.7815 182.86H65.2715V185.35H62.7815V182.86Z" fill="#F0F0F0"/>
<path d="M62.7815 187.04H65.2715V189.53H62.7815V187.04Z" fill="#F0F0F0"/>
<path d="M62.7815 191.22H65.2715V193.71H62.7815V191.22Z" fill="#F0F0F0"/>
<path d="M62.7815 195.4H65.2715V197.89H62.7815V195.4Z" fill="#F0F0F0"/>
<path d="M62.7815 199.58H65.2715V202.07H62.7815V199.58Z" fill="#F0F0F0"/>
<path d="M62.7815 203.76H65.2715V206.25H62.7815V203.76Z" fill="#F0F0F0"/>
<path d="M62.7815 207.94H65.2715V210.43H62.7815V207.94Z" fill="#F0F0F0"/>
<path d="M62.7815 212.12H65.2715V214.61H62.7815V212.12Z" fill="#F0F0F0"/>
<path d="M62.7815 216.3H65.2715V218.79H62.7815V216.3Z" fill="#F0F0F0"/>
<path d="M62.7815 220.48H65.2715V222.97H62.7815V220.48Z" fill="#F0F0F0"/>
<path d="M62.7815 224.65H65.2715V227.14H62.7815V224.65Z" fill="#F0F0F0"/>
<path d="M62.7815 228.83H65.2715V231.32H62.7815V228.83Z" fill="#F0F0F0"/>
<path d="M62.7815 233.01H65.2715V235.5H62.7815V233.01Z" fill="#F0F0F0"/>
<path d="M62.7815 241.37H65.2715V243.86H62.7815V241.37Z" fill="#F0F0F0"/>
<path d="M62.7815 245.55H65.2715V248.04H62.7815V245.55Z" fill="#F0F0F0"/>
<path d="M62.7815 249.73H65.2715V252.22H62.7815V249.73Z" fill="#F0F0F0"/>
<path d="M62.7815 253.91H65.2715V256.4H62.7815V253.91Z" fill="#F0F0F0"/>
<path d="M62.7815 262.26H65.2715V264.75H62.7815V262.26Z" fill="#F0F0F0"/>
<path d="M131.851 199.58H134.341V202.07H131.851V199.58Z" fill="#F0F0F0"/>
<path d="M131.851 203.76H134.341V206.25H131.851V203.76Z" fill="#F0F0F0"/>
<path d="M131.851 207.94H134.341V210.43H131.851V207.94Z" fill="#F0F0F0"/>
<path d="M131.851 212.12H134.341V214.61H131.851V212.12Z" fill="#F0F0F0"/>
<path d="M131.851 216.3H134.341V218.79H131.851V216.3Z" fill="#F0F0F0"/>
<path d="M131.851 220.48H134.341V222.97H131.851V220.48Z" fill="#F0F0F0"/>
<path d="M131.851 224.65H134.341V227.14H131.851V224.65Z" fill="#F0F0F0"/>
<path d="M131.851 228.83H134.341V231.32H131.851V228.83Z" fill="#F0F0F0"/>
<path d="M131.851 233.01H134.341V235.5H131.851V233.01Z" fill="#F0F0F0"/>
<path d="M131.851 237.19H134.341V239.68H131.851V237.19Z" fill="#F0F0F0"/>
<path d="M131.851 241.37H134.341V243.86H131.851V241.37Z" fill="#F0F0F0"/>
<path d="M131.851 245.55H134.341V248.04H131.851V245.55Z" fill="#F0F0F0"/>
<path d="M131.851 249.73H134.341V252.22H131.851V249.73Z" fill="#F0F0F0"/>
<path d="M131.851 258.09H134.341V260.58H131.851V258.09Z" fill="#F0F0F0"/>
<path d="M131.851 262.26H134.341V264.75H131.851V262.26Z" fill="#F0F0F0"/>
<path d="M131.851 266.44H134.341V268.93H131.851V266.44Z" fill="#F0F0F0"/>
<path d="M131.851 270.62H134.341V273.11H131.851V270.62Z" fill="#F0F0F0"/>
<path d="M131.851 278.98H134.341V281.47H131.851V278.98Z" fill="#F0F0F0"/>
<path d="M131.851 283.16H134.341V285.65H131.851V283.16Z" fill="#F0F0F0"/>
<path d="M131.851 287.34H134.341V289.83H131.851V287.34Z" fill="#F0F0F0"/>
<path d="M135.811 199.58H138.301V202.07H135.811V199.58Z" fill="#F0F0F0"/>
<path d="M135.811 203.76H138.301V206.25H135.811V203.76Z" fill="#F0F0F0"/>
<path d="M135.811 207.94H138.301V210.43H135.811V207.94Z" fill="#F0F0F0"/>
<path d="M135.811 212.12H138.301V214.61H135.811V212.12Z" fill="#F0F0F0"/>
<path d="M135.811 216.3H138.301V218.79H135.811V216.3Z" fill="#F0F0F0"/>
<path d="M135.811 220.48H138.301V222.97H135.811V220.48Z" fill="#F0F0F0"/>
<path d="M135.811 224.65H138.301V227.14H135.811V224.65Z" fill="#F0F0F0"/>
<path d="M135.811 228.83H138.301V231.32H135.811V228.83Z" fill="#F0F0F0"/>
<path d="M135.811 233.01H138.301V235.5H135.811V233.01Z" fill="#F0F0F0"/>
<path d="M135.811 237.19H138.301V239.68H135.811V237.19Z" fill="#F0F0F0"/>
<path d="M135.811 241.37H138.301V243.86H135.811V241.37Z" fill="#F0F0F0"/>
<path d="M135.811 245.55H138.301V248.04H135.811V245.55Z" fill="#F0F0F0"/>
<path d="M135.811 249.73H138.301V252.22H135.811V249.73Z" fill="#F0F0F0"/>
<path d="M135.811 262.26H138.301V264.75H135.811V262.26Z" fill="#F0F0F0"/>
<path d="M135.811 266.44H138.301V268.93H135.811V266.44Z" fill="#F0F0F0"/>
<path d="M135.811 274.8H138.301V277.29H135.811V274.8Z" fill="#F0F0F0"/>
<path d="M135.811 278.98H138.301V281.47H135.811V278.98Z" fill="#F0F0F0"/>
<path d="M135.811 283.16H138.301V285.65H135.811V283.16Z" fill="#F0F0F0"/>
<path d="M135.811 287.34H138.301V289.83H135.811V287.34Z" fill="#F0F0F0"/>
<path d="M139.771 199.58H142.261V202.07H139.771V199.58Z" fill="#F0F0F0"/>
<path d="M139.771 203.76H142.261V206.25H139.771V203.76Z" fill="#F0F0F0"/>
<path d="M139.771 207.94H142.261V210.43H139.771V207.94Z" fill="#F0F0F0"/>
<path d="M139.771 212.12H142.261V214.61H139.771V212.12Z" fill="#F0F0F0"/>
<path d="M139.771 216.3H142.261V218.79H139.771V216.3Z" fill="#F0F0F0"/>
<path d="M139.771 220.48H142.261V222.97H139.771V220.48Z" fill="#F0F0F0"/>
<path d="M139.771 224.65H142.261V227.14H139.771V224.65Z" fill="#F0F0F0"/>
<path d="M139.771 228.83H142.261V231.32H139.771V228.83Z" fill="#F0F0F0"/>
<path d="M139.771 233.01H142.261V235.5H139.771V233.01Z" fill="#F0F0F0"/>
<path d="M139.771 237.19H142.261V239.68H139.771V237.19Z" fill="#F0F0F0"/>
<path d="M139.771 241.37H142.261V243.86H139.771V241.37Z" fill="#F0F0F0"/>
<path d="M139.771 245.55H142.261V248.04H139.771V245.55Z" fill="#F0F0F0"/>
<path d="M139.771 249.73H142.261V252.22H139.771V249.73Z" fill="#F0F0F0"/>
<path d="M139.771 253.91H142.261V256.4H139.771V253.91Z" fill="#F0F0F0"/>
<path d="M139.771 262.26H142.261V264.75H139.771V262.26Z" fill="#F0F0F0"/>
<path d="M139.771 270.62H142.261V273.11H139.771V270.62Z" fill="#F0F0F0"/>
<path d="M139.771 274.8H142.261V277.29H139.771V274.8Z" fill="#F0F0F0"/>
<path d="M139.771 278.98H142.261V281.47H139.771V278.98Z" fill="#F0F0F0"/>
<path d="M139.771 283.16H142.261V285.65H139.771V283.16Z" fill="#F0F0F0"/>
<path d="M139.771 287.34H142.261V289.83H139.771V287.34Z" fill="#F0F0F0"/>
<path d="M115.721 223.41H118.211V225.9H115.721V223.41Z" fill="#F0F0F0"/>
<path d="M115.721 227.59H118.211V230.08H115.721V227.59Z" fill="#F0F0F0"/>
<path d="M115.721 231.77H118.211V234.26H115.721V231.77Z" fill="#F0F0F0"/>
<path d="M115.721 235.94H118.211V238.43H115.721V235.94Z" fill="#F0F0F0"/>
<path d="M115.721 240.12H118.211V242.61H115.721V240.12Z" fill="#F0F0F0"/>
<path d="M115.721 244.3H118.211V246.79H115.721V244.3Z" fill="#F0F0F0"/>
<path d="M115.721 256.84H118.211V259.33H115.721V256.84Z" fill="#F0F0F0"/>
<path d="M115.721 261.02H118.211V263.51H115.721V261.02Z" fill="#F0F0F0"/>
<path d="M115.721 265.2H118.211V267.69H115.721V265.2Z" fill="#F0F0F0"/>
<path d="M115.721 269.38H118.211V271.87H115.721V269.38Z" fill="#F0F0F0"/>
<path d="M115.721 273.56H118.211V276.05H115.721V273.56Z" fill="#F0F0F0"/>
<path d="M115.721 277.73H118.211V280.22H115.721V277.73Z" fill="#F0F0F0"/>
<path d="M115.721 281.91H118.211V284.4H115.721V281.91Z" fill="#F0F0F0"/>
<path d="M119.681 223.41H122.171V225.9H119.681V223.41Z" fill="#F0F0F0"/>
<path d="M119.681 227.59H122.171V230.08H119.681V227.59Z" fill="#F0F0F0"/>
<path d="M119.681 231.77H122.171V234.26H119.681V231.77Z" fill="#F0F0F0"/>
<path d="M119.681 235.94H122.171V238.43H119.681V235.94Z" fill="#F0F0F0"/>
<path d="M119.681 240.12H122.171V242.61H119.681V240.12Z" fill="#F0F0F0"/>
<path d="M119.681 244.3H122.171V246.79H119.681V244.3Z" fill="#F0F0F0"/>
<path d="M119.681 256.84H122.171V259.33H119.681V256.84Z" fill="#F0F0F0"/>
<path d="M119.681 261.02H122.171V263.51H119.681V261.02Z" fill="#F0F0F0"/>
<path d="M119.681 265.2H122.171V267.69H119.681V265.2Z" fill="#F0F0F0"/>
<path d="M119.681 269.38H122.171V271.87H119.681V269.38Z" fill="#F0F0F0"/>
<path d="M119.681 273.56H122.171V276.05H119.681V273.56Z" fill="#F0F0F0"/>
<path d="M119.681 277.73H122.171V280.22H119.681V277.73Z" fill="#F0F0F0"/>
<path d="M119.681 286.09H122.171V288.58H119.681V286.09Z" fill="#F0F0F0"/>
<path d="M251.211 205.01H253.701V207.5H251.211V205.01Z" fill="#F0F0F0"/>
<path d="M251.211 209.18H253.701V211.67H251.211V209.18Z" fill="#F0F0F0"/>
<path d="M251.211 213.36H253.701V215.85H251.211V213.36Z" fill="#F0F0F0"/>
<path d="M251.211 217.54H253.701V220.03H251.211V217.54Z" fill="#F0F0F0"/>
<path d="M251.211 221.72H253.701V224.21H251.211V221.72Z" fill="#F0F0F0"/>
<path d="M251.211 225.9H253.701V228.39H251.211V225.9Z" fill="#F0F0F0"/>
<path d="M251.211 230.08H253.701V232.57H251.211V230.08Z" fill="#F0F0F0"/>
<path d="M251.211 234.26H253.701V236.75H251.211V234.26Z" fill="#F0F0F0"/>
<path d="M251.211 238.44H253.701V240.93H251.211V238.44Z" fill="#F0F0F0"/>
<path d="M251.211 242.62H253.701V245.11H251.211V242.62Z" fill="#F0F0F0"/>
<path d="M251.211 246.8H253.701V249.29H251.211V246.8Z" fill="#F0F0F0"/>
<path d="M251.211 255.15H253.701V257.64H251.211V255.15Z" fill="#F0F0F0"/>
<path d="M251.211 259.33H253.701V261.82H251.211V259.33Z" fill="#F0F0F0"/>
<path d="M251.211 263.51H253.701V266H251.211V263.51Z" fill="#F0F0F0"/>
<path d="M251.211 267.69H253.701V270.18H251.211V267.69Z" fill="#F0F0F0"/>
<path d="M251.211 271.87H253.701V274.36H251.211V271.87Z" fill="#F0F0F0"/>
<path d="M251.211 276.05H253.701V278.54H251.211V276.05Z" fill="#F0F0F0"/>
<path d="M251.211 280.23H253.701V282.72H251.211V280.23Z" fill="#F0F0F0"/>
<path d="M251.211 284.41H253.701V286.9H251.211V284.41Z" fill="#F0F0F0"/>
<path d="M255.161 205.01H257.651V207.5H255.161V205.01Z" fill="#F0F0F0"/>
<path d="M255.161 209.18H257.651V211.67H255.161V209.18Z" fill="#F0F0F0"/>
<path d="M255.161 213.36H257.651V215.85H255.161V213.36Z" fill="#F0F0F0"/>
<path d="M255.161 217.54H257.651V220.03H255.161V217.54Z" fill="#F0F0F0"/>
<path d="M255.161 221.72H257.651V224.21H255.161V221.72Z" fill="#F0F0F0"/>
<path d="M255.161 225.9H257.651V228.39H255.161V225.9Z" fill="#F0F0F0"/>
<path d="M255.161 230.08H257.651V232.57H255.161V230.08Z" fill="#F0F0F0"/>
<path d="M255.161 234.26H257.651V236.75H255.161V234.26Z" fill="#F0F0F0"/>
<path d="M255.161 238.44H257.651V240.93H255.161V238.44Z" fill="#F0F0F0"/>
<path d="M255.161 242.62H257.651V245.11H255.161V242.62Z" fill="#F0F0F0"/>
<path d="M255.161 246.8H257.651V249.29H255.161V246.8Z" fill="#F0F0F0"/>
<path d="M255.161 250.97H257.651V253.46H255.161V250.97Z" fill="#F0F0F0"/>
<path d="M255.161 255.15H257.651V257.64H255.161V255.15Z" fill="#F0F0F0"/>
<path d="M255.161 259.33H257.651V261.82H255.161V259.33Z" fill="#F0F0F0"/>
<path d="M255.161 263.51H257.651V266H255.161V263.51Z" fill="#F0F0F0"/>
<path d="M255.161 267.69H257.651V270.18H255.161V267.69Z" fill="#F0F0F0"/>
<path d="M255.161 271.87H257.651V274.36H255.161V271.87Z" fill="#F0F0F0"/>
<path d="M255.161 276.05H257.651V278.54H255.161V276.05Z" fill="#F0F0F0"/>
<path d="M255.161 280.23H257.651V282.72H255.161V280.23Z" fill="#F0F0F0"/>
<path d="M255.161 284.41H257.651V286.9H255.161V284.41Z" fill="#F0F0F0"/>
<path d="M231.701 221.28H234.191V223.77H231.701V221.28Z" fill="#F0F0F0"/>
<path d="M231.701 225.46H234.191V227.95H231.701V225.46Z" fill="#F0F0F0"/>
<path d="M231.701 229.64H234.191V232.13H231.701V229.64Z" fill="#F0F0F0"/>
<path d="M231.701 233.82H234.191V236.31H231.701V233.82Z" fill="#F0F0F0"/>
<path d="M231.701 238H234.191V240.49H231.701V238Z" fill="#F0F0F0"/>
<path d="M231.701 242.18H234.191V244.67H231.701V242.18Z" fill="#F0F0F0"/>
<path d="M231.701 246.36H234.191V248.85H231.701V246.36Z" fill="#F0F0F0"/>
<path d="M231.701 250.53H234.191V253.02H231.701V250.53Z" fill="#F0F0F0"/>
<path d="M231.701 254.71H234.191V257.2H231.701V254.71Z" fill="#F0F0F0"/>
<path d="M231.701 258.89H234.191V261.38H231.701V258.89Z" fill="#F0F0F0"/>
<path d="M235.661 221.28H238.151V223.77H235.661V221.28Z" fill="#F0F0F0"/>
<path d="M235.661 225.46H238.151V227.95H235.661V225.46Z" fill="#F0F0F0"/>
<path d="M235.661 229.64H238.151V232.13H235.661V229.64Z" fill="#F0F0F0"/>
<path d="M235.661 233.82H238.151V236.31H235.661V233.82Z" fill="#F0F0F0"/>
<path d="M235.661 238H238.151V240.49H235.661V238Z" fill="#F0F0F0"/>
<path d="M235.661 242.18H238.151V244.67H235.661V242.18Z" fill="#F0F0F0"/>
<path d="M235.661 246.36H238.151V248.85H235.661V246.36Z" fill="#F0F0F0"/>
<path d="M235.661 250.53H238.151V253.02H235.661V250.53Z" fill="#F0F0F0"/>
<path d="M235.661 254.71H238.151V257.2H235.661V254.71Z" fill="#F0F0F0"/>
<path d="M212.11 62.69H216.29V295.77H212.11V62.69Z" fill="#E0E0E0"/>
<path d="M133.4 62.69H137.58V295.77H133.4V62.69Z" fill="#E0E0E0"/>
<path d="M54.6999 62.69H58.8799V295.77H54.6999V62.69Z" fill="#E0E0E0"/>
<path d="M321.99 327.33H356.58V277.5C356.58 275.07 354.61 273.09 352.17 273.09H326.39C323.96 273.09 321.98 275.06 321.98 277.5V327.33H321.99Z" fill="#F0F0F0"/>
<path d="M321.99 280.43H356.58V284.32H321.99V280.43Z" fill="#E6E6E6"/>
<path d="M328.3 320.76H336.92C338.23 320.76 339.29 321.82 339.29 323.13V327.33H325.93V323.13C325.92 321.82 326.99 320.76 328.3 320.76Z" fill="#E0E0E0"/>
<path d="M325.88 327.33H335.47C336.32 327.33 337.01 326.64 337.01 325.79C337.01 324.94 336.32 324.25 335.47 324.25H325.88C325.03 324.25 324.34 324.94 324.34 325.79C324.34 326.64 325.03 327.33 325.88 327.33Z" fill="#E6E6E6"/>
<path d="M172.3 51.7197C159.642 48.7308 151.804 36.0467 154.792 23.389C157.781 10.7313 170.465 2.8931 183.123 5.88194C195.781 8.87079 203.619 21.5549 200.63 34.2126C197.641 46.8703 184.957 54.7085 172.3 51.7197Z" fill="#E0E0E0"/>
<path d="M174.486 48.587C163.566 46.8148 156.151 36.5262 157.923 25.6066C159.695 14.687 169.984 7.27161 180.903 9.04379C191.823 10.816 199.238 21.1046 197.466 32.0242C195.694 42.9438 185.405 50.3592 174.486 48.587Z" fill="#F0F0F0"/>
<path d="M176.761 15.08V29.08L167.481 23.83" fill="#F0F0F0"/>
<path d="M176.761 15.08V29.08L167.481 23.83" stroke="#E0E0E0" stroke-width="2" stroke-miterlimit="10" stroke-linecap="round" stroke-linejoin="round"/>
<path d="M403.07 258.69C404.87 255.73 407.83 258.3 407.83 258.3C407.41 252.62 412.63 248.74 412.63 248.74C412.63 248.74 406.56 248.74 405.71 242.95C404.86 237.16 407.83 239.85 410.61 239.81C413.39 239.77 416.3 247.9 412.63 252.46C408.96 257.03 409.95 264.83 418.41 272.33C420.48 274.16 421.88 276.6 422.83 279.23C422.19 272.34 421.83 262.63 423.86 256.15C427.3 245.14 420.74 242.18 418.84 236.67C416.93 231.16 423.86 226.51 423.86 226.51C423.86 226.51 417.35 223.55 420.53 220.16C423.71 216.77 430.27 217.23 430.27 221.66C430.27 226.09 425.82 227.78 425.82 227.78C425.82 227.78 420.74 233.07 420.74 235.83C420.74 238.58 425.82 244.51 425.82 244.51C425.82 244.51 423.49 239.44 428.15 239.22C432.81 239 434.29 245.14 432.38 247.9C430.47 250.65 427.3 248.32 427.3 248.32C427.3 248.32 426.93 254.25 425.84 257.85C425.36 259.43 425.59 265.64 425.99 272.1C426.93 269.77 428.25 267.63 430.11 265.98C438.58 258.48 439.56 250.68 435.89 246.11C432.22 241.54 435.13 233.42 437.91 233.46C440.69 233.5 443.66 230.8 442.81 236.6C441.96 242.4 435.89 242.39 435.89 242.39C435.89 242.39 441.12 246.28 440.69 251.95C440.69 251.95 443.65 249.37 445.45 252.34C448.66 257.63 441.22 260.91 439.96 258.31C439.96 258.31 424.17 269.49 427.98 285.58L427.09 286.89C427.2 288.19 427.28 288.97 427.28 288.97L426.04 288.44L424.63 290.51C424.7 294.53 424.27 297.5 424.27 297.5L420.49 291.93C424.3 275.84 408.51 264.66 408.51 264.66C407.3 267.27 399.86 263.98 403.07 258.69Z" fill="#E0E0E0"/>
<path opacity="0.2" d="M403.07 258.69C404.87 255.73 407.83 258.3 407.83 258.3C407.41 252.62 412.63 248.74 412.63 248.74C412.63 248.74 406.56 248.74 405.71 242.95C404.86 237.16 407.83 239.85 410.61 239.81C413.39 239.77 416.3 247.9 412.63 252.46C408.96 257.03 409.95 264.83 418.41 272.33C420.48 274.16 421.88 276.6 422.83 279.23C422.19 272.34 421.83 262.63 423.86 256.15C427.3 245.14 420.74 242.18 418.84 236.67C416.93 231.16 423.86 226.51 423.86 226.51C423.86 226.51 417.35 223.55 420.53 220.16C423.71 216.77 430.27 217.23 430.27 221.66C430.27 226.09 425.82 227.78 425.82 227.78C425.82 227.78 420.74 233.07 420.74 235.83C420.74 238.58 425.82 244.51 425.82 244.51C425.82 244.51 423.49 239.44 428.15 239.22C432.81 239 434.29 245.14 432.38 247.9C430.47 250.65 427.3 248.32 427.3 248.32C427.3 248.32 426.93 254.25 425.84 257.85C425.36 259.43 425.59 265.64 425.99 272.1C426.93 269.77 428.25 267.63 430.11 265.98C438.58 258.48 439.56 250.68 435.89 246.11C432.22 241.54 435.13 233.42 437.91 233.46C440.69 233.5 443.66 230.8 442.81 236.6C441.96 242.4 435.89 242.39 435.89 242.39C435.89 242.39 441.12 246.28 440.69 251.95C440.69 251.95 443.65 249.37 445.45 252.34C448.66 257.63 441.22 260.91 439.96 258.31C439.96 258.31 424.17 269.49 427.98 285.58L427.09 286.89C427.2 288.19 427.28 288.97 427.28 288.97L426.04 288.44L424.63 290.51C424.7 294.53 424.27 297.5 424.27 297.5L420.49 291.93C424.3 275.84 408.51 264.66 408.51 264.66C407.3 267.27 399.86 263.98 403.07 258.69Z" fill="#E0E0E0"/>
<path d="M406.16 327.33H442.33L446.24 287.73H402.26L406.16 327.33Z" fill="#E6E6E6"/>
<path d="M400.33 283.36H448.17V292.1H400.33V283.36Z" fill="#F0F0F0"/>
<path d="M250 372.61C142.917 372.61 56.1096 367.542 56.1096 361.29C56.1096 355.038 142.917 349.97 250 349.97C357.082 349.97 443.89 355.038 443.89 361.29C443.89 367.542 357.082 372.61 250 372.61Z" fill="#F5F5F5"/>
<path d="M89.5498 329.77C89.3998 328.75 85.8999 304.6 92.9099 296.26C94.4599 294.41 96.4199 293.45 98.7299 293.39C112.88 293.06 114.82 304.43 114.84 304.54L113.17 304.8C113.11 304.39 111.43 294.77 98.7698 295.08C96.9398 295.12 95.4399 295.87 94.1999 297.35C87.6699 305.11 91.1798 329.28 91.2198 329.52L89.5498 329.77Z" fill="#FFB459"/>
<path d="M88.7 328.67L87.01 328.62C87.02 328.4 87.57 306.37 76.72 301.82C66.08 297.36 61.3 306.53 61.1 306.92L59.59 306.16C59.65 306.05 65.26 295.18 77.37 300.26C89.29 305.25 88.73 327.71 88.7 328.67Z" fill="#FFB459"/>
<path d="M88.7504 330.4C88.7504 330.05 88.6504 295.21 81.8604 285.02C75.3404 275.24 64.8204 279.84 64.3704 280.04L63.6704 278.5C63.7904 278.44 75.9304 273.09 83.2604 284.08C90.3304 294.69 90.4404 328.94 90.4404 330.4H88.7504Z" fill="#FFB459"/>
<path d="M100.76 294.23C100.76 294.23 94.5801 296.51 96.4201 301.89C98.2601 307.27 117.8 316.12 117.8 316.12C117.8 316.12 125.98 308.62 118.47 296.42C110.95 284.21 100.93 290.38 100.76 294.23Z" fill="#FFB459"/>
<path d="M81.5496 283.18C81.5496 283.18 85.9396 282.71 85.5796 280.04C85.2296 277.37 68.5296 270.49 58.6696 281.61C58.6696 281.61 64.9796 292.45 74.0996 292.59C83.2196 292.73 81.5496 283.18 81.5496 283.18Z" fill="#FFB459"/>
<path d="M77.0404 301.03C77.0404 301.03 80.0704 298.59 76.8004 297.39C73.5304 296.2 57.5004 296.54 57.3304 312.42C57.3304 312.42 76.0004 315.52 78.3104 309.47C80.6204 303.42 77.0404 301.03 77.0404 301.03Z" fill="#FFB459"/>
<path opacity="0.2" d="M100.76 294.23C100.76 294.23 94.5801 296.51 96.4201 301.89C98.2601 307.27 117.8 316.12 117.8 316.12C117.8 316.12 125.98 308.62 118.47 296.42C110.95 284.21 100.93 290.38 100.76 294.23Z" fill="#FFB459"/>
<path opacity="0.2" d="M81.5496 283.18C81.5496 283.18 85.9396 282.71 85.5796 280.04C85.2296 277.37 68.5296 270.49 58.6696 281.61C58.6696 281.61 64.9796 292.45 74.0996 292.59C83.2196 292.73 81.5496 283.18 81.5496 283.18Z" fill="#FFB459"/>
<path opacity="0.2" d="M77.0404 301.03C77.0404 301.03 80.0704 298.59 76.8004 297.39C73.5304 296.2 57.5004 296.54 57.3304 312.42C57.3304 312.42 76.0004 315.52 78.3104 309.47C80.6204 303.42 77.0404 301.03 77.0404 301.03Z" fill="#FFB459"/>
<path d="M104.08 362.12H75.1002L71.9802 330.4H107.2L104.08 362.12Z" fill="#FFEDD7"/>
<path opacity="0.5" d="M104.08 362.12H75.1002L71.9802 330.4H107.2L104.08 362.12Z" fill="#FFBF72"/>
<path d="M108.75 333.891H70.4297V326.891H108.75V333.891Z" fill="#FFB459"/>
<path opacity="0.2" d="M108.75 333.891H70.4297V326.891H108.75V333.891Z" fill="#FFEDD7"/>
<path d="M136.88 339.38L165.69 336.55V296.06H177.11V336.54L206.04 339.38C208.91 339.66 211.1 342.08 211.1 344.96V349.29H172.52H170.4H131.82V344.96C131.82 342.08 134 339.66 136.88 339.38Z" fill="#263238"/>
<path opacity="0.2" d="M136.88 339.38L165.69 336.55V296.06H177.11V336.54L206.04 339.38C208.91 339.66 211.1 342.08 211.1 344.96V349.29H172.52H170.4H131.82V344.96C131.82 342.08 134 339.66 136.88 339.38Z" fill="white"/>
<path d="M208.05 362.13C203.924 362.13 200.58 358.786 200.58 354.66C200.58 350.534 203.924 347.19 208.05 347.19C212.175 347.19 215.52 350.534 215.52 354.66C215.52 358.786 212.175 362.13 208.05 362.13Z" fill="#263238"/>
<path d="M134.859 362.13C130.734 362.13 127.389 358.786 127.389 354.66C127.389 350.534 130.734 347.19 134.859 347.19C138.985 347.19 142.329 350.534 142.329 354.66C142.329 358.786 138.985 362.13 134.859 362.13Z" fill="#263238"/>
<path d="M167.859 304.76H174.949C177.229 304.76 179.079 302.91 179.079 300.63V268.7H163.729V300.63C163.719 302.91 165.569 304.76 167.859 304.76Z" fill="#263238"/>
<path opacity="0.3" d="M167.859 304.76H174.949C177.229 304.76 179.079 302.91 179.079 300.63V268.7H163.729V300.63C163.719 302.91 165.569 304.76 167.859 304.76Z" fill="white"/>
<path d="M144.1 205.4C144.1 205.4 141.92 259.4 156.96 268.69H139.8C139.8 268.69 126.5 250.29 130.26 205.4H144.1Z" fill="#263238"/>
<path opacity="0.3" d="M144.1 205.4C144.1 205.4 141.92 259.4 156.96 268.69H139.8C139.8 268.69 126.5 250.29 130.26 205.4H144.1Z" fill="white"/>
<path d="M205.869 261.14H138.949C136.189 261.14 133.949 263.38 133.949 266.14V272.83H210.869V266.14C210.869 263.38 208.629 261.14 205.869 261.14Z" fill="#263238"/>
<path d="M212.059 266.99H132.749C131.639 266.99 130.739 267.89 130.739 269V270.82C130.739 271.93 131.639 272.83 132.749 272.83H212.059C213.169 272.83 214.069 271.93 214.069 270.82V269C214.069 267.89 213.169 266.99 212.059 266.99Z" fill="#263238"/>
<path opacity="0.6" d="M212.059 266.99H132.749C131.639 266.99 130.739 267.89 130.739 269V270.82C130.739 271.93 131.639 272.83 132.749 272.83H212.059C213.169 272.83 214.069 271.93 214.069 270.82V269C214.069 267.89 213.169 266.99 212.059 266.99Z" fill="white"/>
<path d="M126.049 216.37H153.539C161.589 216.37 168.119 209.84 168.119 201.79V191.04C168.119 182.99 161.589 176.46 153.539 176.46H126.049C117.999 176.46 111.469 182.99 111.469 191.04V201.79C111.459 209.84 117.989 216.37 126.049 216.37Z" fill="#263238"/>
<path d="M236.95 132.33L242.44 117.86C242.44 117.86 240.09 115.68 241.7 113.47C243.31 111.26 253.44 105.04 255.29 106.14C257.14 107.23 261.23 111.35 259.02 113.64C256.8 115.93 246.99 119.74 246.99 119.74L242.14 138.73L236.95 132.33Z" fill="#E4897B"/>
<path d="M198.62 159.84C198.62 159.84 223.59 154.71 226.3 153.48C229.01 152.25 239.06 122.82 239.06 122.82L246.76 126.42C246.76 126.42 240.56 155.96 234.22 162.99C227.88 170.01 200.83 175.96 200.83 175.96L198.62 159.84Z" fill="#FFB459"/>
<path opacity="0.2" d="M200.83 175.95C200.83 175.95 200.99 175.92 201.29 175.84C202.66 175.53 206.92 174.53 211.99 173.04C220.22 170.65 230.6 166.99 234.22 162.98C240.55 155.95 246.76 126.41 246.76 126.41L239.06 122.81C239.06 122.81 229.01 152.25 226.29 153.47C223.58 154.69 198.62 159.82 198.62 159.82L200.83 175.95Z" fill="#FFB459"/>
<path d="M238.93 122.24L237.34 125.31L247.24 128.72L246.86 124.97L238.93 122.24Z" fill="#333333"/>
<path opacity="0.2" d="M200.64 175.54C202.03 175.34 206.36 174.67 211.53 173.58C208.58 168.49 199.94 165.87 199.94 165.87L200.64 175.54Z" fill="black"/>
<path d="M163.42 139.46C163.42 139.46 161.95 153.29 167.08 156.69C172.2 160.09 197.41 156.11 200.27 150.54C203.13 144.98 192.37 129.87 192.37 129.87L163.42 139.46Z" fill="#263238"/>
<path d="M265.41 321.45L258.83 323.03L255.5 313.95L252.48 305.69L259.97 302.5L262.85 312.52L265.41 321.45Z" fill="#E4897B"/>
<path opacity="0.2" d="M262.85 312.52L255.5 313.95L252.48 305.69L259.97 302.5L262.85 312.52Z" fill="black"/>
<path d="M262.189 307.73L253.069 311.12C253.069 311.12 228.739 250.29 223.739 250.08C218.739 249.87 167.829 273.27 155.069 260.29C142.309 247.32 160.759 216.05 160.759 216.05C160.759 216.05 191.449 211.67 193.759 218.6C194.209 219.94 194.699 222.57 195.059 224.82C195.409 226.94 195.649 228.72 195.649 228.72C195.649 228.72 195.659 228.72 195.669 228.71C196.619 228.47 227.429 220.52 239.569 228.72C251.899 237.06 262.189 307.73 262.189 307.73Z" fill="#407BFF"/>
<path opacity="0.6" d="M262.189 307.73L253.069 311.12C253.069 311.12 228.739 250.29 223.739 250.08C218.739 249.87 167.829 273.27 155.069 260.29C142.309 247.32 160.759 216.05 160.759 216.05C160.759 216.05 191.449 211.67 193.759 218.6C194.209 219.94 194.699 222.57 195.059 224.82C195.409 226.94 195.649 228.72 195.649 228.72C195.649 228.72 195.659 228.72 195.669 228.71C196.619 228.47 227.429 220.52 239.569 228.72C251.899 237.06 262.189 307.73 262.189 307.73Z" fill="white"/>
<path d="M209.73 347.39L203.18 345.72L204.44 336.32L205.61 327.69L213.71 328.42L211.61 338.47L209.73 347.39Z" fill="#E4897B"/>
<path opacity="0.2" d="M211.56 338.67L204.4 336.5L205.59 327.78L213.7 328.47L211.56 338.67Z" fill="black"/>
<path d="M249.299 307.74L262.589 303.23L263.149 308.67L253.079 312.23L249.299 307.74Z" fill="#FFB459"/>
<path d="M177.11 263.41C177.11 263.41 179.19 263.46 211.38 261.96C211.38 261.96 206.57 302.21 203.94 332.33L213.57 333.97C213.57 333.97 236.57 269.46 236.32 259.21C236.07 248.96 224.32 245.96 224.32 245.96C224.32 245.96 201.39 259.21 177.11 263.41Z" fill="#407BFF"/>
<path opacity="0.6" d="M177.11 263.41C177.11 263.41 179.19 263.46 211.38 261.96C211.38 261.96 206.57 302.21 203.94 332.33L213.57 333.97C213.57 333.97 236.57 269.46 236.32 259.21C236.07 248.96 224.32 245.96 224.32 245.96C224.32 245.96 201.39 259.21 177.11 263.41Z" fill="white"/>
<path opacity="0.1" d="M177.11 263.41C177.11 263.41 179.19 263.46 211.38 261.96C211.38 261.96 206.57 302.21 203.94 332.33L213.57 333.97C213.57 333.97 236.57 269.46 236.32 259.21C236.07 248.96 224.32 245.96 224.32 245.96C224.32 245.96 201.39 259.21 177.11 263.41Z" fill="black"/>
<path d="M202.54 329.41L215.77 330.92L213.21 336.1L202.5 334.73L202.54 329.41Z" fill="#FFB459"/>
<path opacity="0.1" d="M195.649 228.72L177.699 232.46C177.699 232.46 187.619 226.98 195.059 224.82C195.409 226.94 195.649 228.72 195.649 228.72Z" fill="black"/>
<path d="M161.5 211.28L160.76 216.05L193.76 218.6L194.64 212.95L161.5 211.28Z" fill="#263238"/>
<path opacity="0.2" d="M161.5 211.28L160.76 216.05L193.76 218.6L194.64 212.95L161.5 211.28Z" fill="black"/>
<path d="M171.927 219.265L170.296 219.097L171.15 210.79L172.782 210.958L171.927 219.265Z" fill="#407BFF"/>
<path d="M186.532 218.43L179.308 217.966L179.66 212.487L186.884 212.951L186.532 218.43Z" fill="white"/>
<path d="M192.142 220.166L190.511 219.998L191.365 211.692L192.996 211.86L192.142 220.166Z" fill="#407BFF"/>
<path opacity="0.6" d="M171.927 219.265L170.296 219.097L171.15 210.79L172.782 210.958L171.927 219.265Z" fill="white"/>
<path opacity="0.6" d="M192.142 220.166L190.511 219.998L191.365 211.692L192.996 211.86L192.142 220.166Z" fill="white"/>
<path d="M199.22 159.39C199.22 159.39 190.8 162.03 180.21 161.49C169.62 160.95 156.96 166.09 156.96 166.09L161.51 211.28L194.64 212.95C194.64 212.95 205.77 175.21 199.22 159.39Z" fill="#FFEDD7"/>
<path d="M193.89 133.86C193.89 133.86 192.03 111.91 173.68 119.89C150.65 129.9 168.96 156.63 180.21 151.14C191.46 145.65 193.89 133.86 193.89 133.86Z" fill="#263238"/>
<path opacity="0.2" d="M188.75 162.71L188.22 175.11L184.11 169.28C184.11 169.28 185.58 183 184.72 190.46C184.72 190.46 183.93 177.07 182.07 169.28L177.7 175.11L171.43 162.79C171.42 162.79 181.58 159.14 188.75 162.71Z" fill="black"/>
<path d="M183.07 165.02L173.58 162.34C179.43 158.32 176.48 149.32 176.48 149.32L185.88 152.62C185.38 154.18 185.06 155.5 184.87 156.64C183.89 162.5 186.54 162.97 186.54 162.97L183.07 165.02Z" fill="#E4897B"/>
<path opacity="0.2" d="M185.88 152.62C185.38 154.18 185.06 155.5 184.87 156.64C180.37 154.84 176.48 149.32 176.48 149.32L185.88 152.62Z" fill="black"/>
<path d="M179.741 124.5C188.061 122.66 191.731 126.52 194.241 134.96C197.371 145.51 196.681 153.65 185.771 153.66C170.951 153.69 165.921 127.56 179.741 124.5Z" fill="#E4897B"/>
<path d="M188.76 135.69C188.76 135.69 190.39 137.61 191.95 138.61C191.95 138.61 191.49 139.9 189.96 140.04L188.76 135.69Z" fill="#DE5753"/>
<path d="M183.51 136.13C183.68 136.81 183.45 137.45 182.99 137.56C182.54 137.67 182.03 137.21 181.87 136.53C181.7 135.85 181.93 135.21 182.39 135.1C182.84 134.99 183.34 135.45 183.51 136.13Z" fill="#263238"/>
<path d="M182.211 135.18L183.551 134.24C183.541 134.24 183.111 135.67 182.211 135.18Z" fill="#263238"/>
<path d="M191.93 133.91C192.1 134.59 191.87 135.23 191.41 135.34C190.96 135.45 190.45 134.99 190.29 134.31C190.12 133.63 190.35 132.99 190.81 132.88C191.26 132.77 191.76 133.23 191.93 133.91Z" fill="#263238"/>
<path d="M190.631 132.96L191.971 132.02C191.961 132.02 191.531 133.44 190.631 132.96Z" fill="#263238"/>
<path d="M182.16 130.41C182.16 130.41 179.75 130.62 178.83 132.47" stroke="#263238" stroke-width="0.7247" stroke-miterlimit="10" stroke-linecap="round" stroke-linejoin="round"/>
<path d="M188.131 128.72C188.131 128.72 189.481 127.85 191.601 128.67" stroke="#263238" stroke-width="0.7247" stroke-miterlimit="10" stroke-linecap="round" stroke-linejoin="round"/>
<path d="M173.751 140.54C173.751 140.54 176.131 132.84 174.371 127.69C174.371 127.69 189.371 117.3 193.891 133.86C193.891 133.86 192.211 118.64 177.831 121.47C163.471 124.3 168.141 145.22 176.911 149.82C176.921 149.83 172.291 145.35 173.751 140.54Z" fill="#263238"/>
<path d="M175.5 142C175.15 140.67 173.26 138.71 170.83 139.53C168.31 140.38 168.26 145.95 174.95 145.8C175.92 145.78 176.24 144.77 175.5 142Z" fill="#E4897B"/>
<path d="M191.45 143.19C191.16 144.29 191.02 146.28 191.02 146.28C190.84 146.3 190.65 146.32 190.47 146.33C187.99 146.54 186.76 145.82 186.16 144.95C185.83 144.48 185.7 143.95 185.64 143.52C185.57 143.02 185.64 142.65 185.64 142.65C187.02 143.33 189.36 143.31 190.6 143.24C191.12 143.23 191.45 143.19 191.45 143.19Z" fill="#263238"/>
<path d="M190.601 143.25L190.451 144.16C188.111 144.35 186.431 144.18 185.641 143.53C185.571 143.03 185.641 142.66 185.641 142.66C187.021 143.33 189.351 143.31 190.601 143.25Z" fill="white"/>
<path d="M190.47 146.34C187.99 146.55 186.76 145.83 186.16 144.96C187.01 144.92 188.04 144.97 188.97 145.27C189.67 145.5 190.14 145.91 190.47 146.34Z" fill="#DE5753"/>
<path d="M179.71 125.17C179.71 125.17 179.39 139.61 170.73 141.34C162.07 143.07 171.54 122.79 171.54 122.79C171.54 122.79 184.44 114.37 193.03 120.3C201.63 126.24 193.9 133.87 193.9 133.87C193.9 133.87 192.08 123.14 179.71 125.17Z" fill="#263238"/>
<path d="M179.41 124.21C179.41 124.21 182.5 133.34 176.4 138.13" stroke="#263238" stroke-width="0.5" stroke-miterlimit="10" stroke-linecap="round" stroke-linejoin="round"/>
<path d="M168.2 144.3C169.3 147.24 172.13 148.89 174.52 147.99C176.91 147.09 177.95 143.99 176.85 141.05C175.75 138.11 172.92 136.46 170.53 137.36C168.14 138.26 167.1 141.37 168.2 144.3Z" fill="#407BFF"/>
<path opacity="0.4" d="M168.2 144.3C169.3 147.24 172.13 148.89 174.52 147.99C176.91 147.09 177.95 143.99 176.85 141.05C175.75 138.11 172.92 136.46 170.53 137.36C168.14 138.26 167.1 141.37 168.2 144.3Z" fill="black"/>
<path d="M170.96 139.49C170.96 139.49 167.37 123.42 175.42 119.21C175.42 119.21 173.74 119.44 172.7 119.74C171.66 120.04 165.23 126.56 168.48 141L170.96 139.49Z" fill="#407BFF"/>
<path opacity="0.2" d="M170.96 139.49C170.96 139.49 167.37 123.42 175.42 119.21C175.42 119.21 173.74 119.44 172.7 119.74C171.66 120.04 165.23 126.56 168.48 141L170.96 139.49Z" fill="black"/>
<path d="M186.049 148.69C186.249 148.66 186.449 148.63 186.649 148.6L186.489 147.61C179.239 148.79 173.849 144.96 173.799 144.92L173.209 145.73C173.429 145.89 178.679 149.66 186.049 148.69Z" fill="#407BFF"/>
<g opacity="0.2">
<path opacity="0.2" d="M186.049 148.69C186.249 148.66 186.449 148.63 186.649 148.6L186.489 147.61C179.239 148.79 173.849 144.96 173.799 144.92L173.209 145.73C173.429 145.89 178.679 149.66 186.049 148.69Z" fill="black"/>
</g>
<path d="M168.54 143.9C169.27 145.84 171.14 146.93 172.72 146.34C174.3 145.75 174.99 143.69 174.26 141.75C173.53 139.81 171.66 138.72 170.08 139.31C168.5 139.91 167.81 141.96 168.54 143.9Z" fill="#407BFF"/>
<path d="M186.94 149.02L187.74 148.91C188.34 148.83 188.76 148.29 188.68 147.69C188.6 147.09 188.06 146.67 187.46 146.75L186.66 146.86C186.06 146.94 185.64 147.48 185.72 148.08C185.8 148.67 186.35 149.09 186.94 149.02Z" fill="#407BFF"/>
<path opacity="0.4" d="M186.94 149.02L187.74 148.91C188.34 148.83 188.76 148.29 188.68 147.69C188.6 147.09 188.06 146.67 187.46 146.75L186.66 146.86C186.06 146.94 185.64 147.48 185.72 148.08C185.8 148.67 186.35 149.09 186.94 149.02Z" fill="black"/>
<path d="M176.13 158.9L182.07 164.73L179.69 171.89L171.42 162.79L176.13 158.9Z" fill="#407BFF"/>
<path d="M184.72 160.12L183.76 164.61L186.83 170.96L188.75 162.71L184.72 160.12Z" fill="#FFB459"/>
<path d="M177.399 163.96L173.949 151.33C173.949 151.33 175.619 148.18 175.259 147.53C174.899 146.87 173.099 138.39 171.819 137.47C170.539 136.55 165.279 138.12 164.739 138.98C164.209 139.84 169.779 151.33 169.779 151.33L171.809 165.01L177.399 163.96Z" fill="#E4897B"/>
<path d="M156.96 166.08C147.47 175.8 166.5 197.82 177.4 196.88C188.3 195.94 177.13 156.02 177.13 156.02L170.15 157.17C170.15 157.17 172.6 174.45 171.83 175.8C171.05 177.16 160.15 162.82 156.96 166.08Z" fill="#FFB459"/>
<path opacity="0.2" d="M156.96 166.08C147.47 175.8 166.5 197.82 177.4 196.88C188.3 195.94 177.13 156.02 177.13 156.02L170.15 157.17C170.15 157.17 172.6 174.45 171.83 175.8C171.05 177.16 160.15 162.82 156.96 166.08Z" fill="#FFB459"/>
<path d="M177.7 154.74L178.73 158.04L169 158.9V156.02L177.7 154.74Z" fill="#333333"/>
<path opacity="0.6" d="M192.44 189.87H196.38C196.82 189.87 197.17 189.52 197.17 189.08V181.64C197.17 181.2 196.82 180.85 196.38 180.85H192.44C192 180.85 191.65 181.2 191.65 181.64V189.08C191.65 189.52 192.01 189.87 192.44 189.87Z" fill="white"/>
<path opacity="0.2" d="M192.37 181.45H196.85V187.58H192.37V181.45Z" fill="black"/>
<path d="M194.01 178.68H195V182.29H194.01V178.68Z" fill="#263238"/>
<path d="M276.29 334.22C275.29 333.76 274.21 333.49 273.12 333.41C273.12 333.41 269.32 331.17 265.56 322.49L261.33 322.47C259.86 322.49 258.57 323.42 258.08 324.8C258.01 324.99 257.97 325.19 257.96 325.39C258 326.41 258.11 327.43 258.29 328.44C258.67 331.61 260.76 338.4 260.76 338.4L261.48 338.22L260.18 331.9C259.75 329.75 262 331.83 263.05 333.99C264.1 336.15 265.7 338.33 270.38 337.26C275.81 335.98 278 335.2 276.29 334.22Z" fill="#FFB459"/>
<path d="M264.79 320.22C264.79 320.22 270.08 331.28 273.12 333.42C273.12 333.42 269.04 335.85 264.79 330.44C259.3 323.44 257.95 325.39 257.95 325.39C257.95 325.39 258.18 322.99 258.61 321.82C259.44 319.55 264.79 320.22 264.79 320.22Z" fill="#E4897B"/>
<path d="M218.07 360.57C217.21 359.89 216.23 359.37 215.18 359.03C215.18 359.03 212.02 355.96 210.42 346.63L206.31 345.6C204.88 345.27 203.4 345.86 202.6 347.09C202.49 347.26 202.4 347.44 202.34 347.63C202.14 348.63 202 349.65 201.93 350.67C201.55 353.84 201.97 360.93 201.97 360.93L202.71 360.92L202.94 354.47C203.03 352.28 204.73 354.83 205.23 357.18C205.73 359.53 206.77 362.03 211.57 362.1C217.18 362.17 219.5 361.93 218.07 360.57Z" fill="#FFB459"/>
<path d="M210.22 344.24C210.22 344.24 212.73 356.24 215.18 359.03C215.18 359.03 210.64 360.43 207.8 354.16C204.12 346.05 202.35 347.64 202.35 347.64C202.35 347.64 203.14 345.37 203.84 344.33C205.18 342.33 210.22 344.24 210.22 344.24Z" fill="#E4897B"/>
<path d="M117.24 127.27H152.16C154.96 127.27 157.23 125 157.23 122.2V107.26C157.23 104.46 154.96 102.19 152.16 102.19H117.24C114.44 102.19 112.17 104.46 112.17 107.26V122.2C112.17 125 114.44 127.27 117.24 127.27Z" fill="#FFB459"/>
<path d="M145.151 124.41L155.671 138.71L138.701 125.37L145.151 124.41Z" fill="#FFB459"/>
<path d="M144.761 114.73C144.761 115.54 145.421 116.21 146.241 116.21C147.051 116.21 147.721 115.55 147.721 114.73C147.721 113.92 147.061 113.25 146.241 113.25C145.421 113.26 144.761 113.92 144.761 114.73Z" fill="white"/>
<path d="M137.07 114.73C137.07 115.54 137.73 116.21 138.55 116.21C139.37 116.21 140.03 115.55 140.03 114.73C140.03 113.92 139.37 113.25 138.55 113.25C137.73 113.25 137.07 113.92 137.07 114.73Z" fill="white"/>
<path d="M129.381 114.73C129.381 115.54 130.041 116.21 130.861 116.21C131.671 116.21 132.341 115.55 132.341 114.73C132.341 113.92 131.681 113.25 130.861 113.25C130.041 113.26 129.381 113.92 129.381 114.73Z" fill="white"/>
<path d="M121.69 114.73C121.69 115.54 122.35 116.21 123.17 116.21C123.98 116.21 124.65 115.55 124.65 114.73C124.65 113.92 123.99 113.25 123.17 113.25C122.35 113.26 121.69 113.92 121.69 114.73Z" fill="white"/>
<path d="M257.57 107.55L282.47 94.14C283.14 93.78 283.4 92.94 283.03 92.26L275.09 77.52C274.73 76.85 273.89 76.59 273.21 76.96L248.31 90.37C247.64 90.73 247.38 91.57 247.75 92.25L255.69 106.99C256.06 107.67 256.9 107.92 257.57 107.55Z" fill="#FFCB8B"/>
<path opacity="0.7" d="M257.57 107.55L282.47 94.14C283.14 93.78 283.4 92.94 283.03 92.26L275.09 77.52C274.73 76.85 273.89 76.59 273.21 76.96L248.31 90.37C247.64 90.73 247.38 91.57 247.75 92.25L255.69 106.99C256.06 107.67 256.9 107.92 257.57 107.55Z" fill="#FFEDD7"/>
<path opacity="0.2" d="M275.75 78.74L267.96 93.29C267.35 94.42 266.12 95.08 264.85 94.95L248.64 93.35L265.15 95.78C266.63 96 268.08 95.22 268.71 93.86L275.75 78.74Z" fill="black"/>
<path d="M294.659 76.03C294.399 70.47 290.279 59.26 285.269 55.83C280.259 52.4 283.559 57.15 283.559 57.15C283.559 57.15 278.809 52.53 276.309 52.67C273.799 52.8 276.309 55.7 276.309 55.7C276.309 55.7 271.169 52.53 268.789 52.66C266.419 52.79 268.789 55.56 268.789 55.56C268.789 55.56 264.569 52.53 262.859 53.98C261.149 55.43 284.749 70.99 287.389 77.32C290.009 83.65 294.929 81.66 294.659 76.03Z" fill="#FFEDD7"/>
<path opacity="0.4" d="M294.659 76.03C294.399 70.47 290.279 59.26 285.269 55.83C280.259 52.4 283.559 57.15 283.559 57.15C283.559 57.15 278.809 52.53 276.309 52.67C273.799 52.8 276.309 55.7 276.309 55.7C276.309 55.7 271.169 52.53 268.789 52.66C266.419 52.79 268.789 55.56 268.789 55.56C268.789 55.56 264.569 52.53 262.859 53.98C261.149 55.43 284.749 70.99 287.389 77.32C290.009 83.65 294.929 81.66 294.659 76.03Z" fill="#FFCB8B"/>
<path d="M274.38 75.21L271.23 77.23C271 77.38 271.12 77.73 271.39 77.71L274.7 77.45L274.42 79.99C274.39 80.27 274.73 80.42 274.92 80.21L276.83 78.05L274.38 75.21Z" fill="#407BFF"/>
<path opacity="0.3" d="M274.38 75.21L271.23 77.23C271 77.38 271.12 77.73 271.39 77.71L274.7 77.45L274.42 79.99C274.39 80.27 274.73 80.42 274.92 80.21L276.83 78.05L274.38 75.21Z" fill="white"/>
<path d="M318.63 62.69C318.63 62.69 314.28 59.66 307.68 61.63C307.68 61.63 305.78 70.33 300.6 73.23C297.75 74.82 290.78 74.69 285.26 72.9C278.71 70.78 275.5 70.78 274.31 73.23C273.19 75.55 274.44 78.24 279.45 79.43C284.46 80.62 288.42 89.32 297.52 89.45C306.62 89.58 311.41 80.46 309.12 72.44C309.13 72.45 311.9 66.47 318.63 62.69Z" fill="#FFCB8B"/>
<path opacity="0.5" d="M318.63 62.69C318.63 62.69 314.28 59.66 307.68 61.63C307.68 61.63 305.78 70.33 300.6 73.23C297.75 74.82 290.78 74.69 285.26 72.9C278.71 70.78 275.5 70.78 274.31 73.23C273.19 75.55 274.44 78.24 279.45 79.43C284.46 80.62 288.42 89.32 297.52 89.45C306.62 89.58 311.41 80.46 309.12 72.44C309.13 72.45 311.9 66.47 318.63 62.69Z" fill="#FFCB8B"/>
<path d="M276.82 74.89C276.82 75.14 277.02 75.33 277.26 75.33C277.51 75.33 277.71 75.13 277.71 74.89C277.71 74.64 277.51 74.44 277.26 74.44C277.02 74.44 276.82 74.64 276.82 74.89Z" fill="#263238"/>
<path d="M299.64 82.21C305.01 83.68 316.95 83.22 321.76 79.51C326.57 75.8 321.03 77.47 321.03 77.47C321.03 77.47 326.89 74.38 327.53 71.96C328.18 69.54 324.65 71.02 324.65 71.02C324.65 71.02 329.25 67.11 329.86 64.81C330.46 62.51 327.1 63.91 327.1 63.91C327.1 63.91 331.29 60.83 330.44 58.75C329.59 56.67 307.5 74.32 300.67 74.88C293.82 75.44 294.2 80.73 299.64 82.21Z" fill="#FFEDD7"/>
<path opacity="0.4" d="M299.64 82.21C305.01 83.68 316.95 83.22 321.76 79.51C326.57 75.8 321.03 77.47 321.03 77.47C321.03 77.47 326.89 74.38 327.53 71.96C328.18 69.54 324.65 71.02 324.65 71.02C324.65 71.02 329.25 67.11 329.86 64.81C330.46 62.51 327.1 63.91 327.1 63.91C327.1 63.91 331.29 60.83 330.44 58.75C329.59 56.67 307.5 74.32 300.67 74.88C293.82 75.44 294.2 80.73 299.64 82.21Z" fill="#FFEDD7"/>
<path d="M334.839 57.51C335.779 57.18 336.729 56.86 337.689 56.57" stroke="#FFCB8B" stroke-width="0.75" stroke-linecap="round" stroke-linejoin="round"/>
<path d="M343.529 55.08C347.029 54.35 350.599 53.87 354.139 53.62C363.859 52.94 379.109 51.98 385.059 61.67C390.489 70.5 381.149 85.56 377.839 93.76C373.779 103.8 368.949 116.21 373.749 126.84C383.609 148.68 425.799 137.34 440.029 117.22" stroke="#FFCB8B" stroke-width="0.75" stroke-linecap="round" stroke-linejoin="round" stroke-dasharray="6.03 6.03"/>
<path d="M441.64 114.69C442.14 113.81 442.59 112.91 442.97 112" stroke="#FFCB8B" stroke-width="0.75" stroke-linecap="round" stroke-linejoin="round"/>
<path d="M320.189 194.09H358.149V201.87H320.189V194.09Z" fill="white"/>
<path opacity="0.1" d="M320.189 194.09H358.149V201.87H320.189V194.09Z" fill="black"/>
<path opacity="0.1" d="M342.159 194.09H358.149V201.87H342.159V194.09Z" fill="black"/>
<path opacity="0.1" d="M358.149 195.21H324.359L358.149 196.17V195.21Z" fill="black"/>
<path opacity="0.1" d="M320.189 196.56L349.479 197.29H320.189V196.56Z" fill="black"/>
<path opacity="0.1" d="M356.6 198.74L342.16 198.15L320.93 198.74L342.16 199.07L356.6 198.74Z" fill="black"/>
<path opacity="0.1" d="M358.149 200.39H333.129L358.149 200.98V200.39Z" fill="black"/>
<path opacity="0.1" d="M320.249 200.98L336.949 201.29H320.189L320.249 200.98Z" fill="black"/>
<path d="M325.47 186.31H363.43V194.09H325.47V186.31Z" fill="white"/>
<path opacity="0.1" d="M325.47 186.31H363.43V194.09H325.47V186.31Z" fill="black"/>
<path opacity="0.1" d="M347.44 186.31H363.43V194.09H347.44V186.31Z" fill="black"/>
<path opacity="0.1" d="M363.43 187.43H329.64L363.43 188.38V187.43Z" fill="black"/>
<path opacity="0.1" d="M325.47 188.78L354.76 189.51H325.47V188.78Z" fill="black"/>
<path opacity="0.1" d="M361.89 190.96L347.45 190.36L326.22 190.96L347.45 191.29L361.89 190.96Z" fill="black"/>
<path opacity="0.1" d="M363.43 192.6H338.41L363.43 193.2V192.6Z" fill="black"/>
<path opacity="0.1" d="M325.529 193.2L342.239 193.51H325.469L325.529 193.2Z" fill="black"/>
<path d="M321.14 178.52H359.1V186.3H321.14V178.52Z" fill="white"/>
<path opacity="0.1" d="M321.14 178.52H359.1V186.3H321.14V178.52Z" fill="black"/>
<path opacity="0.1" d="M343.11 178.52H359.1V186.3H343.11V178.52Z" fill="black"/>
<path opacity="0.1" d="M359.1 179.64H325.31L359.1 180.6V179.64Z" fill="black"/>
<path opacity="0.1" d="M321.14 180.99L350.43 181.72H321.14V180.99Z" fill="black"/>
<path opacity="0.1" d="M357.55 183.17L343.11 182.58L321.88 183.17L343.11 183.5L357.55 183.17Z" fill="black"/>
<path opacity="0.1" d="M359.1 184.82H334.08L359.1 185.41V184.82Z" fill="black"/>
<path opacity="0.1" d="M321.189 185.41L337.899 185.72H321.139L321.189 185.41Z" fill="black"/>
<path d="M295.85 201.71L294.87 197.98H254.32L235.64 199.85L234.93 201.71H295.85Z" fill="#263238"/>
<path opacity="0.4" d="M254.32 197.98V201.71H295.85L294.87 197.98H254.32Z" fill="black"/>
<path d="M262.46 180.13C262.28 182.1 263.72 183.7 265.68 183.7H327.8C329.77 183.7 331.51 182.1 331.69 180.13L335.38 140.36C335.42 139.95 335.39 139.56 335.3 139.2C334.95 137.8 333.72 136.79 332.16 136.79H270.04C268.07 136.79 266.33 138.39 266.15 140.36L262.46 180.13Z" fill="#263238"/>
<path opacity="0.4" d="M265.9 183.7H327.8C329.77 183.7 331.51 182.1 331.69 180.13L335.38 140.36C335.42 139.95 335.39 139.56 335.3 139.2H273.4C271.44 139.2 269.7 140.8 269.51 142.77L265.82 182.54C265.78 182.95 265.81 183.34 265.9 183.7Z" fill="black"/>
<path d="M308.58 159.31H295.73L299.15 196.1L278.83 199.15V201.71H321.63V199.15L312.86 196.1L308.58 159.31Z" fill="#263238"/>
<path opacity="0.1" d="M295.73 159.31L305.25 201.13L312.86 200.9L308.58 159.31H295.73Z" fill="white"/>
<path d="M295.79 362.12H301.91L312.92 208.88H304.79L295.79 362.12Z" fill="#263238"/>
<path opacity="0.4" d="M295.78 362.12H301.91L312.38 216.49L312.92 209.12H304.79L304.35 216.49L295.78 362.12Z" fill="white"/>
<path opacity="0.2" d="M304.35 216.12H312.38L312.92 209.12H304.79L304.35 216.12Z" fill="black"/>
<path d="M250.829 362.12H256.949L257.949 208.88H249.829L250.829 362.12Z" fill="#263238"/>
<path opacity="0.5" d="M249.819 209.12L249.979 233.85L250.819 362.12H256.949L257.789 233.85L257.949 209.12H249.819Z" fill="white"/>
<path opacity="0.2" d="M249.819 209.12L249.979 234.12H257.789L257.949 209.12H249.819Z" fill="black"/>
<path d="M185.79 362.12H191.91L202.92 208.88H194.79L185.79 362.12Z" fill="#263238"/>
<path opacity="0.5" d="M185.78 362.12H191.91L202.38 216.49L202.92 209.12H194.79L194.35 216.49L185.78 362.12Z" fill="white"/>
<path opacity="0.2" d="M194.35 216.12H202.38L202.92 209.12H194.79L194.35 216.12Z" fill="black"/>
<path d="M365.869 362.12H371.989L362.989 208.88H354.859L365.869 362.12Z" fill="#263238"/>
<path opacity="0.5" d="M354.859 209.12L355.399 216.49L365.869 362.12H371.989L363.429 216.49L362.989 209.12H354.859Z" fill="white"/>
<path opacity="0.2" d="M362.99 209.12H354.86L355.4 216.12H363.43L362.99 209.12Z" fill="black"/>
<path d="M190.51 212.71H367.27C368.46 212.71 369.43 211.74 369.43 210.55V205.04H188.35V210.55C188.35 211.74 189.32 212.71 190.51 212.71Z" fill="#FFB459"/>
<path opacity="0.6" d="M190.51 212.71H367.27C368.46 212.71 369.43 211.74 369.43 210.55V205.04H188.35V210.55C188.35 211.74 189.32 212.71 190.51 212.71Z" fill="#FFD6A4"/>
<path opacity="0.2" d="M188.35 205.04H369.43V208.88H188.35V205.04Z" fill="black"/>
<path d="M184.55 206.04H373.23C374.42 206.04 375.39 205.07 375.39 203.88C375.39 202.69 374.42 201.72 373.23 201.72H184.55C183.36 201.72 182.39 202.69 182.39 203.88C182.39 205.07 183.36 206.04 184.55 206.04Z" fill="#FFEDD7"/>
<path opacity="0.6" d="M184.55 206.04H373.23C374.42 206.04 375.39 205.07 375.39 203.88C375.39 202.69 374.42 201.72 373.23 201.72H184.55C183.36 201.72 182.39 202.69 182.39 203.88C182.39 205.07 183.36 206.04 184.55 206.04Z" fill="#FFB459"/>
<path d="M229.19 195.05L226.87 191.57C226.41 190.88 225.63 190.46 224.79 190.46H221.85C221.6 190.46 221.36 190.5 221.13 190.57L210.64 193.75C210.04 193.93 209.54 194.33 209.22 194.86L207.72 197.39L229.19 195.05Z" fill="#CCA06B"/>
<path opacity="0.2" d="M207.71 197.39L222.98 195.73L229.19 195.05L226.87 191.57C226.41 190.88 225.63 190.46 224.79 190.46H221.85C221.6 190.46 221.36 190.5 221.12 190.57L220.89 190.64L210.64 193.75C210.04 193.93 209.53 194.32 209.21 194.86L207.71 197.39Z" fill="#FFCB8B"/>
<path opacity="0.2" d="M207.71 197.39L222.98 195.73L220.89 190.64L210.64 193.75C210.04 193.93 209.53 194.32 209.21 194.86L207.71 197.39Z" fill="#FFB459"/>
<path d="M200.45 201.38V201.71H213.76H232.87L231.67 197.02C231.2 195.26 229.6 194.03 227.78 194.03H213.4C212.92 194.03 212.45 194.11 212 194.28L210.2 194.95L203.06 197.61C201.49 198.2 200.45 199.7 200.45 201.38Z" fill="#FFCB8B"/>
<path opacity="0.2" d="M200.45 201.38V201.71H213.76L213.05 196.64C212.86 195.3 211.47 194.48 210.2 194.95L203.06 197.61C201.49 198.2 200.45 199.7 200.45 201.38Z" fill="#CC9047"/>
<path d="M211.69 198.27L207.46 185.56C207.28 185.01 206.65 184.76 206.13 185.02C205.74 185.22 205.54 185.67 205.65 186.1L209.22 199.67C209.22 199.66 211.59 200.62 211.69 198.27Z" fill="#263238"/>
<path opacity="0.2" d="M229.19 200.66H231.07L230.71 198.81H228.83L229.19 200.66Z" fill="black"/>
<path opacity="0.2" d="M226.391 200.59H228.271L227.911 198.74H226.031L226.391 200.59Z" fill="black"/>
</svg>
