<svg width="608" height="517" viewBox="0 0 608 517" fill="none" xmlns="http://www.w3.org/2000/svg">
<path d="M303.722 516.733C471.463 516.733 607.444 438.181 607.444 341.281C607.444 244.382 471.463 165.83 303.722 165.83C135.981 165.83 0 244.382 0 341.281C0 438.181 135.981 516.733 303.722 516.733Z" fill="#FFEDD7"/>
<path d="M247.798 387.576V381.07C247.798 380.319 247.184 379.665 246.434 379.624L236.081 378.969V364.415H236.067C236.081 364.115 235.917 363.829 235.563 363.624L224.637 357.322C223.982 356.94 222.905 356.9 222.223 357.213L211.147 362.342C210.465 362.656 209.333 362.724 208.61 362.492C205.855 361.633 202.977 360.951 200.017 360.446C199.28 360.323 198.557 359.628 198.421 358.891L197.03 351.594C196.893 350.857 196.17 350.257 195.407 350.257H179.352C178.602 350.257 177.879 350.857 177.729 351.594L176.351 358.891C176.215 359.628 175.492 360.323 174.756 360.446C171.796 360.951 168.918 361.633 166.162 362.492C165.439 362.71 164.307 362.656 163.625 362.342L152.563 357.213C151.881 356.9 150.804 356.94 150.149 357.322L139.223 363.624C138.869 363.829 138.705 364.115 138.719 364.402C138.719 364.402 138.719 364.388 138.705 364.388L138.719 378.969L128.352 379.624C127.602 379.665 126.988 380.319 126.988 381.07V389.185V394.873V402.989V403.003C126.988 403.18 127.111 403.303 127.179 403.466C127.247 403.644 127.261 403.848 127.397 403.985C127.575 404.176 127.834 404.244 128.093 404.312C128.189 404.339 128.257 404.435 128.352 404.435L128.543 404.449L138.705 405.09V413.465V413.478V413.628V416.22V419.698C138.705 419.712 138.719 419.725 138.719 419.739C138.732 419.834 138.746 419.93 138.801 420.025C138.801 420.025 138.814 420.039 138.828 420.039C138.91 420.175 139.032 420.312 139.21 420.407L150.135 426.709C150.135 426.709 150.149 426.709 150.163 426.709C150.449 426.873 150.817 426.955 151.213 426.982C151.322 426.995 151.39 426.982 151.499 426.982C151.636 426.982 151.759 427.009 151.881 426.995V426.927C152.113 426.9 152.359 426.9 152.55 426.818L163.625 421.689C164.307 421.376 165.439 421.308 166.162 421.539C168.918 422.399 171.796 423.081 174.756 423.585C175.492 423.708 176.215 424.404 176.351 425.14L177.743 432.438C177.77 432.615 177.92 432.724 178.016 432.874V433.038C178.07 433.12 178.166 433.174 178.247 433.243C178.316 433.311 178.37 433.365 178.452 433.434C178.725 433.638 179.039 433.775 179.366 433.775H195.42C195.788 433.775 196.143 433.625 196.443 433.393C196.743 433.147 196.975 432.82 197.043 432.438L198.435 425.14C198.571 424.404 199.294 423.708 200.03 423.585C202.99 423.081 205.868 422.399 208.624 421.539C209.347 421.321 210.479 421.376 211.161 421.689L222.236 426.818C222.523 426.955 222.891 427.009 223.273 427.009V426.982C223.778 426.995 224.282 426.914 224.651 426.695L235.576 420.394C235.917 420.203 236.081 419.93 236.081 419.657V405.062L246.434 404.408C247.184 404.353 247.798 403.712 247.798 402.962L247.825 387.808C247.839 387.767 247.825 387.671 247.798 387.576ZM207.996 394.382C207.342 394.873 206.632 395.337 205.868 395.787C195.679 401.666 179.161 401.666 168.972 395.787C168.195 395.337 167.485 394.873 166.831 394.382C167.485 393.918 168.208 393.468 168.972 393.018C179.161 387.139 195.679 387.139 205.868 393.018C206.632 393.468 207.342 393.918 207.996 394.382Z" fill="#37474F"/>
<path d="M247.839 387.862L247.811 403.016C247.811 403.766 247.198 404.421 246.447 404.462L236.095 405.116V419.711C236.081 419.998 235.931 420.257 235.59 420.461L224.664 426.763C224.296 426.981 223.791 427.063 223.287 427.049V427.077C222.905 427.063 222.55 427.022 222.25 426.872L211.174 421.743C210.888 421.607 210.506 421.525 210.138 421.498V421.484C209.619 421.43 209.06 421.457 208.651 421.593C205.896 422.453 203.004 423.135 200.058 423.639C199.826 423.68 199.594 423.776 199.376 423.926V424.008C198.926 424.308 198.544 424.703 198.448 425.208L197.057 432.505C196.989 432.887 196.757 433.215 196.457 433.46V433.474C196.17 433.706 195.802 433.856 195.434 433.856L179.38 433.869C179.27 433.856 179.175 433.842 179.079 433.828C178.657 433.747 178.275 433.487 178.029 433.133V432.969C177.947 432.819 177.797 432.71 177.77 432.533L176.379 425.235C176.311 424.84 176.051 424.471 175.724 424.185V424.158C175.451 423.912 175.11 423.735 174.769 423.667C171.823 423.162 168.931 422.48 166.176 421.621C165.712 421.484 165.071 421.457 164.485 421.539V421.58C164.185 421.634 163.871 421.662 163.639 421.771L152.563 426.899C152.372 426.981 152.127 426.981 151.895 427.009V427.077H151.881C151.281 427.145 150.613 427.049 150.149 426.79C150.149 426.79 150.135 426.79 150.135 426.777L139.223 420.475C139.128 420.42 139.06 420.352 138.991 420.298C138.923 420.229 138.855 420.161 138.814 420.079C138.76 419.97 138.732 419.861 138.719 419.752V419.738L138.705 416.26V413.505L138.719 405.13L136.823 405.007L128.543 404.489L128.352 404.475C128.339 404.475 128.339 404.475 128.339 404.475C127.602 404.421 127.002 403.793 126.988 403.057V389.212C126.988 389.962 127.588 390.617 128.339 390.658L142.893 391.585C143.643 391.64 144.502 392.24 144.857 392.895C145.648 394.368 146.684 395.8 147.953 397.191C148.458 397.751 148.403 398.528 147.789 398.965L139.142 405.185C138.528 405.621 138.555 406.289 139.21 406.671L150.122 412.973C150.776 413.355 151.854 413.396 152.536 413.082L163.598 407.953C164.28 407.64 165.412 407.571 166.135 407.803C168.89 408.663 171.768 409.345 174.728 409.849C175.478 409.972 176.188 410.654 176.324 411.404L177.715 418.702C177.852 419.438 178.575 420.038 179.325 420.038H195.379C196.129 420.038 196.852 419.438 196.989 418.702L198.38 411.404C198.516 410.668 199.239 409.986 199.976 409.849C202.936 409.345 205.814 408.663 208.583 407.803C209.292 407.585 210.424 407.64 211.106 407.953L222.182 413.082C222.864 413.396 223.941 413.355 224.596 412.973L235.522 406.671C236.176 406.289 236.204 405.635 235.59 405.198L226.929 398.965C226.328 398.528 226.26 397.751 226.779 397.191C228.033 395.814 229.07 394.368 229.875 392.909C230.229 392.254 231.089 391.654 231.839 391.599L246.393 390.685C247.143 390.631 247.757 389.99 247.757 389.226V387.603C247.825 387.671 247.839 387.766 247.839 387.862Z" fill="#263238"/>
<path d="M236.081 364.429V378.969L231.88 378.71C231.129 378.669 230.27 378.069 229.915 377.4C229.111 375.927 228.088 374.495 226.819 373.117C226.314 372.558 226.355 371.781 226.969 371.344L235.631 365.124C235.917 364.906 236.067 364.674 236.081 364.429Z" fill="#263238"/>
<path d="M147.994 373.117C146.725 374.509 145.702 375.941 144.898 377.4C144.543 378.069 143.684 378.655 142.934 378.71L138.746 378.969L138.732 364.388C138.746 364.633 138.882 364.892 139.169 365.097L147.817 371.317C148.444 371.781 148.499 372.558 147.994 373.117Z" fill="#263238"/>
<path d="M150.176 357.322L139.251 363.624C138.596 364.006 138.569 364.661 139.183 365.097L147.83 371.331C148.444 371.767 148.499 372.558 147.994 373.104C146.725 374.481 145.702 375.927 144.898 377.387C144.543 378.041 143.684 378.642 142.933 378.696L128.38 379.61C127.629 379.651 127.016 380.306 127.016 381.056V389.172C127.016 389.922 127.629 390.577 128.38 390.618L142.933 391.545C143.684 391.586 144.543 392.186 144.898 392.855C145.689 394.328 146.725 395.76 147.994 397.137C148.499 397.697 148.444 398.474 147.83 398.911L139.183 405.144C138.569 405.581 138.61 406.249 139.251 406.617L150.176 412.919C150.831 413.301 151.909 413.342 152.591 413.028L163.666 407.899C164.348 407.586 165.48 407.517 166.203 407.749C168.959 408.609 171.837 409.291 174.797 409.795C175.533 409.918 176.256 410.614 176.392 411.35L177.784 418.648C177.92 419.384 178.643 419.984 179.407 419.984H195.461C196.211 419.984 196.934 419.384 197.084 418.648L198.476 411.35C198.612 410.614 199.335 409.918 200.071 409.795C203.031 409.291 205.909 408.609 208.665 407.749C209.388 407.531 210.52 407.586 211.202 407.899L222.264 413.028C222.946 413.342 224.023 413.301 224.678 412.919L235.604 406.617C236.258 406.235 236.286 405.581 235.672 405.144L227.024 398.911C226.41 398.474 226.356 397.683 226.86 397.137C228.129 395.76 229.152 394.314 229.957 392.855C230.311 392.2 231.171 391.6 231.921 391.545L246.475 390.618C247.225 390.577 247.839 389.922 247.839 389.172V381.056C247.839 380.306 247.225 379.651 246.475 379.61L231.921 378.683C231.171 378.642 230.311 378.041 229.957 377.373C229.152 375.9 228.129 374.468 226.86 373.09C226.356 372.531 226.41 371.753 227.024 371.317L235.672 365.083C236.286 364.647 236.245 363.979 235.604 363.61L224.678 357.309C224.023 356.927 222.946 356.886 222.264 357.2L211.188 362.328C210.506 362.642 209.374 362.71 208.651 362.478C205.896 361.619 203.018 360.937 200.058 360.432C199.321 360.309 198.598 359.614 198.462 358.877L197.071 351.58C196.934 350.843 196.211 350.243 195.447 350.243H179.393C178.643 350.243 177.92 350.843 177.77 351.58L176.392 358.877C176.256 359.614 175.533 360.309 174.797 360.432C171.837 360.937 168.959 361.619 166.203 362.478C165.48 362.696 164.348 362.642 163.666 362.328L152.591 357.2C151.909 356.899 150.831 356.954 150.176 357.322ZM205.868 374.481C216.058 380.36 216.058 389.908 205.868 395.787C195.679 401.666 179.161 401.666 168.972 395.787C158.783 389.908 158.783 380.374 168.972 374.481C179.161 368.603 195.679 368.603 205.868 374.481Z" fill="#455A64"/>
<path d="M138.746 405.881C138.746 405.622 138.896 405.363 139.183 405.144L143.534 402.007V391.695C143.329 391.613 143.124 391.559 142.934 391.545L128.38 390.618C127.629 390.577 127.029 389.922 127.029 389.172V403.017C127.043 403.767 127.643 404.394 128.38 404.435C128.38 404.435 128.38 404.435 128.393 404.435L128.584 404.449L136.864 404.967L138.76 405.09C138.746 405.131 138.746 406.167 138.746 405.881Z" fill="#37474F"/>
<path d="M164.498 407.695C164.198 407.736 163.898 407.804 163.666 407.914L152.604 413.042C152.209 413.22 151.69 413.274 151.186 413.22V427.051C151.431 427.078 151.69 427.078 151.922 427.051H151.936V426.982C152.168 426.955 152.427 426.955 152.604 426.873L163.68 421.745C163.912 421.635 164.212 421.608 164.512 421.554V407.695H164.498Z" fill="#37474F"/>
<path d="M177.974 419.18C177.879 419.016 177.797 418.839 177.77 418.661L176.378 411.364C176.337 411.173 176.269 410.982 176.16 410.805V424.649C176.269 424.813 176.337 425.004 176.378 425.195L177.77 432.492C177.797 432.629 177.892 432.724 177.974 432.847V419.18Z" fill="#37474F"/>
<path opacity="0.15" d="M198.667 410.818C198.558 410.996 198.489 411.173 198.448 411.364L197.057 418.661C197.016 418.852 196.948 419.03 196.853 419.193V433.011C196.948 432.847 197.03 432.683 197.057 432.492L198.448 425.195C198.476 425.018 198.558 424.854 198.667 424.704V410.818Z" fill="black"/>
<path opacity="0.15" d="M223.655 413.22C223.15 413.274 222.632 413.219 222.236 413.042L211.161 407.914C210.929 407.804 210.629 407.736 210.329 407.695V421.526C210.629 421.567 210.929 421.635 211.161 421.745L222.236 426.873C222.536 427.01 222.891 427.064 223.273 427.078V427.05C223.396 427.05 223.532 427.05 223.655 427.037V413.22Z" fill="black"/>
<path opacity="0.15" d="M246.447 390.645L231.894 391.559C231.703 391.573 231.498 391.627 231.293 391.709V402.021L235.658 405.158C235.945 405.363 236.095 405.635 236.095 405.881C236.095 406.154 236.095 405.103 236.095 405.103L246.447 404.449C247.198 404.408 247.811 403.753 247.811 403.003L247.839 387.849C247.839 387.74 247.825 387.644 247.798 387.549V389.172C247.798 389.949 247.198 390.591 246.447 390.645Z" fill="black"/>
<path d="M28.0171 339.727C28.0171 340.341 28.0307 351.771 28.0307 352.098C28.0307 352.207 28.0716 352.303 28.1398 352.412L33.0093 359.191C33.2957 359.6 34.0869 359.832 34.7825 359.723L45.9946 357.827C46.6902 357.718 47.5768 357.868 47.9997 358.182C48.859 358.795 49.7729 359.368 50.7277 359.914C50.7277 359.914 50.714 369.012 50.7413 369.216C50.7822 369.544 51.0141 369.803 51.3687 369.885L63.5765 372.804C64.1494 372.94 65.036 372.613 65.5407 372.081L70.5739 366.789C71.0785 366.257 71.9924 365.861 72.6335 365.902C75.1433 366.066 77.7212 366.066 80.2855 365.916C80.9539 365.875 81.7859 366.12 82.1269 366.488L87.7466 372.395C88.1013 372.763 88.9469 372.927 89.6426 372.749L101.373 369.939C101.96 369.803 102.314 369.435 102.301 369.053L102.287 359.887C103.092 359.423 103.855 358.946 104.578 358.427C105.219 357.991 106.188 357.704 106.788 357.8L118.355 359.75C118.941 359.846 119.76 359.464 120.183 358.891L124.602 352.726C124.779 352.48 124.861 352.221 124.847 352.003C124.834 351.798 124.834 348.156 124.834 343.096C124.888 343 124.929 342.905 124.929 342.809C124.929 342.7 124.902 326.237 124.902 325.2C124.902 325.187 124.902 325.173 124.902 325.146C124.902 325.036 124.861 324.941 124.793 324.846L119.923 318.066C119.637 317.671 118.846 317.425 118.137 317.548L106.938 319.43C106.242 319.54 105.356 319.39 104.933 319.089C104.074 318.476 103.173 317.903 102.219 317.357C102.219 313.115 102.205 308.75 102.205 308.246C102.205 308.232 102.205 308.218 102.205 308.205C102.205 307.823 101.973 307.495 101.578 307.4L89.3698 304.481C88.7969 304.345 87.9239 304.658 87.4056 305.204L82.3725 310.496C81.8541 311.042 80.9403 311.437 80.3128 311.397C77.8031 311.233 75.2387 311.219 72.6608 311.383C71.9924 311.424 71.1604 311.178 70.8194 310.81L65.1997 304.904C64.8587 304.536 63.9994 304.372 63.3037 304.549L51.5597 307.359C50.9868 307.495 50.6322 307.85 50.6458 308.218L50.6322 308.205L50.6458 317.398C49.8411 317.862 49.0772 318.339 48.3543 318.844C47.7132 319.28 46.7448 319.581 46.1446 319.471L34.5779 317.535C33.9914 317.439 33.173 317.821 32.7501 318.394L28.3308 324.559C28.1671 324.791 28.0853 325.037 28.0853 325.241C28.0853 325.255 28.0853 325.255 28.0853 325.268C28.0853 325.814 28.0853 334.448 28.0989 339.44C28.0443 339.522 28.0307 339.618 28.0171 339.713C28.0034 339.713 28.0034 339.713 28.0171 339.727C28.0034 339.727 28.0034 339.727 28.0171 339.727ZM91.5522 341.254C89.6289 342.359 87.3238 343.26 84.664 343.887C76.4527 345.851 67.3275 344.651 61.3805 341.268C60.7258 340.9 60.112 340.504 59.5391 340.068C60.0574 339.7 60.6303 339.331 61.2441 338.977C69.6327 334.134 83.2181 334.134 91.6067 338.977C92.2342 339.345 92.8207 339.713 93.3527 340.081C92.7934 340.491 92.1933 340.886 91.5522 341.254Z" fill="#37474F"/>
<path d="M99.5039 315.98C100.445 316.416 101.345 316.88 102.205 317.358C102.205 313.102 102.191 308.751 102.191 308.232C102.177 308.382 102.136 308.546 102.055 308.71L99.1356 314.507C98.8491 315.093 99.0128 315.748 99.5039 315.98Z" fill="#263238"/>
<path opacity="0.15" d="M112.966 330.465C113.185 331.747 113.171 333.016 112.98 334.284C112.898 334.857 113.226 335.457 113.757 335.635L124.315 338.977C124.629 339.086 124.806 339.331 124.806 339.645C124.792 339.863 124.806 343.082 124.806 343.082C124.86 343 124.888 342.919 124.888 342.823C124.874 336.821 124.86 326.796 124.86 325.923V325.187C124.847 325.5 124.519 325.814 124.015 325.978L114.044 329.142C113.348 329.374 112.885 329.961 112.966 330.465Z" fill="black"/>
<path opacity="0.15" d="M106.351 345.401V357.799C106.501 357.786 106.651 357.786 106.774 357.813L118.341 359.75C118.518 359.777 118.723 359.764 118.927 359.695V347.324C118.709 347.378 118.504 347.392 118.313 347.365L106.747 345.414C106.638 345.387 106.501 345.387 106.351 345.401Z" fill="black"/>
<path d="M102.273 359.873C103.077 359.41 103.841 358.932 104.564 358.428C105.069 358.087 105.778 357.841 106.351 357.786V345.388C105.778 345.429 105.055 345.688 104.55 346.042C103.132 347.011 101.577 347.911 99.8583 348.729C99.1763 349.07 98.7944 349.657 99.0126 350.121L102.191 356.409C102.232 356.491 102.259 356.586 102.259 356.668C102.259 357.05 102.273 359.873 102.273 359.873Z" fill="#263238"/>
<path opacity="0.15" d="M81.3901 353.681V366.066C81.6766 366.161 81.9357 366.298 82.0994 366.461L87.7191 372.367C87.9237 372.586 88.3192 372.722 88.7421 372.777V360.392C88.292 360.351 87.9101 360.214 87.6918 359.996L82.0721 354.076C81.9221 353.913 81.6766 353.776 81.3901 353.681Z" fill="black"/>
<path d="M71.8691 353.612V365.998C72.1283 365.929 72.3875 365.875 72.6057 365.888C75.1155 366.038 77.6934 366.052 80.2577 365.902C80.626 365.875 81.0352 365.957 81.3899 366.079V353.694C81.0352 353.572 80.6124 353.49 80.2305 353.517C77.6525 353.681 75.1018 353.667 72.5921 353.503C72.3738 353.49 72.1283 353.517 71.8691 353.612Z" fill="#263238"/>
<path opacity="0.15" d="M64.3945 360.337V372.708C64.8037 372.586 65.2266 372.367 65.513 372.054L70.5462 366.761C70.8872 366.407 71.3782 366.134 71.8693 365.984V353.599C71.3782 353.749 70.8599 354.035 70.5189 354.376L65.4857 359.668C65.1993 359.982 64.8037 360.214 64.3945 360.337Z" fill="black"/>
<path d="M50.7134 356.831V359.9C50.727 359.9 50.727 359.9 50.727 359.9C50.727 359.9 50.7134 361.4 50.7134 363.201V364.77C50.7134 366.966 50.727 369.107 50.7407 369.203C50.7816 369.516 50.9998 369.789 51.3681 369.871L63.5759 372.79C63.8214 372.858 64.1079 372.817 64.4079 372.722V360.35C64.0942 360.446 63.7941 360.473 63.5486 360.418L51.3408 357.499C50.9725 357.404 50.7543 357.158 50.7134 356.831Z" fill="#37474F"/>
<path opacity="0.15" d="M46.7715 345.415V357.8C47.2625 357.855 47.7263 357.964 47.9991 358.168C48.8584 358.782 49.7586 359.355 50.7271 359.887C50.7271 359.887 50.7134 357.064 50.7134 356.668C50.7134 356.504 50.7544 356.341 50.8362 356.163L53.7688 350.353C54.0689 349.766 53.8916 349.111 53.4005 348.88C51.4227 347.966 49.595 346.929 47.9718 345.77C47.7126 345.592 47.2489 345.456 46.7715 345.415Z" fill="black"/>
<path d="M28.0166 339.74C28.0166 340.354 28.0302 351.784 28.0302 352.112C28.0439 352.221 28.0712 352.316 28.1394 352.425L33.0088 359.204C33.1589 359.423 33.4862 359.6 33.8409 359.682V347.31C33.459 347.229 33.1452 347.051 32.9816 346.819L28.1257 340.04C28.0439 339.945 28.0166 339.836 28.0166 339.74Z" fill="#37474F"/>
<path d="M101.563 307.4L89.3557 304.481C88.7828 304.345 87.9098 304.658 87.3915 305.204L82.3583 310.496C81.84 311.042 80.9261 311.437 80.2987 311.397C77.7889 311.233 75.2246 311.219 72.6467 311.383C71.9783 311.424 71.1463 311.178 70.8053 310.81L65.1856 304.904C64.8446 304.536 63.9853 304.372 63.2896 304.549L51.5456 307.359C50.9727 307.495 50.618 307.85 50.6317 308.218C50.6317 308.3 50.6453 308.382 50.6863 308.464L53.8644 314.779C54.0963 315.216 53.7143 315.83 53.0187 316.157C52.1866 316.552 51.3955 316.975 50.6317 317.412C49.8269 317.876 49.0631 318.353 48.3402 318.858C47.6991 319.294 46.7307 319.594 46.1305 319.485L34.5638 317.548C33.9773 317.453 33.1589 317.835 32.736 318.407L28.3166 324.573C28.153 324.805 28.0711 325.05 28.0711 325.255C28.0711 325.268 28.0711 325.268 28.0711 325.282C28.0848 325.582 28.2485 325.828 28.5485 325.923L39.1195 329.265C39.6651 329.429 39.9925 330.042 39.897 330.615C39.7061 331.87 39.706 333.152 39.9106 334.434C39.9925 334.953 39.5151 335.526 38.8194 335.758L28.8486 338.908C28.4803 339.031 28.2075 339.222 28.0848 339.44C28.0302 339.522 28.0166 339.618 28.0029 339.713C28.0029 339.713 28.0029 339.713 28.0029 339.74C28.0029 339.85 28.0302 339.945 28.1121 340.041L32.9679 346.82C33.268 347.229 34.0591 347.461 34.7547 347.338L45.9668 345.456C46.6625 345.333 47.549 345.497 47.9719 345.81C49.595 346.956 51.4228 348.006 53.387 348.92C53.878 349.152 54.0553 349.807 53.7553 350.393L50.8226 356.19C50.5362 356.777 50.7544 357.363 51.3137 357.5L63.5215 360.419C64.0944 360.555 64.9673 360.228 65.472 359.696L70.5052 354.403C71.0099 353.871 71.9374 353.476 72.5648 353.517C75.0882 353.667 77.6389 353.681 80.2032 353.517C80.8716 353.476 81.7036 353.735 82.0446 354.09L87.6643 359.996C88.0053 360.364 88.851 360.514 89.5603 360.35L101.304 357.554C102 357.377 102.395 356.886 102.164 356.436L98.9855 350.134C98.7672 349.684 99.1355 349.084 99.8312 348.743C101.55 347.924 103.118 347.024 104.523 346.042C105.151 345.606 106.133 345.306 106.733 345.401L118.3 347.352C118.9 347.461 119.718 347.065 120.127 346.492L124.56 340.327C124.724 340.095 124.806 339.85 124.806 339.645C124.806 339.331 124.629 339.072 124.315 338.977L113.758 335.635C113.212 335.457 112.885 334.844 112.98 334.284C113.171 333.016 113.185 331.747 112.966 330.465C112.885 329.947 113.348 329.36 114.058 329.142L124.029 325.978C124.547 325.814 124.861 325.514 124.874 325.187C124.874 325.173 124.874 325.159 124.874 325.132C124.874 325.023 124.833 324.927 124.765 324.832L119.896 318.053C119.609 317.657 118.818 317.412 118.109 317.535L106.91 319.417C106.215 319.526 105.328 319.376 104.905 319.076C104.046 318.462 103.146 317.889 102.191 317.344C101.332 316.852 100.431 316.389 99.4902 315.966C98.9855 315.734 98.8218 315.079 99.1219 314.493L102.041 308.696C102.123 308.532 102.164 308.368 102.177 308.232C102.177 308.218 102.177 308.205 102.177 308.191C102.191 307.809 101.959 307.495 101.563 307.4ZM68.2409 320.999C79.1802 318.38 91.7426 321.381 96.2848 327.71C98.058 330.179 98.3444 332.784 97.376 335.198C97.3487 335.294 97.3078 335.376 97.2668 335.471C97.2396 335.553 97.1987 335.635 97.1577 335.73C97.1168 335.812 97.0759 335.894 97.035 335.976C97.035 336.003 97.0213 336.017 97.0077 336.03C96.2439 337.503 95.0026 338.881 93.3385 340.109C92.7929 340.518 92.1791 340.913 91.5381 341.268C89.6148 342.373 87.3096 343.273 84.6498 343.901C76.4386 345.865 67.3134 344.664 61.3664 341.282C60.7116 340.913 60.0978 340.518 59.525 340.081C58.3656 339.222 57.3699 338.267 56.6197 337.203C54.5873 334.366 54.5191 331.352 56.0331 328.651C56.0741 328.583 56.1013 328.515 56.1423 328.46C56.2241 328.324 56.3059 328.187 56.4014 328.051C56.5514 327.833 56.6879 327.628 56.8515 327.41C56.9879 327.233 57.138 327.055 57.288 326.878C57.3562 326.81 57.4244 326.728 57.4926 326.646C57.5881 326.537 57.6836 326.441 57.7927 326.332C60.0706 324 63.6442 322.09 68.2409 320.999Z" fill="#455A64"/>
<path d="M464.825 329.293C464.32 329.293 463.802 329.252 463.297 329.143L376.383 312.734C371.936 311.888 369.004 307.605 369.849 303.158C370.695 298.712 374.978 295.779 379.425 296.625L466.339 313.034C470.785 313.879 473.718 318.162 472.872 322.609C472.122 326.551 468.685 329.293 464.825 329.293Z" fill="#455A64"/>
<path d="M451.239 310.183C443.996 308.819 440.436 324.832 446.206 325.924" stroke="#37474F" stroke-width="1.2048" stroke-miterlimit="10" stroke-linecap="round" stroke-linejoin="round"/>
<path d="M436.753 307.442C429.51 306.078 425.95 322.091 431.72 323.182" stroke="#37474F" stroke-width="1.2048" stroke-miterlimit="10" stroke-linecap="round" stroke-linejoin="round"/>
<path d="M422.281 304.713C415.038 303.349 411.478 319.363 417.248 320.454" stroke="#37474F" stroke-width="1.2048" stroke-miterlimit="10" stroke-linecap="round" stroke-linejoin="round"/>
<path d="M407.795 301.971C400.553 300.607 396.993 316.62 402.762 317.712" stroke="#37474F" stroke-width="1.2048" stroke-miterlimit="10" stroke-linecap="round" stroke-linejoin="round"/>
<path d="M393.323 299.23C386.08 297.866 382.52 313.879 388.29 314.97" stroke="#37474F" stroke-width="1.2048" stroke-miterlimit="10" stroke-linecap="round" stroke-linejoin="round"/>
<path opacity="0.15" d="M369.699 304.713C369.712 308.559 372.454 311.983 376.369 312.733L463.283 329.142C463.801 329.238 464.306 329.292 464.81 329.292C468.671 329.292 472.121 326.551 472.858 322.609C472.872 322.513 472.885 322.418 472.899 322.308L369.699 304.713Z" fill="black"/>
<path d="M558.449 257.709C551.956 255.991 541.74 255.459 533.133 262.32C526.136 267.912 518.02 293.133 515.306 301.876L469.352 301.767C467.811 301.739 464.565 303.049 462.642 304.958C454.935 312.597 453.475 321.136 454.144 329.265C454.553 334.284 457.963 337.735 460.405 338.158H460.418C461.141 338.308 521.607 350.543 530.173 352.057C544.454 354.581 541.344 354.554 549.788 342.441C555.339 334.475 555.339 322.731 555.339 314.957C555.339 307.182 558.831 294.319 561.777 284.226C564.723 274.132 564.942 259.428 558.449 257.709Z" fill="#FFB459"/>
<path opacity="0.15" d="M549.228 257.886C541.59 260.737 536.857 267.407 534.538 277.719C532.206 288.031 534.279 296.488 532.11 311.301C531.06 318.462 527.418 328.978 524.472 334.557C521.525 340.136 517.338 342.468 509.427 341.104C501.516 339.74 473.772 335.648 466.502 332.279C459.232 328.91 459.818 321.612 459.818 321.612C459.818 321.612 467.416 321.694 473.622 319.075C479.828 316.457 479.364 313.483 479.173 311.86L471.658 301.794H469.339C467.797 301.766 464.551 303.076 462.628 304.985C454.921 312.624 453.462 321.162 454.13 329.292C454.539 334.311 457.949 337.762 460.391 338.185H460.405C461.127 338.335 521.594 350.57 530.159 352.084C544.441 354.608 541.331 354.58 549.774 342.468C555.325 334.502 555.325 322.758 555.325 314.983C555.325 307.209 558.817 294.346 561.763 284.253C562.718 281.006 563.373 277.269 563.632 273.641C557.849 264.174 552.202 256.768 549.228 257.886Z" fill="black"/>
<path d="M558.449 257.71C558.04 257.6 557.617 257.491 557.167 257.396C557.153 257.396 557.14 257.396 557.126 257.382C555.816 257.096 554.384 256.864 552.87 256.728C543.063 258.705 538.439 267.367 537.021 279.288C535.602 291.209 536.911 304.563 536.025 312.87C535.138 321.177 529.982 334.544 530.323 343.369C530.46 346.792 531.346 350.216 533.351 352.63C543.977 354.499 542.026 353.544 549.76 342.441C555.312 334.476 555.312 322.731 555.312 314.957C555.312 307.182 558.804 294.319 561.75 284.226C564.696 274.132 564.942 259.428 558.449 257.71Z" fill="#455A64"/>
<path opacity="0.15" d="M515.305 301.876C513.164 309.801 511.977 317.712 510.927 324.627C510.068 318.367 509.727 311.328 510.927 301.862L515.305 301.876Z" fill="black"/>
<path d="M544.236 271.336C539.776 282.78 541.508 300.198 540.526 311.465C539.544 322.731 534.456 338.485 535.234 344.46C536.011 350.407 538.998 354.581 543.554 351.921C545.682 350.27 547.592 348.347 549.242 345.114C550.579 342.496 551.547 339.604 552.202 338.049C555.353 330.574 555.353 321.422 555.353 314.984C555.353 307.209 558.845 294.346 561.791 284.253C564.001 276.71 564.669 266.589 562.159 261.228C560.181 256.85 549.133 258.746 544.236 271.336Z" fill="#37474F"/>
<path d="M540.908 300.061C540.908 300.593 540.895 301.125 540.895 301.644L559.963 290.636C560.141 290.009 560.318 289.381 560.482 288.754L540.908 300.061Z" fill="#263238"/>
<path d="M562.541 262.17L543.622 273.096C543.418 273.709 543.24 274.35 543.077 274.991L562.964 263.507C562.841 263.043 562.691 262.593 562.541 262.17Z" fill="#263238"/>
<path d="M557.862 298.753L540.703 308.656C540.676 309.215 540.635 309.76 540.608 310.292L557.44 300.581C557.562 299.967 557.712 299.367 557.862 298.753Z" fill="#263238"/>
<path d="M537.402 329.034L555.312 318.695C555.325 318.149 555.325 317.631 555.325 317.112L537.784 327.233C537.662 327.847 537.539 328.447 537.402 329.034Z" fill="#263238"/>
<path d="M541.072 291.509C541.058 292.041 541.044 292.573 541.031 293.119L562.677 280.611C562.8 280.025 562.909 279.438 563.018 278.838L541.072 291.509Z" fill="#263238"/>
<path d="M539.68 317.712C539.585 318.299 539.476 318.885 539.367 319.472L555.694 310.047C555.762 309.488 555.844 308.915 555.926 308.328L539.68 317.712Z" fill="#263238"/>
<path d="M563.741 271.527C563.755 270.995 563.755 270.463 563.741 269.944L541.686 282.684C541.617 283.243 541.563 283.803 541.508 284.362L563.741 271.527Z" fill="#263238"/>
<path d="M552.502 337.272C552.748 336.631 552.979 335.962 553.184 335.294L535.411 345.551C535.52 346.042 535.657 346.492 535.807 346.902L552.502 337.272Z" fill="#263238"/>
<path d="M554.78 327.547C554.848 326.988 554.902 326.428 554.957 325.869L535.82 336.945C535.711 337.545 535.616 338.132 535.534 338.691L554.78 327.547Z" fill="#263238"/>
<path d="M459.532 318.121C470.158 319.131 478.764 315.271 479.187 311.833C479.187 311.833 481.752 297.539 462.833 296.011C443.914 294.47 443.382 308.369 443.382 308.369C443.328 311.642 448.906 317.126 459.532 318.121Z" fill="#FFC37A"/>
<path opacity="0.7" d="M459.532 318.121C470.158 319.131 478.764 315.271 479.187 311.833C479.187 311.833 481.752 297.539 462.833 296.011C443.914 294.47 443.382 308.369 443.382 308.369C443.328 311.642 448.906 317.126 459.532 318.121Z" fill="white"/>
<path d="M479.173 311.847C479.173 311.847 480.278 305.695 475.695 301.03C476.432 302.422 479.46 309.351 468.357 312.529C455.999 316.075 444.664 308.3 444.037 305.245C443.409 307.032 443.355 308.369 443.355 308.369C443.314 311.629 448.893 317.112 459.518 318.121C470.144 319.131 478.764 315.27 479.173 311.847Z" fill="#FFB459"/>
<path opacity="0.05" d="M479.173 311.847C479.173 311.847 480.278 305.695 475.695 301.03C476.432 302.422 479.46 309.351 468.357 312.529C455.999 316.075 444.664 308.3 444.037 305.245C443.409 307.032 443.355 308.369 443.355 308.369C443.314 311.629 448.893 317.112 459.518 318.121C470.144 319.131 478.764 315.27 479.173 311.847Z" fill="black"/>
<path d="M438.744 180.903C438.471 177.943 437.353 171.791 432.211 169.364C427.068 166.936 424.231 169.336 424.981 171.628C425.732 173.919 431.051 174.615 431.269 182.376C431.269 182.39 435.907 184.395 438.744 180.903Z" fill="#455A64"/>
<path opacity="0.15" d="M434.243 179.704C433.547 175.025 430.478 172.884 428.828 171.602C427.177 170.306 426.918 168.955 428.828 168.383C425.882 168.123 424.422 169.91 424.981 171.643C425.732 173.934 431.051 174.63 431.269 182.391C431.269 182.391 432.783 183.046 434.611 182.964C434.543 181.982 434.42 180.89 434.243 179.704Z" fill="black"/>
<path d="M427.641 186.264C430.983 179.498 441.595 178.557 449.847 186.264C462.232 197.817 464.265 209.261 459.041 215.344C453.816 221.441 445.837 219.682 438.744 213.298C433.288 208.374 422.813 196.071 427.641 186.264Z" fill="#FFB459"/>
<path opacity="0.1" d="M459.041 215.344C460.636 213.489 461.537 211.13 461.7 208.443C461.073 211.853 459.341 214.267 457.022 215.085C454.171 216.095 449.124 217.663 440.763 209.002C432.402 200.34 427.996 185.95 433.697 181.354C431.038 182.145 428.855 183.809 427.641 186.264C422.799 196.071 433.288 208.374 438.744 213.298C445.837 219.682 453.816 221.441 459.041 215.344Z" fill="black"/>
<path d="M409.759 212.657C388.767 201.486 377.323 195.907 366.984 201.268L361.951 191.556C377.869 183.304 393.405 191.57 414.888 203L409.759 212.657Z" fill="#455A64"/>
<path d="M379.915 188.528C382.643 190.465 383.966 196.426 381.32 199.931" stroke="#37474F" stroke-width="1.0232" stroke-miterlimit="10" stroke-linecap="round" stroke-linejoin="round"/>
<path d="M393.309 192.348C395.233 193.93 396.515 200.327 392.832 204.078" stroke="#37474F" stroke-width="1.0232" stroke-miterlimit="10" stroke-linecap="round" stroke-linejoin="round"/>
<path opacity="0.15" d="M366.998 201.268C377.337 195.908 388.781 201.486 409.773 212.657L411.901 208.675C407.427 205.824 402.271 202.85 396.937 200.436C382.165 193.752 376.546 192.989 364.965 197.312L366.998 201.268Z" fill="black"/>
<path d="M361.195 214.99C370.243 211.242 374.539 200.869 370.791 191.821C367.044 182.773 356.671 178.477 347.623 182.225C338.575 185.973 334.278 196.345 338.026 205.393C341.774 214.441 352.147 218.738 361.195 214.99Z" fill="#FFB459"/>
<path opacity="0.25" d="M361.195 214.99C370.243 211.242 374.539 200.869 370.791 191.821C367.044 182.773 356.671 178.477 347.623 182.225C338.575 185.973 334.278 196.345 338.026 205.393C341.774 214.441 352.147 218.738 361.195 214.99Z" fill="black"/>
<path d="M336.84 339.631C361.202 339.631 380.952 319.881 380.952 295.519C380.952 271.157 361.202 251.407 336.84 251.407C312.478 251.407 292.728 271.157 292.728 295.519C292.728 319.881 312.478 339.631 336.84 339.631Z" fill="#FFB459"/>
<path opacity="0.35" d="M336.84 339.631C361.202 339.631 380.952 319.881 380.952 295.519C380.952 271.157 361.202 251.407 336.84 251.407C312.478 251.407 292.728 271.157 292.728 295.519C292.728 319.881 312.478 339.631 336.84 339.631Z" fill="black"/>
<path opacity="0.15" d="M339.595 330.083C328.642 328.814 323.473 322.24 323.473 322.24C323.473 322.24 361.746 322.349 380.065 286.762C377.337 273.231 368.416 261.951 356.386 255.977L304.84 265.156C297.325 273.067 292.714 283.748 292.714 295.519C292.714 319.88 312.465 339.631 336.826 339.631C352.853 339.631 366.889 331.078 374.609 318.298C365.852 328.719 350.712 331.379 339.595 330.083Z" fill="black"/>
<path d="M379.765 271.95C379.779 271.95 379.683 271.773 379.547 271.486C379.492 271.363 379.438 271.241 379.369 271.118C377.883 268.035 372.399 256.168 367.353 238.45C361.665 218.495 361.024 197.83 361.024 197.83H259.337C259.337 235.913 266.648 273.328 283.303 302.285C286.14 307.864 292.142 312.474 301.089 315.175C323.036 321.818 354.381 314.479 371.104 298.793C380.733 289.75 383.393 279.929 379.765 271.95Z" fill="#FFB459"/>
<path opacity="0.1" d="M368.621 300.948C361.501 306.186 345.351 312.693 333.266 312.583C319.435 312.461 291.705 304.781 281.789 283.148C271.873 261.502 268.681 221.455 268.681 221.455C268.681 221.455 280.438 228.193 307.023 227.524L303.545 197.83H259.337C259.337 235.913 266.648 273.327 283.303 302.285C286.14 307.864 292.142 312.474 301.089 315.175C322 321.49 351.421 315.12 368.621 300.948Z" fill="black"/>
<path d="M373.954 258.35C373.818 257.995 373.681 257.614 373.531 257.232C373.436 257.013 373.368 256.795 373.272 256.577L373.231 256.427C371.376 251.448 369.33 245.406 367.353 238.436C364.952 229.993 363.451 221.44 362.51 214.361L362.483 214.252C363.615 222.504 358.705 231.002 347.752 237.317C334.657 244.874 316.189 247.465 299.439 245.037C301.403 263.82 307.732 283.57 318.153 298.465C334.466 299.666 353.74 293.596 364.611 283.407C373.545 275.045 376.478 265.988 373.954 258.35Z" fill="#37474F"/>
<path d="M371.363 257.354C371.226 256.986 371.104 256.604 370.967 256.235C370.885 256.017 370.817 255.799 370.722 255.581L370.681 255.431C368.935 250.411 366.998 244.328 365.156 237.33C363.738 231.97 362.688 226.568 361.91 221.535C360.205 227.319 355.499 232.87 347.752 237.33C334.657 244.887 316.189 247.478 299.439 245.051C301.267 262.442 306.832 280.678 315.93 295.109C331.834 296.105 350.93 291.808 361.542 282.26C370.626 274.049 373.736 265.047 371.363 257.354Z" fill="#455A64"/>
<path d="M341.246 252.704L336.131 250.371C336.131 250.371 317.389 254.763 306.136 253.713C306.136 253.713 306.123 262.32 308.291 270.326C310.828 279.711 314.416 285.099 314.416 285.099L320.335 287.963L341.246 252.704Z" fill="#263238"/>
<path d="M310.296 258.391C310.296 265.538 316.202 283.079 320.322 287.976C320.322 287.976 341.014 287.008 349.921 278.851C349.634 276.573 341.246 252.717 341.246 252.717C335.776 256.741 319.612 258.405 310.296 258.391Z" fill="#37474F"/>
<path d="M343.441 277.733C344.579 277.733 345.501 276.81 345.501 275.673C345.501 274.535 344.579 273.613 343.441 273.613C342.304 273.613 341.382 274.535 341.382 275.673C341.382 276.81 342.304 277.733 343.441 277.733Z" fill="#FFB459"/>
<path d="M337.127 278.742C337.684 278.742 338.136 278.29 338.136 277.733C338.136 277.176 337.684 276.724 337.127 276.724C336.569 276.724 336.117 277.176 336.117 277.733C336.117 278.29 336.569 278.742 337.127 278.742Z" fill="#FFB459"/>
<path d="M342.46 264.202C342.364 264.243 342.282 264.256 342.187 264.256C341.928 264.256 341.669 264.106 341.559 263.847C341.423 263.493 341.587 263.097 341.928 262.947C343.796 262.17 344.779 260.124 344.233 258.159L339.418 241.205C339.841 241.041 340.277 240.878 340.686 240.7L345.542 257.791C346.293 260.41 344.969 263.165 342.46 264.202Z" fill="#FFB459"/>
<path d="M334.221 266.834C334.125 266.875 334.044 266.888 333.948 266.888C333.689 266.888 333.43 266.725 333.321 266.466C333.184 266.125 333.348 265.715 333.689 265.579C335.558 264.802 336.54 262.742 335.994 260.791L331.138 243.714C331.588 243.605 332.025 243.496 332.461 243.387L337.304 260.423C338.067 263.028 336.717 265.797 334.221 266.834Z" fill="#FFB459"/>
<path d="M325.982 269.44C325.9 269.481 325.805 269.495 325.723 269.495C325.45 269.495 325.191 269.345 325.082 269.085C324.946 268.731 325.109 268.335 325.45 268.185C327.319 267.408 328.315 265.362 327.756 263.398L322.6 245.243C323.05 245.188 323.513 245.134 323.964 245.065L329.065 263.029C329.815 265.648 328.478 268.403 325.982 269.44Z" fill="#FFB459"/>
<g opacity="0.3">
<path opacity="0.3" d="M342.46 264.202C342.364 264.243 342.282 264.256 342.187 264.256C341.928 264.256 341.669 264.106 341.559 263.847C341.423 263.493 341.587 263.097 341.928 262.947C343.796 262.17 344.779 260.124 344.233 258.159L339.418 241.205C339.841 241.041 340.277 240.878 340.686 240.7L345.542 257.791C346.293 260.41 344.969 263.165 342.46 264.202Z" fill="#FFB459"/>
<path opacity="0.3" d="M334.221 266.834C334.125 266.875 334.044 266.888 333.948 266.888C333.689 266.888 333.43 266.725 333.321 266.466C333.184 266.125 333.348 265.715 333.689 265.579C335.558 264.802 336.54 262.742 335.994 260.791L331.138 243.714C331.588 243.605 332.025 243.496 332.461 243.387L337.304 260.423C338.067 263.028 336.717 265.797 334.221 266.834Z" fill="black"/>
<path opacity="0.3" d="M325.982 269.44C325.9 269.481 325.805 269.495 325.723 269.495C325.45 269.495 325.191 269.345 325.082 269.085C324.946 268.731 325.109 268.335 325.45 268.185C327.319 267.408 328.315 265.362 327.756 263.398L322.6 245.243C323.05 245.188 323.513 245.134 323.964 245.065L329.065 263.029C329.815 265.648 328.478 268.403 325.982 269.44Z" fill="black"/>
</g>
<path d="M347.752 237.317C346.701 237.931 345.597 238.49 344.478 239.036C345.678 245.133 347.888 254.613 350.125 259.755C350.125 259.755 360.996 256.44 364.652 249.266C364.652 249.266 361.078 238.558 359.168 227.183C356.699 230.879 352.908 234.344 347.752 237.317Z" fill="#37474F"/>
<path d="M357.75 235.776C357.75 236.43 357.218 236.962 356.563 236.962C355.908 236.962 355.376 236.43 355.376 235.776C355.376 235.121 355.908 234.589 356.563 234.589C357.218 234.589 357.75 235.121 357.75 235.776Z" fill="#FFB459"/>
<path d="M359.428 241.163C359.428 241.818 358.896 242.35 358.241 242.35C357.586 242.35 357.054 241.818 357.054 241.163C357.054 240.509 357.586 239.977 358.241 239.977C358.896 239.977 359.428 240.509 359.428 241.163Z" fill="#FFB459"/>
<path d="M361.801 246.647C361.801 247.301 361.269 247.833 360.614 247.833C359.959 247.833 359.427 247.301 359.427 246.647C359.427 245.992 359.959 245.46 360.614 245.46C361.269 245.46 361.801 245.992 361.801 246.647Z" fill="#FFB459"/>
<path d="M352.076 255.486C351.803 255.486 351.557 255.322 351.448 255.063C350.685 253.194 348.284 244.069 347.656 240.318C347.588 239.95 347.847 239.595 348.216 239.527C348.584 239.473 348.939 239.718 349.007 240.086C349.607 243.687 351.994 252.772 352.717 254.531C352.853 254.886 352.69 255.281 352.349 255.418C352.239 255.472 352.158 255.486 352.076 255.486Z" fill="#FFB459"/>
<path d="M355.827 253.058C355.554 253.058 355.308 252.895 355.199 252.635C354.435 250.767 352.035 241.641 351.407 237.89C351.339 237.522 351.598 237.168 351.967 237.099C352.335 237.045 352.69 237.29 352.758 237.659C353.358 241.26 355.745 250.344 356.468 252.103C356.604 252.458 356.441 252.854 356.1 252.99C356.004 253.031 355.909 253.058 355.827 253.058Z" fill="#FFB459"/>
<path d="M444.296 244.015C444.296 244.015 435.443 258.05 415.011 265.525C396.597 272.249 379.656 270.599 379.097 270.544C377.31 266.739 372.14 255.24 367.352 238.436C364.952 229.993 363.438 221.427 362.51 214.348C362.51 214.348 378.264 216.394 395.164 205.823C414.424 193.778 418.83 180.861 418.83 180.861C430.778 197.72 439.153 218.944 444.296 244.015Z" fill="#FFB459"/>
<path opacity="0.25" d="M444.296 244.015C444.296 244.015 435.443 258.05 415.011 265.525C396.597 272.249 379.656 270.599 379.097 270.544C377.31 266.739 372.14 255.24 367.352 238.436C364.952 229.993 363.438 221.427 362.51 214.348C362.51 214.348 378.264 216.394 395.164 205.823C414.424 193.778 418.83 180.861 418.83 180.861C430.778 197.72 439.153 218.944 444.296 244.015Z" fill="black"/>
<path opacity="0.25" d="M444.296 244.015C439.14 218.931 430.778 197.72 418.816 180.875C418.816 180.875 418.23 182.566 416.593 185.294C426.795 197.188 439.099 226.828 441.117 248.079C442.277 246.797 443.341 245.433 444.296 244.015Z" fill="black"/>
<path d="M419.894 227.66C421.83 227.66 423.399 226.091 423.399 224.155C423.399 222.219 421.83 220.649 419.894 220.649C417.958 220.649 416.388 222.219 416.388 224.155C416.388 226.091 417.958 227.66 419.894 227.66Z" fill="#37474F"/>
<path d="M310.174 227.565C338.257 227.565 361.024 214.423 361.024 198.212C361.024 182 338.257 168.858 310.174 168.858C282.09 168.858 259.324 182 259.324 198.212C259.324 214.423 282.09 227.565 310.174 227.565Z" fill="#FFB459"/>
<path opacity="0.5" d="M310.174 227.565C338.257 227.565 361.024 214.423 361.024 198.212C361.024 182 338.257 168.858 310.174 168.858C282.09 168.858 259.324 182 259.324 198.212C259.324 214.423 282.09 227.565 310.174 227.565Z" fill="white"/>
<path opacity="0.1" d="M274.219 177.452C266.471 181.926 261.752 187.491 260.061 193.288C261.425 198.294 265.435 203.109 272.118 206.983C288.909 216.681 316.121 216.681 332.912 206.983C349.607 197.339 349.689 181.749 333.185 172.051C314.102 166.445 290.178 168.245 274.219 177.452Z" fill="black"/>
<path d="M376.914 255.813C374.923 254.476 372.563 253.999 370.244 254.19C367.544 254.435 364.884 255.595 362.892 257.422C362.661 257.627 362.442 257.845 362.238 258.077C359.633 258.759 357.232 260.273 355.5 262.524C354.613 263.67 353.958 265.006 353.672 266.425C352.826 267.462 352.226 268.716 352.035 270.135C351.762 272.276 352.499 274.418 353.767 276.109C355.8 278.837 359.332 280.842 362.838 281.047C363.534 280.365 364.188 279.683 364.802 279.001C362.265 279.274 359.496 278.292 357.518 276.887C355.431 275.427 353.754 272.904 353.945 270.394C353.958 270.435 353.972 270.49 353.986 270.531C354.94 272.945 356.973 274.8 359.387 275.741C361.733 276.655 364.543 276.518 366.48 274.773C367.107 274.227 367.557 273.572 367.885 272.89C368.308 272.945 368.744 272.958 369.167 272.958C371.581 272.945 373.886 272.045 375.059 269.903C376.151 267.912 376.055 265.443 375.237 263.37C374.541 261.637 373.341 260.301 371.799 259.359C371.295 259.046 370.763 258.786 370.204 258.568C368.594 257.941 366.903 257.654 365.225 257.695C366.807 256.522 368.73 255.813 370.695 255.595C371.745 255.472 372.809 255.499 373.845 255.663C374.828 255.827 375.782 256.113 376.669 256.563C377.242 256.781 377.283 256.072 376.914 255.813ZM356.714 263.861C357.764 262.347 359.128 261.214 360.669 260.437C360.287 261.242 360.001 262.101 359.851 262.974C358.705 263.165 357.587 263.56 356.577 264.092C356.604 264.024 356.659 263.942 356.714 263.861ZM361.365 274.213C359.373 273.845 357.464 272.59 356.373 270.872C355.609 269.685 355.35 268.375 355.486 267.08C356.564 265.934 358.105 265.088 359.714 264.788C359.755 266.848 360.519 268.866 362.17 270.408C363.124 271.294 364.434 271.99 365.88 272.426C364.938 274.009 363.111 274.541 361.365 274.213ZM364.038 269.48C362.483 268.266 361.747 266.52 361.665 264.693C362.988 264.829 364.216 265.388 365.102 266.534C365.962 267.639 366.548 269.207 366.425 270.694C365.525 270.394 364.693 269.985 364.038 269.48ZM368.58 259.809C369.944 260.219 371.172 260.887 372.1 261.883C372.522 262.306 372.863 262.783 373.136 263.329C373.9 264.802 374.2 266.67 373.709 268.294C373.177 269.999 371.772 270.831 370.135 271.049C369.576 271.131 369.003 271.144 368.417 271.09C368.553 270.067 368.471 269.003 368.144 267.939C367.435 265.634 365.661 263.656 363.261 263.069C362.783 262.96 362.292 262.906 361.801 262.878C362.033 261.692 362.538 260.546 363.274 259.564C364.993 259.223 366.807 259.278 368.58 259.809Z" fill="#FFB459"/>
<path opacity="0.5" d="M376.914 255.813C374.923 254.476 372.563 253.999 370.244 254.19C367.544 254.435 364.884 255.595 362.892 257.422C362.661 257.627 362.442 257.845 362.238 258.077C359.633 258.759 357.232 260.273 355.5 262.524C354.613 263.67 353.958 265.006 353.672 266.425C352.826 267.462 352.226 268.716 352.035 270.135C351.762 272.276 352.499 274.418 353.767 276.109C355.8 278.837 359.332 280.842 362.838 281.047C363.534 280.365 364.188 279.683 364.802 279.001C362.265 279.274 359.496 278.292 357.518 276.887C355.431 275.427 353.754 272.904 353.945 270.394C353.958 270.435 353.972 270.49 353.986 270.531C354.94 272.945 356.973 274.8 359.387 275.741C361.733 276.655 364.543 276.518 366.48 274.773C367.107 274.227 367.557 273.572 367.885 272.89C368.308 272.945 368.744 272.958 369.167 272.958C371.581 272.945 373.886 272.045 375.059 269.903C376.151 267.912 376.055 265.443 375.237 263.37C374.541 261.637 373.341 260.301 371.799 259.359C371.295 259.046 370.763 258.786 370.204 258.568C368.594 257.941 366.903 257.654 365.225 257.695C366.807 256.522 368.73 255.813 370.695 255.595C371.745 255.472 372.809 255.499 373.845 255.663C374.828 255.827 375.782 256.113 376.669 256.563C377.242 256.781 377.283 256.072 376.914 255.813ZM356.714 263.861C357.764 262.347 359.128 261.214 360.669 260.437C360.287 261.242 360.001 262.101 359.851 262.974C358.705 263.165 357.587 263.56 356.577 264.092C356.604 264.024 356.659 263.942 356.714 263.861ZM361.365 274.213C359.373 273.845 357.464 272.59 356.373 270.872C355.609 269.685 355.35 268.375 355.486 267.08C356.564 265.934 358.105 265.088 359.714 264.788C359.755 266.848 360.519 268.866 362.17 270.408C363.124 271.294 364.434 271.99 365.88 272.426C364.938 274.009 363.111 274.541 361.365 274.213ZM364.038 269.48C362.483 268.266 361.747 266.52 361.665 264.693C362.988 264.829 364.216 265.388 365.102 266.534C365.962 267.639 366.548 269.207 366.425 270.694C365.525 270.394 364.693 269.985 364.038 269.48ZM368.58 259.809C369.944 260.219 371.172 260.887 372.1 261.883C372.522 262.306 372.863 262.783 373.136 263.329C373.9 264.802 374.2 266.67 373.709 268.294C373.177 269.999 371.772 270.831 370.135 271.049C369.576 271.131 369.003 271.144 368.417 271.09C368.553 270.067 368.471 269.003 368.144 267.939C367.435 265.634 365.661 263.656 363.261 263.069C362.783 262.96 362.292 262.906 361.801 262.878C362.033 261.692 362.538 260.546 363.274 259.564C364.993 259.223 366.807 259.278 368.58 259.809Z" fill="white"/>
<path opacity="0.15" d="M352.076 269.944C352.662 271.444 353.685 272.317 354.313 272.74C354.04 271.976 353.903 271.172 353.958 270.367C353.972 270.408 353.985 270.462 353.999 270.503C353.631 268.989 353.508 268.034 353.672 266.411C352.867 267.407 352.294 268.607 352.076 269.944Z" fill="black"/>
<path opacity="0.15" d="M356.031 266.602C356.058 266.056 356.167 265.183 356.577 264.105C356.113 264.828 355.513 265.988 355.499 267.079C355.649 266.915 355.84 266.765 356.031 266.602Z" fill="black"/>
<path opacity="0.15" d="M358.991 261.514C359.523 261.105 360.082 260.737 360.669 260.451C361.01 259.659 361.419 259.059 362.238 258.091C361.774 258.214 361.31 258.377 360.86 258.555C359.796 259.441 359.237 260.764 358.991 261.514Z" fill="black"/>
<path opacity="0.15" d="M359.85 262.987C359.591 263.028 359.346 263.083 359.087 263.137C358.909 263.737 358.828 264.474 358.773 265.047C359.087 264.951 359.387 264.856 359.7 264.788C359.687 264.31 359.673 263.792 359.85 262.987Z" fill="black"/>
<path opacity="0.15" d="M367.898 272.863C367.066 272.754 365.879 272.44 365.879 272.44C365.661 272.809 365.388 273.109 365.088 273.368C365.47 273.627 366.18 274.009 367.053 274.145C367.394 273.723 367.68 273.3 367.898 272.863Z" fill="black"/>
<path opacity="0.15" d="M365.252 257.654C364.243 258.432 363.288 259.55 363.288 259.55C363.52 259.509 363.765 259.482 364.011 259.455C364.216 259.059 364.598 258.473 365.252 257.654Z" fill="black"/>
<path opacity="0.15" d="M361.665 264.693C361.801 264.707 361.938 264.748 362.074 264.775C362.019 264.366 361.938 263.588 362.074 262.906C361.992 262.893 361.897 262.893 361.815 262.879C361.624 263.82 361.665 264.693 361.665 264.693Z" fill="black"/>
<path opacity="0.15" d="M368.484 270.326C367.884 270.408 366.984 270.476 366.411 270.326C366.411 270.449 366.438 270.572 366.425 270.694C367.339 271.022 368.416 271.09 368.416 271.09C368.457 270.845 368.471 270.585 368.484 270.326Z" fill="black"/>
<path d="M283.262 249.908C283.262 253.727 281.98 256.469 279.893 257.833C279.374 258.119 278.815 258.351 278.27 258.569C276.265 259.36 274.096 259.783 271.818 259.783C262.024 259.783 254.086 251.858 254.086 242.051C254.086 236.295 256.814 231.194 261.07 227.961C261.111 227.893 261.165 227.852 261.206 227.838C261.424 227.702 261.615 227.538 261.833 227.415C261.847 227.402 261.888 227.374 261.902 227.361C264.152 226.051 267.276 226.256 270.74 228.234C277.656 232.217 283.262 241.915 283.262 249.908Z" fill="#FFB459"/>
<path opacity="0.25" d="M283.262 249.908C283.262 253.727 281.98 256.469 279.893 257.833C279.374 258.119 278.815 258.351 278.27 258.569C276.265 259.36 274.096 259.783 271.818 259.783C262.024 259.783 254.086 251.858 254.086 242.051C254.086 236.295 256.814 231.194 261.07 227.961C261.111 227.893 261.165 227.852 261.206 227.838C261.424 227.702 261.615 227.538 261.833 227.415C261.847 227.402 261.888 227.374 261.902 227.361C264.152 226.051 267.276 226.256 270.74 228.234C277.656 232.217 283.262 241.915 283.262 249.908Z" fill="black"/>
<path opacity="0.1" d="M283.262 249.908C283.262 243.743 279.92 236.568 275.214 231.767C278.72 236.159 282.103 247.357 277.738 253.072C273.387 258.787 257.673 255.528 254.577 246.157C256.432 253.973 263.443 259.77 271.818 259.77C274.082 259.77 276.265 259.347 278.27 258.556C278.829 258.337 279.375 258.105 279.893 257.819C281.98 256.455 283.262 253.727 283.262 249.908Z" fill="black"/>
<path d="M262.543 358.687C261.874 361.361 261.847 364.048 262.366 366.571C262.584 367.662 263.716 368.563 264.234 368.031L275.01 356.982L283.658 359.124L286.126 367.703L274.832 379.284C274.41 379.706 274.464 380.17 274.901 380.293C275.16 380.375 275.433 380.443 275.705 380.511C285.363 382.912 295.142 377.019 297.543 367.349C299.303 360.269 296.602 353.149 291.241 348.894L305.413 289.819C312.029 288.482 317.608 283.476 319.34 276.493C320.008 273.819 320.035 271.146 319.531 268.609C319.313 267.504 318.167 266.617 317.662 267.135L306.886 278.184L298.239 276.042L295.77 267.463L307.064 255.882C307.473 255.473 307.405 254.996 306.996 254.873C306.736 254.791 306.464 254.723 306.191 254.655C296.534 252.254 286.754 258.147 284.353 267.817C282.594 274.897 285.294 282.017 290.655 286.272L276.483 345.347C269.868 346.711 264.275 351.704 262.543 358.687Z" fill="#FFB459"/>
<path opacity="0.8" d="M262.543 358.687C261.874 361.361 261.847 364.048 262.366 366.571C262.584 367.662 263.716 368.563 264.234 368.031L275.01 356.982L283.658 359.124L286.126 367.703L274.832 379.284C274.41 379.706 274.464 380.17 274.901 380.293C275.16 380.375 275.433 380.443 275.705 380.511C285.363 382.912 295.142 377.019 297.543 367.349C299.303 360.269 296.602 353.149 291.241 348.894L305.413 289.819C312.029 288.482 317.608 283.476 319.34 276.493C320.008 273.819 320.035 271.146 319.531 268.609C319.313 267.504 318.167 266.617 317.662 267.135L306.886 278.184L298.239 276.042L295.77 267.463L307.064 255.882C307.473 255.473 307.405 254.996 306.996 254.873C306.736 254.791 306.464 254.723 306.191 254.655C296.534 252.254 286.754 258.147 284.353 267.817C282.594 274.897 285.294 282.017 290.655 286.272L276.483 345.347C269.868 346.711 264.275 351.704 262.543 358.687Z" fill="white"/>
<path d="M298.88 314.002C295.865 316.021 293.342 316.13 290.082 314.971C287.79 314.166 285.717 312.311 284.858 310.442L277.438 341.378C279.006 342.319 280.752 343.042 282.634 343.465C286.14 344.256 289.618 343.929 292.742 342.728L299.48 314.616C299.275 314.425 299.084 314.207 298.88 314.002Z" fill="#FFB459"/>
<path opacity="0.05" d="M298.88 314.002C295.865 316.021 293.342 316.13 290.082 314.971C287.79 314.166 285.717 312.311 284.858 310.442L277.438 341.378C279.006 342.319 280.752 343.042 282.634 343.465C286.14 344.256 289.618 343.929 292.742 342.728L299.48 314.616C299.275 314.425 299.084 314.207 298.88 314.002Z" fill="black"/>
<path d="M271.791 318.721C260.265 319.54 243.638 313.347 236.081 306.091C232.071 302.244 231.212 296.829 233.38 289.054C237.554 274.05 255.532 253.304 264.07 249.28V249.267C264.821 248.885 265.298 248.012 265.298 246.73C265.298 244.261 263.566 241.274 261.438 240.032C260.401 239.432 259.46 239.364 258.764 239.732V239.719C246.884 245.325 226.97 269.004 222.114 286.476C218.854 298.207 220.763 307.578 227.774 314.316C236.845 323.032 255.3 329.702 269.567 329.702C270.604 329.702 271.613 329.661 272.595 329.593L271.791 318.721Z" fill="#455A64"/>
<path d="M246.011 249.498C249.516 248.802 254.577 252.703 254.549 256.727" stroke="#37474F" stroke-width="1.2048" stroke-miterlimit="10" stroke-linecap="round" stroke-linejoin="round"/>
<path d="M237.895 258.541C241.332 257.695 246.543 260.86 247.757 264.229" stroke="#37474F" stroke-width="1.2048" stroke-miterlimit="10" stroke-linecap="round" stroke-linejoin="round"/>
<path d="M230.325 269.112C234.185 268.239 238.959 271.049 240.323 274.472" stroke="#37474F" stroke-width="1.2048" stroke-miterlimit="10" stroke-linecap="round" stroke-linejoin="round"/>
<path d="M234.935 284.634C233.926 281.906 225.824 280.12 223.082 283.489" stroke="#37474F" stroke-width="1.2048" stroke-miterlimit="10" stroke-linecap="round" stroke-linejoin="round"/>
<path d="M232.235 295.779C231.021 293.051 222.127 293.856 220.6 298.234" stroke="#37474F" stroke-width="1.2048" stroke-miterlimit="10" stroke-linecap="round" stroke-linejoin="round"/>
<path d="M235.317 305.299C234.049 303.594 225.401 305.899 224.937 311.096" stroke="#37474F" stroke-width="1.2048" stroke-miterlimit="10" stroke-linecap="round" stroke-linejoin="round"/>
<path d="M243.801 311.561C240.323 310.388 233.953 315.721 236.463 320.618" stroke="#37474F" stroke-width="1.2048" stroke-miterlimit="10" stroke-linecap="round" stroke-linejoin="round"/>
<path d="M252.395 315.42C249.476 315.556 245.779 321.367 247.58 325.623" stroke="#37474F" stroke-width="1.2048" stroke-miterlimit="10" stroke-linecap="round" stroke-linejoin="round"/>
<path d="M262.011 318.039C259.024 319.089 257.06 324.955 258.819 328.651" stroke="#37474F" stroke-width="1.2048" stroke-miterlimit="10" stroke-linecap="round" stroke-linejoin="round"/>
<path opacity="0.15" d="M223.914 289.368C227.774 271.95 242.233 257.191 249.748 250.167C254.577 245.666 260.019 242.788 263.702 242.242C263.061 241.328 262.284 240.551 261.424 240.06C260.388 239.459 259.446 239.391 258.751 239.76V239.746C246.87 245.352 226.956 269.031 222.1 286.504C218.84 298.234 220.75 307.605 227.761 314.343C227.774 314.343 220.054 306.814 223.914 289.368Z" fill="black"/>
<path opacity="0.15" d="M271.791 318.721C260.265 319.539 243.638 313.347 236.081 306.09C234.117 304.208 232.931 301.944 232.453 299.216L232.235 299.188C233.108 304.754 233.817 311.328 249.749 317.698C258.669 321.272 266.676 321.694 271.982 321.381L271.791 318.721Z" fill="black"/>
<path d="M279.074 309.255C278.597 304.345 279.252 298.712 281.379 295.288C283.507 291.864 286.958 289.491 288.595 292.315C289.673 294.197 287.367 297.075 286.29 300.608C285.39 303.554 286.072 307.128 286.072 307.128L279.074 309.255Z" fill="#455A64"/>
<path opacity="0.15" d="M286.29 300.594C287.367 297.061 289.672 294.183 288.595 292.301C288.24 291.674 287.777 291.319 287.272 291.155C288.199 292.424 286.017 294.797 284.476 297.839C283.166 300.417 282.566 304.823 283.057 308.028L286.072 307.114C286.058 307.114 285.39 303.54 286.29 300.594Z" fill="black"/>
<path d="M304.991 327.301C302.876 336.753 293.492 342.687 284.053 340.573C274.601 338.458 268.667 329.074 270.781 319.635C272.459 312.174 278.72 306.868 285.908 306.022C286.072 308.3 288.595 311.056 291.501 312.079C294.761 313.238 297.284 313.115 300.312 311.11C304.39 315.202 306.355 321.245 304.991 327.301Z" fill="#27DEBF"/>
<path d="M304.991 327.301C302.876 336.753 293.492 342.687 284.053 340.573C274.601 338.458 268.667 329.074 270.781 319.635C272.459 312.174 278.72 306.868 285.908 306.022C286.072 308.3 288.595 311.056 291.501 312.079C294.761 313.238 297.284 313.115 300.312 311.11C304.39 315.202 306.355 321.245 304.991 327.301Z" fill="#FFB459"/>
<path opacity="0.1" d="M304.991 327.301C305.127 326.715 305.209 326.115 305.291 325.528C302.876 330.384 297.025 337.177 285.417 335.185C273.496 333.139 271.027 318.844 272.582 314.957C271.791 316.389 271.163 317.958 270.795 319.636C268.681 329.088 274.614 338.459 284.067 340.573C293.506 342.687 302.876 336.754 304.991 327.301Z" fill="black"/>
<path d="M305.086 320.017C311.06 317.603 313.024 312.133 312.11 306.595C311.183 300.962 303.244 298.889 303.244 298.889L301.717 305.272C301.717 305.272 305.631 306.732 305.427 309.446C305.222 312.174 302.385 313.606 302.385 313.606C302.385 313.606 300.462 317.807 305.086 320.017Z" fill="#455A64"/>
<path opacity="0.15" d="M303.244 298.889L301.717 305.272C301.717 305.272 305.631 306.732 305.427 309.446C305.222 312.174 302.385 313.606 302.385 313.606C302.385 313.606 300.939 316.784 303.585 319.062C302.944 316.921 304.322 315.884 306.45 313.606C308.578 311.328 307.732 307.482 306.368 305.068C305.018 302.653 305.959 299.925 305.959 299.925C304.445 299.202 303.244 298.889 303.244 298.889Z" fill="black"/>
<path d="M304.295 329.634C308.932 331.025 314.552 329.088 315.316 325.31C316.08 321.518 314.811 318.381 310.419 315.816C309.096 317.671 307.377 319.145 305.086 320.018L305.372 322.064C303.176 324.069 303.244 327.288 304.295 329.634Z" fill="#455A64"/>
<path opacity="0.15" d="M310.419 315.816C309.096 317.671 307.377 319.145 305.086 320.018L305.372 322.064H311.06C311.06 322.064 309.587 321.586 310.01 320.631C310.446 319.677 312.82 320.031 313.979 321.518C315.33 323.264 315.411 325.514 314.279 327.397C314.798 326.783 315.166 326.087 315.316 325.31C316.08 321.518 314.811 318.381 310.419 315.816Z" fill="black"/>
<path d="M297.979 337.804C297.979 337.804 300.162 339.959 304.213 341.487C305.986 342.155 309.11 342.196 310.787 340.395C312.588 338.472 311.306 336.631 310.065 335.758C306.818 333.466 303.231 331.938 303.231 331.938C303.231 331.938 298.389 331.938 297.979 337.804Z" fill="#455A64"/>
<path opacity="0.15" d="M310.065 335.758C306.818 333.466 303.231 331.938 303.231 331.938C303.231 331.938 300.789 331.952 299.234 334.039C300.257 333.016 303.681 334.912 306.464 336.603C309.233 338.281 311.456 339.236 310.31 340.805C310.474 340.682 310.637 340.559 310.787 340.395C312.588 338.472 311.319 336.644 310.065 335.758Z" fill="black"/>
<path d="M438.512 197.203C438.512 197.203 441.65 195.784 440.531 192.497C439.413 189.224 435.443 188.241 435.443 188.241C435.443 188.241 428.091 186.209 422.472 189.578C416.866 192.947 416.784 200.067 416.948 202.359C417.139 205.06 421.449 206.765 423.167 203.054C424.463 200.245 424.45 196.371 429.114 195.02C432.975 193.888 436.221 198.212 438.512 197.203Z" fill="#455A64"/>
<path opacity="0.15" d="M436.262 194.229C432.361 192.634 428.187 190.547 424.872 194.229C421.558 197.912 422.254 201.513 420.862 203.041C419.471 204.569 417.834 204.296 417.098 203.055C417.889 205.332 421.599 206.451 423.154 203.055C424.45 200.245 424.436 196.371 429.101 195.021C432.961 193.902 436.207 198.226 438.499 197.203C438.499 197.203 441.636 195.784 440.518 192.497C440.558 194.148 439.317 195.471 436.262 194.229Z" fill="black"/>
<path d="M446.11 213.135C446.11 213.135 447.447 211.661 449.643 212.821C451.934 214.035 451.907 215.972 451.907 215.972C451.907 215.972 452.098 220.814 446.86 225.752C442.836 229.557 436.821 230.144 434.611 229.544C431.16 228.63 430.587 224.742 434.598 223.883C437.612 223.228 440.272 223.296 443.505 219.668C445.482 217.445 445.482 214.485 446.11 213.135Z" fill="#455A64"/>
<path opacity="0.15" d="M444.814 224.155C439.508 228.179 436.248 227.77 434.27 227.279C432.32 226.801 432.306 224.878 433.152 224.442C430.819 225.819 431.665 228.765 434.611 229.557C436.821 230.143 442.836 229.57 446.86 225.765C452.098 220.813 451.907 215.985 451.907 215.985C451.907 215.985 451.934 214.048 449.643 212.834C450.638 214.13 450.502 219.859 444.814 224.155Z" fill="black"/>
<path d="M440.954 199.385C440.954 199.385 443.873 199.003 445.919 202.127C448.524 206.096 445.455 207.76 445.455 207.76C443.423 208.005 440.845 206.737 436.698 208.374C431.529 210.42 430.942 214.348 429.742 217.444C428.405 220.868 423.126 219.013 423.986 213.652C424.845 208.346 427.055 204.827 430.56 202.549C434.066 200.285 438.062 199.371 440.954 199.385Z" fill="#455A64"/>
<path opacity="0.15" d="M442.659 204.622C439.017 204.431 433.602 204.977 431.147 208.905C429.496 211.551 429.087 215.261 427.641 216.339C425.827 217.703 424.286 216.38 423.904 214.907C423.986 219.272 428.514 220.595 429.742 217.444C430.956 214.334 431.529 210.419 436.698 208.373C440.845 206.723 443.423 208.005 445.455 207.76C445.455 207.76 448.265 206.232 446.219 202.631C446.792 203.954 446.287 204.827 442.659 204.622Z" fill="black"/>
<path d="M349.798 323.372C348.284 321.64 346.074 320.535 343.592 320.535C339.063 320.535 335.394 324.204 335.394 328.733C335.394 330.779 336.144 332.647 337.399 334.093L337.385 334.107L389.681 394.628L402.094 383.907L349.798 323.372Z" fill="#455A64"/>
<path d="M357.832 332.675C356.331 330.943 354.108 329.838 351.639 329.838C347.111 329.838 343.441 333.507 343.441 338.036C343.441 340.082 344.192 341.95 345.446 343.396" stroke="#37474F" stroke-width="1.2048" stroke-miterlimit="10" stroke-linecap="round" stroke-linejoin="round"/>
<path d="M366.711 342.947C365.211 341.214 362.987 340.109 360.518 340.109C355.99 340.109 352.321 343.779 352.321 348.307C352.321 350.353 353.071 352.222 354.326 353.668" stroke="#37474F" stroke-width="1.2048" stroke-miterlimit="10" stroke-linecap="round" stroke-linejoin="round"/>
<path d="M375.591 353.231C374.09 351.498 371.867 350.394 369.398 350.394C364.87 350.394 361.201 354.063 361.201 358.591C361.201 360.637 361.951 362.506 363.206 363.952" stroke="#37474F" stroke-width="1.2048" stroke-miterlimit="10" stroke-linecap="round" stroke-linejoin="round"/>
<path d="M384.484 363.501C382.984 361.769 380.76 360.664 378.291 360.664C373.763 360.664 370.094 364.333 370.094 368.862C370.094 370.908 370.844 372.776 372.099 374.222" stroke="#37474F" stroke-width="1.2048" stroke-miterlimit="10" stroke-linecap="round" stroke-linejoin="round"/>
<path d="M380.965 384.494C379.724 383.062 378.96 381.193 378.96 379.133C378.96 374.605 382.629 370.936 387.158 370.936C389.64 370.936 391.85 372.04 393.35 373.773" stroke="#37474F" stroke-width="1.2048" stroke-miterlimit="10" stroke-linecap="round" stroke-linejoin="round"/>
<path opacity="0.15" d="M343.592 320.535C339.063 320.535 335.394 324.204 335.394 328.733C335.394 330.779 336.144 332.647 337.399 334.093L337.385 334.107L389.681 394.628L394.837 390.167C378.851 372.285 352.935 343.259 345.965 335.307C335.667 323.563 339.868 321.422 343.592 320.535Z" fill="black"/>
<path d="M485.952 392.132C485.952 392.132 470.648 378.765 458.386 387.508C446.11 396.251 438.744 406.563 438.744 406.563L405.708 377.36C403.676 375.587 400.129 375.546 396.61 377.578C390.472 381.124 385.507 389.731 385.507 396.81C385.507 399.17 386.067 401.052 387.035 402.389L387.021 402.403C387.021 402.403 423.345 453.185 429.524 461.055C435.702 468.925 443.545 473.058 454.021 468.257C464.483 463.455 467.688 449.693 468.943 440.418C470.184 431.129 482.106 418.102 485.27 409.768C488.721 400.698 487.916 395.201 485.952 392.132Z" fill="#FFB459"/>
<path opacity="0.15" d="M474.017 388.463C468.166 388.954 454.13 396.21 450.024 411.637C448.251 418.321 446.096 424.95 444.296 428.987C442.154 433.788 439.413 437.458 436.575 440.472C431.733 445.601 425.936 442.109 420.903 437.949C415.87 433.788 401.712 415.129 396.856 407.109C393.35 401.298 392.245 396.892 393.2 392.664C393.528 393.1 393.855 393.523 394.21 393.905C398.929 399.143 407.945 403.439 414.82 398.202C418.175 395.651 418.434 391.627 417.329 387.644L405.694 377.36C403.662 375.587 400.116 375.546 396.597 377.578C396.228 377.783 395.874 378.014 395.519 378.26C395.396 378.342 395.273 378.437 395.151 378.533C394.919 378.696 394.701 378.86 394.469 379.037C394.319 379.16 394.182 379.283 394.032 379.406C393.841 379.569 393.65 379.733 393.459 379.897C393.309 380.033 393.146 380.183 392.996 380.333C392.832 380.497 392.655 380.661 392.491 380.838C392.327 381.002 392.177 381.165 392.013 381.343C391.863 381.506 391.713 381.67 391.577 381.834C391.413 382.025 391.25 382.216 391.1 382.407C390.977 382.57 390.854 382.72 390.731 382.884C390.568 383.102 390.404 383.307 390.24 383.525C390.145 383.661 390.036 383.811 389.94 383.948C387.226 387.849 385.466 392.596 385.466 396.797C385.466 399.156 386.026 401.039 386.994 402.376L386.98 402.389C386.98 402.389 423.304 453.171 429.483 461.041C435.662 468.911 443.504 473.044 453.98 468.243C464.442 463.442 467.647 449.679 468.902 440.404C469.816 433.543 476.554 424.65 481.287 417.107L474.017 388.463Z" fill="black"/>
<path d="M485.27 409.768C488.721 400.697 487.916 395.201 485.952 392.132C485.952 392.132 483.374 389.881 479.487 387.835C471.044 386.744 460.677 396.66 456.844 403.003C453.011 409.345 450.952 417.011 448.183 427.241C445.728 436.312 439.576 441.372 436.084 449.911C433.547 456.103 432.974 460.877 434.679 466.319C439.944 470.466 446.273 471.83 454.034 468.27C464.496 463.469 467.702 449.706 468.957 440.431C470.198 431.128 482.106 418.102 485.27 409.768Z" fill="#455A64"/>
<path d="M459.286 406.563C453.803 416.289 452.739 429.751 448.128 437.622C443.518 445.492 436.534 454.208 437.339 461.764C437.858 466.702 439.59 469.294 442.836 470.071C444.5 470.358 446.26 470.371 448.115 470.085C448.347 470.044 448.592 470.003 448.824 469.962C450.488 469.635 452.22 469.089 454.035 468.257C464.496 463.456 467.702 449.693 468.957 440.418C470.198 431.129 482.119 418.103 485.284 409.769C488.735 400.698 487.93 395.201 485.966 392.132C479.282 387.822 466.515 393.742 459.286 406.563Z" fill="#37474F"/>
<path opacity="0.15" d="M436.576 404.653C429.264 411.651 427.3 422.372 427.3 422.372C431.611 415.224 438.744 406.563 438.744 406.563L436.576 404.653Z" fill="black"/>
<path d="M450.856 431.36C450.666 431.933 450.461 432.506 450.243 433.065L473.062 430.16C473.39 429.573 473.731 428.987 474.085 428.4L450.856 431.36Z" fill="#263238"/>
<path d="M446.942 439.585C446.587 440.172 446.219 440.758 445.837 441.345L469.38 438.344C469.53 437.785 469.707 437.225 469.912 436.652L446.942 439.585Z" fill="#263238"/>
<path d="M438.131 465.502L461.073 462.583C461.523 462.01 461.96 461.41 462.369 460.796L437.694 463.933C437.817 464.492 437.967 465.011 438.131 465.502Z" fill="#263238"/>
<path d="M437.967 456.171C437.803 456.73 437.667 457.29 437.558 457.849L465.642 454.275C465.861 453.716 466.052 453.143 466.243 452.57L437.967 456.171Z" fill="#263238"/>
<path d="M441.745 447.974C441.404 448.56 441.077 449.133 440.763 449.719L467.961 446.255C468.084 445.696 468.18 445.136 468.289 444.591L441.745 447.974Z" fill="#263238"/>
<path d="M465.233 398.652C464.66 399.238 464.101 399.852 463.542 400.493L487.575 397.438C487.534 396.878 487.466 396.346 487.357 395.842L465.233 398.652Z" fill="#263238"/>
<path d="M458.973 407.163C458.672 407.735 458.372 408.308 458.1 408.895L486.73 405.253C486.88 404.68 487.016 404.121 487.125 403.575L458.973 407.163Z" fill="#263238"/>
<path d="M455.576 415.32C455.385 415.879 455.208 416.438 455.03 417.011L483.538 413.383C483.865 412.783 484.165 412.21 484.438 411.65L455.576 415.32Z" fill="#263238"/>
<path d="M453.23 423.34C453.08 423.899 452.916 424.458 452.766 425.017L478.327 421.771C478.723 421.171 479.105 420.585 479.487 419.998L453.23 423.34Z" fill="#263238"/>
<path d="M394.305 370.376C386.735 375.6 390.472 386.58 395.178 391.832C399.897 397.07 408.914 401.366 415.788 396.128C422.103 391.327 417.534 381.261 413.278 376.146C408.845 370.758 400.279 366.257 394.305 370.376Z" fill="#FFC37A"/>
<path opacity="0.7" d="M394.305 370.376C386.735 375.6 390.472 386.58 395.178 391.832C399.897 397.07 408.914 401.366 415.788 396.128C422.103 391.327 417.534 381.261 413.278 376.146C408.845 370.758 400.279 366.257 394.305 370.376Z" fill="white"/>
<path d="M418.898 389.5C418.366 393.223 412.678 398.066 403.048 390.618C393.228 383.021 393.214 372.054 396.378 369.326C395.669 369.585 394.973 369.913 394.305 370.376C386.735 375.601 390.472 386.581 395.178 391.832C399.897 397.07 408.914 401.366 415.788 396.129C418.039 394.424 418.884 392.064 418.898 389.5Z" fill="#FFB459"/>
<path opacity="0.05" d="M418.898 389.5C418.366 393.223 412.678 398.066 403.048 390.618C393.228 383.021 393.214 372.054 396.378 369.326C395.669 369.585 394.973 369.913 394.305 370.376C386.735 375.601 390.472 386.581 395.178 391.832C399.897 397.07 408.914 401.366 415.788 396.129C418.039 394.424 418.884 392.064 418.898 389.5Z" fill="#FFB459"/>
<path d="M320.39 195.007V161.562H299.944V195.007C299.944 196.521 300.94 198.021 302.945 199.181C306.941 201.486 313.407 201.486 317.403 199.181C319.395 198.035 320.39 196.521 320.39 195.007Z" fill="#455A64"/>
<path d="M299.958 188.596C299.958 190.11 300.953 191.61 302.958 192.77C306.955 195.075 313.42 195.075 317.417 192.77C319.408 191.61 320.417 190.11 320.404 188.596" stroke="#37474F" stroke-width="1.0232" stroke-miterlimit="10" stroke-linecap="round" stroke-linejoin="round"/>
<path d="M299.958 182.199C299.958 183.713 300.953 185.214 302.958 186.373C306.955 188.678 313.42 188.678 317.417 186.373C319.408 185.214 320.417 183.713 320.404 182.199" stroke="#37474F" stroke-width="1.0232" stroke-miterlimit="10" stroke-linecap="round" stroke-linejoin="round"/>
<path d="M299.958 175.788C299.958 177.302 300.953 178.803 302.958 179.962C306.955 182.267 313.42 182.267 317.417 179.962C319.408 178.803 320.417 177.302 320.404 175.788" stroke="#37474F" stroke-width="1.0232" stroke-miterlimit="10" stroke-linecap="round" stroke-linejoin="round"/>
<path opacity="0.15" d="M304.363 161.562H299.958V176.838V195.007C299.958 196.521 300.953 198.021 302.945 199.181C303.381 199.44 303.859 199.644 304.35 199.849V177.957C309.533 179.103 314.948 179.648 320.39 179.389V161.562H304.363Z" fill="black"/>
<path d="M267.849 112.798C267.849 87.4686 288.377 71.1143 313.707 71.1143C339.036 71.1143 359.564 87.4823 359.564 112.798V140.528C359.564 140.528 350.439 154.878 313.707 154.878C276.974 154.878 267.849 141.197 267.849 141.197V112.798Z" fill="#FFB459"/>
<path opacity="0.2" d="M320.991 79.9663C319.886 80.5529 318.754 81.3576 318.426 82.5579C318.099 83.731 318.644 85.0131 319.504 85.8725C320.363 86.7318 321.495 87.2637 322.6 87.7548C328.629 90.4146 334.903 92.5015 341.314 93.9882C342.924 94.3565 346.074 95.475 347.261 93.9746C348.68 92.1741 347.82 88.4777 345.979 86.1589C342.31 81.5486 339.445 80.0209 335.094 78.7796C330.457 77.4566 325.287 77.6748 320.991 79.9663Z" fill="white"/>
<path opacity="0.2" d="M359.551 123.056C359.551 123.056 356.986 136.928 338.818 143.72C320.649 150.513 300.926 148.331 288.868 145.302C288.868 145.302 314.675 157.892 341.314 145.807C364.625 135.236 359.551 123.056 359.551 123.056Z" fill="black"/>
<path opacity="0.15" d="M329.556 73.4057C324.619 71.9053 319.272 71.1006 313.707 71.1006C288.377 71.1006 267.849 87.4686 267.849 112.784V141.169C267.849 141.169 271.6 146.762 283.89 150.799C281.967 132.371 279.498 108.856 286.836 94.4659C295.225 78.0433 318.535 70.2003 329.556 73.4057Z" fill="black"/>
<path d="M312.302 131.621C308.551 131.621 305.509 128.579 305.509 124.828V121.678C305.509 117.927 308.551 114.885 312.302 114.885C316.053 114.885 319.094 117.927 319.094 121.678V124.828C319.094 128.579 316.053 131.621 312.302 131.621Z" fill="#37474F"/>
<path d="M346.484 120.722C343.264 121.923 341.546 120.422 340.932 118.745C340.55 117.708 340.196 115.089 340.509 111.965C340.837 108.692 342.432 106.182 345.379 104.627C348.325 103.072 350.657 105.023 351.135 106.864C351.503 108.269 351.667 110.356 351.476 112.975C351.285 115.566 349.662 119.331 346.484 120.722Z" fill="#37474F"/>
<path d="M364.297 121.282C362.442 119.167 359.551 118.922 359.551 118.922V123.055C359.551 129.834 355.077 136.599 346.115 141.769C330.566 150.744 306.614 151.917 288.854 145.302V143.869C288.854 138.509 285.09 132.003 280.452 129.329C275.815 126.656 272.05 128.825 272.05 134.171C269.24 130.652 267.822 126.86 267.822 123.055C266.253 123.055 264.18 123.9 264.18 129.875C264.18 137.309 263.825 145.643 270.877 154.863C282.253 169.745 312.22 182.866 337.999 172.568C365.484 161.601 365.634 141.019 365.634 132.644C365.648 126.478 366.139 123.396 364.297 121.282Z" fill="#FFB459"/>
<path opacity="0.1" d="M364.297 121.282C362.442 119.167 359.551 118.922 359.551 118.922V123.055C359.551 129.834 355.077 136.599 346.115 141.769C330.566 150.744 306.614 151.917 288.854 145.302V143.869C288.854 138.509 285.09 132.003 280.452 129.329C275.815 126.656 272.05 128.825 272.05 134.171C269.24 130.652 267.822 126.86 267.822 123.055C266.253 123.055 264.18 123.9 264.18 129.875C264.18 137.309 263.825 145.643 270.877 154.863C282.253 169.745 312.22 182.866 337.999 172.568C365.484 161.601 365.634 141.019 365.634 132.644C365.648 126.478 366.139 123.396 364.297 121.282Z" fill="black"/>
<path opacity="0.15" d="M322.163 174.136C291.828 173.673 277.206 157.905 273.36 150.812C269.513 143.719 269.868 136.463 272.077 137.39V134.171C269.268 130.652 267.849 126.86 267.849 123.055C266.28 123.055 264.207 123.9 264.207 129.875C264.207 137.308 263.852 145.643 270.904 154.863C282.28 169.744 312.247 182.866 338.027 172.568C345.57 169.553 351.053 165.816 355.036 161.806C348.039 167.112 336.785 174.355 322.163 174.136Z" fill="black"/>
<path opacity="0.2" d="M281.789 130.216C284.667 132.439 286.836 137.2 286.836 146.488L288.868 145.302V143.869C288.868 139.041 285.799 133.271 281.789 130.216Z" fill="black"/>
<path d="M359.551 123.056C359.551 129.835 355.077 136.6 346.115 141.77C330.566 150.745 306.614 151.918 288.855 145.303L286.822 146.489C286.822 146.489 311.647 160.102 339.664 149.067C365.812 138.755 365.252 124.843 364.27 121.296C362.415 119.182 359.523 118.937 359.523 118.937V123.056H359.551Z" fill="#FFC37A"/>
<path opacity="0.6" d="M359.551 123.056C359.551 129.835 355.077 136.6 346.115 141.77C330.566 150.745 306.614 151.918 288.855 145.303L286.822 146.489C286.822 146.489 311.647 160.102 339.664 149.067C365.812 138.755 365.252 124.843 364.27 121.296C362.415 119.182 359.523 118.937 359.523 118.937V123.056H359.551Z" fill="white"/>
<path d="M279.265 133.94C281.175 135.045 282.73 137.732 282.73 139.942C282.73 142.151 281.175 143.052 279.265 141.947C277.356 140.842 275.801 138.155 275.801 135.945C275.801 133.735 277.342 132.835 279.265 133.94Z" fill="#37474F"/>
<path d="M279.265 133.94C278.638 133.585 278.065 133.449 277.56 133.489C277.219 133.912 277.015 134.526 277.015 135.304C277.015 137.513 278.57 140.2 280.479 141.305C281.107 141.66 281.68 141.796 282.184 141.755C282.525 141.332 282.73 140.719 282.73 139.941C282.73 137.731 281.175 135.044 279.265 133.94Z" fill="#455A64"/>
<path d="M272.077 134.172C269.267 130.653 267.849 126.861 267.849 123.056C267.18 123.056 266.43 123.206 265.775 123.847C265.162 125.374 264.998 127.625 266.266 130.68C268.258 135.441 272.063 137.391 272.063 137.391C272.063 137.391 271.941 136.464 272.077 134.172Z" fill="#FFB459"/>
<path opacity="0.5" d="M272.077 134.172C269.267 130.653 267.849 126.861 267.849 123.056C267.18 123.056 266.43 123.206 265.775 123.847C265.162 125.374 264.998 127.625 266.266 130.68C268.258 135.441 272.063 137.391 272.063 137.391C272.063 137.391 271.941 136.464 272.077 134.172Z" fill="white"/>
<path d="M308.496 80.1573V55.5371H302.522V80.1573C302.522 80.5938 302.808 81.0439 303.395 81.3713C304.568 82.0396 306.45 82.0396 307.623 81.3713C308.196 81.0439 308.496 80.5938 308.496 80.1573Z" fill="#455A64"/>
<path opacity="0.15" d="M302.508 59.7519C303.449 60.011 304.432 60.1611 305.441 60.1611C306.491 60.1611 307.514 60.011 308.483 59.7246V55.5371H302.508V59.7519Z" fill="black"/>
<path d="M305.455 57.4745C311.587 57.4745 316.557 52.5035 316.557 46.3715C316.557 40.2395 311.587 35.2686 305.455 35.2686C299.323 35.2686 294.352 40.2395 294.352 46.3715C294.352 52.5035 299.323 57.4745 305.455 57.4745Z" fill="#FFB459"/>
<path opacity="0.15" d="M305.455 52.1825C297.448 50.764 294.693 43.6575 298.225 37.9424C295.852 39.9747 294.352 42.9892 294.352 46.3583C294.352 52.4963 299.33 57.4612 305.455 57.4612C311.593 57.4612 316.557 52.4826 316.557 46.3583C316.08 49.8501 312.561 53.4374 305.455 52.1825Z" fill="black"/>
<path opacity="0.3" d="M305.018 42.6342C306.764 43.1389 308.428 43.9164 309.915 44.953C310.856 45.6077 312.356 46.5762 313.434 45.5941C314.375 44.7484 314.225 42.7979 313.816 41.7613C313.297 40.4382 312.165 39.1287 310.938 38.4195C309.301 37.4647 307.541 37.11 305.673 37.451C304.513 37.6693 302.645 38.2422 302.331 39.5652C301.99 41.0656 303.79 42.2796 305.018 42.6342Z" fill="white"/>
<path d="M305.509 27.48C304.759 27.48 304.145 26.8662 304.145 26.116V16.5408C304.145 15.7906 304.759 15.1768 305.509 15.1768C306.259 15.1768 306.873 15.7906 306.873 16.5408V26.116C306.873 26.8799 306.259 27.48 305.509 27.48Z" fill="#E0E0E0"/>
<path d="M315.616 30.2214C315.384 30.2214 315.152 30.1668 314.934 30.0441C314.279 29.6622 314.061 28.8301 314.429 28.1754L319.217 19.8823C319.599 19.2276 320.431 19.0093 321.086 19.3776C321.74 19.7595 321.959 20.5916 321.59 21.2463L316.803 29.5394C316.557 29.9759 316.093 30.2214 315.616 30.2214Z" fill="#E0E0E0"/>
<path d="M323.009 37.6556C322.532 37.6556 322.082 37.41 321.823 36.9736C321.441 36.3188 321.673 35.4868 322.327 35.1049L330.62 30.3173C331.275 29.9353 332.107 30.1672 332.489 30.8219C332.871 31.4766 332.639 32.3087 331.984 32.6906L323.691 37.4782C323.487 37.601 323.241 37.6556 323.009 37.6556Z" fill="#E0E0E0"/>
<path d="M335.285 47.7905H325.71C324.96 47.7905 324.346 47.1767 324.346 46.4265C324.346 45.6763 324.96 45.0625 325.71 45.0625H335.285C336.035 45.0625 336.649 45.6763 336.649 46.4265C336.649 47.1767 336.035 47.7905 335.285 47.7905Z" fill="#E0E0E0"/>
<path d="M331.261 62.6983C331.029 62.6983 330.797 62.6438 330.579 62.521L322.286 57.7334C321.631 57.3515 321.413 56.5194 321.781 55.8647C322.163 55.21 322.995 54.9917 323.65 55.36L331.943 60.1477C332.598 60.5296 332.816 61.3616 332.448 62.0163C332.189 62.4528 331.725 62.6983 331.261 62.6983Z" fill="#E0E0E0"/>
<path d="M279.593 62.6028C279.115 62.6028 278.665 62.3573 278.406 61.9208C278.024 61.2661 278.256 60.4341 278.911 60.0522L287.204 55.2645C287.859 54.8826 288.691 55.1145 289.073 55.7692C289.454 56.4239 289.223 57.256 288.568 57.6379L280.275 62.4255C280.057 62.5483 279.825 62.6028 279.593 62.6028Z" fill="#E0E0E0"/>
<path d="M285.199 47.6811H275.624C274.874 47.6811 274.26 47.0673 274.26 46.3171C274.26 45.5669 274.874 44.9531 275.624 44.9531H285.199C285.949 44.9531 286.563 45.5669 286.563 46.3171C286.563 47.0673 285.963 47.6811 285.199 47.6811Z" fill="#E0E0E0"/>
<path d="M287.94 37.5597C287.709 37.5597 287.477 37.5051 287.258 37.3824L278.965 32.5947C278.311 32.2128 278.092 31.3807 278.461 30.726C278.843 30.0713 279.675 29.8531 280.329 30.2214L288.622 35.009C289.277 35.3909 289.495 36.223 289.127 36.8777C288.868 37.3278 288.418 37.5597 287.94 37.5597Z" fill="#E0E0E0"/>
<path d="M295.375 30.1669C294.897 30.1669 294.447 29.9214 294.188 29.4849L289.4 21.1918C289.018 20.5371 289.25 19.705 289.905 19.3231C290.56 18.9412 291.392 19.1731 291.774 19.8278L296.561 28.1209C296.943 28.7756 296.711 29.6077 296.057 29.9896C295.838 30.1124 295.606 30.1669 295.375 30.1669Z" fill="#E0E0E0"/>
<path d="M508.922 0.486896L405.149 60.3256C404.072 60.953 403.199 62.4671 403.199 63.7083V125.307C403.199 126.548 404.072 128.062 405.163 128.676L412.16 132.604C413.251 133.218 414.997 133.204 416.075 132.59L519.848 72.7516C520.926 72.1242 521.798 70.6102 521.798 69.3689V7.74338C521.798 6.50214 520.925 4.9881 519.834 4.37429L512.837 0.445978C511.759 -0.154183 510 -0.140544 508.922 0.486896Z" fill="#FFB459"/>
<path d="M414.124 131.444V69.8455C414.124 68.6042 414.997 67.0902 416.075 66.4627L519.848 6.62405C520.925 5.99661 521.798 6.50129 521.798 7.75617V69.3544C521.798 70.5957 520.925 72.1097 519.848 72.7371L416.075 132.576C414.997 133.19 414.124 132.685 414.124 131.444Z" fill="#FFB459"/>
<path opacity="0.2" d="M416.075 132.576C414.929 133.23 413.142 133.203 412.16 132.603L405.163 128.675C404.085 128.074 403.199 126.56 403.199 125.319V63.7073C403.199 63.0525 403.444 62.3433 403.826 61.7158L414.711 67.922C414.356 68.5222 414.138 69.2178 414.138 69.8453V131.443C414.124 132.576 414.929 133.244 416.075 132.576Z" fill="#D9994C"/>
<path opacity="0.4" d="M521.771 7.38778C521.621 6.4057 520.816 6.05106 519.834 6.6103L416.061 66.449C415.516 66.7627 415.038 67.2947 414.684 67.9085L403.799 61.7023C404.153 61.1158 404.617 60.6111 405.149 60.311L508.922 0.472295C510 -0.155145 511.746 -0.155137 512.837 0.458663L519.834 4.37334C520.816 4.94622 521.635 6.22838 521.771 7.38778Z" fill="#FFC37A"/>
<path d="M403.199 90.5645L387.485 106.551C386.653 107.41 386.94 108.678 387.785 109.224C388.113 109.429 398.67 115.485 398.67 115.485L414.138 96.8661L403.199 90.5645Z" fill="#FFB459"/>
<path opacity="0.1" d="M403.199 90.5645L387.485 106.551C386.653 107.41 386.94 108.678 387.785 109.224C388.113 109.429 398.67 115.485 398.67 115.485L414.138 96.8661L403.199 90.5645Z" fill="#D9994C"/>
<path d="M414.124 96.8525L398.411 112.839C397.252 114.012 398.247 116.003 399.884 115.758L414.124 113.698C415.652 113.712 415.652 96.8525 414.124 96.8525Z" fill="#FFB459"/>
<path d="M424.409 86.3354C424.477 84.5076 424.723 82.6799 425.173 80.8384C425.623 78.997 426.25 77.2648 427.069 75.628C427.887 73.9912 428.883 72.4908 430.056 71.1268C431.229 69.7628 432.579 68.6443 434.121 67.7577C435.635 66.8847 436.985 66.4482 438.158 66.4482C439.345 66.4482 440.341 66.8029 441.159 67.4985C441.977 68.1942 442.605 69.2035 443.055 70.5266C443.505 71.8497 443.751 73.391 443.819 75.1369C443.86 76.4873 443.873 77.9058 443.873 79.4062C443.873 80.9066 443.846 82.3252 443.819 83.6619C443.751 85.4897 443.505 87.3174 443.055 89.1588C442.605 91.0002 441.977 92.7462 441.159 94.3966C440.341 96.0471 439.345 97.5475 438.158 98.9115C436.971 100.262 435.635 101.38 434.121 102.253C432.593 103.14 431.229 103.59 430.056 103.59C428.883 103.59 427.887 103.249 427.069 102.54C426.25 101.83 425.623 100.821 425.173 99.498C424.723 98.1749 424.477 96.6336 424.409 94.8877C424.368 93.6055 424.341 92.2142 424.341 90.7138C424.354 89.1861 424.368 87.7266 424.409 86.3354ZM438.063 86.7309C438.076 86.1444 438.104 85.4897 438.117 84.7804C438.131 84.0711 438.145 83.3482 438.145 82.6117C438.145 81.8751 438.131 81.1794 438.117 80.4974C438.104 79.8291 438.076 79.2153 438.063 78.697C438.022 77.9195 437.913 77.2511 437.735 76.6782C437.558 76.1054 437.312 75.6689 436.985 75.3688C436.658 75.0551 436.262 74.905 435.785 74.8914C435.307 74.8778 434.748 75.0551 434.107 75.4234C433.466 75.7916 432.907 76.2554 432.429 76.8283C431.952 77.3875 431.556 78.015 431.229 78.697C430.902 79.379 430.656 80.1019 430.479 80.8794C430.302 81.6568 430.192 82.448 430.151 83.2664C430.111 83.8392 430.083 84.4667 430.07 85.1487C430.056 85.8443 430.056 86.5536 430.056 87.2902C430.056 88.0267 430.056 88.736 430.07 89.4317C430.083 90.1273 430.111 90.7547 430.151 91.3003C430.233 92.8553 430.588 93.9601 431.229 94.6558C431.856 95.3378 432.825 95.3241 434.107 94.5739C435.389 93.8374 436.344 92.7598 436.971 91.3412C437.599 89.9227 437.967 88.395 438.063 86.7309Z" fill="#455A64"/>
<path d="M463.624 70.4448C463.638 70.9086 463.651 71.5224 463.651 72.2726C463.651 73.0228 463.638 73.6366 463.624 74.1412C463.583 75.6962 463.351 77.2648 462.942 78.847C462.533 80.4293 461.96 81.9297 461.237 83.3482C460.514 84.7668 459.641 86.0626 458.604 87.2356C457.581 88.4087 456.436 89.3498 455.167 90.0864C453.899 90.823 452.753 91.1912 451.73 91.2049C450.707 91.2185 449.834 90.9321 449.097 90.3456C448.374 89.759 447.802 88.9134 447.392 87.8085C446.983 86.7037 446.751 85.4079 446.71 83.8938C446.697 83.4301 446.683 82.8163 446.683 82.0661C446.683 81.3159 446.697 80.7021 446.71 80.1974C446.738 78.6561 446.942 77.0875 447.365 75.5052C447.774 73.923 448.361 72.4226 449.097 70.9904C449.834 69.5582 450.721 68.2488 451.744 67.0757C452.767 65.889 453.912 64.9342 455.181 64.2113C456.449 63.4748 457.595 63.1201 458.618 63.1201C459.641 63.1201 460.528 63.4066 461.264 63.9931C462.001 64.5796 462.574 65.4116 462.969 66.5301C463.365 67.635 463.583 68.9308 463.624 70.4448ZM452.316 80.4293C452.385 81.6023 452.657 82.3934 453.176 82.789C453.68 83.1846 454.349 83.1436 455.181 82.6662C456.013 82.1888 456.681 81.4523 457.186 80.4838C457.691 79.5018 457.977 78.3969 458.045 77.142C458.086 76.6374 458.113 76.0781 458.113 75.478C458.113 74.8778 458.1 74.3458 458.045 73.8821C457.977 72.709 457.704 71.9179 457.186 71.5224C456.681 71.1268 456.013 71.1677 455.181 71.6451C454.349 72.1225 453.68 72.8591 453.176 73.8275C452.671 74.8096 452.385 75.9144 452.316 77.1693C452.275 77.674 452.248 78.2332 452.248 78.8334C452.248 79.4472 452.262 79.9792 452.316 80.4293Z" fill="#455A64"/>
<path d="M476.636 77.688C476.036 78.029 475.504 78.2473 475.054 78.3155C474.604 78.3837 474.208 78.37 473.867 78.2745C473.54 78.1791 473.254 78.029 473.022 77.8244C472.79 77.6198 472.613 77.4152 472.463 77.2106V87.4133C472.463 87.768 472.381 88.109 472.217 88.4636C472.053 88.8183 471.849 89.0501 471.63 89.1865L467.716 91.4508C467.484 91.5872 467.293 91.5736 467.129 91.4099C466.966 91.2462 466.884 91.0007 466.884 90.646V59.2331C466.884 58.8785 466.966 58.5375 467.129 58.1828C467.293 57.8282 467.498 57.5963 467.716 57.4599L471.48 55.2911C471.712 55.1547 471.903 55.1684 472.067 55.3321C472.231 55.4957 472.312 55.7413 472.312 56.0959V57.2007C472.503 56.7779 472.708 56.3278 472.913 55.8504C473.131 55.373 473.404 54.9092 473.717 54.4455C474.045 53.9953 474.427 53.5316 474.904 53.0951C475.368 52.645 475.941 52.2358 476.636 51.8402C477.564 51.3083 478.45 51.0082 479.283 50.9673C480.115 50.9264 480.837 51.1719 481.465 51.7175C482.092 52.2631 482.583 53.1224 482.979 54.2681C483.361 55.4139 483.579 56.928 483.62 58.783C483.634 59.2468 483.647 59.8878 483.647 60.7062C483.647 61.5246 483.634 62.1793 483.62 62.6567C483.579 64.5663 483.361 66.3123 482.979 67.9082C482.597 69.504 482.092 70.9362 481.465 72.2047C480.837 73.4733 480.115 74.5645 479.283 75.492C478.437 76.4195 477.564 77.1424 476.636 77.688ZM478.028 65.2893C478.096 64.3617 478.096 63.4615 478.028 62.6022C477.959 61.5246 477.728 60.6926 477.318 60.0924C476.909 59.5059 476.214 59.4923 475.231 60.0515C474.781 60.3107 474.386 60.6517 474.045 61.0745C473.717 61.4837 473.431 61.9475 473.213 62.4385C472.994 62.9295 472.831 63.4342 472.694 63.9525C472.572 64.4709 472.49 64.9892 472.449 65.4802C472.408 65.9849 472.381 66.5578 472.381 67.1989C472.381 67.84 472.394 68.3855 472.449 68.8357C472.49 69.2858 472.572 69.7086 472.694 70.0769C472.817 70.4452 472.994 70.7589 473.213 71.0044C473.431 71.2499 473.704 71.3863 474.045 71.4136C474.372 71.4409 474.768 71.3318 475.231 71.0726C476.2 70.5134 476.896 69.695 477.318 68.6311C477.728 67.5535 477.973 66.4487 478.028 65.2893Z" fill="#455A64"/>
<path d="M496.033 58.5372C496.033 58.1825 495.951 57.9643 495.801 57.8552C495.651 57.7597 495.378 57.746 495.01 57.8279C494.641 57.9234 494.137 58.0734 493.537 58.2917C492.923 58.5235 492.159 58.7691 491.245 59.0419C489.676 59.5056 488.462 59.3146 487.603 58.4553C486.757 57.6096 486.335 56.0956 486.335 53.9268C486.335 52.8356 486.512 51.7308 486.867 50.6123C487.221 49.4802 487.712 48.389 488.34 47.3115C488.967 46.2475 489.731 45.2518 490.631 44.3379C491.518 43.4241 492.514 42.6466 493.618 42.0191C494.696 41.3917 495.692 41.0234 496.606 40.9007C497.519 40.7779 498.311 40.8325 498.965 41.0643C499.634 41.3098 500.152 41.7191 500.534 42.3056C500.916 42.8921 501.134 43.5877 501.175 44.3516C501.189 44.6926 501.12 45.0336 500.943 45.4018C500.766 45.7565 500.561 46.002 500.343 46.1384L496.646 48.2799C496.415 48.4163 496.237 48.4436 496.101 48.3481C495.964 48.2663 495.801 48.1844 495.623 48.1026C495.432 48.0207 495.187 47.9798 494.901 47.9935C494.6 48.0071 494.178 48.1708 493.646 48.4845C493.168 48.7573 492.773 49.0983 492.445 49.4938C492.118 49.8894 491.968 50.3259 491.968 50.8033C491.968 51.1579 492.023 51.4034 492.118 51.5262C492.227 51.6626 492.432 51.6899 492.745 51.6217C493.059 51.5535 493.496 51.4171 494.055 51.2261C494.614 51.0352 495.351 50.776 496.265 50.4759C498.147 49.8621 499.525 50.0531 500.384 51.0488C501.243 52.0309 501.68 53.4904 501.68 55.4C501.68 56.4912 501.502 57.596 501.148 58.7418C500.793 59.8875 500.275 61.0197 499.593 62.1245C498.911 63.243 498.079 64.2796 497.11 65.2617C496.128 66.2438 495.023 67.0894 493.782 67.8124C492.541 68.5353 491.45 68.9445 490.495 69.0536C489.554 69.1627 488.763 69.0809 488.121 68.7808C487.48 68.4807 486.989 68.0306 486.648 67.4304C486.307 66.8303 486.116 66.1619 486.075 65.4117C486.062 65.0707 486.13 64.7297 486.307 64.3614C486.485 64.0068 486.689 63.7613 486.907 63.6249L490.768 61.4016C490.999 61.2652 491.163 61.2652 491.259 61.3743C491.368 61.497 491.504 61.6062 491.668 61.7153C491.832 61.8244 492.077 61.879 492.377 61.879C492.691 61.879 493.155 61.688 493.782 61.3334C494.41 60.9787 494.941 60.5422 495.405 60.0103C495.814 59.5056 496.033 59.0146 496.033 58.5372Z" fill="#455A64"/>
<path d="M510.368 46.1386C510.368 46.4932 510.287 46.8479 510.123 47.1889C509.959 47.5435 509.755 47.7754 509.536 47.9118L505.622 50.176C505.39 50.3124 505.199 50.2988 505.035 50.1351C504.871 49.9714 504.79 49.7259 504.79 49.3713V28.734C504.79 28.3793 504.871 28.0383 505.035 27.6837C505.199 27.329 505.403 27.0972 505.622 26.9608L509.536 24.6965C509.768 24.5601 509.959 24.5738 510.123 24.7374C510.287 24.9011 510.368 25.1466 510.368 25.5013V46.1386ZM510.368 56.4368C510.368 56.7914 510.287 57.1324 510.123 57.4871C509.959 57.8417 509.755 58.0736 509.536 58.21L505.622 60.4742C505.39 60.6106 505.199 60.597 505.035 60.4333C504.871 60.2696 504.79 60.0241 504.79 59.6695V54.8273C504.79 54.4726 504.871 54.1316 505.035 53.777C505.199 53.4224 505.403 53.1905 505.622 53.0541L509.536 50.7898C509.768 50.6534 509.959 50.6671 510.123 50.8308C510.287 50.9944 510.368 51.24 510.368 51.5946V56.4368Z" fill="#455A64"/>
</svg>
