<svg width="681" height="504" viewBox="0 0 681 504" fill="none" xmlns="http://www.w3.org/2000/svg">
<path d="M317.532 436.797C297.867 436.847 278.201 437.279 258.571 439.272C251.173 440.02 243.925 441.667 236.504 442.336C221.685 443.667 207.132 446.142 192.262 447.286C180.29 448.207 168.261 448.746 156.318 449.919C145.122 451.012 132.726 450.76 121.617 448.955C113.391 447.617 105.13 446.861 97.0478 444.71C88.0024 442.3 78.1732 440.581 68.7539 440.646C55.3151 440.732 42.2287 440.746 29.3652 444.991C24.8497 446.48 19.3204 448.933 15.8978 452.063C8.0531 459.228 6.98893 477.112 14.8264 484.543C28.0278 497.054 56.1924 501.96 74.6931 502.19C94.9626 502.442 114.657 501.075 134.962 500.269C153.83 499.521 172.647 498.457 191.543 498.493C230.141 498.572 268.739 498.492 307.264 496.147C343.46 493.939 379.743 494.701 416.018 494.701C453.214 494.701 490.165 494.967 527.094 499.471C543.186 501.435 559.58 502.118 575.751 503.492C590.233 504.722 604.153 503.471 618.577 502.334C630.693 501.377 642.722 498.543 653.73 493.759C662.438 489.968 677.969 478.191 680.644 469.141C688.136 443.775 575.104 444.387 557.747 444.437C538.333 444.502 518.768 445.084 499.368 444.408C491.207 444.128 483.169 442.674 475.202 441.077C467.271 439.495 459.275 439.897 451.229 439.228C417.679 436.452 384.064 436.854 350.406 436.854C339.448 436.854 328.49 436.768 317.532 436.797Z" fill="#FFEDD7"/>
<path d="M649.927 333.987L646.655 394.906L640.543 477.148L631.397 477.802L620.288 403.107L604.922 339.901L649.927 333.987Z" fill="#BCBEC0"/>
<path d="M631.728 481.651L641.967 485.896L646.554 480.601L641.262 476.004L631.375 476.709L631.728 481.651Z" fill="#305399"/>
<path d="M579.85 329.427L577.836 365.986L583.79 474.695L592.951 475.155L606.67 403.855L618.771 325.664L579.85 329.427Z" fill="#BCBEC0"/>
<path d="M592.699 476.867L582.553 481.328L577.851 478.27L583.049 473.565L592.95 474.062L592.699 476.867Z" fill="#305399"/>
<path d="M629.571 217.143L600.903 215.258C600.903 215.258 585.091 217.61 575.873 255.782C570.747 277.018 570.287 310.168 570.883 335.397C571.703 338.966 576.269 354.555 592.72 351.203C620.971 345.44 635.913 340.224 648.395 342.009C659.037 343.865 657.548 329.376 655.931 318.333L650.315 284.191L629.571 217.143Z" fill="#FFB459"/>
<path d="M622.596 181.827C615.334 180.54 607.87 179.425 600.73 181.144C599.163 181.518 597.495 182.144 596.697 183.54C596.388 184.079 596.236 184.698 596.1 185.309C594.561 192.144 592.67 202.258 597.373 208.301C598.271 209.452 599.451 210.352 600.702 211.064C602.377 212.021 604.218 212.639 606.109 212.934C605.792 214.632 605.318 216.301 604.7 217.912C606.447 220.33 614.14 220.308 615.463 217.869C615.456 215.805 615.449 213.74 615.449 211.675C616.369 211.258 617.254 210.762 618.081 210.164C621.273 207.862 623.301 204.496 624.408 200.769C625.609 196.712 627.378 192.834 628.464 188.705C628.859 187.201 629.147 185.489 628.313 184.18C627.421 182.784 625.609 182.374 623.977 182.079C623.517 181.993 623.056 181.906 622.596 181.827Z" fill="#B97262"/>
<path d="M598.811 186.676C602.269 184.244 607.569 183.036 610.919 183.144C621.058 183.46 625.07 190.733 625.99 200.014C628.629 196.359 633.669 191.69 633.799 187.115C633.907 183.374 633.18 178.309 630.959 175.173C628.881 172.238 623.811 170.792 620.77 169.166C617.901 167.633 615.032 166.101 612.163 164.576C611.566 164.26 610.955 163.936 610.279 163.842C609.488 163.734 608.69 163.972 607.928 164.202C601.378 166.187 594.827 168.173 588.277 170.159C587.019 170.54 585.588 171.079 585.171 172.324C584.919 173.079 585.12 173.907 585.322 174.684C586.213 178.094 587.802 181.547 588.306 185.014C588.795 187.021 590.427 197.345 593.957 195.999C594.935 194.237 595.007 192.107 595.755 190.23C596.301 188.856 597.409 187.662 598.811 186.676Z" fill="#3B455A"/>
<path d="M600.903 215.266L590.484 218.913L553.619 260.883L551.879 274.285L571.552 303.953L576.068 292.594L567.339 270.429L579.368 261.199L594.345 223.352L600.903 215.266Z" fill="#FFB459"/>
<path d="M623.617 219.834L642.362 197.82L635.373 140.534L643.836 136.391L657.973 194.209L654.981 208.892L634.237 240.157L623.617 219.834Z" fill="#FFB459"/>
<path d="M642.024 137.283L641.809 132.017L635.424 124.247L631.426 128.125L634.439 135.139L632.821 137.657L635.373 140.534L642.024 137.283Z" fill="#B97262"/>
<path d="M131.986 206.432L141.448 199.813L140.104 193.777L130.512 197.087L125.881 200.108V203.453L131.986 206.432Z" fill="#EFBFA5"/>
<path d="M42.085 461.703C41.1071 460.624 39.971 460.041 38.684 460.243C37.4472 460.437 36.3327 461.278 35.8222 462.401C35.4771 463.163 35.398 464.019 35.3333 464.854C34.9738 469.17 35.0097 479.429 40.762 480.904C43.1779 481.522 45.1768 477.659 45.824 475.494C46.7875 472.213 45.3494 465.3 42.085 461.703Z" fill="#305399"/>
<path d="M44.1269 396.555L43.8249 422.899C44.1772 434.596 42.3509 446.366 42.696 458.063C42.7751 460.754 43.4798 463.588 42.7967 466.257C42.1352 468.869 40.014 469.329 37.8426 468.005C34.9305 466.236 35.3978 462.106 34.9161 459.085C33.5859 450.797 32.0184 442.553 30.6306 434.28C29.9476 430.223 31.3569 424.539 31.0477 420.432L26.791 398.353L44.1269 396.555Z" fill="#EFBFA5"/>
<path d="M14.0498 353.995L25.504 404.922L27.9415 453.013L46.1115 452.603L51.0512 318.083L15.833 318.723L14.0498 353.995Z" fill="#3B455A"/>
<path d="M68.0709 458.602C67.0499 457.581 65.8923 457.063 64.6196 457.343C63.3972 457.609 62.3259 458.516 61.8585 459.667C61.5421 460.451 61.5062 461.314 61.4774 462.149C61.3048 466.494 61.7794 476.753 67.5676 477.889C70.0051 478.364 71.9178 476.53 72.4714 474.321C73.3055 470.99 71.4792 462.012 68.0709 458.602Z" fill="#305399"/>
<path d="M58.4932 400.252L60.0319 426.553C60.1613 433.862 61.132 441.114 61.887 448.372C62.5916 455.113 61.4987 462.142 65.0148 468.271C66.1221 470.192 68.3511 471.472 69.9114 469.142C71.1122 467.343 70.4003 464.336 70.6304 462.293C71.5724 453.955 72.7444 445.646 73.7438 437.315C74.2328 433.229 72.5646 427.618 72.6725 423.503L75.8794 401.252L58.4932 400.252Z" fill="#EFBFA5"/>
<path d="M81.4878 350.88L82.969 400.317L75.2106 450.308L56.7315 450.862L57.544 396.756L47.7651 351.887L44.4863 322.521L73.8085 319.061L81.4878 350.88Z" fill="#3B455A"/>
<path d="M58.2922 217.892L26.6979 217.137L8.37695 251.222L14.8914 283.149L16.049 321.356L61.118 321.967L75.9445 319.557L72.0042 278.739L74.0678 228.928L58.2922 217.892Z" fill="#BCBEC0"/>
<path d="M25.6479 219.489L0 258.567L3.85402 280.343L43.5734 307.874L51.0514 301.335L24.4975 267.746L25.5257 246.524L25.6479 219.489Z" fill="#BCBEC0"/>
<path d="M56.3794 239.956L86.737 250.912L104.303 246.582L134.653 206.734L124.084 202.13L92.2016 229.517L63.3468 220.87L56.3794 239.956Z" fill="#BCBEC0"/>
<path d="M36.0449 217.712L45.8453 231.568L50.4472 231.194L58.1336 217.137L36.0449 217.712Z" fill="#FFB459"/>
<path d="M43.8107 302.997L43.6382 308.328L53.0431 311.752L58.4646 307.644V301.436L53.2301 301.148L53.0719 299.781L51.3534 298.681L43.8107 302.997Z" fill="#EFBFA5"/>
<path d="M47.6216 189.885C49.6709 188.079 52.0149 187.748 54.625 187.727C55.8618 187.72 56.2716 188.036 56.9115 187.928C57.1991 187.878 57.5299 187.741 57.9973 187.446C58.932 186.863 59.7661 185.338 60.2047 184.094C62.6279 185.626 64.3895 188.396 64.8784 192.611C65.4033 197.194 65.3961 202.036 63.8286 206.618C62.2612 211.208 58.9033 215.517 54.5603 217.222C54.3086 217.323 54.057 217.409 53.8053 217.488C51.943 218.1 50.1742 218.222 48.5348 217.956L43.0558 215.344C42.7825 215.114 42.5165 214.87 42.2648 214.611C40.4529 206.82 42.4014 194.489 47.6216 189.885Z" fill="#EFBFA5"/>
<path d="M2.08528 285.385C2.50232 287.824 3.75343 290.025 5.47911 291.817C6.59362 292.975 7.90226 293.953 9.31156 294.709C12.8995 296.629 17.0627 297.234 21.1325 297.227C24.3897 297.219 27.6972 296.852 30.8754 297.55C34.0607 298.248 37.21 300.32 38.0154 303.478C38.4612 305.219 38.3174 307.413 39.8201 308.392C40.5248 308.852 41.4164 308.888 42.2649 308.917C44.839 308.989 47.7726 308.924 49.4983 307.01C52.1803 304.046 50.6128 298.111 54.2296 296.428C55.2865 295.932 56.5161 296.011 57.6665 295.817C62.5632 294.989 64.9575 289.443 64.4902 284.357C64.3895 283.299 64.1738 282.263 63.8287 281.299C61.8082 275.652 57.1129 271.458 53.5609 266.623C46.6294 257.185 41.9413 244.574 46.2052 233.402C46.6078 232.351 47.0536 231.294 47.334 230.207C47.485 229.61 47.5929 229.006 47.6001 228.387C47.6648 225.057 45.1841 222.308 43.5807 219.388C43.4297 219.114 43.2931 218.827 43.1565 218.524C42.8329 217.791 42.5597 216.963 42.3368 216.086C42.3008 215.956 42.272 215.819 42.2433 215.683C37.3251 210.776 35.3549 201.662 38.5906 194.849C38.7775 194.461 38.9717 194.079 39.173 193.712C38.9645 194.079 38.7704 194.461 38.5906 194.849C35.3549 201.662 37.3251 210.776 42.2433 215.683C40.4457 207.877 42.3943 195.547 47.6073 190.95C49.6565 189.144 52.0006 188.813 54.6106 188.792C55.8474 188.784 56.2572 189.101 56.8972 188.993C57.1848 188.943 57.5155 188.806 57.9829 188.511C58.9177 187.928 59.7517 186.403 60.1903 185.159C62.6135 186.691 64.3751 189.461 64.8641 193.676C65.3889 198.259 65.3818 203.101 63.8143 207.683C62.2468 212.273 58.8889 216.582 54.5459 218.287C54.2943 218.388 54.0426 218.474 53.7909 218.553C54.0067 218.942 54.2799 219.337 54.6322 219.726C57.0122 222.344 60.8375 222.956 64.3464 223.409C64.7706 223.467 65.2164 223.517 65.619 223.359C66.2806 223.1 66.6185 222.337 66.6185 221.632C66.6257 220.927 66.3668 220.244 66.1727 219.568C64.1306 212.46 67.7474 204.338 68.3514 197.173C68.9554 190.022 67.4741 182.238 61.7435 177.404C60.7728 177.67 59.8236 178.037 58.9248 178.49C58.8314 178.368 58.7451 178.253 58.6444 178.137C50.3396 168.159 38.6122 176.691 32.3062 184.31C27.1076 190.59 22.7719 197.799 20.7873 205.769C18.925 213.222 18.3067 224.179 19.0904 231.797C19.5506 236.243 21.305 240.61 22.2398 244.969C22.815 247.682 23.0739 250.387 22.4986 253.113C21.2978 258.782 16.8111 262.94 12.4394 266.875C12.0439 267.897 11.6412 268.933 11.253 269.983C10.8575 271.033 10.4692 272.098 10.0809 273.184C9.82926 273.882 9.5848 274.587 9.35471 275.314C9.59199 274.594 9.82926 273.882 10.0809 273.184C10.4692 272.105 10.8647 271.033 11.253 269.983C11.6484 268.933 12.0439 267.897 12.4394 266.875C11.8354 267.422 11.2314 267.961 10.6346 268.501C5.77392 272.94 0.977971 278.882 2.08528 285.385ZM45.7522 186.626C46.3993 186.195 47.0608 185.813 47.7367 185.475C47.0608 185.813 46.3993 186.202 45.7522 186.626Z" fill="#2F3849"/>
<path d="M627.91 9.20117H494.681V113.248H627.91V9.20117Z" fill="#FFCD91"/>
<path d="M488.533 64.4728L489.165 152.146L616.729 151.225C626.379 151.153 634.137 142.736 634.065 132.42L633.569 63.4297L561.378 109.183L488.533 64.4728Z" fill="#FFB459"/>
<path d="M617.405 28.5605H518.782V30.6828H617.405V28.5605Z" fill="#F7F7F7"/>
<path d="M617.405 45.1211H505.178V47.3224H617.405V45.1211Z" fill="#F7F7F7"/>
<path d="M617.405 61.7246H505.178V63.926H617.405V61.7246Z" fill="#F7F7F7"/>
<path d="M132.655 128.513L114.283 166.821L114.233 112.622L294.516 0L132.655 128.513Z" fill="#FFB459"/>
<path opacity="0.13" d="M114.276 113.032L222.562 56.8252L132.137 129.592L114.42 166.217L114.276 113.032Z" fill="#FFB459"/>
<path d="M114.283 166.821L132.101 129.103L294.121 0.553711L114.283 166.821Z" fill="#FFB459"/>
<path d="M294.121 0.55394L294.516 0L292.417 1.62584L294.121 0.55394Z" fill="#707F78"/>
<path d="M294.121 0.553711L292.416 1.62561L132.144 128.866L131.957 128.973L183.612 175.396L294.121 0.553711Z" fill="#FFCD90"/>
<path d="M294.516 0L69.9043 73.206L113.974 112.816L292.416 1.62584L294.516 0Z" fill="#FFCD90"/>
<path d="M204.881 471.177L204.162 476.796L214.667 481.716L221.009 478.961L216.112 472.623L205.607 465.559L204.881 471.177Z" fill="#305399"/>
<path d="M204.529 469.292L212.632 397.647L202.882 317.435L205.075 300.37L248.627 298.716L250.195 326.485L242.882 397.755L215.379 472.954L204.529 469.292Z" fill="#BCBEC0"/>
<path d="M252.711 219.445L274.62 225.409L299.952 270.328L287.951 281.443L271.061 261.429L252.711 219.445Z" fill="#7DB5DB"/>
<path d="M280.581 306.744L280.696 379.051L266.15 472.127L255.681 472.019L249.922 385.943L236.454 299.795L280.581 306.744Z" fill="#BCBEC0"/>
<path d="M255.695 476.436L266.963 480.069L272.679 476.609L267.07 470.89L255.753 470.774L255.695 476.436Z" fill="#305399"/>
<path d="M198.374 331.334C198.474 328.197 198.647 325.586 198.676 324.65C198.899 316.248 199.646 307.86 200.703 299.515C201.645 292.033 202.832 273.472 204.112 266.041C205.169 259.905 208.85 244.589 211.511 238.898C218.126 224.74 216.084 223.438 245.133 219.23C257.867 217.388 260.872 225.323 271.284 234.452C272.312 235.351 272.254 240.711 272.492 242.135C272.909 244.639 273.362 247.128 273.872 249.617C274.275 251.567 274.721 253.516 275.224 255.451C275.224 255.451 283.96 295.234 289.741 303.687C295.522 312.133 307.458 323.945 287.491 331.161C283.953 332.305 280.394 333.398 276.705 333.974C276.705 333.974 260.376 332.161 251.978 332.218C244.241 332.276 236.475 333.06 228.868 334.369C223.784 335.218 218.593 336.456 214.041 338.83C209.699 341.096 206.571 344.434 202.163 346.779C201.746 347.002 201.286 347.232 200.811 347.168C198.28 346.822 198.165 337.93 198.374 331.334Z" fill="#7DB5DB"/>
<path d="M245.154 223.222C243.688 223.949 240.229 224.208 236.619 222.79C235.893 222.503 235.404 221.805 235.411 221.021C235.44 218.826 235.62 216.639 235.936 214.467C233.233 213.517 230.105 212.086 229.63 209.258C229.479 208.366 229.638 207.453 229.789 206.561C230.421 202.877 231.061 199.194 231.694 195.511C231.917 194.237 232.147 192.928 232.837 191.835C234.052 189.921 236.411 189.079 238.647 188.691C244.349 187.698 250.561 188.935 254.976 192.669C256.156 193.662 257.22 194.856 257.737 196.309C258.536 198.547 257.939 201.014 257.335 203.309C256.781 205.431 256.22 207.554 255.667 209.669C255.027 212.107 254.099 214.877 251.755 215.798C250.511 216.287 249.037 216.143 247.908 216.863C245.924 218.136 246.19 221.1 245.154 223.222Z" fill="#B97262"/>
<path d="M278.057 187.554C278.618 186.633 279.222 185.749 279.898 184.914C281.358 183.108 283.163 181.569 284.335 179.562C285.514 177.562 285.924 174.85 284.514 173.008C283.601 171.821 282.127 171.224 280.689 170.8C275.958 169.404 270.845 169.31 266.064 170.526C261.512 171.684 257.436 173.605 252.848 171.893C248.541 170.282 245.428 170.936 240.927 172.548C236.051 174.289 229.515 174.699 225.101 177.152C223.26 178.181 221.786 179.778 220.643 181.547C216.674 187.684 216.652 196.137 220.592 202.288C221.477 203.669 222.534 204.928 223.641 206.136C225.942 208.633 228.689 211.712 231.852 212.632C231.924 209.805 229.35 200.878 231.522 198.561C234.966 194.878 242.767 196.165 247.038 197.072C251.705 198.057 255.861 201.367 260.484 202.072C263.813 202.583 268.063 200.949 270.889 199.223C274.39 197.108 276.015 190.907 278.057 187.554Z" fill="#3B455A"/>
<path d="M221.009 224.668L202.882 240.559L182.663 283.076L208.196 313.47L212.596 296.471L221.009 224.668Z" fill="#7DB5DB"/>
<path d="M345.222 240.581L121.171 257.458L238.453 318.895L345.222 240.581Z" fill="#FFB459"/>
<path d="M114.146 262.609L125.011 406.964L335.041 391.144C350.924 389.95 362.767 375.21 361.487 358.217L352.937 244.617L239.143 328.096L114.146 262.609Z" fill="#FFB459"/>
<path d="M360.703 262.199L351.665 262.739L349.889 232.955L344.237 233.294L343.698 224.251L358.388 223.373L360.703 262.199Z" fill="white"/>
<path d="M488.432 467.27C489.41 466.198 490.546 465.608 491.826 465.817C493.062 466.011 494.17 466.846 494.68 467.968C495.025 468.731 495.097 469.579 495.169 470.414C495.061 469.126 495.953 484.838 489.755 486.428C487.346 487.046 485.347 485.334 484.707 483.169C483.737 479.903 485.168 470.86 488.432 467.27Z" fill="#305399"/>
<path d="M486.39 402.266L486.692 428.545C486.339 440.221 488.166 451.962 487.813 463.63C487.734 466.314 487.037 469.148 487.713 471.81C488.374 474.414 490.488 474.874 492.66 473.558C495.565 471.795 495.097 467.666 495.579 464.659C496.909 456.393 498.469 448.163 499.857 439.905C500.54 435.854 499.131 430.185 499.44 426.085L503.682 404.057L486.39 402.266Z" fill="#EFBFA5"/>
<path d="M516.402 359.8L504.97 410.611L502.539 458.602L484.413 458.192L479.48 323.967L514.626 324.607L516.402 359.8Z" fill="#3B455A"/>
<path d="M462.496 466.322C463.51 465.307 464.675 464.789 465.94 465.063C467.163 465.329 468.234 466.235 468.694 467.386C469.011 468.17 469.047 469.027 469.075 469.861C469.025 468.523 469.004 484.386 463 485.565C460.569 486.04 458.657 484.206 458.11 482.004C457.283 478.681 459.095 469.717 462.496 466.322Z" fill="#305399"/>
<path d="M472.052 405.957L470.514 432.193C470.391 439.488 469.413 446.718 468.666 453.962C467.968 460.689 469.054 467.696 465.538 473.818C464.438 475.739 462.209 477.012 460.648 474.681C459.448 472.883 460.159 469.89 459.929 467.847C458.987 459.531 457.823 451.236 456.823 442.92C456.334 438.848 458.002 433.244 457.894 429.136L454.695 406.935L472.052 405.957Z" fill="#EFBFA5"/>
<path d="M449.115 356.692L447.634 406.021L455.371 455.897L473.814 456.451L473.001 402.468L482.759 357.699L486.037 328.398L456.773 324.945L449.115 356.692Z" fill="#3B455A"/>
<path d="M472.261 223.999L503.783 223.243L522.061 257.256L515.568 289.111L514.411 327.232L469.442 327.844L454.645 325.441L458.57 284.709L456.32 230.3L472.261 223.999Z" fill="#D3E5EF"/>
<path d="M504.826 225.589L530.416 264.587L526.577 286.313L486.944 313.78L479.48 307.255L505.976 273.745L504.948 252.566L504.826 225.589Z" fill="#D3E5EF"/>
<path d="M470.686 244.602L454.263 277.45L436.561 280.968L392.448 261.695L400.056 253.063L440.285 260.429L456.32 230.301L470.686 244.602Z" fill="#D3E5EF"/>
<path d="M474.231 197.575C478.983 183.748 497.225 188.935 500.986 201.244C503.438 209.272 497.24 219.689 488.928 221.998C488.892 222.315 488.863 222.61 488.863 222.862C488.856 224.149 488.698 225.423 488.511 226.711C488.439 227.193 481.162 225.79 480.35 225.631C480.069 225.574 479.746 225.502 479.595 225.257C479.3 224.797 479.782 223.452 479.832 222.948C479.897 222.351 479.954 221.747 480.019 221.15C475.92 219.15 473.332 214.884 472.606 210.538C471.879 206.165 472.807 201.726 474.231 197.575Z" fill="#EFBFA5"/>
<path d="M486.131 185.08C487.109 186.072 487.49 187.461 487.777 188.792C487.943 189.583 488.094 190.41 487.921 191.195C487.245 194.331 484.132 194.166 481.73 195.18C478.761 196.425 476.208 198.727 474.547 201.367C471.944 205.511 473.116 210.834 474.173 215.402C474.547 217.014 475.295 219.402 474.044 220.841C472.778 222.301 469.845 222.071 468.328 221.323C466.94 220.64 465.797 219.366 464.279 219.114C462.669 218.841 460.49 219.553 459.735 218.071C459.527 217.661 459.505 217.158 459.246 216.776C458.355 215.503 456.14 216.992 454.882 216.093C454.112 215.539 454.112 214.359 454.378 213.431C454.637 212.496 455.076 211.554 454.896 210.604C454.738 209.791 454.155 209.144 453.789 208.403C453.07 206.935 453.321 205.029 454.386 203.791C456.37 201.489 460.217 201.928 462.345 199.763C463.453 198.633 463.884 197.007 464.294 195.475C464.704 193.936 465.2 192.317 466.386 191.274C467.853 189.986 469.967 190.202 471.405 188.677C472.254 187.777 472.822 186.612 473.771 185.828C475.029 184.799 477.481 184.008 479.041 183.483C481.515 182.67 484.283 183.202 486.131 185.08Z" fill="#2F3849"/>
<path d="M497.671 207.143C497.758 211.69 495.5 216.611 497.592 220.618C499.706 224.661 504.977 225.387 509.471 225.596C510.211 225.632 519.688 226.452 519.731 226.272C520.443 223.1 521.176 219.87 522.83 217.085C524.484 214.301 527.252 211.999 530.423 211.798C529.51 211.64 529.05 210.517 529.151 209.575C529.258 208.633 529.747 207.776 530.028 206.87C530.725 204.64 530.049 202.036 528.367 200.467C525.016 197.338 518.933 198.64 516.057 195.05C514.274 192.82 514.49 189.59 513.555 186.871C511.75 181.612 505.998 180.511 501.698 178.137C497.161 175.634 492.883 174.26 487.648 175.13C481.155 176.216 476.323 182.828 478.833 189.05C482.047 197.036 494.889 196.345 497.29 204.453C497.542 205.338 497.657 206.23 497.671 207.143Z" fill="#2F3849"/>
<path d="M494.457 223.819L484.678 237.646L480.084 237.271L472.419 223.243L494.457 223.819Z" fill="#3B455A"/>
<path d="M444.866 327.859C444.096 327.859 443.384 327.564 442.867 327.032L420.591 304.191L406.757 321.91C406.268 322.543 405.563 322.888 404.787 322.888C403.579 322.888 402.342 322.01 401.911 320.852L369.108 232.503C368.713 231.438 368.943 230.388 369.727 229.661C370.201 229.05 370.899 228.697 371.654 228.697C371.999 228.697 372.351 228.769 372.703 228.906L460.159 263.897C461.231 264.329 461.957 265.214 462.094 266.271C462.23 267.315 461.763 268.343 460.843 269.027L443.111 282.192L465.337 304.989C466.429 306.112 466.429 307.968 465.329 309.04L446.9 327.025C446.376 327.557 445.628 327.859 444.866 327.859ZM420.296 296.983C421.094 296.983 421.878 297.299 422.389 297.824L444.945 320.953L459.268 306.975L436.762 283.889C436.173 283.285 435.878 282.508 435.942 281.703C436.014 280.839 436.482 280.019 437.237 279.458L453.494 267.386L376.759 236.683L405.534 314.198L418.24 297.925C418.707 297.328 419.455 296.983 420.296 296.983Z" fill="white"/>
<path d="M466.113 304.241L455.356 293.205L444.751 282.328L452.128 276.846L461.49 269.897C462.726 268.976 463.352 267.573 463.165 266.134C462.978 264.681 462.007 263.473 460.562 262.897L430.83 251.005L383.849 232.208L377.456 229.654L373.099 227.913C372.624 227.719 372.135 227.625 371.654 227.625C370.59 227.625 369.612 228.1 368.929 228.934C367.879 229.949 367.555 231.438 368.095 232.884L369.274 236.071L379.24 262.919L396.856 310.377L398.891 315.859L400.89 321.233C401.479 322.823 403.111 323.974 404.78 323.974C405.901 323.974 406.901 323.478 407.598 322.578L414.638 313.557L420.67 305.831L429.011 314.384L439.07 324.701L442.083 327.787C442.809 328.535 443.794 328.945 444.858 328.945C445.901 328.945 446.922 328.535 447.663 327.808L456.73 318.953L466.084 309.823C467.63 308.313 467.645 305.809 466.113 304.241ZM464.582 308.277C458.441 314.269 452.3 320.269 446.16 326.262C445.808 326.6 445.333 326.78 444.866 326.78C444.413 326.78 443.967 326.614 443.636 326.276C442.629 325.247 441.63 324.219 440.623 323.19C433.915 316.312 427.206 309.435 420.505 302.55C415.637 308.78 410.776 315.01 405.908 321.24C405.599 321.636 405.197 321.801 404.787 321.801C404.003 321.801 403.191 321.197 402.917 320.471C401.573 316.852 400.228 313.233 398.883 309.615C393.009 293.795 387.134 277.976 381.267 262.156C377.55 252.142 373.832 242.135 370.115 232.121C369.835 231.373 370.072 230.769 370.525 230.387C370.784 230.021 371.172 229.769 371.654 229.769C371.855 229.769 372.071 229.812 372.301 229.906C375.882 231.337 379.47 232.776 383.05 234.207C398.711 240.473 414.371 246.739 430.032 253.005C439.94 256.969 449.856 260.933 459.764 264.904C461.238 265.494 461.504 267.199 460.21 268.17C453.969 272.803 447.727 277.436 441.486 282.069C442.011 282.609 442.536 283.141 443.054 283.681C450.23 291.04 457.398 298.392 464.574 305.752C465.236 306.428 465.286 307.593 464.582 308.277Z" fill="white"/>
<path d="M437.524 283.134C436.654 282.242 436.949 281.012 437.869 280.328C443.809 275.918 449.741 271.508 455.68 267.106C453.142 266.091 450.611 265.077 448.072 264.063C432.412 257.797 416.751 251.531 401.091 245.265C392.354 241.769 383.625 238.279 374.889 234.783C375.781 237.193 376.68 239.603 377.571 242.013C383.446 257.833 389.32 273.652 395.187 289.472C398.517 298.443 401.853 307.414 405.182 316.385C409.813 310.457 414.443 304.522 419.074 298.594C419.361 298.227 419.814 298.069 420.282 298.069C420.778 298.069 421.281 298.256 421.605 298.579C422.611 299.608 423.611 300.637 424.618 301.666C431.384 308.601 438.15 315.543 444.909 322.478C450.201 317.313 455.486 312.155 460.778 306.989C460.195 306.392 459.613 305.795 459.03 305.198C451.869 297.846 444.7 290.486 437.524 283.134ZM444.959 319.428L440.479 314.831L426.171 300.155L425.71 299.687L423.158 297.069C422.439 296.328 421.396 295.903 420.296 295.903C419.124 295.903 418.067 296.4 417.391 297.263L410.445 306.162L405.872 312.018L402.414 302.702L397.222 288.724L379.606 241.265L378.614 238.596L400.3 247.272L423.791 256.667L447.281 266.063L451.179 267.624L451.301 267.674L445.649 271.868L436.589 278.595C435.583 279.343 434.957 280.443 434.864 281.616C434.777 282.738 435.173 283.81 435.985 284.645L446.742 295.68L457.499 306.716L457.736 306.96L444.959 319.428Z" fill="white"/>
<path d="M371.833 231.64L404.636 319.982L420.361 299.846L444.887 325.003L454.098 316.011L463.316 307.018L438.783 281.861L459.297 266.631L371.833 231.64Z" fill="#3B455A"/>
<path d="M470.736 310.686L470.909 316.01L461.518 319.427L456.111 315.326V309.132L461.332 308.837L461.497 307.478L463.208 306.377L470.736 310.686Z" fill="#EFBFA5"/>
<path d="M186.33 255.351L191.644 248.258L202.415 246.164L208.217 251.955L197.942 262.66L186.33 255.351Z" fill="#B97262"/>
<path d="M272.097 245.092L277.403 238.006L288.181 235.912L293.984 241.703L283.709 252.408L272.097 245.092Z" fill="#B97262"/>
</svg>
