<svg width="45" height="45" viewBox="0 0 45 45" fill="none" xmlns="http://www.w3.org/2000/svg">
<g clip-path="url(#clip0)">
<path d="M16.4355 34.2773C16.4355 24.3485 16.4443 23.1214 16.4355 23.117C16.418 23.1117 16.1473 23.1152 12.6976 23.1152C11.9856 23.1152 11.3713 22.5686 11.3397 21.8575C11.3054 21.1025 11.9083 20.4785 12.6563 20.4785C16.142 20.4785 16.418 20.482 16.4355 20.4768C16.4443 20.4724 16.4355 19.354 16.4355 10.7227C16.4355 9.99492 17.0262 9.4043 17.7539 9.4043H32.6092C29.1305 5.78408 24.2675 3.60352 18.9844 3.60352C8.5166 3.60352 0 12.0806 0 22.5C0 32.9194 8.5166 41.3965 18.9844 41.3965C24.2648 41.3965 29.1287 39.2177 32.6092 35.5957H17.7539C17.0262 35.5957 16.4355 35.0051 16.4355 34.2773ZM11.25 14.8535H13.3181C14.03 14.8535 14.6443 15.4002 14.676 16.1112C14.7103 16.8662 14.1073 17.4902 13.3594 17.4902H11.2913C10.5794 17.4902 9.96504 16.9436 9.9334 16.2325C9.89912 15.4775 10.5021 14.8535 11.25 14.8535ZM12.6563 28.7402H8.47881C7.7669 28.7402 7.15254 28.1936 7.1209 27.4825C7.08662 26.7275 7.68955 26.1035 8.4375 26.1035H12.6149C13.3269 26.1035 13.9412 26.6502 13.9729 27.3612C14.0071 28.1162 13.4042 28.7402 12.6563 28.7402Z" fill="#FFB459"/>
<path d="M43.2219 12.041H20.7607L32.1559 20.8262L43.2219 12.041Z" fill="#FFB459"/>
<path d="M32.9877 23.5325C32.5147 23.9081 31.8444 23.9152 31.3631 23.5441L19.0723 14.0686V31.6406C19.0723 32.3687 19.6625 32.959 20.3906 32.959H43.6816C44.4097 32.959 45 32.3687 45 31.6406V13.9961L32.9877 23.5325Z" fill="#FFB459"/>
</g>
<defs>
<clipPath id="clip0">
<rect width="45" height="45" fill="white"/>
</clipPath>
</defs>
</svg>
