<svg width="18" height="19" viewBox="0 0 18 19" fill="none" xmlns="http://www.w3.org/2000/svg">
<g clip-path="url(#clip0)">
<path d="M18 9.28906C18 4.31797 13.9711 0.289062 9 0.289062C4.02891 0.289062 0 4.31797 0 9.28906C0 14.2602 4.02891 18.2891 9 18.2891C9.05273 18.2891 9.10547 18.2891 9.1582 18.2855V11.2824H7.22461V9.02891H9.1582V7.36953C9.1582 5.44648 10.3324 4.39883 12.048 4.39883C12.8707 4.39883 13.5773 4.45859 13.7812 4.48672V6.49766H12.6C11.6684 6.49766 11.4855 6.94062 11.4855 7.59102V9.02539H13.718L13.4262 11.2789H11.4855V17.941C15.2473 16.8617 18 13.3988 18 9.28906Z" fill="white"/>
</g>
<defs>
<clipPath id="clip0">
<rect width="18" height="18" fill="white" transform="translate(0 0.289062)"/>
</clipPath>
</defs>
</svg>
