<svg width="119" height="119" viewBox="0 0 119 119" fill="none" xmlns="http://www.w3.org/2000/svg">
<circle cx="59.5" cy="59.5" r="59.5" fill="#FFEDD7"/>
<g clip-path="url(#clip0)">
<path d="M65.2137 49.0579C64.7298 48.7147 64.0592 48.8283 63.7159 49.3122L63.6951 49.3416C63.3518 49.8254 63.4656 50.4959 63.9494 50.8392C64.1382 50.9731 64.3552 51.0375 64.5702 51.0375C64.9066 51.0375 65.2378 50.8801 65.4472 50.5849L65.4681 50.5555C65.8114 50.0717 65.6975 49.4012 65.2137 49.0579Z" fill="black"/>
<path d="M62.7664 52.1022C62.3903 51.6434 61.7134 51.5767 61.2547 51.953C59.7623 53.1772 58.0664 54.0486 56.2141 54.5431C55.6409 54.6962 55.3003 55.2849 55.4534 55.8581C55.5816 56.3385 56.0158 56.6555 56.4905 56.6555C56.5823 56.6555 56.6755 56.6437 56.7683 56.6188C58.9186 56.0446 60.8864 55.0336 62.6171 53.6139C63.0759 53.2378 63.1427 52.5608 62.7664 52.1022Z" fill="black"/>
<path d="M83.7842 56.3347C82.0072 56.3347 80.5615 57.7804 80.5615 59.5573V60.0945C80.5615 64.5994 77.2814 68.3503 72.9845 69.0903C73.5457 68.2626 73.874 67.2648 73.874 66.1917V65.4455C73.874 62.5902 71.551 60.2673 68.6957 60.2673C65.8404 60.2673 63.5175 62.5902 63.5175 65.4455V66.1917C63.5175 67.2375 63.8301 68.2112 64.3654 69.0262C60.2373 68.1511 57.1298 64.4795 57.1298 60.0945V59.5573C57.1298 57.7804 55.6841 56.3347 53.9071 56.3347C52.1302 56.3347 50.6845 57.7804 50.6845 59.5573V60.0945C50.6845 62.2748 51.1281 64.3834 51.9841 66.3315H44.8709H44.6748V55.5133C44.6748 55.0337 44.357 54.6122 43.896 54.4805C38.1608 52.8403 34.1553 47.5303 34.1553 41.5674V41.0303C34.1553 40.438 34.6372 39.9561 35.2295 39.9561C35.8218 39.9561 36.3037 40.438 36.3037 41.0303V41.5674C36.3037 47.7868 41.3636 52.8467 47.583 52.8467H52.7529C58.9723 52.8467 64.0322 47.7868 64.0322 41.5674V41.0303C64.0322 40.438 64.5141 39.9561 65.1064 39.9561C65.6987 39.9561 66.1806 40.438 66.1806 41.0303V41.5674C66.1806 43.2186 65.8832 44.8316 65.2964 46.3611C65.084 46.915 65.3608 47.5363 65.9148 47.7488C66.4684 47.9614 67.09 47.6844 67.3024 47.1305C67.9837 45.3544 68.3291 43.4827 68.3291 41.5674V41.0303C68.3291 39.2534 66.8834 37.8077 65.1064 37.8077C63.3294 37.8077 61.8838 39.2534 61.8838 41.0303V41.5674C61.8838 46.0723 58.6036 49.8231 54.3069 50.5633C54.868 49.7356 55.1962 48.7379 55.1962 47.6648V46.9187C55.1962 44.0634 52.8732 41.7404 50.0179 41.7404C47.1627 41.7404 44.8398 44.0634 44.8398 46.9187V47.6648C44.8398 48.7106 45.1524 49.6842 45.6877 50.4991C41.5595 49.6241 38.4521 45.9524 38.4521 41.5674V41.0303C38.4521 39.2534 37.0065 37.8077 35.2295 37.8077C33.4525 37.8077 32.0068 39.2534 32.0068 41.0303V41.5674C32.0068 45.0163 33.1156 48.2865 35.2133 51.0241C37.0764 53.4556 39.6508 55.3076 42.5264 56.3005V67.4056C42.5264 67.9988 43.0074 68.4798 43.6007 68.4798H43.7968V85.9327C43.7968 86.5259 44.2777 87.0069 44.871 87.0069C45.4643 87.0069 45.9453 86.5259 45.9453 85.9327V68.4798H53.1382C53.373 68.845 53.6239 69.2024 53.891 69.5511C53.9621 69.6439 54.0362 69.7341 54.1093 69.8252V85.9327C54.1093 86.5259 54.5902 87.0069 55.1835 87.0069C55.7768 87.0069 56.2578 86.5259 56.2578 85.9327V72.0205C57.7214 73.2471 59.4037 74.2056 61.2042 74.8274V85.9327C61.2042 86.5259 61.6851 87.0069 62.2784 87.0069C62.8717 87.0069 63.3526 86.5259 63.3526 85.9327V74.0402C63.3526 73.5607 63.0349 73.1392 62.5738 73.0075C56.8386 71.3672 52.833 66.0574 52.833 60.0945V59.5573C52.833 58.965 53.3149 58.4832 53.9073 58.4832C54.4996 58.4832 54.9815 58.965 54.9815 59.5573V60.0945C54.9815 66.3139 60.0414 71.3738 66.2608 71.3738H71.4307C77.6501 71.3738 82.71 66.3139 82.71 60.0945V59.5573C82.71 58.965 83.1919 58.4832 83.7842 58.4832C84.3765 58.4832 84.8584 58.965 84.8584 59.5573V60.0945C84.8584 66.1675 80.76 71.5032 74.892 73.0701C74.4219 73.1956 74.0949 73.6214 74.0949 74.1079V81.8864C74.0949 82.4796 74.5759 82.9606 75.1692 82.9606C75.7625 82.9606 76.2434 82.4796 76.2434 81.8864V74.9101C82.6214 72.8381 87.0068 66.8609 87.0068 60.0945V59.5573C87.0068 57.7804 85.5612 56.3347 83.7842 56.3347ZM46.9882 46.9186C46.9882 45.2478 48.3473 43.8887 50.0179 43.8887C51.6886 43.8887 53.0478 45.2478 53.0478 46.9186V47.6647C53.0478 49.3353 51.6887 50.6944 50.0179 50.6944C48.3473 50.6944 46.9882 49.3353 46.9882 47.6647V46.9186ZM71.7255 66.1917C71.7255 67.8623 70.3664 69.2214 68.6957 69.2214C67.0251 69.2214 65.666 67.8623 65.666 66.1917V65.4455C65.666 63.7749 67.0251 62.4158 68.6957 62.4158C70.3663 62.4158 71.7255 63.7749 71.7255 65.4455V66.1917Z" fill="black"/>
<path d="M75.9284 85.1732C75.7286 84.9733 75.4515 84.8585 75.1689 84.8585C74.8864 84.8585 74.6093 84.9733 74.4095 85.1732C74.2097 85.373 74.0947 85.6502 74.0947 85.9327C74.0947 86.2152 74.2097 86.4923 74.4095 86.692C74.6093 86.8918 74.8864 87.0069 75.1689 87.0069C75.4515 87.0069 75.7286 86.892 75.9284 86.692C76.1282 86.4923 76.2432 86.2152 76.2432 85.9327C76.2432 85.6502 76.1282 85.373 75.9284 85.1732Z" fill="black"/>
<path d="M50.0179 72.1827C49.4247 72.1827 48.9437 72.6637 48.9437 73.2569V85.9327C48.9437 86.5259 49.4247 87.0069 50.0179 87.0069C50.6112 87.0069 51.0922 86.5259 51.0922 85.9327V73.2569C51.0922 72.6637 50.6112 72.1827 50.0179 72.1827Z" fill="black"/>
<path d="M82.0654 40.8155C81.4721 40.8155 80.9912 41.2965 80.9912 41.8897V43.225C80.9912 43.8181 81.4721 44.2992 82.0654 44.2992C82.6587 44.2992 83.1396 43.8181 83.1396 43.225V41.8897C83.1396 41.2965 82.6587 40.8155 82.0654 40.8155Z" fill="black"/>
<path d="M82.0654 47.2146C81.4721 47.2146 80.9912 47.6957 80.9912 48.2888V49.6241C80.9912 50.2173 81.4721 50.6983 82.0654 50.6983C82.6587 50.6983 83.1396 50.2173 83.1396 49.6241V48.2888C83.1396 47.6957 82.6587 47.2146 82.0654 47.2146Z" fill="black"/>
<path d="M85.9325 44.6827H84.5973C84.004 44.6827 83.5231 45.1637 83.5231 45.7569C83.5231 46.3501 84.004 46.8311 84.5973 46.8311H85.9325C86.5258 46.8311 87.0068 46.3501 87.0068 45.7569C87.0068 45.1637 86.5258 44.6827 85.9325 44.6827Z" fill="black"/>
<path d="M79.5335 44.6827H78.1982C77.605 44.6827 77.124 45.1637 77.124 45.7569C77.124 46.3501 77.605 46.8311 78.1982 46.8311H79.5335C80.1268 46.8311 80.6077 46.3501 80.6077 45.7569C80.6077 45.1637 80.1268 44.6827 79.5335 44.6827Z" fill="black"/>
<path d="M55.626 32.0069C55.0327 32.0069 54.5518 32.4879 54.5518 33.0811V34.4164C54.5518 35.0096 55.0327 35.4906 55.626 35.4906C56.2193 35.4906 56.7002 35.0096 56.7002 34.4164V33.0811C56.7002 32.4879 56.2193 32.0069 55.626 32.0069Z" fill="black"/>
<path d="M55.626 38.406C55.0327 38.406 54.5518 38.887 54.5518 39.4802V40.8155C54.5518 41.4087 55.0327 41.8897 55.626 41.8897C56.2193 41.8897 56.7002 41.4087 56.7002 40.8155V39.4802C56.7002 38.887 56.2193 38.406 55.626 38.406Z" fill="black"/>
<path d="M59.4932 35.8741H58.158C57.5647 35.8741 57.0837 36.3551 57.0837 36.9483C57.0837 37.5415 57.5647 38.0225 58.158 38.0225H59.4932C60.0865 38.0225 60.5674 37.5415 60.5674 36.9483C60.5674 36.3551 60.0865 35.8741 59.4932 35.8741Z" fill="black"/>
<path d="M53.094 35.8741H51.7588C51.1655 35.8741 50.6846 36.3551 50.6846 36.9483C50.6846 37.5415 51.1655 38.0225 51.7588 38.0225H53.094C53.6873 38.0225 54.1683 37.5415 54.1683 36.9483C54.1683 36.3551 53.6873 35.8741 53.094 35.8741Z" fill="black"/>
</g>
<defs>
<clipPath id="clip0">
<rect width="55" height="55" fill="white" transform="translate(32.0068 32.0069)"/>
</clipPath>
</defs>
</svg>
