<svg width="119" height="119" viewBox="0 0 119 119" fill="none" xmlns="http://www.w3.org/2000/svg">
<circle cx="59.5" cy="59.5" r="59.5" fill="#FFEDD7"/>
<g clip-path="url(#clip0)">
<path d="M85.3887 49.2949H78.9434C78.0535 49.2949 77.332 50.0164 77.332 50.9062C77.332 51.7961 78.0535 52.5176 78.9434 52.5176H81.4986L73.6468 60.3694C72.9397 57.0507 70.7686 54.2678 67.8442 52.7312C69.5729 51.2524 70.6719 49.0574 70.6719 46.6094C70.6719 42.1669 67.0577 38.5527 62.6152 38.5527C58.1728 38.5527 54.5586 42.1669 54.5586 46.6094C54.5586 49.0574 55.6575 51.2524 57.3863 52.7311C54.6886 54.1487 52.6317 56.6265 51.7738 59.6074C51.5721 59.3764 51.3609 59.152 51.1389 58.9358C50.3488 58.1659 49.4642 57.5254 48.512 57.0249C50.2386 55.546 51.3359 53.3525 51.3359 50.9062C51.3359 46.4638 47.7217 42.8496 43.2793 42.8496C38.8369 42.8496 35.2227 46.4638 35.2227 50.9062C35.2227 53.3543 36.3216 55.5492 38.0503 57.028C34.4568 58.9163 32 62.6861 32 67.0195V78.8359C32 79.7258 32.7214 80.4473 33.6113 80.4473H46.7168C47.1442 80.4473 47.554 80.2775 47.8561 79.9753L59.6074 68.2241L63.8392 72.4558C64.4684 73.085 65.4887 73.085 66.1179 72.4558L83.7773 54.7963V57.3516C83.7773 58.2414 84.4988 58.9629 85.3887 58.9629C86.2786 58.9629 87 58.2414 87 57.3516V50.9062C87 50.0164 86.2786 49.2949 85.3887 49.2949ZM57.7812 46.6094C57.7812 43.9439 59.9498 41.7754 62.6152 41.7754C65.2807 41.7754 67.4492 43.9439 67.4492 46.6094C67.4492 49.2748 65.2807 51.4434 62.6152 51.4434C59.9498 51.4434 57.7812 49.2748 57.7812 46.6094ZM38.4453 50.9062C38.4453 48.2408 40.6138 46.0723 43.2793 46.0723C45.9448 46.0723 48.1133 48.2408 48.1133 50.9062C48.1133 53.5717 45.9448 55.7402 43.2793 55.7402C40.6138 55.7402 38.4453 53.5717 38.4453 50.9062ZM46.0494 77.2246H35.2227V67.0195C35.2227 62.5771 38.8369 58.9629 43.2793 58.9629C45.3879 58.9629 47.3803 59.773 48.8898 61.2438C50.3963 62.7118 51.2602 64.6777 51.3223 66.7793C51.324 66.8361 51.3287 66.8919 51.336 66.9469V71.938L46.0494 77.2246ZM64.9785 69.0377L60.7467 64.8059C60.1176 64.1767 59.0973 64.1767 58.468 64.8059L54.5586 68.7154V62.7227C54.5586 58.2802 58.1728 54.666 62.6152 54.666C67.0577 54.666 70.6719 58.2802 70.6719 62.7227V63.3443L64.9785 69.0377Z" fill="black"/>
</g>
<defs>
<clipPath id="clip0">
<rect width="55" height="55" fill="white" transform="translate(32 32)"/>
</clipPath>
</defs>
</svg>
