<svg width="18" height="19" viewBox="0 0 18 19" fill="none" xmlns="http://www.w3.org/2000/svg">
<g clip-path="url(#clip0)">
<path d="M10.7227 9.28906C10.7227 10.2405 9.95142 11.0117 9 11.0117C8.04858 11.0117 7.27734 10.2405 7.27734 9.28906C7.27734 8.33765 8.04858 7.56641 9 7.56641C9.95142 7.56641 10.7227 8.33765 10.7227 9.28906Z" fill="white"/>
<path d="M13.0287 6.2411C12.9459 6.01671 12.8138 5.8136 12.6422 5.64688C12.4754 5.47522 12.2725 5.34311 12.0479 5.2603C11.8658 5.18958 11.5923 5.10539 11.0884 5.08246C10.5434 5.0576 10.3799 5.05225 9.00006 5.05225C7.62004 5.05225 7.45662 5.05746 6.9117 5.08232C6.40784 5.10539 6.13414 5.18958 5.95218 5.2603C5.72765 5.34311 5.52454 5.47522 5.35796 5.64688C5.18629 5.8136 5.05418 6.01657 4.97124 6.2411C4.90051 6.4232 4.81633 6.6969 4.7934 7.20076C4.76854 7.74568 4.76318 7.9091 4.76318 9.28912C4.76318 10.669 4.76854 10.8324 4.7934 11.3775C4.81633 11.8813 4.90051 12.1549 4.97124 12.337C5.05418 12.5615 5.18616 12.7645 5.35782 12.9312C5.52454 13.1029 5.72751 13.235 5.95204 13.3178C6.13414 13.3887 6.40784 13.4729 6.9117 13.4958C7.45662 13.5206 7.6199 13.5259 8.99992 13.5259C10.3801 13.5259 10.5435 13.5206 11.0883 13.4958C11.5921 13.4729 11.8658 13.3887 12.0479 13.3178C12.4987 13.144 12.8549 12.7877 13.0287 12.337C13.0995 12.1549 13.1837 11.8813 13.2067 11.3775C13.2316 10.8324 13.2368 10.669 13.2368 9.28912C13.2368 7.9091 13.2316 7.74568 13.2067 7.20076C13.1838 6.6969 13.0996 6.4232 13.0287 6.2411ZM9.00006 11.9427C7.53435 11.9427 6.34618 10.7547 6.34618 9.28899C6.34618 7.82327 7.53435 6.63524 9.00006 6.63524C10.4656 6.63524 11.6538 7.82327 11.6538 9.28899C11.6538 10.7547 10.4656 11.9427 9.00006 11.9427ZM11.7587 7.1505C11.4162 7.1505 11.1385 6.87282 11.1385 6.53032C11.1385 6.18782 11.4162 5.91014 11.7587 5.91014C12.1012 5.91014 12.3789 6.18782 12.3789 6.53032C12.3788 6.87282 12.1012 7.1505 11.7587 7.1505Z" fill="white"/>
<path d="M9 0.289062C4.0302 0.289062 0 4.31926 0 9.28906C0 14.2589 4.0302 18.2891 9 18.2891C13.9698 18.2891 18 14.2589 18 9.28906C18 4.31926 13.9698 0.289062 9 0.289062ZM14.1368 11.4197C14.1118 11.9699 14.0243 12.3455 13.8966 12.6742C13.6281 13.3684 13.0794 13.9172 12.3852 14.1857C12.0565 14.3134 11.6808 14.4007 11.1308 14.4259C10.5797 14.451 10.4036 14.457 9.00014 14.457C7.5965 14.457 7.42058 14.451 6.86934 14.4259C6.31934 14.4007 5.9436 14.3134 5.61497 14.1857C5.27 14.0559 4.95772 13.8525 4.69954 13.5895C4.43669 13.3315 4.23331 13.0191 4.10353 12.6742C3.97581 12.3456 3.88834 11.9699 3.86334 11.4199C3.83794 10.8686 3.83203 10.6926 3.83203 9.28906C3.83203 7.88556 3.83794 7.7095 3.8632 7.1584C3.8882 6.60826 3.97554 6.23267 4.10326 5.9039C4.23303 5.55907 4.43655 5.24664 4.69954 4.9886C4.95758 4.72562 5.27 4.52223 5.61484 4.39246C5.9436 4.26474 6.3192 4.1774 6.86934 4.15227C7.42044 4.12714 7.5965 4.12109 9 4.12109C10.4035 4.12109 10.5796 4.12714 11.1307 4.1524C11.6808 4.1774 12.0564 4.26474 12.3852 4.39232C12.73 4.52209 13.0424 4.72562 13.3006 4.9886C13.5634 5.24678 13.767 5.55907 13.8966 5.9039C14.0245 6.23267 14.1118 6.60826 14.1369 7.1584C14.1621 7.7095 14.168 7.88556 14.168 9.28906C14.168 10.6926 14.1621 10.8686 14.1368 11.4197Z" fill="white"/>
</g>
<defs>
<clipPath id="clip0">
<rect width="18" height="18" fill="white" transform="translate(0 0.289062)"/>
</clipPath>
</defs>
</svg>
