<svg width="18" height="19" viewBox="0 0 18 19" fill="none" xmlns="http://www.w3.org/2000/svg">
<g clip-path="url(#clip0)">
<path d="M9 0.289062C4.0302 0.289062 0 4.31926 0 9.28906C0 14.2589 4.0302 18.2891 9 18.2891C13.9698 18.2891 18 14.2589 18 9.28906C18 4.31926 13.9698 0.289062 9 0.289062ZM6.3847 13.8945H4.19279V7.30013H6.3847V13.8945ZM5.28882 6.39966H5.27454C4.539 6.39966 4.06329 5.89333 4.06329 5.26051C4.06329 4.61342 4.55356 4.12109 5.30338 4.12109C6.05319 4.12109 6.51462 4.61342 6.5289 5.26051C6.5289 5.89333 6.05319 6.39966 5.28882 6.39966ZM14.2883 13.8945H12.0966V10.3667C12.0966 9.48009 11.7793 8.87543 10.9862 8.87543C10.3807 8.87543 10.0201 9.28329 9.8616 9.67702C9.80365 9.81792 9.78951 10.0148 9.78951 10.2119V13.8945H7.59773C7.59773 13.8945 7.62643 7.91879 7.59773 7.30013H9.78951V8.23383C10.0808 7.78448 10.6019 7.14536 11.7648 7.14536C13.2069 7.14536 14.2883 8.08784 14.2883 10.1133V13.8945Z" fill="white"/>
</g>
<defs>
<clipPath id="clip0">
<rect width="18" height="18" fill="white" transform="translate(0 0.289062)"/>
</clipPath>
</defs>
</svg>
