<svg width="50" height="50" viewBox="0 0 50 50" fill="none" xmlns="http://www.w3.org/2000/svg">
<path d="M24.5762 1.53809C15.5921 1.53809 8.28271 8.84743 8.28271 17.8316C8.28271 29.1238 24.5923 48.4131 24.5923 48.4131C24.5923 48.4131 40.8698 28.5685 40.8698 17.8316C40.8698 8.84743 33.5607 1.53809 24.5762 1.53809ZM29.4923 22.6024C28.1368 23.9576 26.3567 24.6354 24.5762 24.6354C22.7961 24.6354 21.0154 23.9576 19.6604 22.6024C16.9496 19.8918 16.9496 15.4813 19.6604 12.7705C20.9731 11.4573 22.7191 10.734 24.5762 10.734C26.4333 10.734 28.1791 11.4575 29.4923 12.7705C32.2032 15.4813 32.2032 19.8918 29.4923 22.6024Z" fill="#FFB459"/>
</svg>
