<svg width="65" height="69" viewBox="0 0 65 69" fill="none" xmlns="http://www.w3.org/2000/svg">
<path d="M11.918 60.85H5.222L3.836 64H1.982L7.688 51.4H9.47L15.194 64H13.304L11.918 60.85ZM11.288 59.41L8.57 53.236L5.852 59.41H11.288Z" fill="#8E4976"/>
<path d="M22.7076 64.144C21.4476 64.144 20.3076 63.868 19.2876 63.316C18.2796 62.752 17.4876 61.984 16.9116 61.012C16.3356 60.028 16.0476 58.924 16.0476 57.7C16.0476 56.476 16.3356 55.378 16.9116 54.406C17.4876 53.422 18.2856 52.654 19.3056 52.102C20.3256 51.538 21.4656 51.256 22.7256 51.256C23.7096 51.256 24.6096 51.424 25.4256 51.76C26.2416 52.084 26.9376 52.57 27.5136 53.218L26.3436 54.352C25.3956 53.356 24.2136 52.858 22.7976 52.858C21.8616 52.858 21.0156 53.068 20.2596 53.488C19.5036 53.908 18.9096 54.49 18.4776 55.234C18.0576 55.966 17.8476 56.788 17.8476 57.7C17.8476 58.612 18.0576 59.44 18.4776 60.184C18.9096 60.916 19.5036 61.492 20.2596 61.912C21.0156 62.332 21.8616 62.542 22.7976 62.542C24.2016 62.542 25.3836 62.038 26.3436 61.03L27.5136 62.164C26.9376 62.812 26.2356 63.304 25.4076 63.64C24.5916 63.976 23.6916 64.144 22.7076 64.144Z" fill="#DC231E"/>
<path d="M38.1094 60.85H31.4134L30.0274 64H28.1734L33.8794 51.4H35.6614L41.3854 64H39.4954L38.1094 60.85ZM37.4794 59.41L34.7614 53.236L32.0434 59.41H37.4794Z" fill="#F9C400"/>
<path d="M43.265 51.4H45.065V64H43.265V51.4Z" fill="#77C5E9"/>
<path d="M59.6733 51.4V64H58.1973L50.6373 54.604V64H48.8373V51.4H50.3133L57.8733 60.796V51.4H59.6733Z" fill="#0A8D3D"/>
<path d="M0.805149 38.4669C0.667436 37.8623 0.535577 37.2567 0.446739 36.6423C0.38361 36.2044 0.280772 35.7707 0.243862 35.3311C0.215352 34.9902 0.168769 34.6507 0.134913 34.3111C0.0845122 33.804 0.118364 33.2929 0.0549808 32.7924C-0.038694 32.0552 0.0241824 31.3198 0 30.5845C0.0913839 30.1069 0.0282577 29.6187 0.0852771 29.1424C0.156042 28.5524 0.20415 27.96 0.279752 27.3702C0.411864 26.3385 0.609142 25.3214 0.834929 24.309C1.09203 23.1569 1.42523 22.0249 1.82488 20.9138C2.03972 20.3169 2.26933 19.7256 2.5221 19.1429C2.82043 18.4548 3.12232 17.7688 3.47411 17.1065C3.90889 16.2878 4.36072 15.4796 4.85786 14.6954C5.341 13.9332 5.85977 13.1978 6.39891 12.4759C6.64913 12.1409 6.91616 11.8182 7.17809 11.4921C7.59173 10.9771 8.0456 10.4981 8.48776 10.0081C8.83751 9.62063 9.18548 9.23091 9.57367 8.88625C9.97204 8.53268 10.3343 8.1394 10.7606 7.81586C10.9622 7.66288 11.1448 7.48418 11.3354 7.31745C11.8425 6.87351 12.3844 6.4754 12.9236 6.07499C13.7906 5.43148 14.6958 4.84271 15.6284 4.29898C16.2208 3.95381 16.8218 3.61984 17.438 3.31998C18.3167 2.89233 19.2079 2.49014 20.1228 2.14166C21.5597 1.59438 23.0259 1.14255 24.526 0.807303C25.1303 0.672137 25.7372 0.541808 26.3529 0.458569C26.7913 0.399514 27.2255 0.308385 27.6641 0.252384C28.0281 0.205801 28.3957 0.186962 28.762 0.161252C28.9137 0.150561 29.0647 0.155653 29.2148 0.110852C29.3095 0.0825964 29.4162 0.0892141 29.5175 0.0879413C29.8609 0.0836139 30.2045 0.0836156 30.5482 0.0800518C30.7508 0.0777609 30.9511 0.0772499 31.1538 0.0304125C31.3373 -0.011843 31.5356 -0.0110771 31.7214 0.0390695C31.8599 0.0764885 31.9973 0.0782692 32.1371 0.0792874C32.4298 0.0815784 32.7226 0.079796 33.015 0.0851416C33.2683 0.0899781 33.5241 0.0637614 33.7716 0.147763C33.8064 0.159727 33.8477 0.158962 33.8851 0.155908C34.2942 0.122561 34.6953 0.21089 35.0975 0.25111C35.6876 0.310165 36.2702 0.442278 36.8588 0.522207C37.6265 0.626573 38.3741 0.820287 39.125 1.00026C39.5807 1.10946 40.0292 1.24971 40.4805 1.37673C41.447 1.64859 42.3833 2.00649 43.316 2.37508C43.5519 2.46825 43.7884 2.56193 44.0178 2.67011C44.6615 2.97328 45.3121 3.265 45.9409 3.59693C46.659 3.97596 47.3638 4.38044 48.0549 4.80936C48.9838 5.38592 49.8712 6.02077 50.7361 6.68591C51.1172 6.97915 51.4848 7.29276 51.8521 7.6051C52.6957 8.32242 53.5011 9.0792 54.2543 9.88791C54.5989 10.258 54.9436 10.6315 55.271 11.0202C55.7289 11.5636 56.1777 12.114 56.6028 12.6826C57.1882 13.4656 57.7261 14.2817 58.2461 15.11C58.8899 16.1351 59.4275 17.2159 59.9478 18.3052C60.3197 19.0838 60.6456 19.8834 60.935 20.6977C61.1264 21.2358 61.3143 21.7739 61.4767 22.3222C61.7035 23.0882 61.9018 23.8602 62.0838 24.6384C62.2166 25.206 62.2938 25.7836 62.4292 26.3502C62.473 26.5335 62.4867 26.7267 62.5063 26.9136C62.5618 27.4423 62.6456 27.9672 62.6924 28.4974C62.727 28.8899 62.7176 29.2847 62.7647 29.6729C62.8922 30.726 62.7991 31.7808 62.8248 32.8344C62.7377 33.2224 62.782 33.6197 62.741 34.0094C62.7105 34.2994 62.6764 34.588 62.6626 34.8792C62.6611 34.9126 62.6277 34.9444 62.6089 34.9767C62.504 34.7823 62.4669 34.5672 62.4534 34.3536C62.4406 34.151 62.3391 34.0563 62.1591 34.0135C62.1097 34.0018 62.0611 33.9865 62.0122 33.973C61.229 33.7592 60.4585 33.5072 59.706 33.202C59.6449 33.1773 59.5497 33.1687 59.5624 33.061C59.7096 33.0113 59.8613 33.0116 60.0143 33.0108C60.4078 33.0088 60.8011 33.0001 61.1946 32.9938C61.2453 32.993 61.2975 32.9973 61.3463 32.9869C61.526 32.9485 61.5932 32.7746 61.5024 32.6094C61.4459 32.5066 61.3703 32.4238 61.2799 32.3521C61.1307 32.2334 60.9747 32.126 60.808 32.0316C60.0883 31.6238 59.3214 31.3173 58.5679 30.9823C58.3243 30.8739 58.0657 30.8097 57.8012 30.7621C57.3644 30.6835 56.9294 30.5954 56.5022 30.4689C55.9427 30.3032 55.3802 30.1548 54.8011 30.0598C54.1968 29.9608 53.5876 29.943 52.982 29.8755C52.6664 29.8404 52.3507 29.7987 52.0338 29.7831C51.361 29.75 50.6906 29.694 50.0208 29.625C49.7683 29.5991 49.5161 29.5601 49.263 29.5512C48.451 29.5227 47.6372 29.5721 46.8262 29.4906C46.7506 29.483 46.6715 29.4772 46.5979 29.4912C46.3701 29.5347 46.1433 29.5034 45.9165 29.4929C45.6624 29.4815 45.4094 29.4718 45.1548 29.4894C44.9904 29.5008 44.8247 29.4942 44.6595 29.4924C44.6037 29.4919 44.5671 29.4588 44.5536 29.4033C44.6065 29.3708 44.6641 29.344 44.7114 29.3048C45.2567 28.8517 45.7451 28.3452 46.156 27.7658C46.2652 27.6118 46.381 27.4614 46.4411 27.2786C46.492 27.2656 46.5416 27.2432 46.5587 27.1923C46.6631 26.8805 46.7641 26.5674 46.8659 26.2548C46.8972 26.1588 46.9174 26.0573 46.9606 25.9671C47.1434 25.5879 47.2679 25.1908 47.3422 24.7771C47.3982 24.4653 47.4511 24.1527 47.5115 23.8416C47.626 23.2511 47.6517 22.6593 47.5448 22.0654C47.4707 21.6548 47.4318 21.235 47.2455 20.8522C47.2366 20.8031 47.2345 20.7516 47.2177 20.7053C47.0518 20.2504 46.8445 19.8157 46.5895 19.4033C46.5559 19.3488 46.4681 19.2969 46.5419 19.1966C46.5847 19.2007 46.6343 19.2027 46.6829 19.2106C47.053 19.2704 47.1956 19.2063 47.3682 18.8888C47.3972 18.8356 47.399 18.7682 47.416 18.7079C47.4517 18.5806 47.5046 18.4719 47.6558 18.4452C47.7752 18.424 47.8447 18.3197 47.9338 18.2509C48.1275 18.1013 48.168 17.9419 48.071 17.7161C48.0162 17.5888 47.9531 17.4613 47.8717 17.3503C47.8068 17.2615 47.8098 17.1956 47.8671 17.1136C48.0257 16.8863 48.0725 16.6531 47.9065 16.4052C47.8796 16.365 47.8798 16.3077 47.8617 16.2606C47.7823 16.0534 47.6301 15.9327 47.413 15.8928C47.3394 15.8793 47.2592 15.9058 47.192 15.8569C47.1569 15.7482 47.1271 15.6382 47.0859 15.5328C46.9408 15.1635 46.8061 15.0805 46.4197 15.1194C46.3316 15.1284 46.2425 15.1406 46.158 15.165C46.0712 15.19 46.0094 15.1777 45.9747 15.0909C45.8765 14.8448 45.667 14.7615 45.4308 14.7348C44.9632 14.6819 44.5396 14.7488 44.2759 15.2052C44.2451 15.2584 44.1962 15.3009 44.1567 15.347C43.9923 15.2887 43.8518 15.176 43.6754 15.2325C43.5188 15.2826 43.3646 15.3335 43.2172 15.4155C42.9074 15.5878 42.7997 15.8424 42.8504 16.1804C42.8585 16.2354 42.9178 16.2962 42.8318 16.3454C40.2751 15.5568 37.7583 15.6958 35.2467 16.7341C35.3045 16.5251 35.3055 16.352 35.2905 16.1771C35.2749 15.9976 35.1925 15.8655 35.0486 15.766C34.9422 15.6922 34.8274 15.6354 34.6946 15.6456C34.5793 15.6545 34.5082 15.6112 34.4484 15.5109C34.3125 15.2826 34.0737 15.2238 33.837 15.1673C33.5168 15.2811 33.1711 15.2923 32.8529 15.4132C32.83 15.4219 32.8088 15.4397 32.7913 15.4575C32.6477 15.6023 32.4657 15.6448 32.2712 15.6543C32.0811 15.6637 31.925 15.737 31.8276 15.9052C31.7433 16.0508 31.615 16.113 31.4554 16.1371C31.3554 16.1522 31.2563 16.1784 31.1596 16.2092C30.901 16.2914 30.7839 16.4375 30.7712 16.7089C30.7658 16.8237 30.7516 16.9354 30.736 17.0487C30.7134 17.2147 30.6668 17.3458 30.5263 17.4641C30.2213 17.7215 30.1312 18.0651 30.1944 18.4604C30.2297 18.6814 30.3219 18.8471 30.5311 18.9283C30.6581 18.9777 30.6892 19.0655 30.7103 19.1892C30.7536 19.4422 30.8358 19.6841 31.0603 19.8421C31.1349 19.8946 31.1308 19.9692 31.1441 20.0432C31.1879 20.2863 31.3414 20.4177 31.5789 20.4584C31.6387 20.4686 31.7069 20.4467 31.7601 20.517C31.7224 20.6295 31.6814 20.7488 31.6428 20.8692C31.4511 21.4634 31.2821 22.0616 31.3019 22.6954C31.3034 22.7461 31.3027 22.7975 31.2961 22.8476C31.2833 22.9454 31.2115 23.0225 31.1308 23.0319C31.0514 23.0411 30.9473 22.981 30.9326 22.8878C30.9124 22.7595 30.8547 22.6475 30.8132 22.5287C30.8409 22.3118 30.8575 22.0998 30.6576 21.9404C30.6057 21.8989 30.5978 21.8238 30.6113 21.7627C30.6421 21.6222 30.5884 21.5054 30.5008 21.4148C30.3921 21.3022 30.3899 21.133 30.2679 21.0301C30.2157 20.9861 30.2193 20.9095 30.243 20.8509C30.3058 20.6946 30.2292 20.5829 30.1396 20.4701C30.046 20.3525 29.979 20.1977 29.8054 20.1822C29.645 20.1677 29.5666 20.0847 29.4997 19.9427C29.3887 19.7077 29.2176 19.5097 28.9499 19.4542C28.7205 19.4066 28.5276 19.3119 28.3545 19.1566C28.2906 19.0994 28.2106 19.0602 28.1457 18.9968C28.0643 18.9171 27.9538 18.8804 27.8395 18.8545C27.7143 18.8262 27.5745 18.9199 27.4696 18.8349C27.3739 18.7575 27.3907 18.5989 27.295 18.5078C27.2678 18.4818 27.2489 18.4469 27.223 18.4192C27.1303 18.3192 27.0158 18.2756 26.8804 18.2996C26.8055 18.3128 26.7279 18.3242 26.6586 18.3533C26.4652 18.434 26.2962 18.4502 26.1816 18.2285C26.1668 18.2 26.1203 18.185 26.0856 18.1705C25.9769 18.1247 25.894 18.0664 25.8515 17.9414C25.8179 17.8429 25.714 17.8009 25.6053 17.7882C25.4892 17.7747 25.3803 17.7958 25.2673 17.8202C24.9692 17.8844 24.6764 17.9284 24.3967 17.7258C24.2269 17.6026 24.0044 17.5647 23.815 17.6627C23.6206 17.7635 23.4788 17.7217 23.3339 17.5955C23.1606 17.444 22.9697 17.4679 22.8101 17.5878C22.6777 17.6874 22.5509 17.7215 22.3934 17.7171C22.3081 17.7149 22.2226 17.7579 22.1358 17.7734C21.9077 17.8139 21.6832 17.8421 21.4979 17.6476C21.4141 17.5598 21.2955 17.5461 21.1794 17.5446C20.9203 17.5412 20.7197 17.6566 20.5497 17.8465C20.259 18.1715 20.2531 18.182 19.8458 18.0799C19.42 17.973 19.0409 18.0773 18.6853 18.2952C18.4623 18.4319 18.2338 18.5022 17.9713 18.4973C17.7695 18.4938 17.5643 18.5113 17.3655 18.5465C17.1445 18.5854 16.9501 18.6989 16.8678 18.9174C16.7782 19.1551 16.6166 19.2852 16.3819 19.3524C16.2852 19.3801 16.1961 19.4338 16.1021 19.472C15.9247 19.5443 15.8086 19.6622 15.7794 19.8605C15.7628 19.973 15.7282 20.0829 15.7017 20.1939C15.673 20.2181 15.6462 20.2453 15.6152 20.266C15.4156 20.3978 15.2883 20.5722 15.2563 20.8163C15.2415 20.9291 15.1715 21.0248 15.1048 21.1177C15.0463 21.1991 14.9859 21.2811 14.9842 21.3883C14.754 21.8365 14.5799 22.3082 14.4369 22.7891C14.3519 23.0752 14.2582 23.3664 14.2857 23.6747C14.2093 24.0463 14.125 24.4164 14.0599 24.7898C14.0186 25.0261 14.0102 25.2656 14.0281 25.5079C14.0683 26.0547 14.176 26.5875 14.3608 27.1014C14.8363 28.4231 15.647 29.4728 16.8869 30.1665C16.8811 30.2131 16.875 30.2596 16.8691 30.3065C16.766 30.2861 16.6629 30.2658 16.5601 30.2456C16.4972 30.193 16.4328 30.1454 16.3432 30.1795C15.8104 30.1874 15.2779 30.1889 14.7459 30.1443C14.0245 30.084 13.3018 30.0802 12.5792 30.128C12.0092 30.1657 11.4395 30.2176 10.8688 30.2362C9.8524 30.2693 8.84082 30.337 7.83967 30.5262C7.12743 30.6608 6.43047 30.855 5.7554 31.1121C5.17528 31.3331 4.60916 31.5943 4.04762 31.8603C3.38273 32.1757 2.72573 32.5083 2.0723 32.8472C1.68945 33.0455 1.32011 33.2695 0.945407 33.4833C0.901624 33.5082 0.857329 33.536 0.821947 33.5711C0.616015 33.7758 0.649105 34.1067 0.915365 34.2523C1.20377 34.4101 1.51152 34.5325 1.81266 34.6669C1.86968 34.6924 1.93433 34.7013 1.94095 34.7919C1.80935 34.8805 1.67393 34.9744 1.53596 35.0638C1.20199 35.2802 0.912565 35.5429 0.67965 35.8669C0.563321 36.0288 0.506303 36.2014 0.553904 36.403C0.611941 36.6502 0.659032 36.8999 0.717578 37.1468C0.819908 37.5818 0.875914 38.0199 0.805149 38.4669Z" fill="#FFEAB1"/>
<path d="M61.5407 40.3374C61.1713 40.234 60.7895 40.2152 60.411 40.1823C59.4241 40.0968 58.4336 40.0884 57.4437 40.0711C56.1618 40.0487 54.8798 40.0291 53.5984 39.9881C51.6946 39.9273 49.7901 39.9212 47.886 39.937C46.4399 39.9489 44.9938 39.996 43.5482 40.0431C42.4829 40.0777 41.4184 40.1335 40.3541 40.1877C39.5429 40.2289 38.7326 40.2951 37.9211 40.3272C37.0694 40.3608 36.2179 40.3083 35.3672 40.2661C34.9989 40.2478 34.6313 40.2154 34.263 40.2012C34.0382 40.1925 33.8025 40.1533 33.6225 40.358C33.5871 40.3985 33.5077 40.4025 33.4474 40.4183C33.1498 40.4965 32.8428 40.5066 32.5391 40.5217C31.8911 40.5537 31.2425 40.5357 30.5949 40.4929C30.491 40.486 30.39 40.4725 30.3121 40.3982C30.1611 40.2539 29.9748 40.2399 29.7803 40.2358C29.3201 40.2259 28.8657 40.2895 28.4131 40.3521C27.5555 40.4707 26.6939 40.5377 25.8307 40.5838C25.1325 40.6209 24.4319 40.6143 23.734 40.6525C22.5775 40.7159 21.4203 40.6825 20.2637 40.7113C19.8958 40.7205 19.5293 40.7744 19.1615 40.7945C18.6804 40.8208 18.1987 40.8404 17.7171 40.851C17.0441 40.8658 16.3693 40.8442 15.6978 40.8841C14.4543 40.958 13.209 40.9093 11.9661 40.9595C10.647 41.0127 9.32738 41.0025 8.00804 41.0318C6.67648 41.0613 5.34441 41.0684 4.01286 41.0969C3.37928 41.1104 2.74468 41.129 2.11517 41.2199C1.94004 41.2451 1.76338 41.2591 1.58749 41.2782C1.46174 41.2866 1.336 41.2983 1.20999 41.3019C1.1349 41.3039 1.05624 41.3057 0.985224 41.2863C0.783874 41.2313 0.717947 41.1232 0.771148 40.9177C0.930243 40.303 0.936602 39.689 0.778525 39.0743C0.752561 38.9732 0.752054 38.8745 0.767836 38.7729C0.783364 38.6734 0.824349 38.5766 0.801948 38.4728C0.872713 38.0255 0.816458 37.5874 0.71311 37.1517C0.654563 36.9047 0.607467 36.655 0.549429 36.4079C0.502083 36.2062 0.558852 36.0334 0.675182 35.8718C0.908097 35.548 1.19752 35.285 1.53149 35.0687C1.66946 34.9793 1.80488 34.8854 1.93648 34.7968C1.92986 34.7062 1.86521 34.6975 1.80819 34.6718C1.50731 34.5374 1.1993 34.415 0.910897 34.2571C0.644636 34.1113 0.611795 33.7804 0.817472 33.576C0.852855 33.5408 0.897149 33.5131 0.940932 33.4882C1.31563 33.2743 1.68524 33.0503 2.06783 32.852C2.72126 32.5135 3.37826 32.1805 4.04315 31.8651C4.60469 31.5989 5.17081 31.338 5.75093 31.117C6.426 30.8599 7.12322 30.6657 7.8352 30.531C8.83635 30.3419 9.84794 30.2742 10.8644 30.2411C11.4351 30.2225 12.0047 30.1706 12.5747 30.1329C13.2974 30.0851 14.02 30.0889 14.7414 30.1492C15.2734 30.1937 15.806 30.1922 16.3387 30.1843C16.3988 30.2462 16.4602 30.305 16.5559 30.2505C16.659 30.2709 16.7621 30.2912 16.8649 30.3114C16.9484 30.3556 17.0357 30.3444 17.1235 30.3276C17.232 30.3065 17.3226 30.3788 17.4254 30.3857C17.6466 30.3913 17.8681 30.3969 18.0893 30.4025L18.0814 30.3987C18.2038 30.4916 18.3275 30.499 18.4525 30.4038C18.4844 30.3839 18.5162 30.3638 18.5477 30.3437C18.7722 30.3719 18.9728 30.49 19.2114 30.4827C19.707 30.4676 20.1934 30.5639 20.6791 30.6537C20.8033 30.6766 20.9293 30.6896 21.0535 30.712C21.4147 30.7772 21.7874 30.7527 22.144 30.849C22.3657 30.9088 22.5908 30.936 22.8191 30.9416C22.9197 31.0394 23.0215 31.0394 23.1246 30.9454C23.175 30.9447 23.2256 30.9442 23.276 30.9434C23.288 31.0302 23.3358 31.0872 23.4247 31.0816C23.6568 31.0666 23.8729 31.1412 24.0924 31.1941C24.3204 31.2491 24.5694 31.2328 24.77 31.3896C24.7934 31.408 24.8436 31.3919 24.8815 31.3917C25.3486 31.506 25.8187 31.6096 26.282 31.7379C26.7705 31.873 27.2508 32.0382 27.7383 32.1785C28.0926 32.2803 28.4439 32.3918 28.7687 32.5651C29.219 32.8054 29.6981 32.9671 30.1805 33.1239C30.4704 33.2181 30.7494 33.3377 31.0116 33.4958C31.0867 33.5411 31.1714 33.5714 31.2539 33.6027C31.3415 33.6358 31.4262 33.6287 31.5082 33.576C31.8697 33.3438 32.2515 33.1448 32.571 32.8467C32.7161 32.7113 32.8606 32.5629 33.0574 32.4857C33.3878 32.3564 33.6996 32.1889 33.9819 31.972C34.4104 31.6429 34.8899 31.4102 35.4051 31.2652C35.7913 31.1562 36.1166 30.937 36.4659 30.7606C36.4844 30.7512 36.4923 30.7202 36.5053 30.6993C36.7061 30.627 36.9065 30.5527 37.1086 30.4839C37.1705 30.4628 37.2265 30.4417 37.2555 30.3786C37.3817 30.3831 37.5059 30.3951 37.6325 30.3579C38.0453 30.2365 38.4656 30.1385 38.8734 30.0031C39.4074 29.8259 39.9555 29.7501 40.5125 29.7119C40.626 29.704 40.7413 29.6974 40.8513 29.6714C40.9892 29.6386 41.1272 29.6355 41.2667 29.6363C41.4187 29.637 41.5711 29.6406 41.7228 29.6337C42.2541 29.6098 42.7818 29.5207 43.3156 29.5487C43.4347 29.5551 43.5358 29.4942 43.6473 29.4726C43.8687 29.4762 44.0899 29.4797 44.3114 29.4833C44.3992 29.4848 44.4837 29.4757 44.5499 29.4082C44.5636 29.4637 44.6 29.4965 44.6558 29.4973C44.821 29.4991 44.9867 29.5057 45.1511 29.4942C45.4054 29.4767 45.6587 29.4864 45.9128 29.4978C46.1396 29.508 46.3664 29.5396 46.5942 29.496C46.6678 29.482 46.7469 29.4879 46.8225 29.4955C47.6333 29.577 48.4473 29.5276 49.2593 29.5561C49.5126 29.565 49.7646 29.6037 50.0171 29.6299C50.6869 29.6992 51.3574 29.7549 52.0301 29.788C52.3471 29.8035 52.6627 29.8453 52.9783 29.8804C53.5839 29.9479 54.1931 29.9657 54.7974 30.0647C55.3767 30.1596 55.9393 30.3083 56.4985 30.4738C56.9257 30.6003 57.3607 30.6886 57.7975 30.767C58.062 30.8146 58.3206 30.879 58.5642 30.9872C59.3177 31.3222 60.0847 31.6287 60.8043 32.0364C60.971 32.1309 61.127 32.238 61.2762 32.3569C61.3663 32.4287 61.4422 32.5114 61.4987 32.6143C61.5896 32.7795 61.5221 32.9533 61.3426 32.9918C61.2938 33.0022 61.2416 32.9979 61.1909 32.9986C60.7974 33.005 60.4041 33.0134 60.0106 33.0157C59.8573 33.0165 59.7056 33.0165 59.5587 33.0658C59.546 33.1735 59.6412 33.1822 59.7023 33.2069C60.4548 33.5121 61.2255 33.7638 62.0085 33.9779C62.0577 33.9914 62.106 34.0064 62.1554 34.0184C62.3354 34.0614 62.437 34.1558 62.4497 34.3585C62.4632 34.572 62.5003 34.7871 62.6052 34.9816C62.577 35.41 62.5408 35.8382 62.5238 36.2668C62.5136 36.5191 62.5194 36.7739 62.5431 37.0251C62.6075 37.7068 62.6126 38.389 62.5976 39.0725C62.5955 39.1603 62.6011 39.2507 62.6205 39.3362C62.6773 39.5859 62.6803 39.8377 62.6694 40.0912C62.6584 40.3419 62.5464 40.4445 62.2903 40.4234C62.1648 40.413 62.0394 40.3911 61.9161 40.3649C61.7922 40.3384 61.6677 40.3262 61.5407 40.3374ZM33.5097 33.3008C33.5887 33.3123 33.6719 33.3405 33.7228 33.2451C33.8654 33.1975 34.0194 33.1758 34.1316 33.0613C34.2294 33.0356 34.3299 33.0172 34.4246 32.9829C34.9971 32.7759 35.5708 32.5715 36.1395 32.3541C37.1414 31.9713 38.1764 31.7312 39.2412 31.6131C39.5317 31.5811 39.8219 31.5467 40.111 31.5062C41.0931 31.368 42.0815 31.3049 43.071 31.2685C44.1235 31.2298 45.1771 31.2216 46.2302 31.1908C47.2968 31.1598 48.3618 31.1554 49.4279 31.2252C50.6698 31.3064 51.9128 31.37 53.1476 31.5324C54.2058 31.6714 55.2568 31.8493 56.2865 32.1367C56.4331 32.1777 56.5823 32.2116 56.7258 32.262C56.8506 32.306 56.973 32.3106 57.1011 32.2923C57.7306 32.2022 58.3639 32.1663 58.9992 32.1612C59.2098 32.1594 59.4203 32.1591 59.631 32.1579C59.63 32.056 59.5621 32.0647 59.5221 32.0517C59.196 31.9468 58.8671 31.8496 58.541 31.7447C57.5478 31.4255 56.525 31.2308 55.5053 31.0241C55.0705 30.936 54.6327 30.8502 54.1918 30.8067C53.1805 30.7072 52.1666 30.6331 51.1535 30.5511C50.723 30.5163 50.2913 30.4954 49.8614 30.4554C49.0137 30.3763 48.1653 30.3152 47.3133 30.3187C46.3101 30.3228 45.3074 30.3147 44.3042 30.3666C43.4166 30.4127 42.5303 30.4554 41.6455 30.5448C40.9488 30.615 40.262 30.7339 39.5811 30.8887C38.416 31.1532 37.2626 31.4629 36.1606 31.9316C35.5772 32.1798 35.0085 32.4633 34.4358 32.7362C34.3223 32.7904 34.2202 32.8691 34.1128 32.9363C33.9509 33.0231 33.7737 33.0847 33.6447 33.2249C33.5785 33.213 33.5316 33.2346 33.5097 33.3008C33.4761 33.3151 33.4713 33.3263 33.4957 33.3298C33.4988 33.3301 33.5049 33.311 33.5097 33.3008ZM34.7143 36.3959C35.4879 36.3641 36.2614 36.3287 37.0353 36.3009C37.8608 36.2714 38.6863 36.2447 39.5121 36.2251C40.2113 36.2085 40.9108 36.1973 41.6103 36.1961C43.5816 36.1922 45.5528 36.1905 47.5233 36.2546C48.0062 36.2704 48.4891 36.2818 48.9715 36.3068C49.6185 36.3399 50.2643 36.3913 50.9114 36.4219C51.7746 36.4626 52.635 36.5389 53.4953 36.6135C53.7232 36.6334 53.9507 36.6586 54.1783 36.6817C54.2539 36.6894 54.3328 36.6904 54.3893 36.751C54.4028 36.7655 54.4031 36.794 54.4066 36.8164C54.4115 36.8462 54.3959 36.8671 54.3641 36.8668C54.2636 36.8666 54.1615 36.8724 54.0622 36.8597C53.0534 36.7301 52.0385 36.6675 51.0252 36.5962C50.1129 36.5321 49.1985 36.4931 48.2847 36.4577C47.3703 36.4221 46.4555 36.3997 45.5406 36.3809C44.8668 36.3669 44.1925 36.3631 43.5185 36.3636C42.3615 36.3646 41.2046 36.3554 40.0476 36.4063C39.1208 36.4471 38.1925 36.4241 37.2651 36.4819C36.5045 36.5295 35.7411 36.5145 34.9788 36.5552C34.3401 36.5896 33.6984 36.5667 33.0615 36.681C33.0584 36.7255 33.0531 36.7627 33.0533 36.8001C33.0633 37.714 33.074 38.6278 33.0841 39.5416C33.0852 39.634 33.1269 39.6801 33.2236 39.676C33.6803 39.6569 34.1372 39.6368 34.5939 39.6142C35.3799 39.5755 36.166 39.5332 36.9523 39.495C37.6246 39.4625 38.2974 39.4385 38.9696 39.4019C39.6162 39.3665 40.262 39.3153 40.9085 39.2789C41.479 39.2469 42.0499 39.2204 42.6212 39.2003C43.5602 39.1672 44.4992 39.1338 45.4388 39.1142C46.6947 39.0883 47.9507 39.0715 49.2069 39.0585C49.9919 39.0503 50.7775 39.0422 51.5623 39.0587C52.527 39.0791 53.4908 39.1405 54.4552 39.157C56.0044 39.1837 57.5544 39.171 59.1031 39.2354C59.8268 39.2654 60.55 39.2917 61.2676 39.4019C61.4931 39.4365 61.7204 39.4607 61.9477 39.4841C62.0508 39.4948 62.0903 39.4581 62.0951 39.3632C62.0989 39.2873 62.1009 39.211 62.0987 39.1351C62.0735 38.2971 62.0531 37.4589 62.019 36.6212C61.9994 36.139 61.9528 35.6579 61.9261 35.1758C61.9136 34.9533 61.7968 34.8243 61.5952 34.7627C61.2436 34.6553 60.8898 34.5555 60.5385 34.4468C60.3451 34.387 60.1539 34.3182 59.9637 34.2477C59.8092 34.1905 59.6598 34.1194 59.505 34.0639C59.1711 33.9443 58.8376 33.8229 58.4993 33.7157C57.3503 33.3517 56.2104 32.9584 55.0188 32.7408C54.4695 32.6405 53.9217 32.5346 53.3706 32.443C52.3651 32.2757 51.3482 32.2414 50.3361 32.1563C49.742 32.1064 49.1456 32.0764 48.5481 32.0611C47.4831 32.0342 46.4188 32.0614 45.3545 32.0802C44.6311 32.093 43.9082 32.1362 43.1847 32.1439C42.5361 32.1507 41.8924 32.2174 41.2463 32.2571C40.9928 32.2727 40.7382 32.2907 40.4875 32.3292C39.8483 32.4267 39.2048 32.4901 38.5674 32.6026C38.154 32.6756 37.7394 32.7441 37.343 32.8762C36.4282 33.1812 35.5194 33.5052 34.6114 33.8298C34.362 33.9189 34.1268 34.0382 33.9051 34.194C33.5912 34.4145 33.3199 34.6835 33.0159 34.9129C32.8332 35.0508 32.8024 35.2043 32.8584 35.411C32.9149 35.619 32.9569 35.8318 32.991 36.0449C33.063 36.4921 32.9963 36.417 33.4644 36.4203C33.5136 36.4206 33.5635 36.4012 33.6121 36.3885C33.7964 36.3399 33.9794 36.2867 34.1645 36.2416C34.6326 36.1281 35.0938 35.9845 35.5711 35.9097C35.5963 35.9558 35.6218 36.0018 35.647 36.0479C35.3224 36.1388 34.9999 36.2391 34.6639 36.2829C34.628 36.2816 34.5916 36.2757 34.5567 36.2803C34.5096 36.2867 34.4595 36.3025 34.4664 36.3638C34.4735 36.4269 34.5295 36.43 34.5756 36.4269C34.6224 36.4236 34.6682 36.4066 34.7143 36.3959ZM30.7593 36.5099C29.7617 36.2368 28.799 36.0141 27.8269 35.8285C26.9026 35.6521 25.9705 35.537 25.0347 35.4525C24.1873 35.3762 23.3371 35.3288 22.4882 35.2659C21.525 35.1947 20.5597 35.1817 19.595 35.1593C19.1253 35.1483 18.6554 35.1702 18.1855 35.183C16.9917 35.2148 15.7971 35.2038 14.6032 35.2619C13.6262 35.3095 12.6477 35.326 11.6708 35.3716C10.7447 35.4148 9.81968 35.4775 8.89439 35.533C8.51434 35.5559 8.13353 35.5757 7.7545 35.6096C7.05882 35.6719 6.36517 35.7577 5.66871 35.8076C4.95851 35.8583 4.25392 35.953 3.54804 36.0388C3.23291 36.0769 2.91727 36.1095 2.60239 36.149C2.28725 36.1884 1.97263 36.2327 1.658 36.2757C1.6076 36.2826 1.55618 36.2877 1.50807 36.303C1.43222 36.3269 1.37163 36.3727 1.35662 36.4572C1.34363 36.5313 1.32683 36.6067 1.32759 36.6812C1.32887 36.8205 1.33956 36.96 1.35025 37.099C1.40371 37.7952 1.46251 38.4901 1.41669 39.1911C1.39352 39.5444 1.42509 39.9013 1.43476 40.2564C1.4373 40.3559 1.47981 40.3962 1.57425 40.3908C1.67556 40.385 1.77637 40.3715 1.87743 40.3605C2.12994 40.333 2.38169 40.2885 2.63472 40.2798C3.80133 40.2406 4.96793 40.2052 6.1348 40.1806C7.35308 40.1548 8.57162 40.1424 9.7899 40.1258C10.9955 40.1093 12.2008 40.0958 13.4063 40.0782C13.9134 40.0708 14.4204 40.0589 14.9273 40.0449C15.7647 40.022 16.6019 39.9891 17.4394 39.9726C18.3275 39.955 19.2162 39.953 20.1046 39.9408C20.4475 39.9362 20.7903 39.9275 21.1327 39.9123C21.906 39.8779 22.6788 39.8323 23.4524 39.8028C24.1751 39.7751 24.8988 39.772 25.6212 39.7404C26.7107 39.6926 27.8004 39.6603 28.8909 39.6676C29.1442 39.6694 29.3952 39.6704 29.6424 39.588C29.7852 39.5404 29.9414 39.5335 30.0914 39.5073C30.3062 39.4696 30.4961 39.5057 30.6397 39.6862C30.671 39.7257 30.7046 39.7633 30.7593 39.7315C30.7593 38.6644 30.7593 37.5981 30.7593 36.5099ZM30.7239 36.2722C30.7295 36.207 30.7415 36.1449 30.7387 36.0838C30.7242 35.7542 30.7173 35.4235 30.6855 35.0954C30.6651 34.8851 30.5577 34.7087 30.3543 34.6191C30.1805 34.5425 30.0056 34.4692 29.8177 34.4254C28.7163 34.1683 27.6136 33.9186 26.4951 33.7442C25.9175 33.6541 25.342 33.5564 24.772 33.4194C24.3036 33.3067 23.8287 33.2117 23.342 33.1997C23.1136 33.1941 22.8861 33.1628 22.6582 33.1407C22.2156 33.0977 21.7742 33.0322 21.3307 33.0142C20.7975 32.9925 20.2626 33.0106 19.7283 33.0119C19.525 33.0124 19.3216 33.0162 19.1182 33.0137C18.1007 33.0004 17.0843 32.9533 16.0661 32.9745C15.1378 32.9936 14.2112 33.033 13.2874 33.1297C13.1238 33.1468 12.9575 33.1443 12.7926 33.1465C12.4619 33.1514 12.1313 33.1521 11.8024 33.1969C11.3615 33.257 10.9214 33.3306 10.4785 33.3667C9.90775 33.4133 9.34342 33.5039 8.77551 33.5701C8.33157 33.622 7.90622 33.7549 7.47119 33.8448C6.52553 34.0403 5.59057 34.2811 4.65662 34.5257C4.25112 34.6318 3.84282 34.7273 3.43604 34.8289C3.33779 34.8533 3.24029 34.8818 3.1428 34.9098C2.60773 35.0631 2.18875 35.435 1.70077 35.6775C1.58979 35.7328 1.56407 35.8629 1.61244 35.9777C1.65189 36.0716 1.75371 36.1334 1.86419 36.0981C2.19587 35.9919 2.54155 36.0008 2.87985 35.952C3.76059 35.8249 4.64262 35.7157 5.52973 35.6419C6.52986 35.5589 7.52795 35.453 8.52834 35.3728C9.27545 35.313 10.0238 35.268 10.7725 35.2339C12.0671 35.1748 13.3625 35.1272 14.6577 35.0799C15.1406 35.0623 15.6237 35.0592 16.1068 35.0488C17.0726 35.0282 18.0381 35.0045 19.0039 34.9867C19.9831 34.9689 20.9611 35.0106 21.9389 35.0567C22.1293 35.0656 22.3204 35.0656 22.5103 35.0804C23.2956 35.1412 24.0807 35.2087 24.8662 35.2692C25.6518 35.3296 26.437 35.3996 27.2129 35.5353C28.2011 35.7081 29.1872 35.8952 30.1563 36.1625C30.3363 36.2118 30.516 36.2897 30.7239 36.2722ZM2.15718 33.8438C2.39595 33.9866 2.65202 34.0555 2.88494 34.1711C3.04963 34.2528 3.19168 34.2551 3.35459 34.1877C3.9062 33.9593 4.47792 33.79 5.04659 33.6098C6.32138 33.2061 7.62392 32.9289 8.94504 32.7446C10.0521 32.5901 11.1624 32.4587 12.2764 32.3564C13.2388 32.2681 14.2023 32.2179 15.1678 32.2131C16.298 32.2075 17.4282 32.2184 18.5582 32.2246C18.8122 32.2261 19.0665 32.2335 19.3203 32.2462C20.043 32.2821 20.7656 32.3215 21.4883 32.3607C21.9068 32.3834 22.3248 32.4178 22.7435 32.4297C23.0826 32.4394 23.4232 32.4727 23.7635 32.4185C23.6482 32.4076 23.5425 32.3694 23.4344 32.3368C22.7285 32.125 22.0114 31.956 21.288 31.8175C20.7641 31.7172 20.2374 31.6312 19.7103 31.551C19.1579 31.4673 18.604 31.3947 18.0498 31.324C17.6973 31.2789 17.3422 31.2542 16.9901 31.2064C16.5869 31.1514 16.1837 31.1035 15.7772 31.0832C15.181 31.0531 14.5851 31.0213 13.989 30.9938C13.3417 30.964 12.6953 31.0014 12.049 31.0355C11.3773 31.0709 10.7058 31.1129 10.0343 31.1539C9.27418 31.2005 8.51892 31.2786 7.77156 31.4388C7.29835 31.5401 6.84016 31.6844 6.3784 31.8224C6.18265 31.8807 5.99199 31.9484 5.80668 32.0316C5.50554 32.167 5.21154 32.3193 4.90633 32.444C4.07039 32.7858 3.28382 33.2285 2.47435 33.6241C2.36616 33.6778 2.24525 33.7231 2.15718 33.8438ZM31.6072 35.2929C31.6009 35.3291 31.5881 35.3657 31.5889 35.4024C31.6093 36.5423 31.6329 37.6824 31.6503 38.8223C31.6533 39.0239 31.6559 39.2252 31.635 39.4281C31.5999 39.7702 31.7544 39.8713 32.0657 39.7827C32.0779 39.7791 32.0904 39.7766 32.1028 39.774C32.1591 39.7626 32.1912 39.728 32.1947 39.6709C32.2036 39.5317 32.2171 39.3922 32.2171 39.2527C32.2169 38.9101 32.2052 38.5672 32.2067 38.2246C32.2103 37.4884 32.18 36.7535 32.1235 36.0197C32.1097 35.8427 32.0774 35.6674 32.0524 35.4915C32.0451 35.44 32.0272 35.3863 31.973 35.3734C31.8531 35.3448 31.7485 35.2471 31.6072 35.2929Z" fill="#070707"/>
<path d="M64.8012 53.9094C64.7615 53.9 64.7137 53.8906 64.6671 53.8766C64.6383 53.8679 64.6299 53.844 64.6409 53.8152C64.6447 53.8048 64.6487 53.7903 64.6569 53.7857C64.7607 53.7274 64.8684 53.7261 64.9746 53.7763C64.9898 53.7834 65.0026 53.8175 64.9995 53.8366C64.9965 53.8562 64.9761 53.8842 64.958 53.8888C64.9104 53.901 64.8603 53.9025 64.8012 53.9094Z" fill="#FFEAB1"/>
<path d="M24.8857 31.3837C24.8478 31.3837 24.7977 31.4 24.7742 31.3817C24.5736 31.2249 24.3247 31.2412 24.0966 31.1862C23.8772 31.1332 23.6611 31.0586 23.4289 31.0737C23.3401 31.0795 23.292 31.0222 23.2803 30.9354C23.3574 30.8443 23.4653 30.8609 23.5644 30.8616C24.0872 30.8662 24.6019 30.7903 25.1133 30.6962C25.9653 30.5394 26.7951 30.3138 27.5682 29.9045C28.2718 29.5318 28.8939 29.0686 29.4078 28.4515C29.8515 27.919 30.2262 27.3542 30.4764 26.7056C30.7404 26.0213 30.885 25.319 30.8468 24.5834C30.8374 24.4047 30.8348 24.4008 30.66 24.3604C30.4202 24.3049 30.396 24.2698 30.3843 24.0323C30.3746 23.8363 30.4268 23.6543 30.4912 23.4745C30.5276 23.3727 30.5141 23.3249 30.4029 23.2745C30.1664 23.1678 30.1178 23.0545 30.1768 22.8239C30.2051 22.7134 30.2534 22.6083 30.286 22.4988C30.327 22.3619 30.2949 22.3161 30.1519 22.2937C30.1269 22.2899 30.1005 22.2955 30.0758 22.2911C29.8118 22.2425 29.7449 22.1198 29.8403 21.8609C29.8492 21.837 29.8581 21.8128 29.8709 21.7912C29.9251 21.6988 29.8963 21.6232 29.8304 21.5499C29.7629 21.4748 29.6909 21.4493 29.5944 21.4962C29.4659 21.5585 29.3518 21.5366 29.247 21.4335C29.1869 21.3742 29.1879 21.247 29.0746 21.2531C28.9804 21.2579 28.9341 21.3549 28.8605 21.4025C28.8183 21.43 28.7737 21.4552 28.7277 21.4758C28.623 21.5229 28.5322 21.4939 28.4601 21.402C28.4095 21.3376 28.3968 21.2653 28.3965 21.1876C28.3955 20.9588 28.4001 20.7323 28.4601 20.507C28.4869 20.4069 28.5299 20.2677 28.4069 20.1964C28.3107 20.1407 28.2573 20.2641 28.1799 20.2977C28.1567 20.3079 28.1348 20.3214 28.1117 20.3318C28.0185 20.3744 27.9467 20.357 27.8731 20.2799C27.8179 20.2221 27.7856 20.1567 27.7843 20.076C27.783 19.9999 27.7876 19.9225 27.7749 19.8482C27.7637 19.7825 27.7112 19.7403 27.6476 19.7186C27.5791 19.6952 27.5254 19.7171 27.4824 19.7749C27.3989 19.8871 27.3116 19.9966 27.2299 20.1099C27.1439 20.2295 27.0268 20.2557 26.8926 20.2272C26.7765 20.2025 26.7437 20.1122 26.7132 20.007C26.6411 19.7589 26.647 19.5043 26.6274 19.2513C26.7916 19.2421 26.9568 19.2179 27.0975 19.3429C27.1321 19.3737 27.1889 19.3857 27.2375 19.3941C27.5264 19.4435 27.793 19.544 28.0455 19.697C28.3173 19.8614 28.5385 20.0849 28.7814 20.283C28.8549 20.3428 28.8499 20.4441 28.8855 20.5243C28.9377 20.6416 28.9927 20.7671 29.1174 20.8137C29.2513 20.8636 29.3666 20.9306 29.4692 21.028C29.5165 21.0731 29.5817 21.0779 29.6476 21.0555C29.7153 21.0324 29.7665 20.9293 29.8454 20.9845C29.9034 21.025 29.9358 21.1029 29.9788 21.1647C30.0437 21.2582 30.1122 21.3495 30.1715 21.4468C30.338 21.7197 30.4747 22.0032 30.4584 22.3359C30.4566 22.3733 30.4622 22.4118 30.4696 22.4487C30.4884 22.5414 30.5658 22.589 30.6676 22.5686C30.7167 22.5587 30.7641 22.5398 30.8122 22.5251C30.8537 22.6439 30.9115 22.7559 30.9316 22.8842C30.9463 22.9774 31.0504 23.0372 31.1299 23.0283C31.2106 23.0191 31.2826 22.9418 31.2951 22.844C31.3014 22.7939 31.3025 22.7424 31.3009 22.6918C31.2811 22.0582 31.4501 21.4598 31.6418 20.8656C31.6805 20.7455 31.7217 20.6259 31.7591 20.5133C31.7059 20.4431 31.6377 20.465 31.5779 20.4548C31.3404 20.4141 31.1869 20.2827 31.1431 20.0396C31.1299 19.9655 31.1337 19.891 31.0594 19.8385C30.8348 19.6805 30.7529 19.4386 30.7094 19.1856C30.6882 19.0619 30.6572 18.9741 30.5301 18.9247C30.3209 18.8435 30.2288 18.6778 30.1934 18.4568C30.1302 18.0618 30.2206 17.7181 30.5253 17.4605C30.6656 17.3419 30.7124 17.211 30.7351 17.0451C30.7503 16.9318 30.7648 16.8201 30.7702 16.7053C30.7829 16.4339 30.9 16.2878 31.1586 16.2056C31.2551 16.1748 31.3544 16.1486 31.4544 16.1335C31.614 16.1094 31.7423 16.0472 31.8266 15.9016C31.9241 15.7331 32.0801 15.6598 32.2703 15.6507C32.4647 15.6412 32.6465 15.5985 32.7903 15.4539C32.8079 15.4361 32.829 15.4182 32.8519 15.4096C33.1701 15.2884 33.5158 15.2772 33.836 15.1637C34.0727 15.2202 34.3112 15.2793 34.4474 15.5073C34.5073 15.6076 34.5783 15.6509 34.6936 15.642C34.8265 15.6318 34.9413 15.6886 35.0477 15.7624C35.1915 15.8622 35.274 15.994 35.2895 16.1735C35.3045 16.3484 35.3037 16.5215 35.2457 16.7305C37.7576 15.6919 40.2741 15.5529 42.8308 16.3418C42.9169 16.2926 42.8576 16.2318 42.8494 16.1768C42.7988 15.8385 42.9064 15.5842 43.2162 15.4119C43.3633 15.3299 43.5176 15.2793 43.6744 15.2289C43.8508 15.1723 43.9911 15.2851 44.1558 15.3434C44.1952 15.2971 44.2441 15.2546 44.2749 15.2016C44.5389 14.745 44.9624 14.6783 45.4298 14.7312C45.666 14.7579 45.8755 14.8409 45.9738 15.0873C46.0084 15.1741 46.0705 15.1866 46.157 15.1614C46.2416 15.137 46.3307 15.1247 46.4187 15.1158C46.8051 15.0766 46.9398 15.1596 47.0849 15.5292C47.1264 15.6346 47.1559 15.7446 47.191 15.8533C47.2585 15.9021 47.3387 15.8757 47.412 15.8892C47.6291 15.9291 47.7811 16.0498 47.8608 16.257C47.8788 16.3041 47.8786 16.3614 47.9056 16.4016C48.0715 16.6493 48.0247 16.8827 47.8661 17.11C47.8088 17.192 47.8058 17.2581 47.8707 17.3467C47.9521 17.458 48.0153 17.5852 48.07 17.7125C48.167 17.938 48.1265 18.0974 47.9328 18.2473C47.8437 18.3163 47.7742 18.4204 47.6548 18.4416C47.5036 18.4683 47.4507 18.577 47.415 18.7042C47.3982 18.7646 47.3962 18.832 47.3672 18.8852C47.1946 19.2029 47.0523 19.2668 46.6819 19.207C46.6333 19.1991 46.5837 19.1971 46.5409 19.193C46.4671 19.2933 46.5547 19.3452 46.5885 19.3997C46.8436 19.8121 47.0508 20.2468 47.2167 20.7017C47.2335 20.7478 47.2356 20.7995 47.2445 20.8486C47.0653 20.8338 46.9866 20.702 46.923 20.5617C46.8311 20.3583 46.6674 20.2178 46.5093 20.0727C46.4757 20.0417 46.4208 20.0302 46.3734 20.0195C46.3543 20.0152 46.3233 20.0322 46.309 20.049C46.2953 20.0653 46.2841 20.1022 46.2932 20.1155C46.3357 20.1773 46.3836 20.2359 46.4335 20.2921C46.5338 20.4052 46.6539 20.4986 46.7295 20.636C46.8204 20.8017 46.9245 20.9606 47.0294 21.1182C47.1221 21.2577 47.2162 21.3918 47.134 21.5723C47.1205 21.6021 47.1289 21.6481 47.1406 21.682C47.2096 21.8803 47.1666 22.0842 47.1758 22.2853C47.1788 22.3512 47.1562 22.4092 47.1017 22.4512C47.0599 22.4184 47.0439 22.3733 47.0284 22.3232C46.9752 22.1519 46.9477 22.1264 46.7962 22.1679C46.6333 22.2125 46.4704 22.2321 46.3062 22.2099C46.0305 22.1725 45.7561 22.1249 45.4825 22.0753C44.8428 21.9592 44.2293 21.7594 43.639 21.487C42.955 21.1714 42.3263 20.7755 41.7444 20.2919C41.2676 19.8958 40.8993 19.42 40.5579 18.9145C40.3141 18.5536 40.1453 18.1577 40.0117 17.7451C39.9941 17.6911 40.001 17.612 39.8908 17.6079C39.8057 17.8105 39.7253 18.0215 39.6298 18.2257C39.0411 19.4829 38.3698 20.6885 37.47 21.7576C37.0265 22.2848 36.5541 22.7778 36.0076 23.1971C35.5491 23.5489 35.038 23.8024 34.4793 23.9452C34.2362 24.0073 33.9859 24.0791 33.7288 24.044C33.179 23.9689 32.673 23.7864 32.2293 23.4399C32.1157 23.3511 32.0088 23.2388 31.8291 23.1709C31.8291 23.5601 31.8248 23.9129 31.8304 24.2654C31.8352 24.5694 31.8228 24.8728 31.8968 25.1747C31.9475 25.3814 31.9503 25.5998 31.9745 25.8128C31.8882 25.8088 31.8004 25.8108 31.751 25.7176C31.6909 25.6049 31.5926 25.57 31.4712 25.5873C31.4682 25.5748 31.4666 25.5621 31.4623 25.5504C31.4239 25.4488 31.4977 25.3226 31.3933 25.2355C31.2271 25.3009 31.3149 25.4509 31.2867 25.5619C31.2808 25.5845 31.2923 25.6118 31.2956 25.6367C31.2928 25.6746 31.2941 25.7133 31.2864 25.7502C30.8987 27.6385 29.8739 29.0864 28.2545 30.1178C27.5198 30.5857 26.7065 30.8662 25.8668 31.0729C25.5723 31.1454 25.2711 31.192 24.9733 31.2513C24.9025 31.2664 24.8618 31.3043 24.8857 31.3837ZM44.3581 17.1365C44.3401 17.151 44.3049 17.1683 44.3067 17.1797C44.3334 17.3579 44.3762 17.5338 44.5534 17.6229C44.713 17.7034 44.8527 17.8075 44.9922 17.9174C45.1602 18.0498 45.3402 18.1671 45.5171 18.2881C45.5479 18.3092 45.5922 18.3155 45.6154 18.2728C45.6253 18.2542 45.6197 18.2257 45.6174 18.2023C45.6161 18.1908 45.6077 18.1786 45.5996 18.1692C45.2549 17.7787 44.8548 17.4519 44.4289 17.155C44.4101 17.1421 44.3818 17.1423 44.3581 17.1365ZM32.8262 18.9641C32.8137 18.9023 32.8224 18.8437 32.757 18.83C32.7155 18.8213 32.6895 18.8483 32.6679 18.8807C32.5144 19.1103 32.3599 19.3391 32.2074 19.5695C32.187 19.6003 32.1753 19.6377 32.1631 19.6733C32.1486 19.7158 32.2071 19.7772 32.2535 19.7683C32.2899 19.7614 32.327 19.754 32.3616 19.7408C32.7277 19.6015 32.7862 19.2818 32.8262 18.9641ZM32.9316 18.7007C32.9563 18.6974 32.985 18.7012 33.0054 18.69C33.3111 18.521 33.5522 18.2863 33.7179 17.9772C33.7291 17.9566 33.7319 17.9279 33.7288 17.9042C33.7258 17.881 33.7156 17.853 33.6985 17.8393C33.6823 17.826 33.6535 17.8263 33.6301 17.825C33.6186 17.8245 33.6041 17.8311 33.5955 17.8393C33.3389 18.0824 33.0637 18.3089 32.8865 18.623C32.8781 18.6378 32.8909 18.6668 32.899 18.6869C32.9023 18.6946 32.9204 18.6961 32.9316 18.7007ZM45.7823 18.425C45.7645 18.4652 45.7325 18.5016 45.7388 18.5294C45.7948 18.7816 45.9661 18.9463 46.1772 19.0746C46.2011 19.0891 46.252 19.0754 46.2823 19.0596C46.3207 19.0395 46.3243 18.9932 46.2993 18.9619C46.1657 18.7941 46.03 18.6276 45.8903 18.4647C45.8699 18.441 45.8241 18.4395 45.7823 18.425ZM32.1124 20.0152C32.0959 19.9974 32.0829 19.979 32.0656 19.9666C32.0582 19.9612 32.0371 19.9627 32.0307 19.9694C31.9617 20.0406 31.907 20.1201 31.9218 20.2257C31.9236 20.2379 31.9638 20.2588 31.974 20.2532C32.0669 20.2015 32.0913 20.1084 32.1124 20.0152Z" fill="#1A1A1A"/>
<path d="M30.8095 22.5271C30.7614 22.5418 30.714 22.5607 30.6649 22.5706C30.5631 22.5912 30.4857 22.5433 30.4668 22.4507C30.4595 22.4138 30.4539 22.3751 30.4556 22.3379C30.4719 22.0052 30.3355 21.7217 30.1688 21.4488C30.1094 21.3518 30.041 21.2604 29.9761 21.1667C29.933 21.1049 29.9007 21.027 29.8427 20.9865C29.7638 20.9313 29.7126 21.0344 29.6449 21.0575C29.579 21.0799 29.5138 21.0751 29.4665 21.03C29.3636 20.9323 29.2486 20.8656 29.1147 20.8157C28.9897 20.7691 28.9349 20.6439 28.8828 20.5263C28.8471 20.4461 28.8522 20.345 28.7787 20.285C28.5358 20.0869 28.3146 19.8634 28.0427 19.699C27.7902 19.5463 27.5237 19.4455 27.2348 19.3961C27.1862 19.3877 27.1294 19.3757 27.0948 19.3449C26.954 19.2197 26.7888 19.2441 26.6246 19.2533C26.5776 19.2482 26.5302 19.2433 26.4831 19.2385C26.4297 19.1682 26.3535 19.1632 26.2785 19.1794C26.2311 19.1896 26.1883 19.2202 26.1438 19.2423C25.8096 19.4088 25.6609 19.3551 25.5003 19.0089C25.4899 18.9862 25.4865 18.9595 25.4741 18.9384C25.4361 18.8735 25.3738 18.8735 25.3094 18.8824C25.2185 18.8778 25.1276 18.873 25.0365 18.8684C25.0042 18.8272 24.9647 18.8007 24.911 18.7928C24.588 18.7447 24.2652 18.6948 23.9424 18.6462C23.8862 18.6378 23.8467 18.6681 23.8124 18.708C23.7625 18.7103 23.7123 18.7129 23.6624 18.7151C23.6342 18.6673 23.5866 18.6342 23.541 18.664C23.4802 18.7039 23.426 18.7594 23.3814 18.818C23.1029 19.1861 23.0311 19.2125 22.5971 19.0904C22.5409 19.0051 22.505 18.9129 22.5027 18.8096C22.5001 18.7615 22.476 18.7297 22.4301 18.7144C22.3833 18.709 22.3365 18.7039 22.2896 18.6986C22.2749 18.6642 22.2698 18.6151 22.2436 18.5986C22.1486 18.5382 22.0526 18.4642 21.9468 18.4397C21.6474 18.3707 21.3437 18.2119 21.0406 18.4435C20.9963 18.4774 20.9191 18.4827 20.8585 18.4787C20.6233 18.4621 20.392 18.6026 20.1527 18.4922C20.1155 18.4749 20.0524 18.4988 20.0068 18.5174C19.9098 18.5571 19.8093 18.5548 19.7082 18.5601C19.6331 18.5639 19.553 18.5645 19.485 18.5914C19.2737 18.6749 19.0556 18.7508 18.8618 18.8661C18.5902 19.0277 18.3018 19.1494 18.019 19.2853C17.8042 19.3887 17.5779 19.4877 17.3885 19.6219C16.9588 19.9268 16.5075 20.2185 16.214 20.6793C16.1781 20.7355 16.1191 20.7732 16.0534 20.762C15.9124 20.7381 15.7937 20.6688 15.7016 20.5558C15.6306 20.4688 15.694 20.3886 15.7062 20.3048C15.7115 20.2684 15.7008 20.2297 15.6975 20.1923C15.724 20.0813 15.7586 19.9714 15.7752 19.8588C15.8042 19.6606 15.9203 19.5424 16.0979 19.4704C16.1919 19.4322 16.2809 19.3785 16.3777 19.3508C16.6124 19.2836 16.774 19.1535 16.8636 18.9157C16.9458 18.6973 17.1403 18.5838 17.3613 18.5449C17.5603 18.51 17.7652 18.4922 17.9671 18.4957C18.2295 18.5003 18.4581 18.4303 18.6811 18.2936C19.0367 18.0757 19.4157 17.9713 19.8416 18.0783C20.2489 18.1803 20.255 18.1699 20.5454 17.8448C20.7155 17.6547 20.9161 17.5396 21.1752 17.5429C21.2913 17.5445 21.4099 17.5582 21.4937 17.646C21.679 17.8405 21.9035 17.8123 22.1316 17.7718C22.2184 17.7563 22.3039 17.7132 22.3892 17.7155C22.5467 17.7199 22.6735 17.6857 22.8059 17.5862C22.9655 17.4663 23.1564 17.4426 23.3297 17.5938C23.4743 17.7201 23.6161 17.7619 23.8108 17.6611C24.0002 17.563 24.2227 17.6012 24.3925 17.7242C24.672 17.9268 24.965 17.8828 25.263 17.8186C25.3761 17.7942 25.485 17.7733 25.6011 17.7865C25.7098 17.7993 25.8136 17.841 25.8472 17.9398C25.8898 18.0648 25.973 18.1231 26.0814 18.1689C26.116 18.1834 26.1626 18.1984 26.1774 18.2269C26.2919 18.4486 26.461 18.4323 26.6544 18.3516C26.7239 18.3226 26.8013 18.3112 26.8761 18.2979C27.0116 18.274 27.1259 18.3175 27.2188 18.4176C27.2445 18.4453 27.2633 18.4802 27.2908 18.5062C27.3865 18.5973 27.3697 18.7556 27.4654 18.8333C27.5703 18.9183 27.7103 18.8246 27.8353 18.8529C27.9493 18.8788 28.0598 18.9155 28.1415 18.9952C28.2064 19.0585 28.2864 19.0975 28.3502 19.155C28.5233 19.3105 28.7163 19.405 28.9456 19.4526C29.2134 19.5081 29.3845 19.7061 29.4955 19.9411C29.5627 20.0834 29.6408 20.1663 29.8012 20.1806C29.9748 20.1964 30.0417 20.3509 30.1354 20.4685C30.225 20.581 30.3019 20.6928 30.2388 20.8493C30.2151 20.9079 30.2115 20.9845 30.2637 21.0285C30.3856 21.1313 30.3879 21.3006 30.4966 21.4131C30.5844 21.5038 30.6379 21.6209 30.6071 21.7611C30.5936 21.8219 30.6015 21.8973 30.6534 21.9388C30.8538 22.0981 30.8372 22.3099 30.8095 22.5271ZM21.0517 17.7491C21.1347 17.8102 21.2157 17.7947 21.3231 17.7588C21.2144 17.7041 21.1332 17.7051 21.0517 17.7491Z" fill="#070707"/>
<path d="M15.7047 20.1847C15.708 20.2223 15.7187 20.261 15.7134 20.2972C15.7011 20.3809 15.6378 20.4611 15.7088 20.5482C15.8009 20.6612 15.9195 20.7304 16.0606 20.7544C16.126 20.7656 16.1853 20.7279 16.2212 20.6716C16.5147 20.2109 16.966 19.9192 17.3957 19.6142C17.5848 19.4801 17.8114 19.381 18.0262 19.2777C18.309 19.1415 18.5974 19.0201 18.869 18.8585C19.0627 18.7431 19.2812 18.6673 19.4922 18.5838C19.5601 18.5568 19.6403 18.5563 19.7154 18.5525C19.8165 18.5474 19.917 18.5497 20.014 18.5097C20.0596 18.4911 20.1227 18.4672 20.1599 18.4845C20.3991 18.595 20.6303 18.4547 20.8657 18.471C20.9261 18.4754 21.0032 18.4698 21.0477 18.4359C21.3509 18.204 21.6546 18.3631 21.9539 18.4321C22.0598 18.4565 22.1561 18.5306 22.2507 18.5909C22.2767 18.6075 22.2821 18.6566 22.2966 18.691C22.2337 18.6981 22.1708 18.7085 22.1077 18.7121C21.8007 18.7284 21.5948 18.8439 21.523 19.18C21.4728 19.4139 21.2379 19.4699 21.0475 19.3187C20.9497 19.241 20.8716 19.1377 20.7881 19.043C20.7466 18.9959 20.7186 18.9369 20.6751 18.8921C20.6109 18.8261 20.4801 18.8658 20.4646 18.9537C20.4557 19.0033 20.4539 19.0545 20.4511 19.1049C20.4411 19.2764 20.4142 19.4455 20.2197 19.4992C20.0496 19.546 19.9379 19.4259 19.8274 19.321C19.763 19.2599 19.7032 19.1932 19.6337 19.1387C19.5963 19.1097 19.5377 19.0794 19.497 19.0883C19.2931 19.1329 19.0696 19.1303 18.9632 19.3805C18.8909 19.5506 18.7871 19.5979 18.628 19.5277C18.4261 19.4383 18.2624 19.4849 18.0888 19.5786C17.9445 19.6565 17.7859 19.7102 17.6777 19.8448C17.6268 19.9082 17.552 19.9225 17.4738 19.9314C17.3 19.9512 17.1582 20.0508 17.0617 20.1791C16.9708 20.2997 16.8665 20.3644 16.7318 20.413C16.6119 20.4563 16.4844 20.5291 16.448 20.651C16.3872 20.8546 16.2459 20.9572 16.0792 21.0583C15.9845 21.1156 15.9157 21.2159 15.8348 21.296C15.7559 21.3742 15.7246 21.4554 15.775 21.5684C15.8345 21.7018 15.7803 21.8169 15.6752 21.9067C15.5986 21.9724 15.5161 22.0312 15.4362 22.093C15.3662 22.147 15.2936 22.1984 15.2267 22.256C15.1785 22.2974 15.1897 22.3837 15.244 22.4201C15.2646 22.4339 15.2908 22.439 15.3122 22.452C15.5301 22.5843 15.5632 22.7577 15.4018 22.9471C15.2246 23.155 15.0021 23.2953 14.7407 23.3739C14.7904 23.1291 14.8232 22.8793 14.8942 22.6408C14.9864 22.3313 15.0373 21.9999 15.2911 21.7588C15.343 21.7097 15.3715 21.6313 15.3982 21.5615C15.4509 21.4246 15.3506 21.309 15.2073 21.3355C15.1337 21.349 15.0607 21.3643 14.9874 21.3788C14.9892 21.2716 15.0495 21.1896 15.108 21.1082C15.1747 21.0153 15.2445 20.9196 15.2595 20.8068C15.2916 20.5627 15.4188 20.3881 15.6184 20.2565C15.6492 20.2363 15.6759 20.2089 15.7047 20.1847Z" fill="#1A1A1A"/>
<path d="M17.4248 30.38C17.3217 30.3731 17.2313 30.3008 17.1226 30.3219C17.0646 30.2359 16.9954 30.1674 16.8824 30.1657C15.6424 29.472 14.8317 28.4222 14.3562 27.1006C14.1714 26.5867 14.0637 26.0541 14.0235 25.5071C14.0057 25.2648 14.0141 25.025 14.0553 24.789C14.1205 24.4156 14.205 24.0455 14.2811 23.6738C14.3776 23.6771 14.4651 23.6608 14.5433 23.5931C14.5853 23.5567 14.6464 23.5427 14.6991 23.5186C14.7711 23.5695 14.8472 23.615 14.9142 23.672C15.0587 23.7955 15.0593 23.9225 14.9137 24.0572C14.849 24.117 14.7757 24.1687 14.7008 24.2155C14.6186 24.2672 14.57 24.3344 14.5705 24.4319C14.5726 24.8756 14.5326 25.3246 14.5878 25.7614C14.6853 26.5324 14.9322 27.2655 15.3309 27.9391C15.6238 28.4339 15.9957 28.8644 16.4404 29.2286C16.9154 29.6176 17.4574 29.8895 18.0266 30.1119C18.2027 30.1809 18.374 30.2621 18.5476 30.3377C18.5158 30.3576 18.484 30.3777 18.4524 30.3975C18.3287 30.3958 18.205 30.3942 18.081 30.3927L18.0889 30.3965C17.8708 30.2614 17.6483 30.3008 17.4248 30.38Z" fill="#1A1A1A"/>
<path d="M47.1023 22.4588C47.1565 22.4168 47.1792 22.3587 47.1764 22.2928C47.1672 22.0917 47.2102 21.8878 47.1412 21.6895C47.1295 21.6557 47.1211 21.6096 47.1346 21.5798C47.2168 21.3993 47.1226 21.2652 47.03 21.1257C46.9254 20.9681 46.8213 20.8093 46.7301 20.6436C46.6548 20.5061 46.5344 20.4127 46.4341 20.2997C46.3842 20.2434 46.3363 20.1849 46.2938 20.123C46.2847 20.1098 46.2961 20.0726 46.3096 20.0566C46.3239 20.0398 46.3549 20.0227 46.374 20.027C46.4214 20.0377 46.4763 20.0492 46.5099 20.0803C46.668 20.2253 46.8317 20.3659 46.9236 20.5692C46.987 20.7095 47.0659 20.8414 47.2451 20.8561C47.4314 21.2392 47.4706 21.6587 47.5444 22.0693C47.6513 22.6632 47.6256 23.255 47.5111 23.8456C47.4508 24.1566 47.3978 24.4692 47.3418 24.781C47.2677 25.1947 47.143 25.5918 46.9602 25.9711C46.9167 26.0612 46.8969 26.1625 46.8655 26.2587C46.7637 26.5716 46.6629 26.8844 46.5583 27.1962C46.5412 27.2471 46.4916 27.2695 46.4407 27.2825C46.3468 27.2308 46.3254 27.1547 46.3702 27.0603C46.4616 26.8673 46.5705 26.6808 46.6174 26.4702C46.6986 26.1042 46.7747 25.7371 46.8475 25.3693C46.8523 25.3449 46.8093 25.3113 46.7887 25.2817C46.8717 24.8251 46.9544 24.3687 47.0374 23.912C47.0608 23.9039 47.0974 23.9028 47.1056 23.8868C47.214 23.6765 47.2957 23.4594 47.2316 23.2173C47.2171 23.1624 47.1585 23.1562 47.1112 23.1425C47.1084 22.9147 47.1053 22.6869 47.1023 22.4588Z" fill="#070707"/>
<path d="M46.7897 25.2832C46.8103 25.3127 46.8533 25.3463 46.8485 25.3708C46.776 25.7386 46.6996 26.1057 46.6184 26.4717C46.5716 26.6822 46.4626 26.8688 46.3712 27.0618C46.3264 27.1564 46.3476 27.2323 46.4417 27.284C46.3817 27.4667 46.2658 27.6172 46.1566 27.7712C45.7458 28.3505 45.2573 28.8571 44.7121 29.3102C44.6647 29.3494 44.6072 29.3761 44.5542 29.4087C44.4881 29.4762 44.4035 29.4853 44.3157 29.4838C44.0943 29.4802 43.8731 29.4767 43.6519 29.4731C43.7226 29.3632 43.8326 29.3008 43.9367 29.228C44.3305 28.9515 44.7075 28.6517 45.0303 28.2943C45.3092 27.9855 45.5806 27.6683 45.8138 27.3211C46.1678 26.7937 46.4718 26.2429 46.6474 25.6271C46.6808 25.509 46.6889 25.3754 46.7897 25.2832Z" fill="#1A1A1A"/>
<path d="M14.7017 23.5239C14.6492 23.5481 14.5879 23.5621 14.5459 23.5985C14.4677 23.6662 14.3804 23.6825 14.2837 23.6792C14.2562 23.3709 14.3499 23.0797 14.4349 22.7936C14.578 22.3127 14.7521 21.841 14.9822 21.3928C15.0555 21.3783 15.1286 21.3633 15.2021 21.3495C15.3452 21.323 15.4457 21.4386 15.393 21.5755C15.3663 21.6453 15.3375 21.7237 15.2859 21.7728C15.0321 22.0139 14.9812 22.3453 14.889 22.6548C14.818 22.8934 14.7854 23.1431 14.7355 23.388C14.7241 23.433 14.7129 23.4783 14.7017 23.5239Z" fill="#070707"/>
<path d="M16.8867 30.1719C16.9995 30.1737 17.069 30.2419 17.127 30.3282C17.0397 30.345 16.9524 30.3562 16.8687 30.3119C16.8748 30.2653 16.8809 30.2185 16.8867 30.1719Z" fill="#7F4D29"/>
<path d="M16.5584 30.2505C16.4627 30.3047 16.4014 30.2462 16.3413 30.1843C16.4309 30.1502 16.4953 30.1981 16.5584 30.2505Z" fill="#7F4D29"/>
<path d="M34.6656 36.2724C35.0017 36.2289 35.3239 36.1286 35.6487 36.0374C36.1487 35.9501 36.6478 35.8582 37.1485 35.7763C37.7126 35.6841 38.2765 35.5869 38.8436 35.5171C39.4614 35.441 40.0835 35.3993 40.7026 35.3328C41.676 35.2287 42.6542 35.1984 43.6302 35.1386C44.4414 35.089 45.255 35.0701 46.0678 35.0531C46.754 35.0386 47.4408 35.037 48.1271 35.0457C49.0928 35.0579 50.0584 35.0844 51.0241 35.1065C51.3927 35.1149 51.7613 35.1246 52.1296 35.1412C52.9541 35.1781 53.7784 35.2264 54.6031 35.2577C55.492 35.2913 56.3814 35.3076 57.2706 35.3374C58.0452 35.3634 58.8203 35.3837 59.589 35.4965C59.7023 35.5131 59.8148 35.5339 59.9281 35.55C59.9785 35.5571 60.0284 35.5551 60.0574 35.5001C60.0793 35.4588 60.0289 35.3868 59.9538 35.371C59.8049 35.3397 59.6554 35.3084 59.5048 35.2891C58.621 35.1758 57.73 35.1712 56.8421 35.1289C56.0938 35.0933 55.3433 35.1012 54.594 35.065C53.3253 35.0042 52.0561 34.9452 50.7861 34.9118C49.6567 34.8823 48.5267 34.8423 47.3963 34.8624C46.7858 34.8734 46.1754 34.8736 45.565 34.8825C45.1201 34.8889 44.6746 34.8894 44.2307 34.9144C43.1654 34.9742 42.1003 35.0388 41.0363 35.1172C40.3523 35.1676 39.6683 35.2303 38.9879 35.3163C38.194 35.4166 37.4028 35.5408 36.6132 35.6699C36.2632 35.7271 35.9193 35.8213 35.5726 35.899C35.0953 35.9738 34.6343 36.1174 34.166 36.2309C33.9809 36.2757 33.7979 36.3291 33.6136 36.3778C33.5647 36.3908 33.5151 36.4101 33.4659 36.4096C32.9978 36.4063 33.0645 36.4814 32.9925 36.0341C32.9581 35.8211 32.9164 35.6083 32.8599 35.4003C32.8036 35.1936 32.8344 35.0404 33.0174 34.9021C33.3211 34.6728 33.5927 34.4037 33.9066 34.1833C34.1283 34.0275 34.3632 33.9084 34.613 33.819C35.5212 33.4945 36.4297 33.1704 37.3445 32.8655C37.7409 32.7334 38.1555 32.6649 38.5689 32.5918C39.2066 32.4791 39.8501 32.4159 40.489 32.3184C40.7397 32.2803 40.9943 32.2619 41.2478 32.2464C41.8939 32.2067 42.5376 32.1403 43.1862 32.1331C43.9097 32.1252 44.6326 32.0822 45.356 32.0695C46.4203 32.0507 47.4846 32.0234 48.5496 32.0504C49.1471 32.0654 49.7437 32.0957 50.3376 32.1456C51.3497 32.2306 52.3664 32.265 53.3721 32.4322C53.9232 32.5239 54.471 32.6298 55.0203 32.73C56.2119 32.9477 57.3518 33.341 58.5008 33.705C58.8388 33.8121 59.1726 33.9336 59.5065 34.0532C59.6616 34.1087 59.811 34.1797 59.9652 34.237C60.1554 34.3075 60.3463 34.376 60.54 34.4361C60.891 34.5447 61.2451 34.6445 61.5967 34.752C61.7983 34.8136 61.9151 34.9424 61.9276 35.1651C61.9546 35.647 62.0009 36.1281 62.0205 36.6104C62.0546 37.4482 62.075 38.2864 62.1002 39.1244C62.1024 39.2002 62.1004 39.2766 62.0966 39.3525C62.0918 39.4474 62.0523 39.4841 61.9492 39.4734C61.7221 39.4499 61.4948 39.4258 61.269 39.3911C60.5517 39.2809 59.8283 39.2547 59.1046 39.2247C57.5559 39.1603 56.0059 39.173 54.4567 39.1463C53.492 39.1297 52.5283 39.0684 51.5638 39.048C50.779 39.0315 49.9934 39.0394 49.2084 39.0478C47.9525 39.061 46.6962 39.0775 45.4403 39.1035C44.501 39.1228 43.5617 39.1565 42.6227 39.1895C42.0514 39.2097 41.4805 39.2361 40.91 39.2682C40.2635 39.3046 39.6177 39.3558 38.9711 39.3911C38.2991 39.4278 37.6263 39.4517 36.9538 39.4843C36.1675 39.5222 35.3817 39.5645 34.5954 39.6034C34.1387 39.6258 33.6821 39.646 33.2251 39.6653C33.1287 39.6694 33.0867 39.6233 33.0856 39.5309C33.0755 38.6171 33.0648 37.7032 33.0548 36.7894C33.0543 36.752 33.0597 36.7148 33.063 36.6702C33.6999 36.556 34.3416 36.5789 34.9803 36.5445C35.7424 36.5035 36.5058 36.5185 37.2667 36.4712C38.1937 36.4134 39.1223 36.4363 40.0492 36.3956C41.2061 36.3447 42.363 36.3538 43.52 36.3528C44.194 36.3523 44.8683 36.3561 45.5421 36.3701C46.457 36.389 47.3718 36.4116 48.2862 36.447C49.2003 36.4826 50.1144 36.5213 51.0267 36.5855C52.0403 36.6568 53.0549 36.7194 54.0637 36.8489C54.163 36.8617 54.2648 36.8558 54.3656 36.8561C54.3974 36.8561 54.413 36.8352 54.4081 36.8057C54.4046 36.7833 54.4043 36.7548 54.3908 36.7402C54.3343 36.6797 54.2551 36.6786 54.1798 36.671C53.9522 36.6478 53.7247 36.6226 53.4968 36.6028C52.6362 36.5282 51.7761 36.4521 50.9129 36.4111C50.2658 36.3806 49.6198 36.3291 48.973 36.2961C48.4906 36.2714 48.0077 36.2597 47.5248 36.2439C45.5543 36.1797 43.5831 36.1815 41.6118 36.1853C40.9123 36.1866 40.2128 36.1978 39.5136 36.2143C38.6878 36.2337 37.862 36.2607 37.0368 36.2902C36.263 36.3179 35.4894 36.3531 34.7155 36.3852C34.6964 36.349 34.6455 36.3263 34.6656 36.2724ZM60.3094 37.5678C60.0699 37.4807 59.814 37.4772 59.5679 37.4242C59.5358 37.4174 59.4969 37.4405 59.4895 37.4866C59.4831 37.5268 59.4918 37.564 59.5302 37.5775C59.7578 37.6574 59.9955 37.6829 60.2338 37.706C60.3967 37.7839 60.5741 37.7903 60.7487 37.8101C60.8032 37.8162 60.8473 37.7982 60.847 37.7317C60.8467 37.6918 60.8299 37.6577 60.7905 37.6462C60.6334 37.6004 60.4754 37.5594 60.3094 37.5678ZM54.7492 36.7385C54.749 36.7397 54.749 36.7413 54.7487 36.7425C54.736 36.7415 54.7235 36.7397 54.7108 36.7395C54.6482 36.7382 54.5817 36.7308 54.5545 36.8077C54.5369 36.8571 54.6118 36.9149 54.7131 36.9271C54.99 36.9607 55.2667 36.9973 55.5442 37.0243C56.7324 37.1396 57.91 37.3311 59.087 37.5258C59.1871 37.5423 59.2881 37.5523 59.3892 37.5619C59.4465 37.5675 59.4862 37.536 59.4874 37.4797C59.4882 37.4443 59.4653 37.4118 59.4202 37.4036C59.1957 37.3626 58.9725 37.3135 58.747 37.2781C57.5936 37.0979 56.4377 36.9363 55.2782 36.8001C55.1018 36.7795 54.9254 36.7588 54.7492 36.7385Z" fill="#C2F2FC"/>
<path d="M14.7002 23.5135C14.7114 23.4679 14.7229 23.4226 14.7341 23.3771C14.9957 23.2987 15.2182 23.1584 15.3951 22.9504C15.5563 22.761 15.5234 22.5877 15.3055 22.4553C15.2841 22.4423 15.2579 22.4375 15.2373 22.4235C15.1831 22.3871 15.1719 22.3008 15.22 22.2593C15.2869 22.2018 15.3595 22.1506 15.4295 22.0964C15.5094 22.0346 15.5919 21.9758 15.6685 21.9101C15.7734 21.8202 15.8279 21.7052 15.7683 21.5718C15.7179 21.4588 15.7492 21.3776 15.8281 21.2994C15.9091 21.2192 15.9778 21.1189 16.0725 21.0617C16.2395 20.9606 16.3807 20.858 16.4413 20.6544C16.4777 20.5325 16.6053 20.4596 16.7252 20.4164C16.8598 20.3678 16.9642 20.3031 17.0551 20.1824C17.1515 20.0544 17.2933 19.9546 17.4672 19.9348C17.5451 19.9259 17.6202 19.9116 17.6711 19.8482C17.7793 19.7133 17.9376 19.6596 18.0822 19.582C18.2558 19.4883 18.4197 19.442 18.6213 19.531C18.7804 19.6016 18.8843 19.5542 18.9566 19.3839C19.063 19.1337 19.2862 19.1362 19.4903 19.0917C19.5311 19.0828 19.5896 19.1131 19.627 19.1421C19.6968 19.1963 19.7566 19.263 19.8208 19.3244C19.9312 19.4292 20.0427 19.5494 20.213 19.5025C20.4075 19.4491 20.4345 19.2798 20.4444 19.1082C20.4475 19.0576 20.4492 19.0067 20.4579 18.957C20.4734 18.8695 20.6043 18.8295 20.6684 18.8954C20.7117 18.9402 20.7399 18.9993 20.7814 19.0464C20.8649 19.1411 20.9428 19.2444 21.0408 19.3221C21.2312 19.4733 21.4664 19.4173 21.5163 19.1833C21.5881 18.8473 21.794 18.7318 22.101 18.7155C22.1642 18.7122 22.2268 18.7017 22.2899 18.6943C22.3367 18.6994 22.3836 18.7048 22.4307 18.7101C22.4549 18.7419 22.479 18.7735 22.503 18.8053C22.505 18.9087 22.5411 19.0008 22.5971 19.0861C22.5788 19.249 22.6582 19.3834 22.7338 19.514C22.8522 19.7186 23.0418 19.7286 23.1951 19.5382C23.274 19.4399 23.3394 19.3292 23.4005 19.2185C23.4927 19.0517 23.5756 18.8802 23.6624 18.7109C23.7123 18.7086 23.7625 18.706 23.8124 18.7038C23.9099 18.7903 23.9694 18.8868 23.9633 19.0293C23.9531 19.2694 23.9559 19.5104 23.9679 19.7505C23.9773 19.9343 24.1013 20.0272 24.2708 20.0073C24.3558 19.9974 24.4012 19.9419 24.449 19.8808C24.6931 19.5697 24.8543 19.2111 25.0363 18.8641C25.1271 18.8687 25.218 18.8735 25.3094 18.8781C25.3606 19.0767 25.3427 19.2798 25.3438 19.4806C25.3445 19.6354 25.3786 19.7818 25.4262 19.9246C25.4782 20.0806 25.6617 20.1341 25.7969 20.0343C25.8671 19.9824 25.93 19.9177 25.986 19.85C26.1542 19.6469 26.3177 19.4397 26.4829 19.234C26.53 19.2388 26.5773 19.2439 26.6244 19.2487C26.6437 19.5015 26.6379 19.7563 26.7099 20.0045C26.7405 20.1096 26.7733 20.2 26.8894 20.2247C27.0233 20.2532 27.1404 20.2267 27.2267 20.1074C27.3084 19.9938 27.3957 19.8846 27.4792 19.7724C27.5219 19.7148 27.5759 19.6927 27.6444 19.7161C27.708 19.7377 27.7605 19.7803 27.7717 19.8457C27.7844 19.92 27.7798 19.9974 27.7811 20.0735C27.7824 20.1542 27.8147 20.2196 27.8699 20.2774C27.9435 20.3545 28.0155 20.3721 28.1084 20.3293C28.1316 20.3186 28.1532 20.3054 28.1767 20.2952C28.2538 20.2616 28.3072 20.1382 28.4037 20.1939C28.5267 20.2652 28.4836 20.4044 28.4569 20.5044C28.3968 20.7297 28.3923 20.9563 28.3933 21.1851C28.3935 21.2628 28.4065 21.3351 28.4569 21.3995C28.529 21.4911 28.6198 21.5204 28.7245 21.4733C28.7705 21.4524 28.8151 21.4275 28.8573 21.4C28.9309 21.3524 28.9772 21.2556 29.0714 21.2505C29.1847 21.2447 29.1837 21.372 29.2437 21.431C29.3484 21.5341 29.4626 21.5557 29.5912 21.4936C29.6877 21.4468 29.76 21.472 29.8272 21.5473C29.8928 21.6207 29.9219 21.6963 29.8676 21.7887C29.8549 21.8106 29.8457 21.8347 29.8371 21.8584C29.7416 22.1173 29.8083 22.24 30.0726 22.2886C30.0972 22.2932 30.1237 22.2873 30.1487 22.2911C30.2917 22.3135 30.3238 22.3594 30.2828 22.4963C30.25 22.6058 30.2019 22.7109 30.1736 22.8214C30.1146 23.052 30.1632 23.1653 30.3997 23.2719C30.5109 23.3221 30.5244 23.3699 30.488 23.472C30.4236 23.6517 30.3714 23.8337 30.3811 24.0297C30.3928 24.2672 30.417 24.3024 30.6568 24.3578C30.8314 24.3981 30.8342 24.4021 30.8436 24.5808C30.8818 25.3165 30.7372 26.0188 30.4732 26.703C30.223 27.3516 29.848 27.9165 29.4046 28.449C28.8907 29.0658 28.2685 29.5293 27.565 29.902C26.7919 30.3113 25.9618 30.5366 25.1101 30.6936C24.5987 30.7878 24.084 30.8634 23.5611 30.8591C23.4621 30.8583 23.3544 30.8418 23.2771 30.9329C23.2267 30.9337 23.176 30.9342 23.1256 30.9349C23.0238 30.9337 22.922 30.9324 22.8201 30.9311C22.5915 30.9253 22.3668 30.8983 22.1451 30.8385C21.7884 30.7422 21.4158 30.7664 21.0546 30.7015C20.9303 30.6791 20.8043 30.6661 20.6801 30.6432C20.1944 30.5534 19.708 30.4572 19.2124 30.4722C18.9739 30.4793 18.7733 30.3614 18.5488 30.3332C18.3752 30.2578 18.2038 30.1764 18.0277 30.1077C17.4585 29.8852 16.9166 29.6133 16.4416 29.2244C15.9969 28.8601 15.6247 28.4297 15.332 27.9348C14.9334 27.2613 14.6865 26.5282 14.589 25.7571C14.5337 25.3201 14.5737 24.871 14.5717 24.4276C14.5711 24.3304 14.6198 24.2629 14.702 24.2112C14.7766 24.1644 14.8501 24.1127 14.9148 24.0529C15.0601 23.9182 15.0599 23.791 14.9153 23.6678C14.8483 23.61 14.7722 23.5644 14.7002 23.5135ZM22.2917 28.8626C21.8803 28.9013 21.4142 28.8239 20.9515 28.755C20.5394 28.6936 20.1288 28.5969 19.7312 28.4724C19.0225 28.2502 18.3637 27.931 17.8411 27.3761C17.3659 26.8713 17.1403 26.2985 17.2974 25.6039C17.303 25.5792 17.3076 25.554 17.3096 25.5288C17.3205 25.3865 17.2302 25.277 17.067 25.2327C16.9693 25.2063 16.8529 25.2826 16.8076 25.4066C16.7946 25.442 16.7941 25.4817 16.7832 25.5178C16.6633 25.9111 16.718 26.295 16.8384 26.6773C17.0889 27.4736 17.6316 28.029 18.3286 28.4393C19.4155 29.0788 20.6198 29.3135 21.86 29.3857C22.5322 29.4249 23.2012 29.3636 23.8679 29.2531C24.7142 29.1126 25.5265 28.8726 26.2787 28.4605C26.8369 28.1545 27.3511 27.7872 27.7406 27.2646C28.0804 26.8087 28.3189 26.312 28.4444 25.7589C28.4646 25.6708 28.4745 25.5827 28.4518 25.4949C28.421 25.3753 28.294 25.2816 28.1683 25.2801C28.0708 25.2788 28 25.3389 27.9613 25.4705C27.9257 25.5919 27.9012 25.7166 27.8684 25.8391C27.7134 26.4192 27.4005 26.9141 26.9744 27.3216C26.4358 27.8368 25.79 28.1947 25.08 28.4225C24.1947 28.7061 23.289 28.8835 22.2917 28.8626ZM24.3286 23.8202C24.5513 23.8139 24.7214 23.6464 24.7168 23.4376C24.713 23.2663 24.5119 23.0696 24.3423 23.0711C24.1321 23.0731 23.9702 23.2449 23.9684 23.4677C23.9664 23.6751 24.1206 23.8261 24.3286 23.8202ZM20.7043 23.2164C20.5075 23.219 20.3044 23.4183 20.3118 23.6023C20.3187 23.7747 20.5182 23.9681 20.687 23.9663C20.8967 23.9641 21.0602 23.7922 21.0619 23.5718C21.0637 23.3638 20.9125 23.2139 20.7043 23.2164Z" fill="#7F4D29"/>
<path d="M30.7604 36.499C30.7604 37.5872 30.7604 38.6533 30.7604 39.7206C30.7056 39.7524 30.672 39.7145 30.6407 39.6753C30.4972 39.4948 30.3073 39.4587 30.0924 39.4964C29.9425 39.5226 29.7859 39.5294 29.6434 39.577C29.3962 39.6595 29.1452 39.6585 28.892 39.6567C27.8012 39.6493 26.7117 39.6817 25.6222 39.7295C24.8998 39.7613 24.1761 39.7644 23.4535 39.7919C22.6799 39.8214 21.9071 39.8672 21.1337 39.9013C20.7914 39.9166 20.4482 39.9253 20.1056 39.9299C19.2172 39.9418 18.3288 39.9439 17.4405 39.9617C16.603 39.9782 15.7658 40.0111 14.9283 40.034C14.4215 40.048 13.9144 40.0599 13.4073 40.0673C12.2018 40.0849 10.9965 40.0984 9.79094 40.1149C8.5724 40.1317 7.35387 40.1442 6.13584 40.1696C4.96898 40.1941 3.80237 40.2297 2.63576 40.2689C2.38274 40.2773 2.13099 40.3221 1.87847 40.3496C1.77741 40.3606 1.67661 40.374 1.5753 40.3799C1.48111 40.3855 1.4386 40.3453 1.4358 40.2455C1.42639 39.8904 1.39457 39.5333 1.41773 39.1802C1.46355 38.4792 1.40475 37.7845 1.3513 37.088C1.34061 36.9491 1.32991 36.8096 1.32864 36.6703C1.32787 36.5957 1.34468 36.5206 1.35766 36.4463C1.37242 36.3618 1.43326 36.316 1.50912 36.2921C1.55723 36.2768 1.60864 36.2717 1.65905 36.2648C1.97367 36.2218 2.2883 36.1775 2.60343 36.1381C2.91831 36.0986 3.23395 36.0663 3.54909 36.0278C4.25496 35.9421 4.95956 35.8474 5.66976 35.7967C6.36621 35.7471 7.05986 35.661 7.75555 35.5987C8.13483 35.5648 8.51538 35.545 8.89543 35.522C9.82072 35.4663 10.746 35.4039 11.6718 35.3607C12.6488 35.3151 13.6273 35.2985 14.6042 35.2509C15.7978 35.1929 16.9927 35.2039 18.1865 35.172C18.6564 35.1596 19.1263 35.1377 19.596 35.1484C20.5607 35.1708 21.526 35.1835 22.4892 35.255C23.3379 35.3179 24.1881 35.3652 25.0358 35.4416C25.9715 35.5261 26.9037 35.6412 27.8279 35.8176C28.8001 36.0031 29.7628 36.2259 30.7604 36.499ZM24.6786 36.3211C23.6619 36.3162 22.6468 36.357 21.6327 36.4346C21.1895 36.4685 20.7448 36.4832 20.3019 36.5212C19.2516 36.611 18.2021 36.7062 17.1526 36.8057C16.6216 36.8561 16.0913 36.9152 15.5619 36.9791C15.0324 37.0427 14.504 37.116 13.9753 37.1873C13.3081 37.2774 12.6417 37.3726 11.9745 37.4607C11.1306 37.5722 10.2866 37.6824 9.4417 37.7855C9.06369 37.8316 8.68135 37.8448 8.30436 37.898C7.599 37.9976 6.88829 38.0312 6.17988 38.093C5.50863 38.1518 4.84246 38.2427 4.18572 38.3939C3.77742 38.4878 3.37294 38.5978 2.96642 38.6994C2.90482 38.7146 2.84067 38.7202 2.77984 38.738C2.72103 38.7554 2.64823 38.7744 2.65867 38.8556C2.66961 38.9404 2.74343 38.9417 2.8058 38.929C2.94275 38.9012 3.07792 38.8656 3.21359 38.8322C3.65727 38.7228 4.0974 38.5935 4.54566 38.5074C5.28157 38.3659 6.02562 38.2771 6.77502 38.2356C7.12986 38.216 7.4847 38.1872 7.83828 38.149C8.62102 38.0648 9.403 37.9741 10.185 37.8815C10.702 37.8204 11.2182 37.7537 11.7342 37.6852C12.4014 37.5966 13.068 37.5017 13.7352 37.4131C14.1883 37.353 14.6437 37.307 15.096 37.2408C16.0644 37.0987 17.038 37.0061 18.0112 36.9111C18.8453 36.8297 19.682 36.7732 20.518 36.7088C20.8978 36.6795 21.2788 36.6655 21.6581 36.6306C22.5569 36.5481 23.4575 36.5005 24.3594 36.4988C25.1849 36.497 26.0102 36.5156 26.8354 36.5611C27.5461 36.6003 28.2556 36.6454 28.9617 36.7329C29.302 36.7752 29.6411 36.8289 29.9809 36.8755C30.0308 36.8824 30.0889 36.8778 30.0797 36.8055C30.0756 36.7729 30.0517 36.7327 30.0245 36.7159C29.9827 36.6902 29.9313 36.6736 29.8824 36.6678C29.2017 36.585 28.5226 36.4799 27.8394 36.4295C26.7883 36.3511 25.734 36.3109 24.6786 36.3211Z" fill="#C2F2FC"/>
<path d="M46.7863 25.2805C46.6855 25.3727 46.6773 25.5063 46.6437 25.6244C46.4681 26.2402 46.1641 26.791 45.8101 27.3185C45.5769 27.6657 45.3055 27.9829 45.0265 28.2916C44.7038 28.649 44.327 28.9489 43.933 29.2253C43.8291 29.2981 43.7192 29.3605 43.6482 29.4704C43.5367 29.4921 43.4356 29.5527 43.3165 29.5463C42.7827 29.5183 42.255 29.6071 41.7237 29.6313C41.572 29.6382 41.4196 29.6344 41.2676 29.6339C41.1281 29.6331 40.9901 29.6362 40.8522 29.669C40.7422 29.6952 40.6269 29.7018 40.5134 29.7095C39.9564 29.7477 39.4083 29.8238 38.8743 30.0007C38.4663 30.1361 38.046 30.2341 37.6334 30.3555C37.5068 30.3927 37.3826 30.3807 37.2561 30.3764C37.1383 30.2965 36.9993 30.2787 36.8667 30.2415C36.2692 30.074 35.6776 29.8856 35.1273 29.5957C34.3718 29.1976 33.6843 28.704 33.1225 28.0541C32.7997 27.6807 32.5156 27.2777 32.3239 26.817C32.2376 26.6095 32.146 26.4046 32.0567 26.1984C32.0284 26.0724 32.0004 25.9462 31.9721 25.8202C31.948 25.6071 31.9454 25.3887 31.8945 25.182C31.8204 24.8801 31.8329 24.5767 31.8281 24.2728C31.8225 23.92 31.8268 23.5672 31.8268 23.1782C32.0062 23.2464 32.1132 23.3587 32.2269 23.4473C32.6706 23.794 33.1767 23.9765 33.7265 24.0513C33.9839 24.0864 34.2341 24.0147 34.4769 23.9525C35.0357 23.8097 35.5468 23.5562 36.0052 23.2044C36.5518 22.7852 37.024 22.2921 37.4676 21.7649C38.3672 20.6956 39.0387 19.4903 39.6275 18.233C39.723 18.0289 39.8034 17.8179 39.8884 17.6152C39.9986 17.6193 39.9918 17.6985 40.0093 17.7524C40.143 18.1651 40.312 18.5609 40.5556 18.9218C40.897 19.4274 41.2653 19.9031 41.7421 20.2992C42.324 20.7826 42.9527 21.1787 43.6367 21.4943C44.227 21.7667 44.8405 21.9665 45.4802 22.0826C45.7541 22.1322 46.0285 22.1798 46.3039 22.2173C46.4678 22.2394 46.631 22.2198 46.7939 22.1753C46.9456 22.1338 46.9728 22.1592 47.026 22.3305C47.0416 22.3807 47.0576 22.4257 47.0994 22.4586C47.1024 22.6864 47.1052 22.9142 47.1083 23.1423C47.0912 23.3997 46.9807 23.6478 47.0347 23.9118C46.952 24.3675 46.8692 24.8239 46.7863 25.2805ZM39.5735 29.0303C39.8408 29.0237 40.1033 29.0005 40.3688 28.9641C41.2803 28.8392 42.1035 28.4927 42.8779 28.0172C43.6079 27.5692 44.2425 27.0033 44.8178 26.3721C45.0052 26.1666 45.1706 25.9401 45.3358 25.7158C45.427 25.5921 45.3796 25.4116 45.2511 25.3192C45.1531 25.249 45.0075 25.277 44.9148 25.3913C44.7633 25.5784 44.6264 25.7787 44.4648 25.9564C43.7148 26.7814 42.8674 27.4794 41.8459 27.9495C41.11 28.2881 40.339 28.4665 39.5298 28.4838C39.2375 28.4902 38.9499 28.4589 38.6597 28.4179C38.089 28.3372 37.5415 28.1773 37.0212 27.9437C35.9559 27.4651 35.0283 26.7882 34.2473 25.9154C34.1715 25.8306 34.0877 25.7504 33.9979 25.6809C33.8759 25.5865 33.7764 25.5898 33.6899 25.6728C33.5705 25.7871 33.546 25.9258 33.6328 26.0478C33.6766 26.1094 33.7319 26.1636 33.7856 26.2175C33.9826 26.4161 34.1804 26.6136 34.3789 26.8106C34.7042 27.1334 35.068 27.4076 35.4437 27.6692C35.8212 27.9322 36.2285 28.1369 36.6378 28.3408C37.5628 28.801 38.5485 28.999 39.5735 29.0303ZM40.7972 23.617C40.8725 23.612 40.9491 23.6135 41.0227 23.5997C41.1271 23.5804 41.2258 23.4361 41.191 23.3414C41.0543 22.97 40.772 22.8027 40.4011 23.085C40.2687 23.1858 40.2705 23.3559 40.381 23.4857C40.4945 23.6188 40.6439 23.6176 40.7972 23.617ZM37.3414 23.6713C37.5035 23.6644 37.6519 23.5598 37.6769 23.4208C37.7016 23.2823 37.6278 23.1769 37.5229 23.1018C37.4218 23.0295 37.3119 22.9636 37.1754 23.0267C37.0344 23.0922 36.9479 23.2289 36.9776 23.3508C37.025 23.5453 37.1759 23.6781 37.3414 23.6713Z" fill="#7F4D29"/>
<path d="M30.7276 36.2753C30.5196 36.2928 30.3399 36.2149 30.1595 36.1651C29.1904 35.8978 28.2045 35.7107 27.2161 35.5378C26.4402 35.4022 25.6549 35.3322 24.8694 35.2718C24.0838 35.2115 23.299 35.144 22.5135 35.083C22.3236 35.0682 22.1324 35.0684 21.942 35.0593C20.9643 35.0132 19.9863 34.9715 19.007 34.9893C18.0413 35.0068 17.0758 35.0305 16.11 35.0514C15.6269 35.0618 15.1437 35.0649 14.6608 35.0824C13.3657 35.1298 12.0703 35.1776 10.7756 35.2365C10.027 35.2706 9.27835 35.3156 8.5315 35.3754C7.53137 35.4556 6.53302 35.5613 5.53289 35.6445C4.64577 35.7183 3.76375 35.8273 2.883 35.9545C2.5447 36.0034 2.19877 35.9945 1.86735 36.1007C1.75687 36.136 1.65505 36.0742 1.61559 35.9802C1.56723 35.8654 1.59294 35.7354 1.70393 35.6801C2.1919 35.4375 2.61089 35.0656 3.14596 34.9124C3.24345 34.8844 3.34069 34.8562 3.4392 34.8315C3.84597 34.7299 4.25427 34.6344 4.65977 34.5283C5.59372 34.2839 6.52869 34.0429 7.47435 33.8474C7.90938 33.7575 8.33499 33.6244 8.77867 33.5727C9.34632 33.5065 9.91091 33.4159 10.4816 33.3693C10.9245 33.3332 11.3647 33.2596 11.8055 33.1995C12.1344 33.1547 12.4651 33.1542 12.7957 33.1491C12.9607 33.1466 13.1269 33.1494 13.2906 33.1323C14.2144 33.0356 15.1409 32.9964 16.0693 32.9771C17.0875 32.9559 18.1042 33.003 19.1213 33.0163C19.3247 33.0188 19.5281 33.015 19.7315 33.0145C20.2658 33.0135 20.8006 32.9954 21.3339 33.0168C21.7773 33.0348 22.219 33.1003 22.6614 33.1433C22.8892 33.1654 23.1168 33.1967 23.3451 33.2023C23.8321 33.2143 24.3068 33.3092 24.7752 33.422C25.3451 33.559 25.9204 33.6567 26.4982 33.7468C27.6167 33.9212 28.7195 34.1709 29.8209 34.428C30.0088 34.4718 30.1836 34.5453 30.3575 34.6217C30.5609 34.7113 30.6683 34.8877 30.6887 35.098C30.7205 35.4261 30.7274 35.7568 30.7419 36.0864C30.7452 36.148 30.7332 36.2099 30.7276 36.2753Z" fill="#C2F2FC"/>
<path d="M24.8838 31.3854C24.8599 31.306 24.9009 31.268 24.9719 31.254C25.2697 31.1947 25.5708 31.1481 25.8654 31.0756C26.7051 30.8689 27.5184 30.5884 28.253 30.1205C29.8728 29.0891 30.8973 27.6412 31.285 25.7529C31.2926 25.716 31.2914 25.6773 31.2942 25.6396C31.3413 25.646 31.3886 25.6524 31.4357 25.6587C31.478 25.8178 31.5329 25.9749 31.5599 26.1365C31.651 26.6823 31.8885 27.1731 32.1286 27.6618C32.2284 27.8652 32.3488 28.0617 32.4824 28.2452C32.8678 28.775 33.3726 29.1815 33.9191 29.5264C34.4223 29.8441 34.9485 30.1284 35.5067 30.3443C35.8015 30.458 36.0919 30.5869 36.4091 30.6306C36.4282 30.6726 36.4608 30.694 36.5074 30.6933C36.4944 30.7141 36.4868 30.7452 36.4679 30.7546C36.1187 30.931 35.7934 31.1504 35.4072 31.2591C34.892 31.4042 34.4124 31.6369 33.984 31.966C33.7017 32.1829 33.3901 32.3501 33.0595 32.4797C32.863 32.5566 32.7184 32.705 32.573 32.8407C32.2536 33.1387 31.8717 33.3378 31.5103 33.5699C31.4283 33.6226 31.3436 33.6298 31.256 33.5967C31.1735 33.5654 31.0887 33.5351 31.0137 33.4898C30.7515 33.3317 30.4725 33.212 30.1825 33.1179C29.7002 32.9611 29.2214 32.7994 28.7708 32.5591C28.446 32.3858 28.0947 32.2743 27.7404 32.1725C27.2532 32.0324 26.7728 31.8672 26.2841 31.7318C25.8211 31.6033 25.3509 31.4997 24.8838 31.3854Z" fill="#FFEAB1"/>
<path d="M2.15918 33.8391C2.24725 33.7184 2.36817 33.6728 2.47686 33.6196C3.28633 33.2241 4.07315 32.7817 4.90884 32.4395C5.21405 32.3146 5.50805 32.1623 5.80919 32.0272C5.9945 31.9439 6.18516 31.8762 6.38091 31.8179C6.84267 31.6802 7.30086 31.5356 7.77407 31.4343C8.52143 31.2742 9.27643 31.1961 10.0368 31.1495C10.7083 31.1082 11.3798 31.0665 12.0515 31.0311C12.6976 30.997 13.3439 30.9596 13.9915 30.9894C14.5876 31.0169 15.1835 31.0487 15.7797 31.0787C16.1862 31.0993 16.5894 31.1472 16.9926 31.2019C17.3447 31.2498 17.6998 31.2747 18.0523 31.3195C18.6065 31.3903 19.1604 31.4628 19.7128 31.5466C20.2399 31.6265 20.7669 31.7128 21.2905 31.8131C22.0139 31.9516 22.731 32.1206 23.4369 32.3324C23.545 32.365 23.6509 32.4029 23.766 32.4141C23.4254 32.4683 23.0848 32.435 22.746 32.4253C22.3273 32.4133 21.9093 32.379 21.4908 32.3563C20.7681 32.3171 20.0457 32.2776 19.3228 32.2418C19.069 32.229 18.8147 32.2216 18.5607 32.2201C17.4305 32.2138 16.3003 32.2031 15.1703 32.2087C14.2048 32.2135 13.2413 32.2636 12.2789 32.352C11.1649 32.4543 10.0546 32.5856 8.94755 32.7402C7.62643 32.9245 6.32364 33.2017 5.0491 33.6054C4.48043 33.7856 3.90871 33.9549 3.3571 34.1832C3.19419 34.2507 3.05214 34.2484 2.88745 34.1667C2.65402 34.0508 2.39795 33.9821 2.15918 33.8391Z" fill="white"/>
<path d="M34.1133 32.9292C34.2207 32.8618 34.3225 32.7834 34.4363 32.7291C35.009 32.4563 35.5775 32.1727 36.1611 31.9245C37.2631 31.4559 38.4165 31.1461 39.5816 30.8816C40.2625 30.7271 40.9495 30.608 41.646 30.5377C42.5308 30.4484 43.4171 30.4056 44.3048 30.3595C45.3079 30.3076 46.3106 30.3157 47.3138 30.3117C48.1658 30.3081 49.0142 30.3692 49.8619 30.4484C50.2918 30.4886 50.7235 30.5095 51.154 30.5441C52.1671 30.6258 53.181 30.7001 54.1923 30.7996C54.6332 30.8429 55.071 30.9287 55.5058 31.017C56.5255 31.2237 57.5483 31.4185 58.5416 31.7377C58.8679 31.8425 59.1965 31.9398 59.5226 32.0447C59.5628 32.0576 59.6308 32.0487 59.6315 32.1508C59.4208 32.1518 59.2103 32.1523 58.9997 32.1541C58.3644 32.1592 57.7311 32.1951 57.1016 32.2852C56.9735 32.3035 56.8511 32.299 56.7263 32.2549C56.583 32.2045 56.4339 32.1707 56.287 32.1297C55.2573 31.8423 54.2063 31.6646 53.1481 31.5254C51.913 31.363 50.6701 31.2993 49.4284 31.2181C48.3623 31.1484 47.2973 31.1527 46.2307 31.1838C45.1779 31.2146 44.124 31.2227 43.0715 31.2614C42.082 31.2978 41.0936 31.3609 40.1115 31.4992C39.8224 31.5399 39.5319 31.574 39.2417 31.6061C38.1769 31.7242 37.1422 31.9642 36.14 32.3471C35.5714 32.5645 34.9976 32.7686 34.4251 32.9758C34.3304 33.0102 34.2301 33.0285 34.1324 33.0542C34.1258 33.0122 34.1196 32.9707 34.1133 32.9292Z" fill="white"/>
<path d="M35.5708 35.9101C35.9175 35.8328 36.2614 35.7383 36.6114 35.681C37.4013 35.552 38.1924 35.4278 38.9861 35.3275C39.6665 35.2414 40.3505 35.1788 41.0345 35.1284C42.0985 35.05 43.1636 34.9854 44.2289 34.9255C44.6728 34.9006 45.1185 34.9003 45.5632 34.8937C46.1736 34.8848 46.784 34.8846 47.3945 34.8736C48.5249 34.8535 49.6546 34.8935 50.7843 34.923C52.054 34.9563 53.3232 35.0154 54.5921 35.0762C55.3415 35.1121 56.092 35.1042 56.8403 35.1401C57.7282 35.1826 58.6191 35.187 59.5029 35.3002C59.6536 35.3196 59.8033 35.3506 59.952 35.3822C60.0268 35.398 60.0775 35.47 60.0556 35.5113C60.0266 35.566 59.9767 35.5683 59.9263 35.5611C59.813 35.5451 59.7005 35.5242 59.5872 35.5077C58.8185 35.3952 58.0433 35.3748 57.2687 35.3486C56.3799 35.3188 55.4902 35.3025 54.6013 35.2689C53.7766 35.2376 52.9523 35.1895 52.1278 35.1523C51.7595 35.1358 51.3909 35.1261 51.0223 35.1177C50.0568 35.0956 49.091 35.0694 48.1253 35.0569C47.439 35.0482 46.7522 35.0498 46.0659 35.0643C45.2532 35.0816 44.4396 35.1002 43.6284 35.1498C42.6522 35.2096 41.6742 35.2396 40.7008 35.344C40.0817 35.4102 39.4596 35.4522 38.8418 35.5283C38.2746 35.5981 37.7108 35.6953 37.1467 35.7874C36.646 35.8694 36.1469 35.961 35.6469 36.0486C35.6212 36.002 35.596 35.9562 35.5708 35.9101Z" fill="#1A1A1A"/>
<path d="M31.6109 35.2815C31.7522 35.2357 31.8568 35.3337 31.9764 35.3622C32.0306 35.3752 32.0487 35.4289 32.0558 35.4803C32.0808 35.6562 32.1134 35.8316 32.1269 36.0085C32.1836 36.7424 32.2139 37.4773 32.2101 38.2135C32.2083 38.5561 32.2203 38.899 32.2205 39.2416C32.2205 39.3811 32.207 39.5206 32.1981 39.6598C32.1946 39.7168 32.1625 39.7515 32.1062 39.7629C32.0938 39.7655 32.0813 39.7683 32.0691 39.7716C31.758 39.8602 31.6035 39.7588 31.6384 39.417C31.6592 39.2141 31.6567 39.0125 31.6536 38.8112C31.6363 37.671 31.6127 36.5311 31.5923 35.3913C31.5918 35.3543 31.6045 35.3174 31.6109 35.2815Z" fill="white"/>
<path d="M36.5057 30.6857C36.4594 30.6865 36.4268 30.6651 36.4077 30.6231C36.3932 30.3319 36.3861 30.3204 36.1371 30.2568C36.0766 30.2413 36.0117 30.2436 35.9501 30.2303C35.7897 30.1962 35.6324 30.1573 35.4964 30.0539C35.2729 29.8841 35.0255 29.7617 34.7511 29.693C34.6786 29.6749 34.6114 29.6352 34.5416 29.6054C34.1196 29.4252 33.7515 29.163 33.4 28.872C33.2638 28.7595 33.1004 28.6799 33.1085 28.4653C33.1098 28.4337 33.0769 28.3965 33.052 28.369C32.8995 28.2008 32.7923 27.9951 32.6142 27.8472C32.5569 27.7996 32.4935 27.7413 32.4696 27.6746C32.3952 27.4679 32.2754 27.2941 32.1305 27.134C32.0648 27.0612 32.0457 26.9777 32.0908 26.8888C32.1422 26.7875 32.1239 26.6956 32.074 26.5999C32.0391 26.5332 32.0086 26.4619 31.9913 26.3891C31.9735 26.3138 31.9821 26.2369 32.0567 26.1865C32.146 26.3927 32.2377 26.5979 32.324 26.8051C32.5156 27.2658 32.7997 27.6688 33.1225 28.0422C33.684 28.6921 34.3718 29.1859 35.1273 29.5838C35.6777 29.8737 36.2693 30.0621 36.8667 30.2296C36.9993 30.2667 37.1383 30.2848 37.2562 30.3645C37.2271 30.4273 37.1714 30.4487 37.1093 30.4699C36.9069 30.5391 36.7068 30.6137 36.5057 30.6857Z" fill="#1A1A1A"/>
<path d="M34.1158 32.9268C34.1222 32.9682 34.1285 33.01 34.1349 33.0515C34.0226 33.166 33.8684 33.1877 33.7264 33.2353C33.7004 33.2287 33.6742 33.222 33.6479 33.2154C33.7765 33.0752 33.9539 33.0136 34.1158 32.9268Z" fill="#FFEAB1"/>
<path d="M17.4302 30.3819C17.6537 30.3027 17.8761 30.2632 18.094 30.3987C17.8728 30.3931 17.6516 30.3875 17.4302 30.3819Z" fill="#7F4D29"/>
<path d="M34.6652 36.2797C34.6451 36.3336 34.696 36.3563 34.7154 36.3929C34.6693 36.4036 34.6235 36.4207 34.5766 36.4237C34.5306 36.4268 34.4746 36.4237 34.4674 36.3606C34.4606 36.2993 34.5107 36.2835 34.5578 36.2771C34.5929 36.2725 34.6293 36.2784 34.6652 36.2797Z" fill="#1A1A1A"/>
<path d="M18.082 30.3887C18.206 30.3902 18.3297 30.392 18.4534 30.3935C18.3282 30.489 18.2045 30.4816 18.082 30.3887Z" fill="#7F4D29"/>
<path d="M22.8237 30.9424C22.9256 30.9437 23.0274 30.9449 23.1292 30.9462C23.0261 31.0399 22.9243 31.0401 22.8237 30.9424Z" fill="#1A1A1A"/>
<path d="M33.6447 33.2279C33.6709 33.2345 33.6971 33.2411 33.7231 33.2477C33.6719 33.3432 33.5887 33.3149 33.5098 33.3035C33.5317 33.2373 33.5785 33.2156 33.6447 33.2279Z" fill="#7F4D29"/>
<path d="M33.5222 33.2949C33.5155 33.309 33.5074 33.3358 33.5028 33.3351C33.4686 33.3302 33.4757 33.3143 33.5222 33.2949Z" fill="#7F4D29"/>
<path d="M32.0594 26.1977C31.9848 26.2482 31.9762 26.325 31.994 26.4004C32.0113 26.4732 32.0418 26.5444 32.0767 26.6111C32.1266 26.7069 32.1449 26.7987 32.0935 26.9001C32.0484 26.9891 32.0675 27.0724 32.1332 27.1452C32.278 27.3056 32.3979 27.4794 32.4723 27.6859C32.4962 27.7525 32.5596 27.8108 32.6169 27.8584C32.795 28.0063 32.902 28.212 33.0547 28.3803C33.0796 28.4078 33.1125 28.4449 33.1112 28.4765C33.1028 28.6911 33.2665 28.7708 33.4027 28.8833C33.7544 29.1745 34.1225 29.4367 34.5443 29.6166C34.6141 29.6464 34.6813 29.6859 34.7538 29.7042C35.028 29.7727 35.2756 29.8954 35.4991 30.0651C35.6351 30.1685 35.7924 30.2072 35.9528 30.2415C36.0141 30.2548 36.0793 30.2525 36.1398 30.268C36.3891 30.3314 36.3959 30.3431 36.4104 30.6343C36.0933 30.5905 35.8028 30.462 35.5081 30.348C34.9498 30.1323 34.4237 29.8478 33.9204 29.5301C33.3739 29.1852 32.8691 28.7786 32.4837 28.2489C32.3503 28.0656 32.2299 27.8691 32.1299 27.6655C31.8899 27.1768 31.6526 26.6862 31.5612 26.1402C31.5343 25.9786 31.4793 25.8215 31.437 25.6627C31.4485 25.6398 31.4599 25.6169 31.4714 25.594C31.5928 25.5769 31.6911 25.6115 31.7511 25.7243C31.8008 25.8174 31.8886 25.8154 31.9746 25.8195C32.0031 25.9455 32.0311 26.0717 32.0594 26.1977Z" fill="#070707"/>
<path d="M44.3569 17.1396C44.3806 17.1458 44.4088 17.1455 44.4274 17.1585C44.8533 17.4553 45.2532 17.7821 45.5981 18.1726C45.6062 18.1818 45.6146 18.194 45.6159 18.2057C45.6185 18.2291 45.6241 18.2576 45.6139 18.2762C45.5907 18.319 45.5467 18.3126 45.5156 18.2915C45.3387 18.1706 45.1587 18.0532 44.9907 17.9209C44.8512 17.8109 44.7115 17.7068 44.5519 17.6264C44.375 17.5373 44.332 17.3611 44.3052 17.1832C44.3037 17.1712 44.3388 17.1542 44.3569 17.1396Z" fill="#070707"/>
<path d="M32.8274 18.9588C32.7874 19.2762 32.7289 19.5959 32.3628 19.7357C32.3282 19.7489 32.2911 19.756 32.2547 19.7632C32.2083 19.7721 32.15 19.7107 32.1643 19.6682C32.1765 19.6326 32.1882 19.5951 32.2086 19.5643C32.3608 19.334 32.5156 19.1051 32.6691 18.8755C32.6907 18.8432 32.7169 18.8162 32.7582 18.8249C32.8238 18.8384 32.8152 18.8969 32.8274 18.9588Z" fill="#070707"/>
<path d="M32.9317 18.6999C32.9205 18.6956 32.9025 18.6941 32.8994 18.6862C32.8913 18.6661 32.8788 18.6371 32.8869 18.6223C33.0641 18.3079 33.3393 18.0816 33.5959 17.8385C33.6045 17.8304 33.619 17.8235 33.6305 17.8243C33.6539 17.8255 33.6827 17.8253 33.6989 17.8385C33.716 17.8523 33.7262 17.8803 33.7292 17.9034C33.7323 17.9271 33.7292 17.9559 33.7183 17.9765C33.5526 18.2855 33.3115 18.5202 33.0058 18.6892C32.9852 18.7004 32.9567 18.6966 32.9317 18.6999Z" fill="#070707"/>
<path d="M45.7826 18.4355C45.8244 18.4501 45.8702 18.4516 45.8906 18.4753C46.0303 18.6382 46.1657 18.8044 46.2996 18.9724C46.3246 19.0037 46.321 19.0503 46.2826 19.0701C46.252 19.0859 46.2014 19.0997 46.1774 19.0852C45.9664 18.9569 45.7951 18.7922 45.7391 18.5399C45.7327 18.5119 45.7648 18.4758 45.7826 18.4355Z" fill="#070707"/>
<path d="M31.4687 25.5852C31.4572 25.6081 31.4458 25.631 31.4343 25.6539C31.387 25.6476 31.3399 25.6412 31.2928 25.6348C31.2895 25.6096 31.278 25.5824 31.2839 25.5597C31.3121 25.4487 31.2243 25.2988 31.3905 25.2334C31.4951 25.3205 31.4213 25.4467 31.4595 25.5483C31.4641 25.56 31.4656 25.573 31.4687 25.5852Z" fill="#7F4D29"/>
<path d="M32.1093 20.0157C32.0882 20.1091 32.0635 20.2021 31.9711 20.2537C31.9612 20.2593 31.9207 20.2385 31.9189 20.2262C31.9042 20.1206 31.9589 20.0412 32.0279 19.9699C32.0342 19.9633 32.0554 19.9618 32.0627 19.9671C32.0798 19.9796 32.093 19.9979 32.1093 20.0157Z" fill="#070707"/>
<path d="M25.0413 18.8633C24.8593 19.21 24.6981 19.5686 24.454 19.88C24.4062 19.941 24.3608 19.9965 24.2758 20.0065C24.1063 20.0263 23.9823 19.9334 23.9729 19.7496C23.9607 19.5098 23.9579 19.2685 23.9683 19.0285C23.9744 18.8859 23.9149 18.7895 23.8174 18.7029C23.8515 18.6629 23.8912 18.6327 23.9475 18.6411C24.2702 18.6897 24.593 18.7396 24.916 18.7877C24.9695 18.7956 25.0089 18.822 25.0413 18.8633Z" fill="#1A1A1A"/>
<path d="M26.4855 19.2438C26.3203 19.4495 26.1569 19.6567 25.9886 19.8598C25.9326 19.9272 25.8697 19.9922 25.7995 20.0441C25.6643 20.1439 25.4808 20.0904 25.4288 19.9344C25.3812 19.7913 25.3471 19.6452 25.3464 19.4904C25.3454 19.2893 25.3632 19.0862 25.312 18.8879C25.3762 18.879 25.4383 18.8793 25.4765 18.9439C25.4889 18.9653 25.4922 18.9918 25.5027 19.0144C25.6633 19.3606 25.812 19.4141 26.1462 19.2478C26.1907 19.2257 26.2337 19.1952 26.2808 19.185C26.3559 19.1687 26.432 19.1735 26.4855 19.2438Z" fill="#1A1A1A"/>
<path d="M23.6646 18.7128C23.5778 18.8824 23.4949 19.0539 23.4027 19.2204C23.3416 19.3311 23.2762 19.4419 23.1973 19.5401C23.044 19.7308 22.8547 19.7206 22.736 19.516C22.6604 19.3854 22.581 19.251 22.5993 19.0881C23.0334 19.2102 23.1051 19.1838 23.3836 18.8157C23.4279 18.7571 23.4821 18.7016 23.5432 18.6617C23.5888 18.6319 23.6366 18.6652 23.6646 18.7128Z" fill="#1A1A1A"/>
<path d="M21.0566 17.7538C21.1384 17.71 21.2196 17.709 21.328 17.7634C21.2206 17.7991 21.1394 17.8149 21.0566 17.7538Z" fill="#7F4D29"/>
<path d="M22.503 18.8071C22.4788 18.7753 22.4548 18.7437 22.4307 18.7119C22.4762 18.7272 22.5004 18.759 22.503 18.8071Z" fill="#1A1A1A"/>
<path d="M47.0372 23.9072C46.9832 23.6432 47.0939 23.395 47.1107 23.1377C47.1583 23.1514 47.2166 23.1576 47.2311 23.2125C47.2953 23.4546 47.2138 23.672 47.1051 23.882C47.0972 23.898 47.0606 23.8993 47.0372 23.9072Z" fill="#1A1A1A"/>
<path d="M54.7483 36.7402C54.9244 36.7609 55.1008 36.7812 55.277 36.8018C56.4365 36.938 57.5924 37.0997 58.7457 37.2799C58.9713 37.315 59.1945 37.3641 59.419 37.4054C59.4641 37.4135 59.487 37.4461 59.4862 37.4815C59.485 37.5377 59.4455 37.5693 59.388 37.5637C59.2869 37.554 59.1859 37.5441 59.0858 37.5276C57.9088 37.3328 56.7312 37.1417 55.543 37.0261C55.2653 36.9991 54.9888 36.9625 54.7119 36.9289C54.6106 36.9166 54.536 36.8586 54.5533 36.8095C54.5805 36.7323 54.647 36.74 54.7096 36.7413C54.7223 36.7415 54.7348 36.7433 54.7475 36.7443C54.748 36.7428 54.748 36.7415 54.7483 36.7402Z" fill="#070707"/>
<path d="M60.309 37.5704C60.475 37.562 60.633 37.603 60.7901 37.6488C60.8293 37.6603 60.8461 37.6944 60.8466 37.7344C60.8471 37.8008 60.8028 37.8189 60.7484 37.8128C60.574 37.7929 60.3963 37.7866 60.2334 37.7087C60.2586 37.6626 60.2838 37.6165 60.309 37.5704Z" fill="#1A1A1A"/>
<path d="M60.3101 37.5666C60.2849 37.6127 60.2597 37.6588 60.2345 37.7049C59.9962 37.6817 59.7585 37.6562 59.5309 37.5763C59.4925 37.5628 59.4838 37.5256 59.4902 37.4854C59.4976 37.4394 59.5365 37.4162 59.5686 37.4231C59.8147 37.476 60.0706 37.4796 60.3101 37.5666Z" fill="#070707"/>
<path d="M22.2916 28.8683C23.2889 28.8894 24.1944 28.7118 25.0802 28.4274C25.7902 28.1996 26.4362 27.842 26.9746 27.3265C27.4004 26.919 27.7133 26.4241 27.8686 25.844C27.9014 25.7216 27.9258 25.5968 27.9615 25.4754C28.0002 25.3438 28.0709 25.2837 28.1684 25.285C28.2942 25.2865 28.4209 25.3802 28.452 25.4998C28.4746 25.5877 28.4645 25.6757 28.4446 25.7638C28.3191 26.317 28.0806 26.8138 27.7408 27.2695C27.3513 27.7921 26.8371 28.1594 26.2789 28.4654C25.5267 28.8775 24.7147 29.1175 23.868 29.258C23.2016 29.3685 22.5327 29.4299 21.8601 29.3907C20.62 29.3184 19.4157 29.0837 18.3287 28.4442C17.6315 28.0342 17.0891 27.4785 16.8386 26.6822C16.7182 26.2999 16.6635 25.916 16.7834 25.5228C16.7943 25.4866 16.7948 25.4469 16.8078 25.4115C16.8531 25.2875 16.9694 25.2112 17.0672 25.2377C17.2304 25.2817 17.3207 25.3914 17.3098 25.5337C17.3077 25.5589 17.3032 25.5841 17.2976 25.6088C17.1405 26.3035 17.366 26.8762 17.8413 27.381C18.3639 27.9362 19.0224 28.2551 19.7313 28.4773C20.1289 28.6021 20.5398 28.6985 20.9516 28.7599C21.4142 28.8296 21.8802 28.907 22.2916 28.8683Z" fill="#1A1A1A"/>
<path d="M24.3348 23.8234C24.1268 23.8292 23.9728 23.6783 23.9746 23.4708C23.9764 23.2481 24.1386 23.0763 24.3486 23.0742C24.5181 23.0727 24.7192 23.2695 24.723 23.4408C24.7276 23.6495 24.5575 23.817 24.3348 23.8234Z" fill="#1A1A1A"/>
<path d="M20.7077 23.2178C20.9161 23.2153 21.0671 23.3652 21.0653 23.5732C21.0635 23.7936 20.9001 23.9654 20.6903 23.9677C20.5213 23.9695 20.3218 23.7758 20.3151 23.6037C20.3078 23.4199 20.5109 23.2204 20.7077 23.2178Z" fill="#1A1A1A"/>
<path d="M24.6772 36.3336C25.7326 36.3234 26.7869 36.3639 27.8385 36.4415C28.5217 36.4919 29.2008 36.597 29.8815 36.6798C29.9306 36.6856 29.9818 36.7024 30.0235 36.7279C30.0508 36.7447 30.0747 36.7852 30.0788 36.8175C30.0877 36.8898 30.0296 36.8944 29.98 36.8875C29.6402 36.8412 29.3011 36.7872 28.9608 36.7449C28.2547 36.6576 27.5452 36.6126 26.8345 36.5731C26.0093 36.5275 25.184 36.509 24.3585 36.5107C23.4566 36.5125 22.556 36.5601 21.6572 36.6426C21.2779 36.6775 20.8969 36.6915 20.5171 36.7208C19.6811 36.7852 18.8444 36.8417 18.0102 36.9231C17.0371 37.0181 16.0632 37.111 15.0951 37.2528C14.6428 37.3189 14.1876 37.365 13.7343 37.4251C13.0669 37.5137 12.4004 37.6084 11.7333 37.6972C11.2173 37.7657 10.7008 37.8324 10.1841 37.8935C9.40234 37.9861 8.6201 38.0767 7.83735 38.161C7.48404 38.1992 7.12894 38.228 6.77409 38.2476C6.02469 38.2888 5.28064 38.3779 4.54474 38.5194C4.09647 38.6057 3.65661 38.7348 3.21267 38.8442C3.07699 38.8776 2.94157 38.9132 2.80488 38.9409C2.74251 38.9537 2.66869 38.9521 2.65775 38.8676C2.64731 38.7864 2.72011 38.7673 2.77891 38.75C2.83949 38.7322 2.9039 38.7269 2.9655 38.7113C3.37202 38.6098 3.7765 38.4998 4.1848 38.4059C4.84154 38.2547 5.5077 38.1638 6.17895 38.105C6.88737 38.0431 7.59808 38.0093 8.30344 37.91C8.68043 37.8568 9.06276 37.8436 9.44077 37.7975C10.2856 37.6944 11.1297 37.5842 11.9736 37.4727C12.641 37.3846 13.3074 37.2894 13.9743 37.1993C14.503 37.128 15.0315 37.0547 15.5609 36.9911C16.0904 36.9274 16.6206 36.8681 17.1516 36.8177C18.2009 36.7185 19.2507 36.623 20.3009 36.5331C20.7439 36.4952 21.1886 36.4805 21.6317 36.4466C22.6454 36.3695 23.6605 36.3287 24.6772 36.3336Z" fill="#1A1A1A"/>
<path d="M39.5774 29.0334C38.5526 29.0021 37.5667 28.8041 36.6416 28.3439C36.2323 28.1402 35.825 27.9353 35.4475 27.6724C35.0716 27.4107 34.7081 27.1365 34.3828 26.8138C34.1842 26.6167 33.9864 26.4192 33.7894 26.2207C33.7357 26.1667 33.6804 26.1125 33.6367 26.0509C33.5501 25.9289 33.5743 25.7902 33.6937 25.6759C33.7802 25.5929 33.8798 25.5899 34.0017 25.6841C34.0915 25.7536 34.1753 25.8337 34.2511 25.9185C35.0324 26.7914 35.9597 27.4682 37.025 27.9468C37.545 28.1804 38.0928 28.3403 38.6635 28.421C38.9537 28.462 39.2414 28.4933 39.5336 28.4869C40.3428 28.4696 41.1138 28.2912 41.8498 27.9526C42.8713 27.4825 43.7187 26.7845 44.4688 25.9597C44.6305 25.7821 44.7672 25.5817 44.9189 25.3946C45.0115 25.2801 45.1571 25.2521 45.2551 25.3226C45.3834 25.4147 45.4308 25.5955 45.3399 25.7192C45.1747 25.9434 45.0092 26.17 44.8219 26.3754C44.2466 27.0067 43.612 27.5723 42.882 28.0206C42.1074 28.4961 41.2844 28.8425 40.3729 28.9675C40.1068 29.0037 39.8447 29.0268 39.5774 29.0334Z" fill="#1A1A1A"/>
<path d="M40.7976 23.6193C40.6444 23.6198 40.495 23.6211 40.3814 23.4877C40.271 23.3581 40.2692 23.1881 40.4015 23.0871C40.7724 22.8048 41.0547 22.972 41.1914 23.3434C41.2263 23.4381 41.1275 23.5827 41.0232 23.6018C40.9493 23.6158 40.873 23.614 40.7976 23.6193Z" fill="#1A1A1A"/>
<path d="M37.3428 23.6777C37.1776 23.6848 37.0266 23.5517 36.979 23.3572C36.9492 23.2353 37.0358 23.0986 37.1768 23.0332C37.3132 22.9701 37.4232 23.036 37.5242 23.1083C37.6291 23.1831 37.7029 23.2888 37.6783 23.4272C37.6533 23.5662 37.5046 23.6708 37.3428 23.6777Z" fill="#1A1A1A"/>
</svg>
