<svg width="80" height="80" viewBox="0 0 80 80" fill="none" xmlns="http://www.w3.org/2000/svg">
<path d="M10.9581 17.2714C14.445 17.2714 17.2717 14.4447 17.2717 10.9578C17.2717 7.4709 14.445 4.64421 10.9581 4.64421C7.47122 4.64421 4.64453 7.4709 4.64453 10.9578C4.64453 14.4447 7.47122 17.2714 10.9581 17.2714Z" fill="#F6E266"/>
<path d="M13.9267 5.38527C14.399 6.27027 14.6676 7.28027 14.6676 8.35355C14.6676 11.8404 11.8409 14.6671 8.35402 14.6671C7.2809 14.6671 6.27074 14.3986 5.38574 13.9262C6.44809 15.9165 8.54465 17.2715 10.9582 17.2715C14.4451 17.2715 17.2718 14.4448 17.2718 10.9579C17.272 8.54417 15.917 6.44761 13.9267 5.38527Z" fill="#F1D333"/>
<path d="M39.9998 10.6422C42.615 10.6422 44.735 8.52219 44.735 5.90703C44.735 3.29188 42.615 1.17188 39.9998 1.17188C37.3846 1.17188 35.2646 3.29188 35.2646 5.90703C35.2646 8.52219 37.3846 10.6422 39.9998 10.6422Z" fill="#F6E266"/>
<path d="M42.2259 1.72765C42.5802 2.3914 42.7817 3.1489 42.7817 3.9539C42.7817 6.56905 40.6617 8.68905 38.0466 8.68905C37.2417 8.68905 36.4841 8.48764 35.8203 8.13343C36.617 9.62593 38.1894 10.6422 39.9997 10.6422C42.6148 10.6422 44.7348 8.52218 44.7348 5.90702C44.7348 4.09671 43.7186 2.52436 42.2259 1.72765Z" fill="#F1D333"/>
<path d="M39.9998 78.8281C42.615 78.8281 44.735 76.7081 44.735 74.093C44.735 71.4778 42.615 69.3578 39.9998 69.3578C37.3846 69.3578 35.2646 71.4778 35.2646 74.093C35.2646 76.7081 37.3846 78.8281 39.9998 78.8281Z" fill="#F6E266"/>
<path d="M42.2259 69.9136C42.5802 70.5773 42.7817 71.3348 42.7817 72.1398C42.7817 74.755 40.6617 76.875 38.0466 76.875C37.2417 76.875 36.4841 76.6736 35.8203 76.3194C36.617 77.812 38.1895 78.8283 39.9997 78.8283C42.6148 78.8283 44.7348 76.7083 44.7348 74.0931C44.7348 72.2826 43.7186 70.7103 42.2259 69.9136Z" fill="#F1D333"/>
<path d="M74.0931 44.7351C76.7082 44.7351 78.8282 42.6151 78.8282 40C78.8282 37.3848 76.7082 35.2648 74.0931 35.2648C71.4779 35.2648 69.3579 37.3848 69.3579 40C69.3579 42.6151 71.4779 44.7351 74.0931 44.7351Z" fill="#F6E266"/>
<path d="M76.3192 35.8206C76.6734 36.4844 76.875 37.2419 76.875 38.0469C76.875 40.662 74.755 42.782 72.1398 42.782C71.335 42.782 70.5773 42.5806 69.9136 42.2264C70.7103 43.719 72.2828 44.7353 74.093 44.7353C76.7081 44.7353 78.8281 42.6153 78.8281 40.0001C78.8281 38.1897 77.8119 36.6173 76.3192 35.8206Z" fill="#F1D333"/>
<path d="M5.90703 44.7351C8.52219 44.7351 10.6422 42.6151 10.6422 40C10.6422 37.3848 8.52219 35.2648 5.90703 35.2648C3.29188 35.2648 1.17188 37.3848 1.17188 40C1.17188 42.6151 3.29188 44.7351 5.90703 44.7351Z" fill="#F6E266"/>
<path d="M8.13316 35.8206C8.48738 36.4844 8.68895 37.2419 8.68895 38.0469C8.68895 40.662 6.56895 42.782 3.95379 42.782C3.14895 42.782 2.39129 42.5806 1.72754 42.2264C2.52426 43.719 4.09676 44.7353 5.90691 44.7353C8.52207 44.7353 10.6421 42.6153 10.6421 40.0001C10.6422 38.1897 9.62598 36.6173 8.13316 35.8206Z" fill="#F1D333"/>
<path d="M40.0003 40C44.3588 40 47.8922 36.4667 47.8922 32.1081C47.8922 27.7496 44.3588 24.2163 40.0003 24.2163C35.6417 24.2163 32.1084 27.7496 32.1084 32.1081C32.1084 36.4667 35.6417 40 40.0003 40Z" fill="#F1D0A5"/>
<path d="M43.9254 25.2628C44.5899 26.4192 44.972 27.7586 44.972 29.1881C44.972 33.5467 41.4387 37.08 37.0801 37.08C35.6506 37.08 34.3112 36.698 33.1548 36.0334C34.5165 38.403 37.071 40 40.0001 40C44.3587 40 47.892 36.4667 47.892 32.1081C47.892 29.1791 46.2949 26.6245 43.9254 25.2628Z" fill="#F1B986"/>
<path d="M26.7417 46.3134V53.2583H53.2584V46.3134C53.2584 42.8266 50.4317 40 46.9448 40H33.0551C29.5684 40 26.7417 42.8267 26.7417 46.3134Z" fill="#DD5790"/>
<path d="M46.9449 40H43.1567C46.6436 40 49.4702 42.8267 49.4702 46.3134V53.2583H53.2583V46.3134C53.2585 42.8267 50.4317 40 46.9449 40Z" fill="#DA387D"/>
<path d="M69.0421 17.2714C72.529 17.2714 75.3557 14.4447 75.3557 10.9578C75.3557 7.4709 72.529 4.64421 69.0421 4.64421C65.5552 4.64421 62.7285 7.4709 62.7285 10.9578C62.7285 14.4447 65.5552 17.2714 69.0421 17.2714Z" fill="#F6E266"/>
<path d="M72.0105 5.38527C72.4828 6.27027 72.7514 7.28027 72.7514 8.35355C72.7514 11.8404 69.9247 14.6671 66.438 14.6671C65.3649 14.6671 64.3547 14.3986 63.4697 13.9262C64.5321 15.9165 66.6286 17.2715 69.0422 17.2715C72.5291 17.2715 75.3558 14.4448 75.3558 10.9579C75.3557 8.54417 74.0008 6.44761 72.0105 5.38527Z" fill="#F1D333"/>
<path d="M69.0421 75.3558C72.529 75.3558 75.3557 72.5291 75.3557 69.0422C75.3557 65.5553 72.529 62.7286 69.0421 62.7286C65.5552 62.7286 62.7285 65.5553 62.7285 69.0422C62.7285 72.5291 65.5552 75.3558 69.0421 75.3558Z" fill="#F6E266"/>
<path d="M72.0105 63.4695C72.4828 64.3545 72.7514 65.3645 72.7514 66.4378C72.7514 69.9247 69.9247 72.7513 66.438 72.7513C65.3649 72.7513 64.3547 72.4827 63.4697 72.0103C64.5321 74.0006 66.6286 75.3556 69.0422 75.3556C72.5291 75.3556 75.3558 72.5289 75.3558 69.042C75.3557 66.6284 74.0008 64.532 72.0105 63.4695Z" fill="#F1D333"/>
<path d="M10.9581 75.3558C14.445 75.3558 17.2717 72.5291 17.2717 69.0422C17.2717 65.5553 14.445 62.7286 10.9581 62.7286C7.47122 62.7286 4.64453 65.5553 4.64453 69.0422C4.64453 72.5291 7.47122 75.3558 10.9581 75.3558Z" fill="#F6E266"/>
<path d="M13.9267 63.4695C14.399 64.3545 14.6676 65.3645 14.6676 66.4378C14.6676 69.9247 11.8409 72.7513 8.35402 72.7513C7.2809 72.7513 6.27074 72.4827 5.38574 72.0103C6.44809 74.0006 8.54465 75.3556 10.9582 75.3556C14.4451 75.3556 17.2718 72.5289 17.2718 69.042C17.272 66.6284 15.917 64.532 13.9267 63.4695Z" fill="#F1D333"/>
<path d="M64.8192 41.1719H68.3033C68.8484 43.8695 71.2372 45.907 74.0931 45.907C77.3502 45.907 80 43.2572 80 40C80 36.7428 77.3502 34.093 74.093 34.093C71.237 34.093 68.8483 36.1305 68.3031 38.8281H64.8191C64.5405 32.8589 62.1467 27.4333 58.3706 23.2866L64.6462 17.0111C65.8816 17.9106 67.4005 18.4433 69.0422 18.4433C73.1697 18.4433 76.5275 15.0853 76.5275 10.9578C76.5275 6.83031 73.1697 3.4725 69.0422 3.4725C64.9147 3.4725 61.5569 6.83047 61.5569 10.9578C61.5569 12.5995 62.0894 14.1184 62.9891 15.3538L56.7134 21.6292C52.5667 17.8533 47.1411 15.4594 41.1719 15.1809V11.6969C43.8695 11.1517 45.907 8.76297 45.907 5.90703C45.907 2.64984 43.2572 0 40 0C36.7428 0 34.093 2.64984 34.093 5.90703C34.093 8.76297 36.1305 11.1517 38.8281 11.6969V15.1808C32.8589 15.4594 27.4333 17.8531 23.2866 21.6291L17.0114 15.3541C17.9111 14.1186 18.4438 12.5995 18.4438 10.9578C18.4438 8.46531 17.2092 6.14422 15.1414 4.74891C14.6045 4.38703 13.8762 4.52828 13.5145 5.06484C13.1525 5.60141 13.2939 6.32969 13.8303 6.69172C15.2516 7.65062 16.0998 9.24547 16.0998 10.9578C16.0998 13.7931 13.793 16.1 10.9577 16.1C8.12234 16.1 5.81563 13.7931 5.81563 10.9578C5.81563 8.66812 7.35234 6.63297 9.55266 6.00875C10.1753 5.83203 10.5369 5.18406 10.3602 4.56141C10.1834 3.93875 9.53516 3.57766 8.91297 3.75391C5.70922 4.66297 3.47187 7.62531 3.47187 10.9578C3.47187 15.0856 6.83 18.4438 10.9578 18.4438C12.5997 18.4438 14.1187 17.9111 15.3541 17.0114L21.6292 23.2864C17.8531 27.4331 15.4594 32.8587 15.1808 38.828H11.6969C11.1517 36.1303 8.76297 34.0928 5.90703 34.0928C2.64984 34.093 0 36.7428 0 40C0 43.2572 2.64984 45.907 5.90703 45.907C8.76297 45.907 11.1517 43.8695 11.6969 41.1719H15.1809C15.4595 47.1411 17.8533 52.5667 21.6294 56.7134L15.3538 62.9889C14.1184 62.0894 12.5995 61.5567 10.9578 61.5567C6.83031 61.5567 3.4725 64.9147 3.4725 69.0422C3.4725 73.1697 6.83031 76.5275 10.9578 76.5275C15.0853 76.5275 18.4431 73.1695 18.4431 69.0422C18.4431 67.4005 17.9106 65.8816 17.0109 64.6462L23.2866 58.3708C27.4333 62.1467 32.8589 64.5406 38.8281 64.8191V68.303C36.1305 68.8481 34.093 71.2369 34.093 74.0928C34.093 77.3502 36.7428 80 40 80C43.2572 80 45.907 77.3502 45.907 74.093C45.907 71.237 43.8695 68.8483 41.1719 68.3031V64.8192C47.1411 64.5406 52.5667 62.1469 56.7134 58.3709L62.9886 64.6459C62.0889 65.8814 61.5562 67.4005 61.5562 69.0422C61.5562 73.1698 64.9144 76.5281 69.0422 76.5281C73.17 76.5281 76.5281 73.17 76.5281 69.0422C76.5281 68.2319 76.3991 67.4339 76.1445 66.67C75.9397 66.0561 75.2758 65.7242 74.6623 65.9287C74.0483 66.1334 73.7164 66.797 73.9211 67.4111C74.0958 67.9353 74.1845 68.4842 74.1845 69.042C74.1845 71.8773 71.8777 74.1842 69.0423 74.1842C66.207 74.1842 63.9002 71.8775 63.9002 69.042C63.9002 66.2066 66.207 63.8998 69.0423 63.8998C69.6913 63.8998 70.3241 64.0192 70.9231 64.2547C71.5248 64.4914 72.2056 64.195 72.4425 63.5927C72.6792 62.9903 72.3828 62.3102 71.7805 62.0733C70.9072 61.7302 69.9861 61.5561 69.0425 61.5561C67.4006 61.5561 65.8816 62.0888 64.6462 62.9884L58.3711 56.7134C62.1467 52.5667 64.5406 47.1411 64.8192 41.1719ZM74.093 36.4367C76.0578 36.4367 77.6562 38.0352 77.6562 40C77.6562 41.9648 76.0578 43.5633 74.093 43.5633C72.1281 43.5633 70.5297 41.9648 70.5297 40C70.5297 38.0352 72.1283 36.4367 74.093 36.4367ZM69.0422 5.81625C71.8773 5.81625 74.1837 8.12281 74.1837 10.9578C74.1837 13.793 71.8772 16.0995 69.0422 16.0995C66.2072 16.0995 63.9006 13.793 63.9006 10.9578C63.9006 8.12266 66.2072 5.81625 69.0422 5.81625ZM36.4367 5.90703C36.4367 3.94219 38.0353 2.34375 40 2.34375C41.9647 2.34375 43.5633 3.94219 43.5633 5.90703C43.5633 7.87187 41.9647 9.47031 40 9.47031C38.0353 9.47031 36.4367 7.87172 36.4367 5.90703ZM5.90703 43.5633C3.94219 43.5633 2.34375 41.9648 2.34375 40C2.34375 38.0352 3.94219 36.4367 5.90703 36.4367C7.87187 36.4367 9.47016 38.0352 9.47016 40C9.47016 41.9648 7.87172 43.5633 5.90703 43.5633ZM40 17.4963C52.4086 17.4963 62.5037 27.5914 62.5037 40C62.5037 52.4086 52.4086 62.5037 40 62.5037C27.5914 62.5037 17.4963 52.4087 17.4963 40C17.4963 27.5912 27.5914 17.4963 40 17.4963ZM10.9578 74.1837C8.12266 74.1837 5.81625 71.8772 5.81625 69.0422C5.81625 66.207 8.12281 63.9005 10.9578 63.9005C13.7928 63.9005 16.0994 66.207 16.0994 69.0422C16.0994 71.8773 13.7928 74.1837 10.9578 74.1837ZM43.5633 74.093C43.5633 76.0578 41.9647 77.6562 40 77.6562C38.0353 77.6562 36.4367 76.0578 36.4367 74.093C36.4367 72.1281 38.0353 70.5297 40 70.5297C41.9647 70.5297 43.5633 72.1283 43.5633 74.093Z" fill="black"/>
<path d="M26.7419 54.4297H33.3598C33.3634 54.4297 33.3669 54.4302 33.3705 54.4302C33.3741 54.4302 33.3775 54.4297 33.3811 54.4297H37.2653C37.9127 54.4297 38.4372 53.905 38.4372 53.2578C38.4372 52.6106 37.9127 52.0859 37.2653 52.0859H34.5423V50.1016C34.5423 49.4544 34.0178 48.9297 33.3705 48.9297C32.7231 48.9297 32.1986 49.4544 32.1986 50.1016V52.0859H27.9138V46.3141C27.9138 43.4788 30.2198 41.1719 33.0542 41.1719H46.9449C49.7794 41.1719 52.0853 43.4788 52.0853 46.3141V52.0859H47.8005V50.1016C47.8005 49.4544 47.2759 48.9297 46.6286 48.9297C45.9813 48.9297 45.4567 49.4544 45.4567 50.1016V52.0859H42.7341C42.0867 52.0859 41.5622 52.6106 41.5622 53.2578C41.5622 53.905 42.0867 54.4297 42.7341 54.4297H46.6183C46.6219 54.4297 46.6253 54.4302 46.6289 54.4302C46.6325 54.4302 46.6359 54.4297 46.6395 54.4297H53.2575C53.9049 54.4297 54.4294 53.905 54.4294 53.2578V46.3141C54.4294 42.1863 51.072 38.8281 46.9452 38.8281H46.0752C47.9092 37.1684 49.0636 34.7706 49.0636 32.1081C49.0636 27.1103 44.9977 23.0444 39.9999 23.0444C35.002 23.0444 30.9361 27.1103 30.9361 32.1081C30.9361 34.7706 32.0905 37.1684 33.9245 38.8281H33.0545C28.9277 38.8281 25.5703 42.1863 25.5703 46.3141V53.2578C25.57 53.905 26.0947 54.4297 26.7419 54.4297ZM33.2797 32.1081C33.2797 28.4028 36.2942 25.3881 39.9997 25.3881C43.7052 25.3881 46.7197 28.4027 46.7197 32.1081C46.7197 35.8136 43.7052 38.8281 39.9997 38.8281C36.2942 38.8281 33.2797 35.8136 33.2797 32.1081Z" fill="black"/>
</svg>
