<svg width="578" height="329" viewBox="0 0 578 329" fill="none" xmlns="http://www.w3.org/2000/svg">
<path d="M141.929 137.54H47.1094V316.79H141.929V137.54Z" fill="#E0E0E0"/>
<path d="M113.791 137.54H18.9707V316.79H113.791V137.54Z" fill="#F5F5F5"/>
<path d="M106.81 174.44H25.4199V146.03H106.81V174.44ZM26.4199 173.44H105.81V147.03H26.4199V173.44Z" fill="#E0E0E0"/>
<path d="M77.1607 152.19H56.1707C53.4407 152.19 51.2207 149.97 51.2207 147.24V146.53H82.1107V147.24C82.1107 149.97 79.8907 152.19 77.1607 152.19Z" fill="#EBEBEB"/>
<path d="M106.81 210.53H25.4199V182.12H106.81V210.53ZM26.4199 209.53H105.81V183.12H26.4199V209.53Z" fill="#E0E0E0"/>
<path d="M77.1607 188.28H56.1707C53.4407 188.28 51.2207 186.06 51.2207 183.33V182.62H82.1107V183.33C82.1107 186.06 79.8907 188.28 77.1607 188.28Z" fill="#EBEBEB"/>
<path d="M106.81 246.62H25.4199V218.21H106.81V246.62ZM26.4199 245.62H105.81V219.21H26.4199V245.62Z" fill="#E0E0E0"/>
<path d="M77.1607 224.37H56.1707C53.4407 224.37 51.2207 222.15 51.2207 219.42V218.71H82.1107V219.42C82.1107 222.15 79.8907 224.37 77.1607 224.37Z" fill="#EBEBEB"/>
<path d="M106.81 282.71H25.4199V254.3H106.81V282.71ZM26.4199 281.71H105.81V255.3H26.4199V281.71Z" fill="#E0E0E0"/>
<path d="M77.1607 260.46H56.1707C53.4407 260.46 51.2207 258.24 51.2207 255.51V254.8H82.1107V255.51C82.1107 258.25 79.8907 260.46 77.1607 260.46Z" fill="#EBEBEB"/>
<path d="M117.76 130.83H14.7598V139.76H117.76V130.83Z" fill="#EBEBEB"/>
<path d="M148.72 130.83H117.75V139.76H148.72V130.83Z" fill="#E0E0E0"/>
<path d="M23.9507 316.79H18.9707V325.95H23.9507V316.79Z" fill="#E0E0E0"/>
<path d="M54.73 316.79H49.75V325.95H54.73V316.79Z" fill="#E0E0E0"/>
<path d="M110.97 316.79H105.99V325.95H110.97V316.79Z" fill="#E0E0E0"/>
<path d="M139.089 316.79H134.109V325.95H139.089V316.79Z" fill="#E0E0E0"/>
<path d="M533.79 105.99C529.03 106.09 526.16 111.52 525.92 116.27C525.68 121.02 526.97 125.88 525.8 130.49C524.32 136.35 519.13 140.75 517.78 146.64C516.19 153.58 520.29 160.51 520.82 167.61C521.08 171.07 520.48 174.6 521.29 177.97C522.65 183.65 528.35 187.97 534.19 187.75C540.03 187.52 545.37 182.77 546.29 177C547.14 171.62 544.52 166.07 545.67 160.75C546.52 156.81 549.38 153.37 549.43 149.34C549.49 144.55 545.59 140.6 544.67 135.89C543.75 131.19 545.92 126.44 546.04 121.65C546.25 113.04 542.37 106.49 533.79 105.99Z" fill="#EBEBEB"/>
<path d="M536.141 128.44C536.161 128.44 536.151 128.7 536.121 129.2C536.091 129.74 536.041 130.47 535.981 131.38C535.841 133.32 535.641 136.04 535.391 139.4C534.881 146.17 534.191 155.52 533.491 165.86C532.791 176.2 532.221 185.56 531.811 192.33C531.601 195.69 531.431 198.42 531.321 200.36C531.261 201.28 531.211 202 531.171 202.54C531.131 203.04 531.101 203.3 531.091 203.3C531.071 203.3 531.071 203.04 531.081 202.54C531.101 202 531.121 201.27 531.151 200.36C531.231 198.42 531.351 195.69 531.501 192.33C531.831 185.55 532.351 176.18 533.051 165.84C533.751 155.5 534.491 146.15 535.081 139.39C535.391 136.04 535.641 133.32 535.811 131.38C535.911 130.47 535.981 129.74 536.041 129.21C536.091 128.7 536.131 128.44 536.141 128.44Z" fill="#E0E0E0"/>
<path d="M532.801 220.98C541.181 220.98 547.971 214.19 547.971 205.81V190.64H517.631V205.81C517.631 214.19 524.421 220.98 532.801 220.98Z" fill="#E0E0E0"/>
<path d="M517.631 198.1C517.641 198.08 517.821 198.2 518.131 198.43C518.501 198.72 518.941 199.06 519.461 199.46C520.671 200.44 522.261 201.73 524.151 203.26L523.901 203.24C526.431 201.69 529.431 199.85 532.651 197.88L532.671 197.87L532.811 197.78L532.951 197.87C535.931 199.84 538.721 201.67 541.091 203.24L540.841 203.25C542.911 201.72 544.661 200.43 545.981 199.45C546.561 199.04 547.041 198.7 547.441 198.42C547.781 198.19 547.971 198.07 547.981 198.09C547.991 198.11 547.831 198.26 547.521 198.53C547.141 198.84 546.681 199.21 546.141 199.66C544.851 200.67 543.141 202.02 541.111 203.6L540.991 203.7L540.861 203.61C538.481 202.07 535.681 200.25 532.681 198.31H532.961L532.941 198.32C529.701 200.27 526.691 202.08 524.151 203.61L524.011 203.69L523.891 203.59C522.051 202 520.491 200.66 519.321 199.65C518.831 199.21 518.411 198.83 518.071 198.52C517.761 198.27 517.611 198.12 517.631 198.1Z" fill="white"/>
<path d="M517.631 195.07C517.641 195.05 517.821 195.17 518.131 195.4C518.501 195.69 518.941 196.03 519.461 196.43C520.671 197.41 522.261 198.7 524.151 200.23L523.901 200.21C526.431 198.66 529.431 196.82 532.651 194.85L532.671 194.84L532.811 194.75L532.951 194.84C535.931 196.81 538.721 198.64 541.091 200.21L540.841 200.22C542.911 198.69 544.661 197.4 545.981 196.42C546.561 196.01 547.041 195.67 547.441 195.39C547.781 195.16 547.971 195.04 547.981 195.06C547.991 195.08 547.831 195.23 547.521 195.5C547.141 195.81 546.681 196.18 546.141 196.63C544.851 197.64 543.141 198.99 541.111 200.57L540.991 200.67L540.861 200.58C538.481 199.04 535.681 197.22 532.681 195.28H532.961L532.941 195.29C529.701 197.24 526.691 199.05 524.151 200.58L524.011 200.66L523.891 200.56C522.051 198.97 520.491 197.63 519.321 196.62C518.831 196.18 518.411 195.8 518.071 195.49C517.761 195.24 517.611 195.09 517.631 195.07Z" fill="white"/>
<path d="M517.631 201.19C517.641 201.17 517.821 201.29 518.131 201.52C518.501 201.81 518.941 202.15 519.461 202.55C520.671 203.53 522.261 204.82 524.151 206.35L523.901 206.33C526.431 204.78 529.431 202.94 532.651 200.97L532.671 200.96L532.811 200.87L532.951 200.96C535.931 202.93 538.721 204.76 541.091 206.33L540.841 206.34C542.911 204.81 544.661 203.52 545.981 202.54C546.561 202.13 547.041 201.79 547.441 201.51C547.781 201.28 547.971 201.16 547.981 201.18C547.991 201.2 547.831 201.35 547.521 201.62C547.141 201.93 546.681 202.3 546.141 202.75C544.851 203.76 543.141 205.11 541.111 206.69L540.991 206.79L540.861 206.7C538.481 205.16 535.681 203.34 532.681 201.4H532.961L532.941 201.41C529.701 203.36 526.691 205.17 524.151 206.7L524.011 206.78L523.891 206.68C522.051 205.09 520.491 203.75 519.321 202.74C518.831 202.3 518.411 201.93 518.071 201.61C517.761 201.36 517.611 201.21 517.631 201.19Z" fill="white"/>
<path d="M554.35 297.61L564.03 325.38H559.19L542.24 297.61H554.35Z" fill="#EBEBEB"/>
<path d="M498.78 297.61L489.09 325.38H493.94L510.89 297.61H498.78Z" fill="#EBEBEB"/>
<path d="M475.741 298.303H553.131V220.913H475.741V298.303Z" fill="#EBEBEB"/>
<path d="M499.993 298.303H577.383V220.913H499.993V298.303Z" fill="#F5F5F5"/>
<path d="M572.27 293.53H505.1V226.36H572.27V293.53ZM506.1 292.53H571.27V227.36H506.1V292.53Z" fill="#E0E0E0"/>
<path d="M571.379 247.22C549.539 246.58 527.449 246.75 505.599 247.19C505.259 247.2 505.259 247.71 505.599 247.71C527.449 248.15 549.529 248.32 571.379 247.68C571.689 247.68 571.689 247.23 571.379 247.22Z" fill="#E0E0E0"/>
<path d="M536.799 237.72C536.799 238.76 537.639 239.6 538.679 239.6C539.719 239.6 540.559 238.76 540.559 237.72C540.559 236.68 539.719 235.84 538.679 235.84C537.649 235.84 536.799 236.68 536.799 237.72Z" fill="#EBEBEB"/>
<path d="M563.939 267.95C563.939 268.99 564.779 269.83 565.819 269.83C566.859 269.83 567.699 268.99 567.699 267.95C567.699 266.91 566.859 266.07 565.819 266.07C564.779 266.06 563.939 266.91 563.939 267.95Z" fill="#EBEBEB"/>
<path d="M75.9586 106.77L85.5586 131.33L79.5886 131.3L74.8086 116.21L75.9586 106.77Z" fill="#E0E0E0"/>
<path d="M43.1789 84.0801L39.8789 131.13L73.9489 131.84L77.7789 84.0801H43.1789Z" fill="#EBEBEB"/>
<path d="M46.5896 87.8701L43.8496 127.03L69.1696 128.22L72.7096 87.6401L46.5896 87.8701Z" fill="#FAFAFA"/>
<path d="M52.1498 93.4102L50.0898 120.94H64.0598L66.5298 93.4102H52.1498Z" fill="#E0E0E0"/>
<path d="M570.44 325.94C570.44 326.08 442.73 326.2 285.23 326.2C127.68 326.2 0 326.08 0 325.94C0 325.8 127.68 325.68 285.23 325.68C442.73 325.68 570.44 325.8 570.44 325.94Z" fill="#263238"/>
<path d="M502.921 197.32L356.351 186.64C352.201 186.34 349.071 182.72 349.381 178.57L355.941 88.52C356.241 84.37 359.861 81.24 364.011 81.55L510.581 92.23C514.731 92.53 517.861 96.15 517.551 100.3L510.991 190.35C510.681 194.5 507.071 197.62 502.921 197.32Z" fill="#FFB459"/>
<path d="M492.5 115.48C492.05 121.64 486.69 126.27 480.53 125.82C474.37 125.37 469.74 120.01 470.19 113.85C470.64 107.69 476 103.06 482.16 103.51C488.32 103.97 492.95 109.32 492.5 115.48Z" fill="white"/>
<path d="M494.801 127.34C494.521 127.34 494.231 127.33 493.941 127.31C487.511 126.84 482.671 121.23 483.141 114.81C483.611 108.39 489.211 103.54 495.641 104.01C502.071 104.48 506.911 110.09 506.451 116.51C506.001 122.64 500.861 127.34 494.801 127.34ZM494.781 104.97C489.241 104.97 484.541 109.27 484.131 114.88C483.701 120.76 488.131 125.88 494.011 126.31C499.881 126.75 505.011 122.31 505.441 116.43C505.871 110.56 501.441 105.43 495.561 105C495.301 104.98 495.041 104.97 494.781 104.97Z" fill="white"/>
<path d="M365.951 149.27L365.301 158.24L364.381 158.17L364.971 150.02L362.861 149.87L362.921 149.05L365.951 149.27Z" fill="white"/>
<path d="M374.58 158.09L374.52 158.91L368.23 158.45L368.28 157.8L372.28 154.42C373.36 153.5 373.6 152.91 373.65 152.29C373.73 151.25 373.04 150.56 371.67 150.46C370.62 150.38 369.79 150.64 369.15 151.28L368.54 150.67C369.29 149.9 370.44 149.52 371.81 149.62C373.63 149.75 374.72 150.76 374.61 152.26C374.55 153.12 374.22 153.87 372.93 154.96L369.66 157.74L374.58 158.09Z" fill="white"/>
<path d="M384.131 157.24L382.341 157.11L382.171 159.47L381.251 159.4L381.421 157.04L376.361 156.67L376.411 156L381.601 150.4L382.621 150.48L377.611 155.94L381.511 156.22L381.661 154.14L382.561 154.21L382.411 156.29L384.211 156.42L384.131 157.24Z" fill="white"/>
<path d="M397.881 158.24L396.091 158.11L395.921 160.47L395.001 160.4L395.171 158.04L390.111 157.67L390.161 157L395.351 151.4L396.381 151.47L391.371 156.93L395.271 157.21L395.421 155.13L396.321 155.2L396.171 157.28L397.961 157.41L397.881 158.24Z" fill="white"/>
<path d="M405.742 158.53C405.632 160.06 404.482 161.17 402.292 161.01C401.002 160.92 399.802 160.38 399.162 159.62L399.662 158.92C400.192 159.56 401.192 160.07 402.342 160.16C403.872 160.27 404.732 159.59 404.812 158.5C404.892 157.35 404.232 156.58 401.952 156.41L400.042 156.27L400.832 151.81L405.742 152.17L405.682 152.99L401.582 152.69L401.072 155.53L402.222 155.61C404.912 155.81 405.862 156.94 405.742 158.53Z" fill="white"/>
<path d="M414.622 159.14C414.502 160.82 413.102 161.8 411.362 161.67C408.982 161.5 407.802 159.75 408.012 156.92C408.232 153.87 410.012 152.4 412.452 152.58C413.262 152.64 414.002 152.83 414.542 153.22L414.122 153.94C413.682 153.6 413.072 153.44 412.412 153.39C410.472 153.25 409.142 154.4 408.962 156.84C408.952 157.05 408.942 157.3 408.952 157.57C409.472 156.62 410.562 156.14 411.802 156.23C413.572 156.36 414.732 157.5 414.622 159.14ZM413.702 159.1C413.792 157.92 412.972 157.1 411.592 157C410.222 156.9 409.222 157.68 409.142 158.79C409.072 159.78 409.822 160.77 411.372 160.88C412.672 160.98 413.622 160.29 413.702 159.1Z" fill="white"/>
<path d="M426.881 160.14C426.771 161.64 425.601 162.71 423.431 162.56C422.131 162.47 420.931 161.93 420.281 161.17L420.781 160.47C421.311 161.11 422.321 161.63 423.491 161.71C424.981 161.82 425.851 161.19 425.931 160.07C426.011 158.99 425.301 158.23 423.641 158.11L423.001 158.06L423.051 157.38L425.761 154.45L421.171 154.12L421.231 153.3L427.001 153.72L426.951 154.37L424.181 157.38C426.101 157.62 426.991 158.7 426.881 160.14Z" fill="white"/>
<path d="M435.892 160.69C435.772 162.37 434.372 163.35 432.632 163.22C430.252 163.05 429.072 161.3 429.282 158.47C429.502 155.42 431.282 153.95 433.722 154.13C434.532 154.19 435.272 154.38 435.812 154.77L435.392 155.49C434.952 155.15 434.342 154.99 433.682 154.94C431.742 154.8 430.412 155.95 430.232 158.39C430.222 158.59 430.212 158.85 430.222 159.12C430.742 158.17 431.832 157.69 433.072 157.78C434.842 157.91 436.002 159.05 435.892 160.69ZM434.972 160.65C435.062 159.47 434.242 158.65 432.862 158.55C431.492 158.45 430.492 159.23 430.412 160.34C430.342 161.33 431.092 162.32 432.642 162.43C433.942 162.53 434.892 161.84 434.972 160.65Z" fill="white"/>
<path d="M444.602 155L444.552 155.65L440.192 163.69L439.192 163.62L443.472 155.74L438.862 155.4L438.742 157.08L437.832 157.01L438.012 154.51L444.602 155Z" fill="white"/>
<path d="M457.42 155.94L457.37 156.59L453.01 164.63L452.01 164.56L456.29 156.68L451.68 156.34L451.56 158.02L450.65 157.95L450.83 155.45L457.42 155.94Z" fill="white"/>
<path d="M465.782 163.05C465.662 164.64 464.252 165.53 462.112 165.37C459.962 165.21 458.722 164.13 458.842 162.54C458.922 161.46 459.592 160.75 460.732 160.46C459.852 160.04 459.402 159.32 459.462 158.38C459.572 156.92 460.882 156.1 462.772 156.24C464.672 156.38 465.872 157.38 465.762 158.84C465.692 159.78 465.132 160.42 464.182 160.71C465.282 161.17 465.862 161.99 465.782 163.05ZM464.832 162.97C464.912 161.87 464.012 161.11 462.422 160.99C460.832 160.87 459.852 161.5 459.772 162.6C459.692 163.72 460.572 164.48 462.162 164.59C463.752 164.7 464.752 164.08 464.832 162.97ZM462.482 160.26C463.882 160.36 464.762 159.8 464.832 158.82C464.902 157.81 464.062 157.13 462.722 157.03C461.362 156.93 460.462 157.48 460.392 158.48C460.312 159.47 461.082 160.16 462.482 160.26Z" fill="white"/>
<path d="M474.642 161.62C474.422 164.67 472.642 166.14 470.202 165.96C469.392 165.9 468.652 165.7 468.112 165.32L468.542 164.6C468.982 164.94 469.582 165.1 470.252 165.15C472.182 165.29 473.522 164.14 473.702 161.7C473.722 161.49 473.722 161.24 473.712 160.97C473.192 161.92 472.102 162.4 470.862 162.31C469.082 162.18 467.912 161.04 468.032 159.4C468.152 157.72 469.552 156.74 471.292 156.87C473.672 157.04 474.852 158.79 474.642 161.62ZM473.502 159.75C473.572 158.76 472.822 157.77 471.272 157.66C469.982 157.57 469.022 158.26 468.942 159.45C468.852 160.63 469.672 161.45 471.052 161.55C472.422 161.64 473.422 160.86 473.502 159.75Z" fill="white"/>
<path d="M484.061 157.87L483.411 166.84L482.491 166.77L483.081 158.62L480.971 158.47L481.031 157.65L484.061 157.87Z" fill="white"/>
<path d="M492.692 166.7L492.632 167.52L486.342 167.06L486.392 166.41L490.392 163.03C491.472 162.11 491.712 161.52 491.762 160.9C491.842 159.86 491.152 159.17 489.782 159.07C488.732 158.99 487.902 159.25 487.262 159.89L486.652 159.28C487.402 158.51 488.552 158.13 489.922 158.23C491.742 158.36 492.832 159.37 492.722 160.87C492.662 161.73 492.332 162.48 491.042 163.57L487.772 166.35L492.692 166.7Z" fill="white"/>
<path d="M500.872 165.53C500.762 167.03 499.592 168.1 497.422 167.95C496.132 167.86 494.921 167.32 494.271 166.56L494.771 165.86C495.301 166.5 496.312 167.02 497.482 167.1C498.972 167.21 499.842 166.58 499.922 165.46C500.002 164.38 499.291 163.62 497.631 163.5L496.992 163.45L497.042 162.77L499.752 159.84L495.161 159.5L495.221 158.68L500.992 159.1L500.941 159.75L498.172 162.76C500.082 163.01 500.972 164.09 500.872 165.53Z" fill="white"/>
<path d="M431.272 169.715L430.988 173.615L502.851 178.846L503.135 174.946L431.272 169.715Z" fill="white"/>
<path d="M465.704 180.039L465.42 183.939L502.274 186.622L502.558 182.722L465.704 180.039Z" fill="white"/>
<g opacity="0.5">
<path opacity="0.5" d="M386.191 142.98L365.941 141.5C363.211 141.3 361.151 138.92 361.351 136.19L362.271 123.57C362.471 120.84 364.851 118.78 367.581 118.98L387.831 120.46C390.561 120.66 392.621 123.04 392.421 125.77L391.511 138.39C391.311 141.13 388.931 143.18 386.191 142.98Z" fill="black"/>
</g>
<path d="M361.441 134.91L361.551 133.47L377.071 134.6C378.861 134.73 380.421 133.38 380.561 131.59C380.691 129.8 379.321 128.21 377.551 128.11L362.021 126.98L362.131 125.53L377.651 126.66C380.241 126.85 382.191 129.11 382.001 131.69C381.811 134.28 379.551 136.23 376.961 136.04L361.441 134.91Z" fill="#FFB459"/>
<path d="M381.349 130.907L381.242 132.354L391.893 133.14L392 131.693L381.349 130.907Z" fill="#FFB459"/>
<path d="M445.116 106.013L367.568 100.361L367.083 107.013L444.631 112.666L445.116 106.013Z" fill="white"/>
<path d="M354.982 328.7L243.461 328.18C230.051 328.12 219.221 317.2 219.281 303.78L220.461 24.1903C220.521 10.7703 231.441 -0.0597519 244.871 0.000248108L356.392 0.520252C369.802 0.580252 380.632 11.5002 380.572 24.9202L379.392 304.51C379.332 317.93 368.402 328.77 354.982 328.7Z" fill="#263238"/>
<path d="M356.231 10.1803L334.611 10.0803C331.711 10.0703 329.351 12.5103 329.341 15.5403L329.321 19.4603C329.311 22.4903 326.951 24.9403 324.051 24.9203L281.901 24.7303C279.001 24.7203 276.661 22.2503 276.671 19.2203L276.691 15.3003C276.701 12.2703 274.361 9.8003 271.461 9.7903L263.861 9.75031L244.941 9.66031C235.541 9.62031 227.891 17.2003 227.851 26.6003L226.701 299.5C226.661 308.89 234.241 316.54 243.631 316.59L354.931 317.1C364.331 317.14 371.981 309.56 372.021 300.16L373.171 27.2603C373.201 17.8703 365.621 10.2203 356.231 10.1803Z" fill="#FAFAFA"/>
<path d="M293.242 290.98C293.242 292.07 292.202 292.95 290.942 292.94C289.672 292.93 288.652 292.05 288.652 290.96C288.652 289.87 289.692 288.99 290.952 289C292.222 289 293.252 289.89 293.242 290.98Z" fill="#455A64"/>
<path d="M300.362 291.01C300.362 292.1 299.321 292.98 298.061 292.97C296.791 292.96 295.771 292.08 295.771 290.99C295.771 289.9 296.812 289.02 298.072 289.03C299.342 289.03 300.362 289.92 300.362 291.01Z" fill="#455A64"/>
<path d="M307.471 291.04C307.471 292.13 306.431 293.01 305.171 293C303.901 292.99 302.881 292.11 302.881 291.02C302.881 289.93 303.921 289.05 305.181 289.06C306.451 289.06 307.481 289.95 307.471 291.04Z" fill="#455A64"/>
<path d="M345.441 175.64H254.321C249.481 175.64 245.561 171.72 245.561 166.88V72.3103C245.561 67.4703 249.481 63.5503 254.321 63.5503H345.441C350.281 63.5503 354.201 67.4703 354.201 72.3103V166.88C354.201 171.72 350.281 175.64 345.441 175.64Z" fill="#455A64" stroke="#455A64" stroke-miterlimit="10"/>
<path d="M292.132 194.69H252.082V195.93H292.132V194.69Z" fill="#263238"/>
<path d="M276.392 198.661H252.082V199.901H276.392V198.661Z" fill="#263238"/>
<path d="M338.251 256.66L258.191 256.29C257.361 256.29 256.691 255.38 256.701 254.27L256.791 233.32C256.791 232.21 257.471 231.31 258.301 231.32L338.361 231.69C339.191 231.69 339.861 232.6 339.851 233.71L339.761 254.65C339.751 255.77 339.071 256.66 338.251 256.66Z" fill="#FFB459"/>
<g opacity="0.5">
<g opacity="0.5">
<path opacity="0.5" d="M338.251 256.66L258.191 256.29C257.361 256.29 256.691 255.38 256.701 254.27L256.791 233.32C256.791 232.21 257.471 231.31 258.301 231.32L338.361 231.69C339.191 231.69 339.861 232.6 339.851 233.71L339.761 254.65C339.751 255.77 339.071 256.66 338.251 256.66Z" fill="black"/>
</g>
</g>
<path d="M338.251 249.95L258.191 249.58C257.361 249.58 256.691 248.67 256.701 247.56L256.791 226.61C256.791 225.5 257.471 224.6 258.301 224.61L338.361 224.98C339.191 224.98 339.861 225.89 339.851 227L339.761 247.94C339.751 249.05 339.071 249.95 338.251 249.95Z" fill="#FFB459"/>
<path d="M294.651 235.771C294.641 237.101 293.711 237.911 292.191 237.901L290.581 237.891L290.571 239.871H289.941L289.971 233.601L292.221 233.611C293.731 233.621 294.651 234.431 294.651 235.771ZM294.011 235.771C294.011 234.771 293.381 234.191 292.181 234.191L290.591 234.181L290.581 237.311L292.181 237.321C293.371 237.321 294.011 236.751 294.011 235.771Z" fill="white"/>
<path d="M299.472 238.24L296.132 238.22L295.402 239.89H294.742L297.512 233.63H298.142L300.862 239.91H300.192L299.472 238.24ZM299.242 237.7L297.812 234.32L296.362 237.68L299.242 237.7Z" fill="white"/>
<path d="M303.561 237.771L303.551 239.941H302.921L302.931 237.771L300.551 233.661H301.231L303.271 237.191L305.341 233.681H305.971L303.561 237.771Z" fill="white"/>
<path d="M214.062 29.3799C213.932 29.7299 210.902 57.4899 210.902 57.4899L222.612 55.4299L225.632 32.4999L214.062 29.3799Z" fill="#455A64"/>
<path d="M210.901 57.49L210.021 56.97L212.681 29L214.021 29.38L210.901 57.49Z" fill="#263238"/>
<path d="M219.661 34.1899C219.959 34.1899 220.201 33.9481 220.201 33.6499C220.201 33.3516 219.959 33.1099 219.661 33.1099C219.363 33.1099 219.121 33.3516 219.121 33.6499C219.121 33.9481 219.363 34.1899 219.661 34.1899Z" fill="#263238"/>
<path d="M203.871 72.4601L226.331 78.2901L222.901 50.3901L222.441 49.1201L214.211 47.8501L215.201 41.7801C215.711 38.9401 218.541 37.1301 221.331 37.8701C222.231 38.1101 223.181 38.3601 224.031 38.5901C225.951 39.1001 227.581 40.4001 228.481 42.1701C230.041 45.2301 231.561 48.5701 231.421 48.2901L243.471 80.9601C243.471 80.9601 247.191 87.5701 242.141 94.1301C238.261 99.1701 228.881 95.6601 224.471 94.8101L195.701 88.4701L203.871 72.4601Z" fill="#C67761"/>
<path d="M118.601 120.94C113.541 115.13 113.571 106.47 118.671 100.69L143.231 72.8501L149.801 91.2201C149.351 91.5201 130.681 111.53 130.681 111.53L146.721 131.53C149.191 134.61 149.911 138.74 148.631 142.48L147.911 145.42C146.851 149.71 142.171 152 138.141 150.19L133.631 148.17C133.091 147.93 132.901 147.27 133.221 146.78C133.401 146.51 133.701 146.35 134.021 146.35H140.141C141.421 146.35 142.531 145.48 142.841 144.24L118.601 120.94Z" fill="#C67761"/>
<path d="M127.231 107.96C127.331 107.87 128.271 108.7 129.381 109.79C130.491 110.89 131.211 111.96 131.101 112.05C130.991 112.13 130.121 111.25 129.021 110.16C127.911 109.07 127.121 108.06 127.231 107.96Z" fill="#9B4E3D"/>
<path d="M133.07 312.45C133.07 312.45 158.29 232.35 158.82 229.75C159.3 227.4 149.67 169.76 148.45 154.84L182.53 156.11C182.53 156.11 182.53 156.2 182.53 156.36L197.01 157.16L184.04 320.98H168.36L169.91 266.63C160.24 292.59 146.38 319.05 146.38 319.05L133.07 312.45Z" fill="#C67761"/>
<path d="M169.28 286.11C169.27 285.61 169.47 267.9 169.47 267.9C169.47 267.9 176.39 248.2 176.53 248.7C176.66 249.21 169.28 286.11 169.28 286.11Z" fill="#9B4E3D"/>
<path d="M156.791 31.4002C154.981 28.9002 150.881 29.0702 148.571 31.1202C146.261 33.1702 145.451 36.4502 145.371 39.5402C145.291 42.4102 145.491 45.8302 143.171 47.5202C142.241 48.2002 141.051 48.4402 140.041 49.0002C138.261 49.9802 137.101 51.9802 137.131 54.0102C137.161 55.5402 137.751 57.2902 136.751 58.4502C136.251 59.0302 135.461 59.2702 134.801 59.6702C132.961 60.7802 132.171 63.1402 132.331 65.2902C132.491 67.4402 132.841 68.1702 133.761 70.1102C133.761 70.1102 149.941 69.9502 157.301 70.1102C157.301 70.1202 157.171 44.1802 156.791 31.4002Z" fill="#263238"/>
<path d="M183.03 64.72C182.98 62.9 183.52 55.66 183.52 55.66C183.52 55.66 190.26 54.9999 190.74 48.1499C191.22 41.2999 190.98 25.49 190.98 25.49L178.78 19.21L165.17 29.56L166.52 64.7899L183.03 64.72Z" fill="#C67761"/>
<path d="M189.519 37.0004C189.509 37.4804 189.129 37.8703 188.659 37.8703C188.189 37.8603 187.809 37.4703 187.809 36.9803C187.819 36.5003 188.199 36.1104 188.669 36.1104C189.149 36.1104 189.529 36.5104 189.519 37.0004Z" fill="#263238"/>
<path d="M190.36 36.0502C190.25 36.1602 189.62 35.6002 188.7 35.5402C187.78 35.4702 187.08 35.9302 186.99 35.8002C186.94 35.7402 187.06 35.5402 187.36 35.3302C187.66 35.1202 188.16 34.9302 188.74 34.9702C189.31 35.0102 189.79 35.2702 190.05 35.5202C190.33 35.7802 190.41 36.0002 190.36 36.0502Z" fill="#263238"/>
<path d="M179.62 36.89C179.61 37.37 179.23 37.76 178.76 37.76C178.29 37.75 177.91 37.36 177.91 36.87C177.92 36.39 178.3 36 178.77 36C179.24 36.01 179.62 36.41 179.62 36.89Z" fill="#263238"/>
<path d="M180.16 35.9399C180.05 36.0499 179.42 35.4898 178.5 35.4298C177.58 35.3598 176.88 35.8199 176.79 35.6899C176.74 35.6299 176.86 35.4299 177.16 35.2199C177.46 35.0099 177.96 34.8199 178.54 34.8599C179.11 34.8999 179.59 35.1599 179.85 35.4099C180.12 35.6699 180.21 35.8899 180.16 35.9399Z" fill="#263238"/>
<path d="M183.391 43.96C183.391 43.9 183.961 43.84 184.901 43.77C185.141 43.76 185.361 43.73 185.411 43.56C185.471 43.38 185.391 43.1 185.291 42.8C185.101 42.18 184.891 41.52 184.681 40.84C183.831 38.05 183.231 35.75 183.341 35.72C183.441 35.69 184.221 37.92 185.061 40.72C185.261 41.41 185.461 42.07 185.641 42.69C185.721 42.98 185.861 43.32 185.721 43.69C185.651 43.87 185.471 44 185.321 44.03C185.171 44.07 185.031 44.06 184.921 44.06C183.971 44.05 183.391 44.01 183.391 43.96Z" fill="#263238"/>
<path d="M183.521 55.66C183.521 55.66 179.021 55.66 174.701 52.5C174.701 52.5 176.651 57.55 183.351 57.34L183.521 55.66Z" fill="#9B4E3D"/>
<path d="M155.56 36C155.63 35.51 155.49 36.53 155.59 35.77C155.72 34.71 155.87 33.6 156.03 32.99C159.82 18.73 172.09 16.19 174.52 16.22C177.12 16.25 184.55 16.03 188.68 21.21C194.14 28.05 191.05 34.82 191.05 34.82L180.22 32.89C181.02 30.19 179.92 26.82 179.29 25.25L179.23 25.19C177.17 35.43 166.15 36.38 166.15 36.38L166.01 52.74C157.96 51.59 155.37 41.94 155.56 36Z" fill="#263238"/>
<path d="M162.93 37.3798C162.94 37.3398 163.28 37.3898 163.9 37.4498C164.52 37.5098 165.42 37.5598 166.52 37.4698C167.62 37.3898 168.92 37.1498 170.28 36.6498C171.64 36.1498 173.06 35.3698 174.34 34.2998C175.61 33.2098 176.6 31.9298 177.3 30.6598C178.01 29.3898 178.45 28.1398 178.7 27.0698C179.21 24.9198 179.07 23.5098 179.17 23.5098C179.2 23.5098 179.26 23.8498 179.29 24.4798C179.32 25.1098 179.27 26.0298 179.06 27.1398C178.85 28.2498 178.43 29.5498 177.72 30.8798C177.01 32.2098 176 33.5498 174.68 34.6898C173.35 35.8098 171.87 36.6098 170.45 37.0998C169.03 37.5898 167.68 37.7998 166.55 37.8398C165.42 37.8798 164.5 37.7798 163.88 37.6498C163.26 37.5298 162.93 37.4098 162.93 37.3798Z" fill="#263238"/>
<path d="M166.27 43.9699C166.34 42.9399 166.81 40.4799 166.47 39.5099C166.13 38.5399 165.05 38.3199 163.86 38.3299C162.68 38.3399 161.25 39.4299 161.29 40.8899C161.32 42.0699 161.72 43.2899 162.73 43.8999C163.75 44.5099 165.06 44.5299 166.16 44.0899" fill="#C67761"/>
<path d="M164.991 42.62C164.951 42.55 164.651 42.69 164.221 42.55C163.781 42.43 163.351 41.92 163.331 41.21C163.311 40.86 163.401 40.54 163.571 40.39C163.751 40.23 164.031 40.19 164.251 40.21C164.711 40.26 165.031 40.4 165.061 40.32C165.081 40.27 164.861 40.03 164.311 39.85C164.041 39.78 163.641 39.75 163.271 40.02C162.901 40.31 162.791 40.8 162.811 41.23C162.831 41.67 162.981 42.09 163.241 42.4C163.491 42.71 163.851 42.87 164.141 42.91C164.751 42.98 165.041 42.66 164.991 42.62Z" fill="#9B4E3D"/>
<path d="M162.131 43.8C162.201 43.84 161.931 44.24 162.011 44.91C162.051 45.24 162.201 45.61 162.521 45.89C162.831 46.17 163.301 46.3499 163.771 46.2899C164.241 46.2299 164.651 45.9199 164.871 45.5699C165.101 45.2199 165.151 44.82 165.101 44.49C165.001 43.82 164.621 43.5099 164.681 43.4499C164.701 43.3899 165.221 43.62 165.461 44.41C165.571 44.79 165.571 45.3299 165.281 45.8099C165.011 46.2899 164.491 46.6999 163.841 46.7899C163.191 46.8699 162.581 46.6099 162.191 46.2299C161.791 45.8399 161.641 45.32 161.641 44.92C161.651 44.1 162.101 43.75 162.131 43.8Z" fill="#455A64"/>
<path d="M157.171 40.1098C157.121 40.1498 156.701 39.7398 156.231 38.9198C155.761 38.0998 155.301 36.8498 155.191 35.3998C155.081 33.9498 155.351 32.6398 155.701 31.7598C156.041 30.8798 156.401 30.4098 156.451 30.4398C156.601 30.4998 155.471 32.5798 155.711 35.3598C155.891 38.1398 157.311 40.0298 157.171 40.1098Z" fill="#455A64"/>
<path d="M129.971 67.2499C129.961 67.2599 129.861 67.1099 129.701 66.7999C129.571 66.4899 129.381 66.0099 129.301 65.3599C129.221 64.7099 129.251 63.8899 129.511 62.9999C129.781 62.1099 130.301 61.1299 131.221 60.3499C132.121 59.5599 133.431 59.1999 134.261 58.2499C134.671 57.7699 134.841 57.1299 134.821 56.4499C134.801 55.7599 134.641 55.0499 134.521 54.2899C134.391 53.5399 134.341 52.6899 134.591 51.8699C134.831 51.0599 135.311 50.3299 135.901 49.7099C137.081 48.4599 138.671 47.6499 140.171 46.8099C141.661 45.9599 143.091 44.9499 143.751 43.4999C144.411 42.0599 144.261 40.4299 144.291 38.9099C144.311 35.8099 145.561 33.0599 147.301 31.4799C149.061 29.8799 151.051 29.4599 152.341 29.4699C152.991 29.4799 153.491 29.5799 153.821 29.6699C154.151 29.7699 154.311 29.8399 154.311 29.8499C154.301 29.9099 153.621 29.6299 152.351 29.6699C151.111 29.7099 149.211 30.1799 147.561 31.7399C145.931 33.2799 144.771 35.9199 144.781 38.9099C144.751 40.3899 144.941 42.0799 144.221 43.6999C143.491 45.3199 141.951 46.3799 140.441 47.2499C138.901 48.1099 137.391 48.8799 136.281 50.0499C135.731 50.6199 135.291 51.2799 135.071 51.9999C134.851 52.7199 134.881 53.4599 135.001 54.1999C135.111 54.9399 135.271 55.6799 135.281 56.4299C135.291 57.1799 135.081 57.9699 134.591 58.5199C133.591 59.5999 132.291 59.8999 131.451 60.6299C130.591 61.3299 130.071 62.2399 129.791 63.0799C129.521 63.9299 129.461 64.7099 129.511 65.3399C129.621 66.5999 130.031 67.2199 129.971 67.2499Z" fill="#263238"/>
<path d="M180.642 44.5202C181.112 44.3402 181.652 44.3202 182.102 44.5302C182.552 44.7402 182.912 45.1902 182.962 45.6802C183.012 46.1802 182.742 46.7102 182.282 46.9102C181.842 47.1102 181.312 46.9902 180.892 46.7502C180.492 46.5202 180.152 46.1502 180.062 45.7002C179.972 45.2502 180.212 44.7202 180.652 44.5902" fill="#9B4E3D"/>
<path d="M179.981 43.2402C180.121 43.1902 180.431 44.4702 181.621 45.3602C182.811 46.2502 184.121 46.1802 184.121 46.3302C184.131 46.4002 183.811 46.5102 183.271 46.4902C182.741 46.4702 181.981 46.2802 181.311 45.7802C180.641 45.2802 180.241 44.6102 180.071 44.1002C179.901 43.5902 179.921 43.2502 179.981 43.2402Z" fill="#263238"/>
<path d="M151.211 66.2999C147.321 67.2399 145.141 68.4899 139.341 74.7799L123.801 92.2399L145.161 107.77L153.901 95.8999L155.751 121.91C155.751 121.91 150.911 127.85 146.621 144.38C143.151 157.75 142.821 171.34 141.841 181.75L139.191 247.03L200.001 248.69C200.001 248.69 197.711 229.36 198.811 188.17C199.431 164.75 195.641 141.33 193.591 134.85L190.461 117.9C190.461 117.9 190.251 113.18 193.111 109.16C198.051 102.22 194.531 94.0199 194.531 94.0199L210.761 100.03L221.471 75.8599L199.321 67.5099C191.301 64.1999 181.791 64.6799 181.791 64.6799L164.931 64.4899C164.931 64.4899 157.011 63.8799 151.211 66.2999Z" fill="#FFB459"/>
<path d="M184.342 321.79L184.352 320.32L168.292 319.62L168.252 325.69L169.242 325.76C173.652 326.02 191.682 326.76 194.632 325.88C197.912 324.89 184.342 321.79 184.342 321.79Z" fill="#E8505B"/>
<g opacity="0.5">
<g opacity="0.5">
<path opacity="0.5" d="M174.032 325.58C173.812 324.24 173.072 323 172.002 322.17C170.932 321.34 169.622 320.89 168.272 321L168.252 325.47L174.032 325.58Z" fill="white"/>
</g>
</g>
<g opacity="0.5">
<path opacity="0.5" d="M190.972 323.54C190.972 323.54 195.722 324.93 195.132 325.71C194.532 326.49 176.292 326.43 168.242 325.69L168.272 325.33L189.552 325.59C189.552 325.59 190.042 323.57 190.972 323.54Z" fill="white"/>
</g>
<path d="M168.012 325.32C168.012 325.33 168.102 325.34 168.282 325.35C168.522 325.37 168.782 325.38 169.072 325.4C169.862 325.44 170.832 325.48 171.972 325.54C174.422 325.64 177.812 325.73 181.562 325.74C185.312 325.76 188.702 325.7 191.152 325.62C192.302 325.58 193.272 325.54 194.052 325.51C194.342 325.49 194.602 325.48 194.842 325.47C195.022 325.46 195.112 325.45 195.112 325.44C195.112 325.43 195.012 325.43 194.832 325.43C194.592 325.43 194.332 325.43 194.042 325.44C193.252 325.45 192.282 325.47 191.132 325.49C188.682 325.53 185.292 325.57 181.542 325.55C177.802 325.53 174.412 325.47 171.952 325.4C170.802 325.37 169.832 325.35 169.042 325.33C168.752 325.32 168.492 325.32 168.252 325.32C168.112 325.31 168.012 325.31 168.012 325.32Z" fill="#263238"/>
<path d="M189.542 325.84C189.602 325.85 189.652 325.15 190.092 324.46C190.522 323.75 191.122 323.4 191.082 323.35C191.072 323.3 190.382 323.6 189.922 324.36C189.452 325.1 189.492 325.85 189.542 325.84Z" fill="#263238"/>
<path d="M184.833 323.43C184.883 323.46 185.103 323.19 185.343 322.82C185.573 322.45 185.733 322.13 185.683 322.1C185.633 322.07 185.413 322.34 185.173 322.71C184.943 323.08 184.793 323.4 184.833 323.43Z" fill="#263238"/>
<path d="M183.542 322.74C183.582 322.78 183.832 322.61 184.102 322.37C184.382 322.12 184.572 321.89 184.542 321.85C184.502 321.81 184.252 321.98 183.982 322.22C183.702 322.47 183.512 322.7 183.542 322.74Z" fill="#263238"/>
<path d="M182.732 321.23C182.732 321.28 183.102 321.33 183.562 321.34C184.022 321.35 184.402 321.31 184.402 321.26C184.402 321.21 184.032 321.16 183.572 321.15C183.112 321.14 182.732 321.18 182.732 321.23Z" fill="#263238"/>
<path d="M182.452 320.16C182.432 320.21 182.842 320.39 183.382 320.43C183.922 320.47 184.352 320.36 184.342 320.31C184.332 320.25 183.912 320.28 183.392 320.24C182.882 320.21 182.472 320.11 182.452 320.16Z" fill="#263238"/>
<path d="M185.381 322.04C185.381 322.06 185.771 322.11 186.411 322.04C186.731 322 187.101 321.93 187.501 321.8C187.701 321.73 187.911 321.68 188.131 321.54C188.231 321.47 188.341 321.38 188.391 321.22C188.431 321.07 188.351 320.89 188.241 320.81C187.261 320.3 186.281 320.85 185.911 321.35C185.711 321.61 185.621 321.86 185.571 322.03C185.531 322.21 185.531 322.31 185.541 322.31C185.581 322.32 185.611 321.91 186.011 321.44C186.211 321.21 186.511 320.99 186.891 320.87C187.251 320.76 187.771 320.74 188.111 320.96C188.271 321.08 188.211 321.27 188.031 321.38C187.861 321.49 187.641 321.55 187.451 321.62C187.061 321.75 186.701 321.84 186.391 321.89C185.771 322.01 185.381 322.01 185.381 322.04Z" fill="#263238"/>
<path d="M185.652 322.09C185.662 322.1 185.822 321.84 185.772 321.38C185.752 321.15 185.662 320.88 185.492 320.63C185.312 320.4 185.082 320.09 184.642 320.1C184.402 320.13 184.282 320.4 184.322 320.57C184.342 320.75 184.422 320.9 184.492 321.03C184.642 321.29 184.812 321.5 184.972 321.65C185.292 321.97 185.542 322.09 185.562 322.07C185.582 322.05 185.362 321.89 185.072 321.56C184.932 321.4 184.782 321.19 184.642 320.94C184.502 320.72 184.402 320.33 184.662 320.29C184.922 320.27 185.182 320.52 185.332 320.73C185.492 320.95 185.582 321.19 185.622 321.4C185.712 321.81 185.612 322.08 185.652 322.09Z" fill="#263238"/>
<path d="M168.362 320.95C168.362 320.99 168.822 320.91 169.542 321C170.262 321.08 171.252 321.38 172.112 322.07C172.972 322.76 173.482 323.67 173.712 324.35C173.952 325.04 173.972 325.5 174.012 325.49C174.022 325.49 174.032 325.37 174.012 325.17C173.992 324.96 173.952 324.66 173.842 324.31C173.632 323.6 173.132 322.64 172.232 321.92C171.332 321.2 170.292 320.91 169.552 320.86C169.182 320.83 168.882 320.85 168.672 320.88C168.472 320.91 168.352 320.94 168.362 320.95Z" fill="#263238"/>
<path d="M176.051 324.05C176.041 324.1 177.091 324.27 178.381 324.27C179.681 324.28 180.721 324.12 180.721 324.07C180.711 324.01 179.671 324.08 178.381 324.07C177.101 324.07 176.051 323.99 176.051 324.05Z" fill="#263238"/>
<path d="M172.922 324.01C172.882 324.05 173.002 324.23 173.112 324.47C173.222 324.71 173.272 324.92 173.332 324.92C173.382 324.92 173.412 324.67 173.292 324.39C173.162 324.12 172.952 323.98 172.922 324.01Z" fill="#263238"/>
<path d="M171.741 322.54C171.701 322.58 171.801 322.74 171.971 322.91C172.131 323.08 172.301 323.18 172.341 323.15C172.381 323.11 172.281 322.95 172.111 322.78C171.951 322.61 171.781 322.5 171.741 322.54Z" fill="#263238"/>
<path d="M170.062 321.86C170.072 321.91 170.282 321.91 170.522 322C170.762 322.08 170.922 322.21 170.972 322.17C171.012 322.14 170.882 321.91 170.592 321.81C170.292 321.72 170.042 321.81 170.062 321.86Z" fill="#263238"/>
<path d="M168.852 321.54C168.832 321.59 168.922 321.67 169.052 321.72C169.182 321.77 169.312 321.77 169.332 321.72C169.352 321.67 169.262 321.59 169.132 321.54C169.002 321.49 168.872 321.49 168.852 321.54Z" fill="#263238"/>
<path d="M146.712 320.37L147.322 319.03L132.952 311.81L130.422 317.33L131.302 317.8C135.222 319.84 151.362 327.9 154.412 328.31C157.812 328.75 146.712 320.37 146.712 320.37Z" fill="#E8505B"/>
<g opacity="0.5">
<g opacity="0.5">
<path opacity="0.5" d="M135.751 319.61C136.091 318.3 135.931 316.86 135.301 315.67C134.671 314.47 133.651 313.53 132.381 313.07L130.541 317.14L135.751 319.61Z" fill="white"/>
</g>
</g>
<g opacity="0.5">
<path opacity="0.5" d="M152.042 324.68C152.042 324.68 155.812 327.89 154.952 328.36C154.092 328.83 137.472 321.3 130.432 317.33L130.602 317.02L149.912 325.97C149.902 325.97 151.172 324.33 152.042 324.68Z" fill="white"/>
</g>
<path d="M130.371 316.91C130.371 316.92 130.451 316.96 130.611 317.05C130.821 317.16 131.051 317.28 131.311 317.42C132.011 317.78 132.881 318.22 133.901 318.73C136.101 319.82 139.151 321.29 142.561 322.84C145.971 324.39 149.091 325.72 151.361 326.66C152.421 327.09 153.321 327.45 154.061 327.75C154.331 327.86 154.581 327.95 154.801 328.03C154.971 328.09 155.061 328.12 155.061 328.12C155.061 328.11 154.981 328.07 154.811 328C154.591 327.9 154.351 327.8 154.091 327.68C153.361 327.37 152.471 326.99 151.421 326.53C149.171 325.56 146.061 324.21 142.651 322.66C139.241 321.11 136.181 319.66 133.971 318.6C132.941 318.1 132.061 317.68 131.351 317.34C131.081 317.22 130.851 317.1 130.631 317C130.461 316.94 130.371 316.9 130.371 316.91Z" fill="#263238"/>
<path d="M149.791 326.2C149.841 326.23 150.171 325.62 150.861 325.16C151.541 324.69 152.231 324.61 152.221 324.56C152.231 324.51 151.481 324.5 150.751 325C150.011 325.49 149.741 326.19 149.791 326.2Z" fill="#263238"/>
<path d="M146.491 322.07C146.521 322.11 146.841 321.96 147.201 321.72C147.561 321.48 147.841 321.25 147.811 321.21C147.781 321.17 147.461 321.32 147.101 321.56C146.731 321.8 146.461 322.03 146.491 322.07Z" fill="#263238"/>
<path d="M145.591 320.91C145.611 320.96 145.911 320.91 146.261 320.8C146.611 320.69 146.891 320.56 146.871 320.51C146.851 320.46 146.551 320.51 146.201 320.62C145.851 320.73 145.571 320.86 145.591 320.91Z" fill="#263238"/>
<path d="M145.472 319.2C145.452 319.25 145.772 319.45 146.192 319.64C146.612 319.84 146.962 319.95 146.992 319.91C147.012 319.86 146.692 319.66 146.272 319.47C145.852 319.27 145.492 319.15 145.472 319.2Z" fill="#263238"/>
<path d="M145.652 318.12C145.612 318.16 145.912 318.49 146.392 318.75C146.872 319.01 147.312 319.08 147.322 319.03C147.332 318.98 146.942 318.83 146.492 318.58C146.032 318.33 145.692 318.08 145.652 318.12Z" fill="#263238"/>
<path d="M147.561 321.03C147.551 321.05 147.891 321.26 148.501 321.45C148.801 321.55 149.181 321.63 149.601 321.68C149.811 321.7 150.021 321.74 150.281 321.7C150.401 321.68 150.541 321.64 150.641 321.51C150.741 321.39 150.741 321.2 150.671 321.07C149.991 320.2 148.861 320.3 148.321 320.61C148.031 320.76 147.841 320.96 147.731 321.1C147.621 321.24 147.581 321.34 147.591 321.34C147.621 321.37 147.821 321 148.381 320.74C148.651 320.61 149.021 320.53 149.411 320.58C149.781 320.63 150.271 320.82 150.491 321.16C150.591 321.34 150.451 321.49 150.241 321.51C150.041 321.54 149.811 321.51 149.611 321.5C149.201 321.46 148.841 321.39 148.531 321.31C147.931 321.16 147.571 321 147.561 321.03Z" fill="#263238"/>
<path d="M147.781 321.18C147.791 321.2 148.031 321.02 148.181 320.58C148.251 320.36 148.291 320.08 148.231 319.78C148.161 319.5 148.081 319.12 147.671 318.95C147.441 318.88 146.901 319.34 146.871 319.51C146.811 319.68 147.141 319.59 147.161 319.74C147.191 320.04 147.261 320.3 147.351 320.51C147.511 320.93 147.701 321.14 147.711 321.13C147.741 321.11 147.601 320.88 147.481 320.46C147.421 320.25 147.361 320 147.341 319.72C147.301 319.46 147.371 319.07 147.631 319.13C147.871 319.21 148.011 319.56 148.071 319.81C148.131 320.08 148.111 320.33 148.061 320.54C147.951 320.96 147.751 321.16 147.781 321.18Z" fill="#263238"/>
<path d="M132.471 313.06C132.461 313.09 132.901 313.21 133.531 313.59C134.151 313.96 134.931 314.64 135.441 315.62C135.941 316.61 136.031 317.64 135.971 318.36C135.911 319.08 135.741 319.51 135.781 319.52C135.791 319.52 135.841 319.42 135.911 319.23C135.981 319.03 136.061 318.74 136.111 318.37C136.211 317.64 136.141 316.56 135.621 315.53C135.091 314.5 134.261 313.82 133.611 313.47C133.281 313.29 133.001 313.18 132.801 313.13C132.591 313.07 132.471 313.05 132.471 313.06Z" fill="#263238"/>
<path d="M138.221 319.04C138.191 319.08 139.081 319.66 140.261 320.2C141.441 320.74 142.461 321.03 142.471 320.98C142.491 320.93 141.511 320.56 140.341 320.03C139.161 319.49 138.251 318.99 138.221 319.04Z" fill="#263238"/>
<path d="M135.371 317.72C135.321 317.74 135.361 317.96 135.351 318.22C135.351 318.48 135.311 318.7 135.371 318.72C135.421 318.74 135.551 318.52 135.551 318.22C135.551 317.92 135.421 317.7 135.371 317.72Z" fill="#263238"/>
<path d="M134.911 315.9C134.861 315.92 134.891 316.11 134.971 316.33C135.051 316.55 135.161 316.72 135.211 316.7C135.261 316.68 135.231 316.49 135.151 316.27C135.061 316.04 134.961 315.88 134.911 315.9Z" fill="#263238"/>
<path d="M133.651 314.59C133.641 314.64 133.831 314.73 134.011 314.9C134.191 315.07 134.291 315.26 134.351 315.24C134.401 315.23 134.371 314.97 134.151 314.76C133.921 314.55 133.651 314.54 133.651 314.59Z" fill="#263238"/>
<path d="M132.682 313.8C132.642 313.84 132.692 313.95 132.792 314.05C132.892 314.15 133.002 314.2 133.042 314.17C133.082 314.13 133.032 314.02 132.932 313.92C132.832 313.82 132.722 313.77 132.682 313.8Z" fill="#263238"/>
<path d="M230.601 82.5098C230.491 82.6098 229.481 81.6598 228.341 80.3998C227.201 79.1398 226.361 78.0298 226.471 77.9398C226.581 77.8398 227.591 78.7898 228.731 80.0498C229.871 81.3098 230.711 82.4198 230.601 82.5098Z" fill="#9B4E3D"/>
<path d="M206.041 70.1199C206.041 70.1399 205.821 70.1599 205.411 70.1699C204.941 70.1799 204.351 70.1999 203.611 70.2199C201.981 70.2399 199.741 70.2699 196.991 70.2999C191.341 70.3199 183.651 70.3499 175.161 70.3799C166.661 70.3499 158.971 70.3199 153.321 70.2999C150.581 70.2699 148.331 70.2399 146.701 70.2199C145.961 70.1999 145.371 70.1799 144.901 70.1699C144.491 70.1499 144.271 70.1399 144.271 70.1199C144.271 70.0999 144.491 70.0799 144.901 70.0699C145.371 70.0599 145.961 70.0399 146.701 70.0199C148.331 69.9999 150.571 69.9699 153.321 69.9399C158.971 69.9199 166.661 69.8899 175.161 69.8599C183.661 69.8899 191.351 69.9199 196.991 69.9399C199.731 69.9699 201.981 69.9999 203.611 70.0199C204.351 70.0399 204.941 70.0599 205.411 70.0699C205.821 70.0799 206.041 70.0999 206.041 70.1199Z" fill="#263238"/>
<path d="M219.681 79.7502C219.681 79.7702 219.381 79.7902 218.821 79.8002C218.211 79.8102 217.391 79.8302 216.351 79.8502C214.161 79.8702 211.071 79.9002 207.281 79.9302C199.581 79.9502 189.021 79.9802 177.351 80.0102C165.681 79.9802 155.121 79.9502 147.421 79.9302C143.631 79.9002 140.541 79.8702 138.351 79.8502C137.321 79.8302 136.491 79.8102 135.881 79.8002C135.321 79.7802 135.021 79.7702 135.021 79.7502C135.021 79.7302 135.321 79.7102 135.881 79.7002C136.491 79.6902 137.311 79.6702 138.351 79.6502C140.541 79.6302 143.631 79.6002 147.421 79.5702C155.121 79.5502 165.681 79.5202 177.351 79.4902C189.011 79.5202 199.571 79.5502 207.281 79.5702C211.071 79.6002 214.161 79.6302 216.351 79.6502C217.381 79.6702 218.211 79.6902 218.821 79.7002C219.381 79.7102 219.681 79.7302 219.681 79.7502Z" fill="#263238"/>
<path d="M213.002 91.28C213.002 91.3 212.692 91.32 212.112 91.33C211.482 91.34 210.632 91.36 209.552 91.38C207.282 91.4 204.082 91.43 200.142 91.46C192.152 91.48 181.192 91.51 169.092 91.54C156.982 91.51 146.022 91.48 138.032 91.46C134.092 91.43 130.892 91.4 128.622 91.38C127.542 91.36 126.692 91.34 126.062 91.33C125.482 91.31 125.172 91.3 125.172 91.28C125.172 91.26 125.482 91.24 126.062 91.23C126.692 91.22 127.542 91.2 128.622 91.18C130.892 91.16 134.092 91.13 138.032 91.1C146.022 91.08 156.982 91.05 169.092 91.02C181.192 91.05 192.152 91.08 200.142 91.1C204.082 91.13 207.282 91.16 209.552 91.18C210.632 91.2 211.482 91.22 212.112 91.23C212.702 91.24 213.002 91.26 213.002 91.28Z" fill="#263238"/>
<path d="M195.002 103.11C195.002 103.15 194.432 103.18 193.402 103.21C192.282 103.23 190.812 103.26 189.042 103.29C185.362 103.34 180.282 103.37 174.672 103.37C169.062 103.37 163.972 103.34 160.292 103.29C158.522 103.26 157.052 103.23 155.932 103.21C154.902 103.18 154.332 103.14 154.332 103.11C154.332 103.07 154.902 103.04 155.932 103.01C157.052 102.99 158.522 102.96 160.292 102.93C163.972 102.88 169.052 102.85 174.672 102.85C180.282 102.85 185.362 102.88 189.042 102.93C190.812 102.96 192.282 102.99 193.402 103.01C194.432 103.04 195.002 103.07 195.002 103.11Z" fill="#263238"/>
<path d="M190.782 114.69C190.782 114.73 190.282 114.76 189.392 114.79C188.392 114.81 187.122 114.84 185.592 114.87C182.382 114.92 177.952 114.95 173.062 114.95C168.172 114.95 163.742 114.92 160.532 114.87C159.002 114.84 157.732 114.81 156.732 114.79C155.832 114.76 155.342 114.72 155.342 114.69C155.342 114.65 155.842 114.62 156.732 114.59C157.732 114.57 159.002 114.54 160.532 114.51C163.742 114.46 168.172 114.43 173.062 114.43C177.952 114.43 182.382 114.46 185.592 114.51C187.122 114.54 188.392 114.57 189.392 114.59C190.292 114.62 190.782 114.65 190.782 114.69Z" fill="#263238"/>
<path d="M193.012 109.22C193.012 109.26 192.482 109.29 191.522 109.32C190.462 109.34 189.092 109.37 187.452 109.4C184.012 109.45 179.262 109.48 174.012 109.48C168.762 109.48 164.012 109.45 160.572 109.4C158.922 109.37 157.552 109.34 156.502 109.32C155.542 109.29 155.012 109.25 155.012 109.22C155.012 109.18 155.542 109.15 156.502 109.12C157.562 109.1 158.932 109.07 160.572 109.04C164.012 108.99 168.762 108.96 174.012 108.96C179.262 108.96 184.012 108.99 187.452 109.04C189.102 109.07 190.472 109.1 191.522 109.12C192.482 109.15 193.012 109.19 193.012 109.22Z" fill="#263238"/>
<path d="M195.462 97.3499C195.462 97.3899 194.882 97.4198 193.832 97.4498C192.692 97.4698 191.192 97.4998 189.392 97.5298C185.642 97.5798 180.452 97.6098 174.732 97.6098C169.002 97.6098 163.822 97.5798 160.072 97.5298C158.262 97.4998 156.772 97.4698 155.632 97.4498C154.582 97.4198 154.002 97.3799 154.002 97.3499C154.002 97.3099 154.582 97.2798 155.632 97.2498C156.772 97.2298 158.272 97.1998 160.072 97.1698C163.822 97.1198 169.012 97.0898 174.732 97.0898C180.462 97.0898 185.642 97.1198 189.392 97.1698C191.202 97.1998 192.692 97.2298 193.832 97.2498C194.882 97.2798 195.462 97.3099 195.462 97.3499Z" fill="#263238"/>
<path d="M152.822 97.3298C152.822 97.3998 151.592 97.4698 149.592 97.5098C147.592 97.5598 144.842 97.5898 141.792 97.5898C138.742 97.5898 135.992 97.5598 133.992 97.5098C131.992 97.4598 130.762 97.3998 130.762 97.3298C130.762 97.2598 131.992 97.1898 133.992 97.1498C135.992 97.1098 138.742 97.0698 141.792 97.0698C144.832 97.0698 147.592 97.0998 149.592 97.1498C151.592 97.1998 152.822 97.2598 152.822 97.3298Z" fill="#263238"/>
<path d="M212.311 96.7102C212.311 96.8502 209.871 96.9702 206.851 96.9702C203.841 96.9702 201.391 96.8502 201.391 96.7102C201.391 96.5702 203.831 96.4502 206.851 96.4502C209.871 96.4502 212.311 96.5702 212.311 96.7102Z" fill="#263238"/>
<path d="M216.381 85.3C216.381 85.32 216.081 85.3401 215.501 85.3501C214.881 85.3601 214.041 85.38 212.981 85.4C210.741 85.42 207.591 85.45 203.721 85.48C195.861 85.5 185.071 85.53 173.161 85.56C161.241 85.53 150.461 85.5 142.601 85.48C138.731 85.45 135.581 85.42 133.341 85.4C132.281 85.38 131.441 85.3601 130.821 85.3501C130.241 85.3301 129.941 85.32 129.941 85.3C129.941 85.28 130.241 85.26 130.821 85.25C131.441 85.24 132.281 85.22 133.341 85.2C135.581 85.18 138.731 85.15 142.601 85.12C150.461 85.1 161.251 85.07 173.161 85.04C185.071 85.07 195.851 85.1 203.721 85.12C207.591 85.15 210.751 85.18 212.981 85.2C214.041 85.22 214.881 85.24 215.501 85.25C216.081 85.26 216.381 85.28 216.381 85.3Z" fill="#263238"/>
<path d="M218.05 74.5398C218.05 74.5598 217.77 74.5798 217.25 74.5898C216.68 74.5998 215.92 74.6198 214.96 74.6398C212.92 74.6598 210.05 74.6898 206.53 74.7198C199.37 74.7398 189.56 74.7698 178.73 74.7998C167.89 74.7698 158.09 74.7398 150.92 74.7198C147.4 74.6898 144.54 74.6598 142.49 74.6398C141.53 74.6198 140.77 74.5998 140.2 74.5898C139.68 74.5698 139.4 74.5598 139.4 74.5398C139.4 74.5198 139.68 74.4998 140.2 74.4898C140.77 74.4798 141.53 74.4598 142.49 74.4398C144.53 74.4198 147.4 74.3898 150.92 74.3598C158.08 74.3398 167.89 74.3098 178.73 74.2798C189.56 74.3098 199.37 74.3398 206.53 74.3598C210.05 74.3898 212.91 74.4198 214.96 74.4398C215.92 74.4598 216.68 74.4798 217.25 74.4898C217.77 74.4998 218.05 74.5198 218.05 74.5398Z" fill="#263238"/>
</svg>
