<svg width="40" height="40" viewBox="0 0 40 40" fill="none" xmlns="http://www.w3.org/2000/svg">
<path d="M36.7446 0H33.0237C32.7668 0 32.5586 0.208281 32.5586 0.465078V11.907C32.5586 12.1638 32.7669 12.372 33.0237 12.372H37.6748C37.9317 12.372 38.1399 12.1637 38.1399 11.907V1.39531C38.1399 0.624766 37.5152 0 36.7446 0Z" fill="#FFB459"/>
<path d="M37.6748 15.1628H33.0237C32.7668 15.1628 32.5586 15.3711 32.5586 15.6279V24.3721C32.5586 24.629 32.7669 24.8372 33.0237 24.8372H37.6748C37.9317 24.8372 38.1399 24.6289 38.1399 24.3721V15.6279C38.1399 15.3711 37.9316 15.1628 37.6748 15.1628Z" fill="#FFB459"/>
<path d="M29.3022 0H5.11613C3.31801 0 1.86035 1.45766 1.86035 3.25578V36.7441C1.86035 38.5423 3.31801 39.9999 5.11613 39.9999H29.3022C29.559 39.9999 29.7673 39.7916 29.7673 39.5348V0.465078C29.7673 0.208281 29.559 0 29.3022 0ZM25.2911 30.3996L23.751 31.2888C20.4506 33.1943 16.2379 32.0653 14.3325 28.7652L8.42371 18.5306C6.5184 15.2305 7.64676 11.0178 10.9473 9.11227L12.4875 8.22297C14.0456 7.32328 16.0352 7.85609 16.935 9.41477L18.4677 12.0695C19.2956 13.5034 19.0651 15.4841 16.9443 16.7086L20.1707 22.297C22.3153 21.059 24.1386 21.8917 24.95 23.2971L26.4828 25.952C27.3805 27.5068 26.8459 29.502 25.2911 30.3996Z" fill="#FFB459"/>
<path d="M37.6748 27.6279H33.0237C32.7668 27.6279 32.5586 27.8362 32.5586 28.093V39.5348C32.5586 39.7916 32.7669 39.9999 33.0237 39.9999H36.7446C37.5152 39.9999 38.1399 39.3751 38.1399 38.6046V28.093C38.1399 27.8362 37.9316 27.6279 37.6748 27.6279Z" fill="#FFB459"/>
</svg>
