<svg width="80" height="80" viewBox="0 0 80 80" fill="none" xmlns="http://www.w3.org/2000/svg">
<path d="M20 7.5H75V40H20V7.5Z" fill="#E7E4DD"/>
<path d="M35 27.5C39.1421 27.5 42.5 24.1421 42.5 20C42.5 15.8579 39.1421 12.5 35 12.5C30.8579 12.5 27.5 15.8579 27.5 20C27.5 24.1421 30.8579 27.5 35 27.5Z" fill="#78B75B"/>
<path d="M42.5 20H35V12.5C39.1425 12.5 42.5 15.8575 42.5 20Z" fill="#E39854"/>
<path d="M28.5675 23.8587C27.89 22.7312 27.5 21.4113 27.5 20C27.5 15.8575 30.8575 12.5 35 12.5V20L28.5675 23.8587Z" fill="#F2C351"/>
<path d="M17.5 40H77.5V45H17.5V40Z" fill="#758190"/>
<path d="M17.5 40H77.5V45H17.5V40Z" fill="#758190"/>
<path d="M27.5 51.25H34.3937C36.3825 51.25 38.29 50.46 39.6975 49.0538L49.9562 38.795C50.785 37.9662 51.9087 37.5 53.0812 37.5C55.5213 37.5 57.5 39.4787 57.5 41.92C57.5 43.0925 57.035 44.2162 56.205 45.045L38.4463 62.8037C37.04 64.21 36.25 66.1175 36.25 68.1063V77.5H2.5V61.25C2.5 55.7275 6.9775 51.25 12.5 51.25H17.5" fill="#E39854"/>
<path d="M27.3425 48.7501C27.445 49.1501 27.5 49.5688 27.5 50.0001C27.5 52.7613 25.2613 55.0001 22.5 55.0001C19.7387 55.0001 17.5 52.7613 17.5 50.0001C17.5 49.5676 17.555 49.1488 17.6575 48.7488" fill="#EFBE9A"/>
<path d="M22.5 50C28.0228 50 32.5 45.5228 32.5 40C32.5 34.4772 28.0228 30 22.5 30C16.9772 30 12.5 34.4772 12.5 40C12.5 45.5228 16.9772 50 22.5 50Z" fill="#FADFB2"/>
<path d="M55 46.25L48.75 40L49.955 38.795C50.7838 37.9662 51.9075 37.5 53.08 37.5C55.5213 37.5 57.5 39.4787 57.5 41.92C57.5 43.0925 57.035 44.2162 56.205 45.045L55 46.25Z" fill="#FADFB2"/>
<path d="M32.1837 37.4963C28.955 37.415 25.9025 36.0875 23.6475 33.8263C24.6262 33.1075 25.505 32.2438 26.25 31.25L26.5112 30.8375C29.2925 32.0563 31.4125 34.505 32.1837 37.4963Z" fill="#976947"/>
<path d="M13.2275 36.25H16.25C20.185 36.25 23.8888 34.3975 26.25 31.25L26.505 30.8337L26.3925 30.785C25.1963 30.28 23.8813 30 22.5 30C18.3038 30 14.71 32.585 13.2275 36.25Z" fill="#C18E59"/>
<path d="M17.5 2.5H77.5V7.5H17.5V2.5Z" fill="#758190"/>
<path d="M17.5 2.5H77.5V7.5H17.5V2.5Z" fill="#758190"/>
<path d="M11.25 62.5H13.7487V77.5H11.25V62.5Z" fill="#C16B3F"/>
<path d="M50 23.75H70V28.75H50V23.75Z" fill="#78B75B"/>
<path d="M51.249 11.25H53.7478V23.75H51.249V11.25Z" fill="#96CC7F"/>
<path d="M56.249 13.75H58.7478V23.75H56.249V13.75Z" fill="#96CC7F"/>
<path d="M61.249 16.25H63.7478V23.75H61.249V16.25Z" fill="#96CC7F"/>
<path d="M66.249 18.75H68.7478V23.75H66.249V18.75Z" fill="#96CC7F"/>
<path d="M58.749 32.5H71.2478V35H58.749V32.5Z" fill="#669E4F"/>
<path d="M34.999 32.5H43.7478V35H34.999V32.5Z" fill="#669E4F"/>
<path d="M28.75 67.5C26.6788 67.5 25 65.8212 25 63.75V60H32.5V63.75C32.5 65.8212 30.8212 67.5 28.75 67.5Z" fill="#F5CF88"/>
<path d="M25 60V63.75C25 65.22 25.8537 66.4787 27.085 67.0937C29.2875 65.505 30.7262 62.9225 30.7262 60H25Z" fill="#FADFB2"/>
<path d="M77.4987 8.74875C78.19 8.74875 78.7487 8.19 78.7487 7.49875V2.5C78.7487 1.80875 78.19 1.25 77.4987 1.25H17.5C16.8088 1.25 16.25 1.80875 16.25 2.5V7.5C16.25 8.19125 16.8088 8.75 17.5 8.75H18.75V29.4075C14.3875 30.955 11.25 35.1125 11.25 40C11.25 43.9087 13.255 47.3538 16.2887 49.3713C16.2688 49.5788 16.25 49.7875 16.25 50H12.5C6.29625 50 1.25 55.0462 1.25 61.25V77.5C1.25 78.1913 1.80875 78.75 2.5 78.75H36.2487C36.94 78.75 37.4987 78.1913 37.4987 77.5V68.1062C37.4987 66.4375 38.15 64.8675 39.33 63.6875L56.7675 46.25H77.4987C78.19 46.25 78.7487 45.6912 78.7487 45V40C78.7487 39.3088 78.19 38.75 77.4987 38.75H76.2487V8.75H77.4987V8.74875ZM18.75 3.75H76.2487V6.25H18.75V3.75ZM22.5 31.25C23.1625 31.25 23.805 31.33 24.4263 31.4713C22.3175 33.6987 19.345 35 16.25 35H15.33C16.9125 32.7362 19.5338 31.25 22.5 31.25ZM33.675 41.2487H45.7312L43.2312 43.7487H33.0938C33.3763 42.9513 33.5788 42.1175 33.675 41.2487ZM55.32 44.16L54.9987 44.4812L50.5175 40L50.8388 39.6787C51.4363 39.0788 52.2325 38.75 53.08 38.75C54.8263 38.75 56.2487 40.1712 56.2487 41.9188C56.2487 42.765 55.9188 43.5612 55.32 44.16ZM22.5 51.2487C23.7925 51.2487 25.03 51.0187 26.1862 50.615C25.89 52.3888 24.3563 53.75 22.5 53.75C20.6425 53.75 19.1087 52.39 18.8125 50.6162C19.97 51.0187 21.2075 51.2487 22.5 51.2487ZM28.71 49.3713C29.95 48.5475 31.0188 47.485 31.8475 46.2487H40.7312L38.8112 48.1688C37.6312 49.3488 36.0625 50 34.3937 50H28.7488C28.7488 49.7887 28.73 49.58 28.71 49.3713ZM26.8787 32.4362C28.33 33.28 29.5163 34.5262 30.285 36.025C28.565 35.6763 26.94 34.92 25.555 33.8363C26.0275 33.4025 26.4688 32.9362 26.8787 32.4362ZM13.75 40C13.75 39.1312 13.8813 38.2925 14.1187 37.5H16.25C18.8425 37.5 21.3587 36.7425 23.52 35.3962C25.6575 37.2362 28.335 38.3975 31.1375 38.6813C31.2038 39.1125 31.2475 39.5513 31.2475 40C31.2475 44.8237 27.3225 48.75 22.4988 48.75C17.675 48.7487 13.75 44.8237 13.75 40ZM37.5612 61.9188C35.91 63.5713 34.9987 65.7688 34.9987 68.105V76.2487H13.7487V62.5H11.25V76.25H3.75V61.25C3.75 56.4263 7.675 52.5 12.5 52.5H16.78C17.7475 54.7038 19.9438 56.25 22.5 56.25C25.0562 56.25 27.2525 54.7038 28.2188 52.5H34.3925C36.7287 52.5 38.9263 51.5888 40.5788 49.9375L48.7475 41.7688L53.23 46.25L37.5612 61.9188ZM76.2487 43.7487H58.4237C58.6237 43.165 58.7487 42.5537 58.7487 41.9188C58.7487 41.69 58.7075 41.4712 58.6813 41.25H76.2487V43.7487ZM73.75 38.75H57.7775C56.7575 37.2425 55.0325 36.25 53.0788 36.25C51.5638 36.25 50.14 36.84 49.0688 37.91L48.23 38.75H33.675C33.0513 33.1338 28.28 28.75 22.5 28.75C22.0763 28.75 21.66 28.7787 21.2488 28.8237V8.74875H73.75V38.75Z" fill="black"/>
<path d="M35 28.7488C39.8237 28.7488 43.7487 24.8238 43.7487 19.9988C43.7487 15.1738 39.8237 11.2488 35 11.2488C30.175 11.2488 26.25 15.1738 26.25 19.9988C26.25 24.8238 30.175 28.7488 35 28.7488ZM35 26.2488C33.18 26.2488 31.555 25.4538 30.4113 24.2101L35.3462 21.2488H41.1225C40.5425 24.0976 38.0187 26.2488 35 26.2488ZM41.1225 18.7501H36.2487V13.8763C38.6937 14.3738 40.6237 16.3038 41.1225 18.7501ZM33.7488 13.8763V19.2913L29.1275 22.0638C28.8987 21.4151 28.75 20.7263 28.75 20.0001C28.75 16.9813 30.9 14.4563 33.7488 13.8763Z" fill="black"/>
<path d="M50 29.9988H69.9987C70.69 29.9988 71.2487 29.44 71.2487 28.7488V23.7488C71.2487 23.0575 70.69 22.4988 69.9987 22.4988H68.7487V18.7487H66.25V22.4988H63.7487V16.2487H61.25V22.4988H58.7487V13.7487H56.25V22.4988H53.7488V11.25H51.25V22.5H50C49.3087 22.5 48.75 23.0588 48.75 23.75V28.75C48.75 29.44 49.3087 29.9988 50 29.9988ZM51.25 25H68.7487V27.5H51.25V25Z" fill="black"/>
<path d="M58.75 32.5H71.2487V35H58.75V32.5Z" fill="black"/>
<path d="M35 32.5H43.7487V35H35V32.5Z" fill="black"/>
<path d="M32.4988 58.75H25C24.3088 58.75 23.75 59.3087 23.75 60V63.75C23.75 66.5062 25.9925 68.7487 28.75 68.7487C31.5063 68.7487 33.7488 66.5062 33.7488 63.75V60C33.7488 59.3087 33.19 58.75 32.4988 58.75ZM31.2488 63.75C31.2488 65.1275 30.1288 66.2487 28.75 66.2487H28.7475C27.37 66.2487 26.25 65.1275 26.25 63.75V61.25H31.2488V63.75Z" fill="black"/>
</svg>
