<svg width="119" height="119" viewBox="0 0 119 119" fill="none" xmlns="http://www.w3.org/2000/svg">
<circle cx="59.5" cy="59.5" r="59.5" fill="#FFEDD7"/>
<path d="M69.6367 45.2668C68.5809 44.5139 67.445 43.8804 66.2497 43.3775L64.8987 46.6003C65.8537 47.0028 66.7616 47.5092 67.6059 48.1103L69.6367 45.2668Z" fill="black"/>
<path d="M74.773 51.001C74.1421 49.8723 73.3877 48.8172 72.5237 47.8551L69.9197 50.1865C70.611 50.9598 71.2153 51.8067 71.7216 52.712L74.773 51.001Z" fill="black"/>
<path d="M72.9189 55.5572C75.0848 62.9569 70.8421 70.7115 63.4423 72.8774C56.0426 75.0434 48.2881 70.8006 46.1221 63.4009C43.9562 56.0011 48.1989 48.2466 55.5987 46.0806C57.6545 45.4789 59.8212 45.3583 61.9311 45.7281L62.5341 42.2834C61.532 42.1106 60.517 42.0235 59.5001 42.023C49.8585 42.0355 42.0525 49.8617 42.065 59.5034C42.0774 69.1451 49.9036 76.951 59.5453 76.9385C69.1869 76.9261 76.9929 69.0999 76.9804 59.4582C76.9782 57.8066 76.7418 56.1636 76.278 54.5785L72.9189 55.5572Z" fill="black"/>
<path d="M87 59.5L82.5224 53.3306L83.3176 45.7491L76.3548 42.6452L73.2509 35.6824L65.6694 36.4776L59.5 32L53.3306 36.4776L45.7491 35.6824L42.6452 42.6452L35.6824 45.7491L36.4776 53.3306L32 59.5L36.4776 65.6694L35.6824 73.2509L42.6452 76.3548L45.7491 83.3176L53.3306 82.5224L59.5 87L65.6694 82.5224L73.2509 83.3176L76.3548 76.3548L83.3176 73.2509L82.5224 65.6694L87 59.5ZM73.7053 73.7053L71.0837 79.5758L64.7011 78.8994L59.5 82.6832L54.2989 78.8994L47.9093 79.5688L45.2877 73.6983L39.4172 71.0767L40.1006 64.7011L36.3168 59.5L40.1006 54.2989L39.4242 47.9093L45.2947 45.2877L47.9163 39.4172L54.3058 40.0866L59.5 36.3168L64.7011 40.1006L71.0907 39.4312L73.7123 45.3017L79.5828 47.9233L78.8994 54.2989L82.6832 59.5L78.8994 64.7011L79.5688 71.0907L73.7053 73.7053Z" fill="black"/>
<path d="M51.9971 58.2644L49.5259 60.7356L56.0046 67.2143L67.7264 55.4925L65.2551 53.0213L56.0046 62.2718L51.9971 58.2644Z" fill="black"/>
</svg>
