<svg width="80" height="80" viewBox="0 0 80 80" fill="none" xmlns="http://www.w3.org/2000/svg">
<path d="M78.8281 18.7466V30.1311C78.8281 33.1495 76.3727 35.5964 73.3438 35.5964H62.9409C62.6778 35.5964 62.4483 35.7664 62.3627 36.0145C61.0784 39.7369 57.3084 40.0409 55.7244 39.9964C55.435 39.9883 55.265 39.6709 55.4153 39.4242C56.0291 38.4167 56.1312 37.0048 56.1341 36.2077C56.1353 35.8713 55.8623 35.5966 55.5247 35.5966H53.8438C50.8148 35.5966 48.3594 33.1497 48.3594 30.1312V18.7467C48.3594 15.7281 50.8148 13.2812 53.8438 13.2812H73.3438C76.3727 13.2812 78.8281 15.7281 78.8281 18.7466Z" fill="#F1F1F1"/>
<path d="M57.6754 36.0144C57.251 37.2445 56.5544 38.0997 55.7557 38.6939C55.6648 38.9498 55.5537 39.1975 55.4157 39.424C55.2654 39.6706 55.4354 39.9881 55.7248 39.9962C57.3087 40.0408 61.0788 39.7367 62.363 36.0144C62.4487 35.7664 62.678 35.5964 62.9413 35.5964H58.2538C57.9904 35.5964 57.7609 35.7664 57.6754 36.0144Z" fill="#E2E2E2"/>
<path d="M73.3437 13.2812H68.6562C71.6852 13.2812 74.1406 15.7281 74.1406 18.7466V30.1311C74.1406 33.1495 71.6852 35.5964 68.6562 35.5964H73.3437C76.3727 35.5964 78.8281 33.1495 78.8281 30.1311V18.7466C78.8281 15.7281 76.3727 13.2812 73.3437 13.2812Z" fill="#E2E2E2"/>
<path d="M7.42188 66.5836H56.3281V78.8281H7.42188V66.5836Z" fill="#D66D3C"/>
<path d="M51.6406 66.5836H56.3281V78.8281H51.6406V66.5836Z" fill="#C75D2D"/>
<path d="M3.67188 57.2086H60.0781V63.1461C60.0781 65.0445 58.5391 66.5836 56.6406 66.5836H7.10938C5.21094 66.5836 3.67188 65.0445 3.67188 63.1461V57.2086Z" fill="#C75D2D"/>
<path d="M55.3906 57.2086V63.1461C55.3906 65.0445 53.8516 66.5836 51.9531 66.5836H56.6406C58.5391 66.5836 60.0781 65.0445 60.0781 63.1461V57.2086H55.3906Z" fill="#B05328"/>
<path d="M60.2344 57.2086H3.51562C2.22125 57.2086 1.17188 56.1592 1.17188 54.8648C1.17188 53.5705 2.22125 52.5211 3.51562 52.5211H60.2344C61.5288 52.5211 62.5781 53.5705 62.5781 54.8648C62.5781 56.1592 61.5288 57.2086 60.2344 57.2086Z" fill="#B9F5FF"/>
<path d="M60.2344 52.5211H55.5469C56.8413 52.5211 57.8906 53.5705 57.8906 54.8648C57.8906 56.1592 56.8413 57.2086 55.5469 57.2086H60.2344C61.5287 57.2086 62.5781 56.1592 62.5781 54.8648C62.5781 53.5703 61.5287 52.5211 60.2344 52.5211Z" fill="#8AEEFF"/>
<path d="M44.1903 52.5H13.2075V44.82C13.2075 39.6697 17.3827 35.4945 22.533 35.4945H34.8647C40.015 35.4945 44.1902 39.6697 44.1902 44.82V52.5H44.1903Z" fill="#42A5F5"/>
<path d="M34.8647 35.4945H30.1772C35.3276 35.4945 39.5027 39.6697 39.5027 44.82V52.5H44.1902V44.82C44.1902 39.6697 40.0151 35.4945 34.8647 35.4945Z" fill="#2196F3"/>
<path d="M25.6006 29.0766H31.7971V39.1527H25.6006V29.0766Z" fill="#E8916F"/>
<path d="M19.8647 19.253C19.8647 21.3045 18.6067 22.9677 17.0552 22.9677C15.5036 22.9677 14.6021 21.0577 14.6021 19.0062C14.6021 16.9548 15.5035 15.5384 17.0552 15.5384C18.6069 15.5384 19.8647 17.2014 19.8647 19.253Z" fill="#E8916F"/>
<path d="M37.5327 19.253C37.5327 21.3045 38.7907 22.9677 40.3422 22.9677C41.894 22.9677 42.7954 21.0577 42.7954 19.0062C42.7954 16.9548 41.894 15.5384 40.3422 15.5384C38.7905 15.5383 37.5327 17.2014 37.5327 19.253Z" fill="#D98868"/>
<path d="M18.4121 20.4661V12.8259C18.4121 7.46797 22.7555 3.12437 28.1137 3.12437H29.284C34.642 3.12437 38.9855 7.46781 38.9855 12.8259V20.4661C38.9855 26.1436 34.383 30.7461 28.7055 30.7461H28.6921C23.0146 30.7461 18.4121 26.1436 18.4121 20.4661Z" fill="#EBAD88"/>
<path d="M29.2839 3.12437H28.1136C27.5128 3.12437 26.9256 3.18187 26.355 3.28641C30.8729 4.11406 34.2979 8.06875 34.2979 12.8259V20.4661C34.2979 25.3392 30.9059 29.4175 26.355 30.4759C27.1061 30.6506 27.8876 30.7461 28.692 30.7461H28.7054C34.3829 30.7461 38.9854 26.1436 38.9854 20.4661V12.8259C38.9854 7.46797 34.6419 3.12437 29.2839 3.12437Z" fill="#E8916F"/>
<path d="M33.0363 9.54015C33.0363 9.54015 32.0488 15.0077 21.5991 13.6045C19.8649 13.3717 18.4119 16.9233 18.4119 16.9233C18.4119 16.9233 17.1799 16.2883 16.6536 12.9483C15.9333 8.37578 17.5527 1.17171 27.2699 1.17171C33.1275 1.17171 34.903 3.6339 34.903 3.6339C34.903 3.6339 40.877 3.42218 40.877 10.0692C40.877 14.1759 39.0128 17.0761 39.0128 17.0761C39.0128 17.0761 38.48 15.6019 36.1277 13.7737C34.841 12.7737 32.8428 11.6153 33.0363 9.54015Z" fill="#D66D3C"/>
<path d="M34.9031 3.63406C34.9031 3.63406 33.1277 1.17188 27.27 1.17188C26.4423 1.17188 25.6747 1.22531 24.9609 1.32375C27.0062 1.59953 28.3383 2.20359 29.1495 2.725C29.9514 3.24031 30.8384 3.60063 31.7647 3.82547C33.5348 4.25516 36.19 5.63812 36.19 10.0695C36.19 11.3455 36.0098 12.5047 35.7619 13.497C35.8884 13.5911 36.0112 13.6833 36.1283 13.7742C38.4805 15.6023 39.0134 17.0766 39.0134 17.0766C39.0134 17.0766 40.8777 14.1764 40.8777 10.0697C40.8772 3.42234 34.9031 3.63406 34.9031 3.63406Z" fill="#C75D2D"/>
<path d="M25.6004 33.0667C25.6004 33.0667 25.3038 37.1747 28.6987 39.1526C28.6987 39.1526 26.7684 41.3081 24.8157 40.6234C23.2687 40.0809 22.3932 37.1953 22.0963 36.02C22.0215 35.7237 22.1406 35.413 22.3935 35.2414L25.6004 33.0667Z" fill="#F1F1F1"/>
<path d="M31.797 33.0667C31.797 33.0667 32.0936 37.1747 28.6987 39.1526C28.6987 39.1526 30.629 41.3081 32.5817 40.6234C34.1287 40.0809 35.0042 37.1953 35.3011 36.02C35.3759 35.7237 35.2569 35.413 35.0039 35.2414L31.797 33.0667Z" fill="#F1F1F1"/>
<path d="M73.3438 12.1094H70.0373C69.39 12.1094 68.8655 12.6339 68.8655 13.2813C68.8655 13.9286 69.39 14.4531 70.0373 14.4531H73.3438C75.7217 14.4531 77.6562 16.3791 77.6562 18.7466V30.1311C77.6562 32.4984 75.7217 34.4245 73.3438 34.4245H62.9409C62.1816 34.4245 61.5039 34.91 61.255 35.6322C60.8766 36.7289 59.8283 38.4709 56.9614 38.7808C57.2314 37.8803 57.3034 36.9417 57.3061 36.2119C57.3078 35.735 57.1233 35.2864 56.7867 34.9484C56.45 34.6106 56.002 34.4244 55.525 34.4244H53.8438C51.4658 34.4244 49.5312 32.4984 49.5312 30.1309V18.7464C49.5312 16.3791 51.4658 14.453 53.8438 14.453H65.0228C65.6702 14.453 66.1947 13.9284 66.1947 13.2811C66.1947 12.6338 65.6702 12.1092 65.0228 12.1092H53.8438C50.1736 12.1092 47.1875 15.0867 47.1875 18.7464V30.1309C47.1875 33.7906 50.1734 36.7681 53.8438 36.7681H54.9423C54.8836 37.6216 54.6981 38.3491 54.4147 38.8145C54.1283 39.2848 54.1134 39.8773 54.3762 40.3608C54.6386 40.8433 55.1425 41.1523 55.6916 41.1678C55.7997 41.1709 55.9069 41.1723 56.0138 41.1723C59.5056 41.1722 62.1991 39.5484 63.3311 36.7681H73.3438C77.0139 36.7681 80 33.7906 80 30.1309V18.7464C80 15.0869 77.0141 12.1094 73.3438 12.1094Z" fill="black"/>
<path d="M71.8833 19.0481H55.0083C54.361 19.0481 53.8364 19.5727 53.8364 20.22C53.8364 20.8674 54.361 21.3919 55.0083 21.3919H71.8833C72.5306 21.3919 73.0552 20.8674 73.0552 20.22C73.0552 19.5727 72.5305 19.0481 71.8833 19.0481Z" fill="black"/>
<path d="M55.0083 25.6106H61.7841C62.4314 25.6106 62.956 25.0861 62.956 24.4388C62.956 23.7914 62.4314 23.2669 61.7841 23.2669H55.0083C54.361 23.2669 53.8364 23.7914 53.8364 24.4388C53.8364 25.0861 54.361 25.6106 55.0083 25.6106Z" fill="black"/>
<path d="M71.8832 23.2669H66.0137C65.3663 23.2669 64.8418 23.7914 64.8418 24.4388C64.8418 25.0861 65.3663 25.6106 66.0137 25.6106H71.8832C72.5305 25.6106 73.0551 25.0861 73.0551 24.4388C73.0551 23.7914 72.5304 23.2669 71.8832 23.2669Z" fill="black"/>
<path d="M55.0083 29.8294H71.8833C72.5306 29.8294 73.0552 29.3048 73.0552 28.6575C73.0552 28.0101 72.5306 27.4856 71.8833 27.4856H55.0083C54.361 27.4856 53.8364 28.0101 53.8364 28.6575C53.8364 29.3048 54.361 29.8294 55.0083 29.8294Z" fill="black"/>
<path d="M60.2344 51.3492H45.3625V44.8203C45.3625 39.3312 41.1955 34.8316 35.7863 34.3644C35.7461 34.332 35.7047 34.3009 35.6614 34.2717L32.9688 32.4455V31.0906C36.0825 29.8369 38.5216 27.2544 39.5808 24.048C39.8295 24.1061 40.0838 24.1391 40.3423 24.1391C42.4427 24.1391 43.9672 21.9805 43.9672 19.0061C43.9672 16.7023 42.9623 15.0275 41.3806 14.5248C41.7502 13.3019 42.0492 11.7842 42.0492 10.0694C42.0492 7.65688 41.3423 5.75109 39.9481 4.40547C38.3867 2.89828 36.3984 2.55625 35.4341 2.48156C34.5498 1.63516 32.2031 0 27.2698 0C24.0716 0 21.4347 0.740156 19.4322 2.2C18.9092 2.58125 18.7944 3.31437 19.1756 3.83734C19.557 4.36047 20.2898 4.47516 20.813 4.09406C22.4059 2.93266 24.5784 2.34375 27.2698 2.34375C29.9394 2.34375 31.6266 2.89437 32.5719 3.35625C33.4939 3.80703 33.9003 4.26016 33.9595 4.32984C34.1823 4.66031 34.5358 4.81406 34.9383 4.80516C34.957 4.80375 36.9672 4.77141 38.3355 6.10656C39.2444 6.99344 39.7053 8.32672 39.7053 10.0692C39.7053 11.9581 39.2683 13.5789 38.8402 14.7134C38.3603 14.1586 37.7131 13.5217 36.8469 12.8484C36.677 12.7164 36.4953 12.5816 36.3077 12.4427C35.0122 11.4828 34.103 10.7206 34.203 9.64875C34.2612 9.02375 33.8167 8.46391 33.1948 8.37891C32.5733 8.29531 31.9945 8.71422 31.883 9.33172C31.8812 9.34094 31.6653 10.292 30.5228 11.1686C29.2822 12.1203 26.7541 13.1139 21.7548 12.4428C20.2442 12.2406 19.055 13.4825 18.2827 14.662C18.1102 14.1997 17.9398 13.5823 17.8111 12.7658C17.6475 11.7277 17.4875 9.67156 18.253 7.56359C18.4739 6.95531 18.1597 6.28312 17.5514 6.06219C16.943 5.84141 16.2708 6.15531 16.0498 6.76375C15.3495 8.69219 15.1528 10.9533 15.4959 13.1305C15.5823 13.6789 15.6875 14.1658 15.8048 14.6C14.3455 15.1803 13.4295 16.8066 13.4295 19.0059C13.4295 21.9802 14.9541 24.1389 17.0545 24.1389C17.3136 24.1389 17.5683 24.1058 17.8173 24.0473C18.8759 27.2519 21.3133 29.8333 24.428 31.0881V32.4456L21.7355 34.2714C21.6923 34.3008 21.6508 34.3317 21.6106 34.3641C16.2022 34.8312 12.0356 39.3309 12.0356 44.8202V51.3491H7.53609V37.3975L12.1444 32.7892C12.602 32.3314 12.602 31.5895 12.1444 31.1319C11.6867 30.6744 10.9447 30.6744 10.4872 31.1319L5.83594 35.7833C5.42094 36.1981 5.19234 36.75 5.19234 37.3367V51.3492H3.51562C1.57703 51.3492 0 52.9264 0 54.8648C0 56.4503 1.05516 57.7934 2.5 58.2303V63.1461C2.5 65.3941 4.11781 67.27 6.25 67.6739V78.8281C6.25 79.4755 6.77469 80 7.42188 80H44.9211C45.5684 80 46.093 79.4755 46.093 78.8281C46.093 78.1808 45.5684 77.6562 44.9211 77.6562H8.59375V67.7555H55.1562V77.6562H50.0664C49.4191 77.6562 48.8945 78.1808 48.8945 78.8281C48.8945 79.4755 49.4191 80 50.0664 80H56.3281C56.9755 80 57.5 79.4755 57.5 78.8281V67.6739C59.6322 67.27 61.25 65.3941 61.25 63.1461V58.2303C62.6948 57.7934 63.75 56.4502 63.75 54.8648C63.75 52.9264 62.1728 51.3492 60.2344 51.3492ZM32.7803 35.1495L34.0855 36.0347C33.5017 38.1741 32.7064 39.3378 32.1937 39.5175C31.6864 39.6956 31.098 39.4881 30.598 39.1912C31.9289 37.9388 32.5213 36.3884 32.7803 35.1495ZM41.6234 19.0063C41.6234 20.5181 41.0367 21.7955 40.3423 21.7955C40.2548 21.7955 40.1683 21.7828 40.0827 21.7598C40.1306 21.3348 40.1578 20.9036 40.1578 20.4658V17.4433C40.2519 17.2775 40.3808 17.038 40.5273 16.733C40.903 16.8166 41.6234 17.2109 41.6234 19.0063ZM17.0547 21.7953C16.3602 21.7953 15.7734 20.518 15.7734 19.0061C15.7734 17.4381 16.3233 16.9386 16.7127 16.7816C16.8952 17.0703 17.0753 17.2945 17.2405 17.4672V20.4656C17.2405 20.9031 17.2675 21.3344 17.3156 21.7592C17.2297 21.7825 17.1427 21.7953 17.0547 21.7953ZM19.5844 20.4656V17.1636C20.2008 15.7673 21.1256 14.7223 21.4431 14.7661C27.9514 15.6402 31.1642 13.9786 32.7341 12.3364C33.3698 13.1831 34.232 13.8219 34.9125 14.3259C35.085 14.4537 35.2523 14.5777 35.4087 14.6992C36.9298 15.8814 37.5855 16.8752 37.8141 17.2875V20.4656C37.8141 25.4877 33.7277 29.5733 28.6922 29.5733C23.6702 29.5734 19.5844 25.4877 19.5844 20.4656ZM28.7047 31.9172C29.3592 31.9172 30.0002 31.8589 30.625 31.753V33.6078C30.625 33.6133 30.6258 33.6186 30.6258 33.6241C30.5828 34.5173 30.2948 36.4531 28.6986 37.7334C27.0995 36.4509 26.8134 34.5111 26.7712 33.6198C26.7712 33.6158 26.7719 33.6119 26.7719 33.6078V31.7514C27.4006 31.8583 28.0456 31.9172 28.7047 31.9172ZM26.7987 39.1908C26.3027 39.4855 25.7136 39.6964 25.2034 39.5175C24.6908 39.3377 23.8953 38.1739 23.3117 36.0345L24.617 35.1495C24.8759 36.3883 25.4681 37.9383 26.7987 39.1908ZM14.3797 44.8203C14.3797 40.8056 17.2492 37.4738 21.0908 36.7953C22.0516 40.2273 23.4241 41.3772 24.4278 41.7292C24.8102 41.8633 25.2064 41.9298 25.612 41.9298C26.4219 41.9298 27.2681 41.6641 28.1095 41.1391C28.3261 41.0041 28.5233 40.8634 28.6986 40.728C28.8739 40.8634 29.0711 41.0041 29.2877 41.1391C30.1294 41.6641 30.9755 41.9298 31.7853 41.9298C32.1908 41.9298 32.5872 41.8633 32.9694 41.7292C33.9731 41.3775 35.3455 40.2275 36.3066 36.7953C40.1491 37.4738 43.0189 40.8056 43.0189 44.8203V51.3281H14.3797V44.8203ZM58.9062 63.1461C58.9062 64.3953 57.8898 65.4117 56.6406 65.4117H7.10938C5.86016 65.4117 4.84375 64.3953 4.84375 63.1461V58.3805H58.9062V63.1461ZM60.2344 56.0367H3.51562C2.86937 56.0367 2.34375 55.5111 2.34375 54.8648C2.34375 54.2186 2.86937 53.693 3.51562 53.693H60.2344C60.8806 53.693 61.4062 54.2186 61.4062 54.8648C61.4062 55.5111 60.8806 56.0367 60.2344 56.0367Z" fill="black"/>
<path d="M24.3608 18.2281C23.7137 18.2281 23.189 18.7526 23.189 19.4V20.0197C23.189 20.667 23.7137 21.1916 24.3608 21.1916C25.008 21.1916 25.5327 20.667 25.5327 20.0197V19.4C25.5327 18.7528 25.008 18.2281 24.3608 18.2281Z" fill="black"/>
<path d="M33.0361 21.1916C33.6833 21.1916 34.208 20.667 34.208 20.0197V19.4C34.208 18.7526 33.6833 18.2281 33.0361 18.2281C32.3889 18.2281 31.8643 18.7526 31.8643 19.4V20.0197C31.8643 20.667 32.3889 21.1916 33.0361 21.1916Z" fill="black"/>
</svg>
