<svg width="18" height="19" viewBox="0 0 18 19" fill="none" xmlns="http://www.w3.org/2000/svg">
<g clip-path="url(#clip0)">
<path d="M9 0.289062C4.0302 0.289062 0 4.31926 0 9.28906C0 14.2589 4.0302 18.2891 9 18.2891C13.9698 18.2891 18 14.2589 18 9.28906C18 4.31926 13.9698 0.289062 9 0.289062ZM13.1093 7.3063C13.1133 7.39488 13.1152 7.48387 13.1152 7.57327C13.1152 10.303 11.0374 13.4507 7.23766 13.4508H7.23779H7.23766C6.07104 13.4508 4.98546 13.1089 4.07126 12.5229C4.23289 12.542 4.39742 12.5515 4.564 12.5515C5.53189 12.5515 6.42261 12.2213 7.12971 11.6672C6.2254 11.6504 5.46295 11.0532 5.19983 10.2324C5.32576 10.2565 5.45526 10.2697 5.58806 10.2697C5.77661 10.2697 5.95926 10.2443 6.13284 10.1969C5.18761 10.0077 4.47556 9.17233 4.47556 8.17203C4.47556 8.16269 4.47556 8.15431 4.47583 8.14566C4.7542 8.30043 5.07253 8.39354 5.41145 8.40398C4.85678 8.03387 4.49217 7.4012 4.49217 6.68448C4.49217 6.306 4.59448 5.95142 4.77191 5.64613C5.79062 6.8961 7.31305 7.71815 9.02994 7.80453C8.99451 7.6532 8.97624 7.49554 8.97624 7.3335C8.97624 6.19312 9.90143 5.26793 11.0422 5.26793C11.6364 5.26793 12.1731 5.5191 12.5501 5.92065C13.0207 5.82782 13.4626 5.65588 13.8619 5.41927C13.7074 5.90143 13.38 6.306 12.9534 6.56184C13.3713 6.51186 13.7696 6.40103 14.1397 6.23651C13.8632 6.65083 13.5126 7.01476 13.1093 7.3063Z" fill="white"/>
</g>
<defs>
<clipPath id="clip0">
<rect width="18" height="18" fill="white" transform="translate(0 0.289062)"/>
</clipPath>
</defs>
</svg>
