<svg width="435" height="302" viewBox="0 0 435 302" fill="none" xmlns="http://www.w3.org/2000/svg">
<g clip-path="url(#clip0)">
<path d="M203.402 133.206C203.402 191.831 168.553 212.301 125.564 212.301C82.5757 212.301 47.7266 191.831 47.7266 133.206C47.7266 74.5805 125.564 0 125.564 0C125.564 0 203.402 74.5805 203.402 133.206Z" fill="#FFEDD7"/>
<path d="M122.728 203.333L123.525 154.269L156.701 93.5696L123.65 146.572L124.008 124.511L146.873 80.5957L124.103 118.673L124.748 78.9947L149.232 44.0327L124.849 72.7553L125.252 0L122.721 96.315L122.929 92.3416L98.0356 54.2354L122.53 99.9689L120.21 144.282L120.141 143.106L91.4434 103.005L120.054 147.262L119.764 152.803L119.712 152.887L119.736 153.342L113.851 265.769H121.714L122.657 207.698L151.197 163.55L122.728 203.333Z" fill="#3F3D56"/>
<path d="M435 157.217C435 205.204 406.474 221.96 371.286 221.96C336.098 221.96 307.572 205.204 307.572 157.217C307.572 109.229 371.286 48.1816 371.286 48.1816C371.286 48.1816 435 109.229 435 157.217Z" fill="#FFEDD7"/>
<path d="M368.965 214.619L369.618 174.458L396.774 124.773L369.72 168.158L370.013 150.1L388.73 114.153L370.091 145.321L370.619 112.843L390.66 84.2244L370.701 107.736L371.031 48.1816L368.96 127.02L369.13 123.768L348.753 92.5757L368.803 130.011L366.904 166.284L366.848 165.321L343.357 132.496L366.777 168.722L366.539 173.258L366.497 173.327L366.516 173.699L361.699 265.726H368.135L368.907 218.192L392.269 182.055L368.965 214.619Z" fill="#3F3D56"/>
<path d="M215.286 275.057C334.185 275.057 430.572 270.184 430.572 264.173C430.572 258.163 334.185 253.29 215.286 253.29C96.3868 253.29 0 258.163 0 264.173C0 270.184 96.3868 275.057 215.286 275.057Z" fill="#3F3D56"/>
<path d="M346.436 284.019C366.8 284.019 383.309 283.184 383.309 282.155C383.309 281.125 366.8 280.291 346.436 280.291C326.071 280.291 309.562 281.125 309.562 282.155C309.562 283.184 326.071 284.019 346.436 284.019Z" fill="#3F3D56"/>
<path d="M213.006 302C233.371 302 249.88 301.165 249.88 300.136C249.88 299.106 233.371 298.272 213.006 298.272C192.642 298.272 176.133 299.106 176.133 300.136C176.133 301.165 192.642 302 213.006 302Z" fill="#3F3D56"/>
<path d="M111.777 289.318C158.303 289.318 196.02 287.411 196.02 285.059C196.02 282.707 158.303 280.801 111.777 280.801C65.2517 280.801 27.5352 282.707 27.5352 285.059C27.5352 287.411 65.2517 289.318 111.777 289.318Z" fill="#3F3D56"/>
<path d="M51.3784 244.068L42.0625 243.958L41.8658 260.65L51.1817 260.76L51.3784 244.068Z" fill="#2F2E41"/>
<path d="M38.758 260.808C38.7769 259.2 35.3166 257.855 31.0291 257.805C26.7416 257.754 23.2505 259.017 23.2316 260.625C23.2126 262.233 26.673 263.577 30.9605 263.628C35.248 263.678 38.739 262.416 38.758 260.808Z" fill="#2F2E41"/>
<path d="M57.3928 260.639C57.4117 259.031 53.9513 257.687 49.6638 257.636C45.3763 257.586 41.8853 258.848 41.8663 260.456C41.8474 262.064 45.3077 263.409 49.5952 263.459C53.8827 263.51 57.3738 262.247 57.3928 260.639Z" fill="#2F2E41"/>
<path d="M84.4658 236.945C84.4658 258.326 71.7566 265.792 56.0776 265.792C55.7144 265.792 55.3518 265.788 54.9897 265.78C54.2632 265.764 53.5437 265.73 52.8329 265.681C38.6829 264.68 27.6895 256.83 27.6895 236.945C27.6895 216.366 53.9848 190.399 55.96 188.478L55.9634 188.474C56.0396 188.4 56.0776 188.363 56.0776 188.363C56.0776 188.363 84.4658 215.564 84.4658 236.945Z" fill="#FFB459"/>
<path d="M55.0431 262.521L65.4259 248.012L55.0171 264.114L54.9895 265.78C54.263 265.764 53.5435 265.73 52.8326 265.681L53.9517 244.29L53.9431 244.123L53.9621 244.092L54.0676 242.072L43.6328 225.93L54.1004 240.557L54.1247 240.986L54.9704 224.823L46.037 208.143L55.0794 221.986L55.9598 188.478L55.9632 188.363V188.474L55.8162 214.898L64.7099 204.422L55.7799 217.174L55.5447 231.645L63.8486 217.757L55.5101 233.774L55.3787 241.819L67.4341 222.49L55.3337 244.627L55.0431 262.521Z" fill="#3F3D56"/>
<path d="M279.194 243.88L270.289 246.617L275.193 262.574L284.098 259.836L279.194 243.88Z" fill="#2F2E41"/>
<path d="M297.005 238.407L288.1 241.144L293.003 257.101L301.909 254.364L297.005 238.407Z" fill="#2F2E41"/>
<path d="M283.526 263.261C287.625 262.002 290.565 259.734 290.092 258.197C289.62 256.66 285.914 256.435 281.816 257.695C277.717 258.955 274.777 261.222 275.25 262.759C275.722 264.296 279.428 264.521 283.526 263.261Z" fill="#2F2E41"/>
<path d="M301.224 257.416C305.322 256.156 308.262 253.889 307.789 252.352C307.317 250.815 303.612 250.59 299.513 251.85C295.414 253.11 292.475 255.377 292.947 256.914C293.419 258.451 297.125 258.676 301.224 257.416Z" fill="#2F2E41"/>
<path d="M221.886 233.03C221.886 252.657 210.219 259.51 195.827 259.51C195.493 259.51 195.16 259.506 194.828 259.499C194.161 259.484 193.501 259.453 192.848 259.408C179.859 258.489 169.768 251.283 169.768 233.03C169.768 214.139 193.905 190.303 195.719 188.539L195.722 188.536C195.792 188.467 195.827 188.434 195.827 188.434C195.827 188.434 221.886 213.403 221.886 233.03Z" fill="#FFB459"/>
<path d="M194.876 256.507L204.407 243.189L194.853 257.97L194.827 259.499C194.16 259.485 193.5 259.453 192.847 259.408L193.875 239.772L193.867 239.619L193.884 239.591L193.981 237.736L184.402 222.918L194.011 236.345L194.033 236.739L194.81 221.902L186.609 206.591L194.91 219.298L195.718 188.539L195.721 188.434V188.536L195.586 212.791L203.75 203.175L195.553 214.881L195.337 228.165L202.959 215.416L195.305 230.119L195.184 237.504L206.251 219.76L195.143 240.081L194.876 256.507Z" fill="#3F3D56"/>
<path d="M324.366 241.215C324.366 262.597 311.657 270.062 295.978 270.062C295.615 270.062 295.252 270.058 294.89 270.05C294.164 270.035 293.444 270 292.733 269.952C278.583 268.95 267.59 261.101 267.59 241.215C267.59 220.637 293.885 194.67 295.86 192.748L295.864 192.745C295.94 192.67 295.978 192.634 295.978 192.634C295.978 192.634 324.366 219.834 324.366 241.215Z" fill="#FFB459"/>
<path d="M294.943 266.791L305.326 252.282L294.918 268.385L294.89 270.05C294.163 270.035 293.444 270 292.733 269.952L293.852 248.56L293.843 248.394L293.862 248.363L293.968 246.342L283.533 230.2L294.001 244.827L294.025 245.256L294.871 229.093L285.937 212.413L294.98 226.257L295.86 192.748L295.864 192.634V192.745L295.717 219.168L304.61 208.693L295.68 221.445L295.445 235.916L303.749 222.027L295.41 238.045L295.279 246.09L307.334 226.76L295.234 248.897L294.943 266.791Z" fill="#3F3D56"/>
</g>
<defs>
<clipPath id="clip0">
<rect width="435" height="302" fill="white"/>
</clipPath>
</defs>
</svg>
