<svg width="80" height="80" viewBox="0 0 80 80" fill="none" xmlns="http://www.w3.org/2000/svg">
<path d="M68.75 45H7.5C6.81 45 6.25 44.44 6.25 43.75V6.25C6.25 5.56 6.81 5 7.5 5H68.75C69.44 5 70 5.56 70 6.25V43.75C70 44.44 69.44 45 68.75 45Z" fill="#C2C2C2"/>
<path d="M68.75 45.625H7.5C6.46625 45.625 5.625 44.7837 5.625 43.75V6.25C5.625 5.21625 6.46625 4.375 7.5 4.375H68.75C69.7838 4.375 70.625 5.21625 70.625 6.25V43.75C70.625 44.7837 69.7838 45.625 68.75 45.625ZM7.5 5.625C7.155 5.625 6.875 5.90625 6.875 6.25V43.75C6.875 44.0938 7.155 44.375 7.5 44.375H68.75C69.095 44.375 69.375 44.0938 69.375 43.75V6.25C69.375 5.90625 69.095 5.625 68.75 5.625H7.5Z" fill="#212A41"/>
<path d="M72.5 45H11.25C10.56 45 10 44.44 10 43.75V6.25C10 5.56 10.56 5 11.25 5H72.5C73.19 5 73.75 5.56 73.75 6.25V43.75C73.75 44.44 73.19 45 72.5 45Z" fill="#E0E0E0"/>
<path d="M72.5 45.625H11.25C10.2162 45.625 9.375 44.7837 9.375 43.75V6.25C9.375 5.21625 10.2162 4.375 11.25 4.375H72.5C73.5338 4.375 74.375 5.21625 74.375 6.25V43.75C74.375 44.7837 73.5338 45.625 72.5 45.625ZM11.25 5.625C10.905 5.625 10.625 5.90625 10.625 6.25V43.75C10.625 44.0938 10.905 44.375 11.25 44.375H72.5C72.845 44.375 73.125 44.0938 73.125 43.75V6.25C73.125 5.90625 72.845 5.625 72.5 5.625H11.25Z" fill="#212A41"/>
<path d="M20.1138 15.625H35.1138V34.375H20.1138V15.625Z" fill="#F9AC2F"/>
<path d="M35.1138 35H20.1138C19.7688 35 19.4888 34.72 19.4888 34.375V15.625C19.4888 15.28 19.7688 15 20.1138 15H35.1138C35.4588 15 35.7388 15.28 35.7388 15.625V34.375C35.7388 34.72 35.4588 35 35.1138 35ZM20.7388 33.75H34.4888V16.25H20.7388V33.75Z" fill="#212A41"/>
<path d="M41.3638 15.625H63.8638V19.375H41.3638V15.625Z" fill="#B7C0D7"/>
<path d="M63.8638 20H41.3638C41.0188 20 40.7388 19.72 40.7388 19.375V15.625C40.7388 15.28 41.0188 15 41.3638 15H63.8638C64.2088 15 64.4888 15.28 64.4888 15.625V19.375C64.4888 19.72 64.2088 20 63.8638 20ZM41.9888 18.75H63.2388V16.25H41.9888V18.75Z" fill="#212A41"/>
<path d="M41.3638 23.125H63.8638V26.875H41.3638V23.125Z" fill="#B7C0D7"/>
<path d="M63.8638 27.5H41.3638C41.0188 27.5 40.7388 27.22 40.7388 26.875V23.125C40.7388 22.78 41.0188 22.5 41.3638 22.5H63.8638C64.2088 22.5 64.4888 22.78 64.4888 23.125V26.875C64.4888 27.22 64.2088 27.5 63.8638 27.5ZM41.9888 26.25H63.2388V23.75H41.9888V26.25Z" fill="#212A41"/>
<path d="M41.3638 30.625H63.8638V34.375H41.3638V30.625Z" fill="#B7C0D7"/>
<path d="M63.8638 35H41.3638C41.0188 35 40.7388 34.72 40.7388 34.375V30.625C40.7388 30.28 41.0188 30 41.3638 30H63.8638C64.2088 30 64.4888 30.28 64.4888 30.625V34.375C64.4888 34.72 64.2088 35 63.8638 35ZM41.9888 33.75H63.2388V31.25H41.9888V33.75Z" fill="#212A41"/>
<path d="M68.75 75H7.5C6.81 75 6.25 74.44 6.25 73.75V71.25C6.25 70.56 6.81 70 7.5 70H68.75C69.44 70 70 70.56 70 71.25V73.75C70 74.44 69.44 75 68.75 75Z" fill="#C2C2C2"/>
<path d="M68.75 75.625H7.5C6.46625 75.625 5.625 74.7838 5.625 73.75V71.25C5.625 70.2162 6.46625 69.375 7.5 69.375H68.75C69.7838 69.375 70.625 70.2162 70.625 71.25V73.75C70.625 74.7838 69.7838 75.625 68.75 75.625ZM7.5 70.625C7.155 70.625 6.875 70.9062 6.875 71.25V73.75C6.875 74.0938 7.155 74.375 7.5 74.375H68.75C69.095 74.375 69.375 74.0938 69.375 73.75V71.25C69.375 70.9062 69.095 70.625 68.75 70.625H7.5Z" fill="#212A41"/>
<path d="M72.5 75H11.25C10.56 75 10 74.44 10 73.75V71.25C10 70.56 10.56 70 11.25 70H72.5C73.19 70 73.75 70.56 73.75 71.25V73.75C73.75 74.44 73.19 75 72.5 75Z" fill="#E0E0E0"/>
<path d="M72.5 75.625H11.25C10.2162 75.625 9.375 74.7838 9.375 73.75V71.25C9.375 70.2162 10.2162 69.375 11.25 69.375H72.5C73.5338 69.375 74.375 70.2162 74.375 71.25V73.75C74.375 74.7838 73.5338 75.625 72.5 75.625ZM11.25 70.625C10.905 70.625 10.625 70.9062 10.625 71.25V73.75C10.625 74.0938 10.905 74.375 11.25 74.375H72.5C72.845 74.375 73.125 74.0938 73.125 73.75V71.25C73.125 70.9062 72.845 70.625 72.5 70.625H11.25Z" fill="#212A41"/>
<path d="M56.25 60C59.0114 60 61.25 57.7614 61.25 55C61.25 52.2386 59.0114 50 56.25 50C53.4886 50 51.25 52.2386 51.25 55C51.25 57.7614 53.4886 60 56.25 60Z" fill="#E0C8A4"/>
<path d="M56.25 60.625C53.1488 60.625 50.625 58.1012 50.625 55C50.625 51.8988 53.1488 49.375 56.25 49.375C59.3512 49.375 61.875 51.8988 61.875 55C61.875 58.1012 59.3512 60.625 56.25 60.625ZM56.25 50.625C53.8375 50.625 51.875 52.5875 51.875 55C51.875 57.4125 53.8375 59.375 56.25 59.375C58.6625 59.375 60.625 57.4125 60.625 55C60.625 52.5875 58.6625 50.625 56.25 50.625Z" fill="#212A41"/>
<path d="M61.25 60H51.25C48.4887 60 46.25 62.2387 46.25 65V66.2687H43.75V70.0187H50V75H62.5V70H66.25V65C66.25 62.2387 64.0112 60 61.25 60Z" fill="#0079A8"/>
<path d="M62.5 75.625H50C49.655 75.625 49.375 75.345 49.375 75V70.6437H43.75C43.405 70.6437 43.125 70.3637 43.125 70.0187V66.2687C43.125 65.9237 43.405 65.6437 43.75 65.6437H45.625V65C45.625 61.8988 48.1488 59.375 51.25 59.375H61.25C64.3512 59.375 66.875 61.8988 66.875 65V70C66.875 70.345 66.595 70.625 66.25 70.625H63.125V75C63.125 75.345 62.845 75.625 62.5 75.625ZM50.625 74.375H61.875V70C61.875 69.655 62.155 69.375 62.5 69.375H65.625V65C65.625 62.5875 63.6625 60.625 61.25 60.625H51.25C48.8375 60.625 46.875 62.5875 46.875 65V66.2687C46.875 66.6137 46.595 66.8937 46.25 66.8937H44.375V69.3937H50C50.345 69.3937 50.625 69.6737 50.625 70.0187V74.375Z" fill="#212A41"/>
<path d="M50 70.6438C49.655 70.6438 49.375 70.3638 49.375 70.0188V66.2688C49.375 65.9238 49.655 65.6438 50 65.6438C50.345 65.6438 50.625 65.9238 50.625 66.2688V70.0188C50.625 70.3638 50.345 70.6438 50 70.6438Z" fill="#212A41"/>
<path d="M62.5 70.6438C62.155 70.6438 61.875 70.3638 61.875 70.0188V66.2688C61.875 65.9238 62.155 65.6438 62.5 65.6438C62.845 65.6438 63.125 65.9238 63.125 66.2688V70.0188C63.125 70.3638 62.845 70.6438 62.5 70.6438Z" fill="#212A41"/>
<path d="M26.25 60C29.0114 60 31.25 57.7614 31.25 55C31.25 52.2386 29.0114 50 26.25 50C23.4886 50 21.25 52.2386 21.25 55C21.25 57.7614 23.4886 60 26.25 60Z" fill="#E0C8A4"/>
<path d="M26.25 60.625C23.1488 60.625 20.625 58.1012 20.625 55C20.625 51.8988 23.1488 49.375 26.25 49.375C29.3512 49.375 31.875 51.8988 31.875 55C31.875 58.1012 29.3512 60.625 26.25 60.625ZM26.25 50.625C23.8375 50.625 21.875 52.5875 21.875 55C21.875 57.4125 23.8375 59.375 26.25 59.375C28.6625 59.375 30.625 57.4125 30.625 55C30.625 52.5875 28.6625 50.625 26.25 50.625Z" fill="#212A41"/>
<path d="M31.25 60H21.25C18.4887 60 16.25 62.2387 16.25 65V66.2687H13.75V70.0187H20V75H32.5V70H36.25V65C36.25 62.2387 34.0112 60 31.25 60Z" fill="#0079A8"/>
<path d="M32.5 75.625H20C19.655 75.625 19.375 75.345 19.375 75V70.6437H13.75C13.405 70.6437 13.125 70.3637 13.125 70.0187V66.2687C13.125 65.9237 13.405 65.6437 13.75 65.6437H15.625V65C15.625 61.8988 18.1488 59.375 21.25 59.375H31.25C34.3512 59.375 36.875 61.8988 36.875 65V70C36.875 70.345 36.595 70.625 36.25 70.625H33.125V75C33.125 75.345 32.845 75.625 32.5 75.625ZM20.625 74.375H31.875V70C31.875 69.655 32.155 69.375 32.5 69.375H35.625V65C35.625 62.5875 33.6625 60.625 31.25 60.625H21.25C18.8375 60.625 16.875 62.5875 16.875 65V66.2687C16.875 66.6137 16.595 66.8937 16.25 66.8937H14.375V69.3937H20C20.345 69.3937 20.625 69.6737 20.625 70.0187V74.375Z" fill="#212A41"/>
<path d="M20 70.6438C19.655 70.6438 19.375 70.3638 19.375 70.0188V66.2688C19.375 65.9238 19.655 65.6438 20 65.6438C20.345 65.6438 20.625 65.9238 20.625 66.2688V70.0188C20.625 70.3638 20.345 70.6438 20 70.6438Z" fill="#212A41"/>
<path d="M32.5 70.6438C32.155 70.6438 31.875 70.3638 31.875 70.0188V66.2688C31.875 65.9238 32.155 65.6438 32.5 65.6438C32.845 65.6438 33.125 65.9238 33.125 66.2688V70.0188C33.125 70.3638 32.845 70.6438 32.5 70.6438Z" fill="#212A41"/>
<path d="M71.25 43.125C70.905 43.125 70.625 42.845 70.625 42.5V7.5C70.625 7.155 70.905 6.875 71.25 6.875C71.595 6.875 71.875 7.155 71.875 7.5V42.5C71.875 42.845 71.595 43.125 71.25 43.125Z" fill="#C2C2C2"/>
<path d="M12.5 43.125C12.155 43.125 11.875 42.845 11.875 42.5V7.5C11.875 7.155 12.155 6.875 12.5 6.875C12.845 6.875 13.125 7.155 13.125 7.5V42.5C13.125 42.845 12.845 43.125 12.5 43.125Z" fill="#FEFEFE"/>
</svg>
